<svg width="100" height="100" viewBox="0 0 100 100" fill="none" xmlns="http://www.w3.org/2000/svg">
<rect width="100" height="100" fill="#78AC84"/>
<path d="M38.1791 22.2143C36.4589 22.2143 34.7724 22.2143 33.0521 22.2143C33.0184 22.2818 32.9172 22.3492 32.9172 22.4167C32.9172 22.8552 32.9172 23.2937 32.9172 23.7659C32.9172 25.3175 32.9172 26.8691 32.8834 28.4207C32.8834 29.7362 32.8497 31.0854 32.8497 32.4009C32.8497 32.4346 32.8497 32.5021 32.8497 32.5358C32.8497 33.6489 32.816 34.762 32.816 35.8414C32.816 38.5398 32.7823 41.2383 32.7823 43.9367C32.7823 46.8375 32.7823 49.7384 32.816 52.6392C32.816 53.1789 32.8497 53.7523 32.8834 54.3257H57.9452V53.2801C58.35 53.2801 58.7885 53.2801 59.1932 53.2801V55.5737C59.0583 55.5737 58.9234 55.5737 58.7547 55.5737C49.9848 55.5737 41.1811 55.5737 32.4112 55.5737C31.9727 55.5737 31.7703 55.4051 31.6692 55.0003C31.6354 54.7642 31.6017 54.4944 31.6017 54.2582C31.568 53.3138 31.5342 52.4031 31.5342 51.4586C31.5005 49.0975 31.4668 46.7364 31.4668 44.409C31.5005 42.6887 31.5005 40.9684 31.5005 39.2482C31.5342 37.0557 31.568 34.8632 31.6017 32.7045C31.6017 31.9624 31.6017 31.2203 31.6017 30.4445C31.6017 29.9048 31.6354 29.3652 31.6354 28.8255C31.6354 28.4882 31.6692 28.1846 31.6692 27.8473C31.6692 27.2401 31.6692 26.633 31.6692 26.0258C31.6692 24.8453 31.7029 23.6647 31.7029 22.4841C31.7029 22.248 31.7029 22.0456 31.7029 21.8095C31.7703 21.5397 31.8041 21.2698 31.8378 21C31.939 21 32.0402 21 32.1076 21C40.9788 21 49.8499 21 58.721 21C58.8222 21 58.9234 21 58.9908 21C59.0246 21.0337 59.0246 21.0337 59.0583 21.0675C59.0583 22.9226 59.0583 24.7778 59.0583 26.633C58.6535 26.633 58.2825 26.633 57.8777 26.633C57.8777 25.5536 57.844 24.4405 57.844 23.3611C57.844 22.9901 57.9452 22.5179 57.7428 22.2818C57.5742 22.1131 57.0682 22.2143 56.6972 22.2143C55.3817 22.2143 54.0662 22.2143 52.717 22.2143C52.4809 22.2143 52.3122 22.2818 52.1773 22.4841C51.6376 23.2599 51.0642 24.002 50.5245 24.7778C50.457 24.9465 50.3221 25.0477 50.0523 25.0477C46.8816 25.0477 43.6772 25.0477 40.5065 25.0477C40.2367 25.0477 40.068 24.9465 39.9331 24.7441C39.3934 23.9683 38.8537 23.1588 38.3141 22.3829L38.1791 22.2143ZM50.8281 22.3155C50.7943 22.2818 50.7606 22.2818 50.7606 22.248C50.6257 22.248 50.4908 22.248 50.3221 22.248C47.2864 22.248 44.2506 22.248 41.1811 22.248C40.7764 22.248 40.3379 22.248 39.9331 22.248C39.8994 22.248 39.8319 22.2818 39.7982 22.2818L39.9331 22.4504C40.203 22.8214 40.4391 23.2262 40.7089 23.5635C40.7764 23.6647 40.945 23.7659 41.08 23.7659C43.9133 23.7659 46.7467 23.7659 49.58 23.7659C49.6812 23.7659 49.8499 23.7659 49.8836 23.6984C50.1872 23.2599 50.4908 22.754 50.8281 22.3155Z" fill="white"/>
<path d="M56.5622 37.7978C56.6297 37.7978 56.7309 37.764 56.7984 37.764C58.4174 37.764 60.0028 37.764 61.5881 37.764C61.6218 37.764 61.6893 37.764 61.723 37.7978C61.7567 37.8315 61.7905 37.8652 61.8242 37.8652C61.8242 38.9446 61.8579 40.024 61.8579 41.1034C61.8579 41.5081 61.8579 41.9466 61.8579 42.4189H66.479C66.479 44.1391 66.479 45.7919 66.479 47.4447C66.4453 47.4784 66.4115 47.5122 66.3441 47.5459C65.0623 47.5459 63.7806 47.5796 62.4988 47.5796C61.8917 47.5796 61.9591 47.5122 61.9591 48.1193C61.9591 49.2324 61.9591 50.3455 61.9591 51.4586C61.9591 51.7285 61.8917 51.7959 61.6555 51.7959C60.0028 51.7959 58.35 51.7959 56.7309 51.7959C56.4611 51.7959 56.4273 51.6947 56.4273 51.4586C56.4273 50.3118 56.4273 49.1649 56.4273 48.0181C56.4273 47.6471 56.3261 47.5796 55.9888 47.5796C54.7071 47.5796 53.3916 47.5796 52.1098 47.5459C52.0761 47.5122 52.0761 47.4784 52.0424 47.4447C52.0086 47.4447 52.0086 47.4447 51.9749 47.4447V42.4526C52.0761 42.4526 52.211 42.4526 52.3122 42.4526C53.6277 42.4526 54.9095 42.4863 56.2249 42.52C56.4273 42.52 56.596 42.52 56.5622 42.2502C56.5622 40.7323 56.5622 39.2819 56.5622 37.7978ZM53.2567 43.7006C53.2229 43.7006 53.1892 43.7006 53.1555 43.6669C53.1892 43.7006 53.2229 43.7343 53.2229 43.7681V46.3316H57.0345C57.2369 46.3653 57.4392 46.399 57.6416 46.4328C57.6416 47.6808 57.6753 48.8951 57.6416 50.1431C57.6416 50.4467 57.7091 50.5816 58.0464 50.5816C58.8222 50.5479 59.5643 50.5816 60.3401 50.5816C60.4412 50.5816 60.5762 50.5816 60.7111 50.5479V46.4665L60.9472 46.3653C62.094 46.3653 63.2409 46.3653 64.354 46.3653C64.8937 46.3653 65.1635 46.0955 65.1635 45.5558C65.1635 44.9486 65.1635 44.3415 65.1635 43.7343C65.0623 43.7343 64.9949 43.7006 64.9274 43.7006C63.6119 43.7006 62.2964 43.7006 61.0147 43.7006C60.8797 43.7006 60.7111 43.6332 60.5762 43.5657V43.532C60.5762 43.4645 60.5762 43.3633 60.5762 43.2621V43.2284C60.5762 43.1609 60.5762 43.0597 60.5762 42.9585V42.9248C60.5762 42.8573 60.5762 42.7562 60.5762 42.655V42.6212C60.5762 42.5538 60.5762 42.4526 60.5762 42.3514V42.3177C60.5762 42.2502 60.5762 42.149 60.5762 42.0478V42.0141C60.5762 41.9466 60.5762 41.8454 60.5762 41.7442V41.7105C60.5762 41.6431 60.5762 41.5419 60.5762 41.4407V41.4069C60.5762 41.3395 60.5762 41.2383 60.5762 41.1371V41.1034C60.5762 41.0359 60.5762 40.9347 60.5762 40.8335V40.7998C60.5762 40.7323 60.5762 40.6311 60.5762 40.5299V40.4962C60.5762 40.4288 60.5762 40.3276 60.5762 40.2264V40.1926C60.5762 40.1252 60.5762 40.024 60.5762 39.9228V39.8891C60.5762 39.8216 60.5762 39.7204 60.5762 39.6192V39.5855C60.5762 39.518 60.5762 39.4168 60.5762 39.3156V39.2819C60.5762 39.2145 60.5762 39.1133 60.5762 39.0121V39.2145C60.5424 39.147 60.475 39.0458 60.4412 39.0458C59.5643 39.0458 58.6873 39.0458 57.7428 39.0458V43.7343C57.5404 43.7343 57.4055 43.7343 57.2706 43.7343C55.9551 43.7343 54.6059 43.7343 53.2904 43.7681C53.2904 43.7343 53.2904 43.7343 53.2567 43.7006Z" fill="white"/>
<path d="M37.6394 35.1668V33.9862H54.336V35.1668H37.6394Z" fill="white"/>
<path d="M37.6732 28.8255C37.7744 28.8255 37.8756 28.7917 38.0105 28.7917C43.3399 28.7917 48.703 28.7917 54.0325 28.7917C54.0999 28.7917 54.2011 28.7917 54.3023 28.7917V30.0398H37.6394V28.9267C37.6394 28.8929 37.6732 28.8592 37.6732 28.8255Z" fill="white"/>
<path d="M37.7069 39.0458C37.8418 39.0458 37.943 39.0121 38.0779 39.0121C43.3736 39.0121 48.6356 39.0121 53.9313 39.0121C54.0325 39.0121 54.1674 39.0458 54.3023 39.0458C54.336 39.0795 54.336 39.1133 54.3698 39.147C54.3698 39.4843 54.3698 39.8216 54.3698 40.1589C54.336 40.1926 54.336 40.2264 54.3023 40.2601C54.2011 40.2601 54.0999 40.2938 53.9987 40.2938C48.6693 40.2938 43.3399 40.2938 38.0442 40.2938C37.943 40.2938 37.8418 40.2938 37.7744 40.2601C37.7406 40.2264 37.7406 40.1926 37.7069 40.1589C37.7069 39.8216 37.7069 39.4843 37.7069 39.147C37.6394 39.147 37.6732 39.1133 37.7069 39.0458Z" fill="white"/>
<path d="M37.6394 49.7384H54.336V50.9527H37.6394V49.7384Z" fill="white"/>
<path d="M51.1654 45.6232C50.9967 45.6232 50.8281 45.6232 50.6594 45.6232C46.4768 45.6232 42.2605 45.6232 38.0779 45.6232C37.943 45.6232 37.8081 45.6232 37.6732 45.6232C37.6394 45.5895 37.6394 45.5558 37.6057 45.5221V44.409H51.2328V45.5221C51.1991 45.5558 51.1991 45.5558 51.1654 45.5895V45.6232Z" fill="white"/>
<path d="M31.6692 26.0258C31.6692 26.633 31.6692 27.2401 31.6692 27.8473C31.6354 27.8136 31.6017 27.7798 31.6017 27.7798C31.6017 27.2401 31.6017 26.6667 31.6017 26.127C31.6017 26.0933 31.6354 26.0596 31.6692 26.0258Z" fill="white"/>
<path d="M59.2269 53.3138C58.8222 53.3138 58.3837 53.3138 57.9789 53.3138C57.9789 53.2801 58.0127 53.2126 58.0127 53.2126C58.3837 53.2126 58.7885 53.2126 59.1595 53.2126C59.1932 53.1789 59.1932 53.2801 59.2269 53.3138Z" fill="white"/>
<path d="M57.9115 26.633C58.3162 26.633 58.6873 26.633 59.092 26.633C59.0246 26.6667 58.9908 26.7679 58.9234 26.7679C58.6535 26.7679 58.35 26.7679 58.0801 26.7679C58.0127 26.7679 57.9452 26.6667 57.9115 26.633Z" fill="white"/>
<path d="M31.8378 21C31.8041 21.2698 31.7703 21.5397 31.7366 21.8095C31.7366 21.6071 31.7029 21.371 31.7029 21.1687C31.7029 21.1012 31.8041 21.0675 31.8378 21Z" fill="white"/>
<path d="M37.6057 45.5221C37.6394 45.5558 37.6394 45.5895 37.6732 45.6232C37.6394 45.6232 37.6057 45.6232 37.572 45.6232C37.572 45.5895 37.6057 45.5558 37.6057 45.5221Z" fill="white"/>
<path d="M66.3778 47.5796C66.4115 47.5459 66.4453 47.5122 66.5127 47.4784C66.479 47.5122 66.4115 47.5459 66.3778 47.5796Z" fill="white"/>
<path d="M37.7069 39.0458C37.6732 39.0795 37.6394 39.1133 37.6057 39.147C37.6057 39.1133 37.572 39.0795 37.572 39.0458C37.6057 39.0458 37.6732 39.0458 37.7069 39.0458Z" fill="white"/>
<path d="M51.9749 47.4447C52.0086 47.4447 52.0086 47.4447 52.0424 47.4447C52.0424 47.4784 52.0424 47.5122 52.0424 47.5459C52.0424 47.5796 52.0086 47.5796 52.0086 47.6133C52.0086 47.5796 52.0086 47.5122 51.9749 47.4447Z" fill="white"/>
<path d="M61.8579 37.8652C61.8242 37.8315 61.7905 37.7978 61.7567 37.7978C61.7905 37.8315 61.8242 37.8315 61.8579 37.8652Z" fill="white"/>
<path d="M54.2686 40.2601C54.3023 40.2264 54.3023 40.1926 54.336 40.1589C54.3023 40.2264 54.2686 40.2264 54.2686 40.2601Z" fill="white"/>
<path d="M37.6394 40.1926C37.6732 40.2264 37.6732 40.2601 37.7069 40.2938C37.6732 40.2264 37.6394 40.2264 37.6394 40.1926Z" fill="white"/>
<path d="M59.092 21.0675C59.0583 21.0337 59.0583 21.0337 59.0246 21C59.0583 21.0337 59.092 21.0337 59.092 21.0675Z" fill="white"/>
<path d="M51.2666 45.5895C51.2328 45.5895 51.1991 45.5895 51.1654 45.5895C51.1991 45.5558 51.1991 45.5558 51.2328 45.5221C51.2328 45.5558 51.2666 45.5558 51.2666 45.5895Z" fill="white"/>
<path d="M52.0424 47.5796C52.0424 47.5459 52.0424 47.5122 52.0424 47.4784C52.0761 47.5122 52.0761 47.5459 52.1098 47.5796C52.0761 47.5796 52.0761 47.5796 52.0424 47.5796Z" fill="white"/>
<path d="M37.6732 28.8255C37.6394 28.8592 37.6394 28.8929 37.6057 28.9267C37.6394 28.8929 37.6732 28.8592 37.6732 28.8255Z" fill="white"/>
<path d="M57.0682 46.3316C57.2706 46.3316 57.5067 46.1629 57.6753 46.4328C57.473 46.399 57.2706 46.3653 57.0682 46.3316Z" fill="white"/>
<path d="M60.7448 46.4328C60.8123 46.399 60.9135 46.3653 60.9809 46.3316C60.9135 46.3653 60.846 46.399 60.7448 46.4328Z" fill="white"/>
<path d="M53.2229 43.7681C53.1892 43.7343 53.1555 43.7006 53.1555 43.6669C53.1892 43.6669 53.2229 43.6669 53.2567 43.7006C53.2567 43.7343 53.2567 43.7681 53.2229 43.7681Z" fill="white"/>
<path d="M60.6436 41.5419C60.6099 41.5419 60.6099 41.5419 60.5762 41.5419C60.6099 41.5419 60.6099 41.5419 60.6436 41.5081C60.6436 41.5081 60.6436 41.5081 60.6436 41.5419Z" fill="white"/>
<path d="M60.6436 42.3851C60.6099 42.3851 60.6099 42.3851 60.5762 42.3851C60.6099 42.3851 60.6099 42.3851 60.6436 42.3514C60.6436 42.3851 60.6436 42.3851 60.6436 42.3851Z" fill="white"/>
<path d="M60.6436 42.6887C60.6099 42.6887 60.6099 42.6887 60.5762 42.6887C60.6099 42.655 60.6099 42.655 60.6436 42.6887C60.6436 42.655 60.6436 42.655 60.6436 42.6887Z" fill="white"/>
<path d="M60.6436 43.2621C60.6099 43.2621 60.6099 43.2621 60.5762 43.2621C60.6099 43.2284 60.6099 43.2284 60.6436 43.2621Z" fill="white"/>
<path d="M60.6436 40.9684C60.6099 40.9684 60.6099 40.9684 60.5762 40.9684C60.6099 40.9684 60.6099 40.9684 60.6436 40.9347C60.6436 40.9347 60.6436 40.9347 60.6436 40.9684Z" fill="white"/>
<path d="M60.6436 40.3613C60.6099 40.3613 60.6099 40.3613 60.5762 40.3613C60.6099 40.3613 60.6099 40.3613 60.6436 40.3276C60.6436 40.3613 60.6436 40.3613 60.6436 40.3613Z" fill="white"/>
<path d="M60.6436 40.6649C60.6099 40.6649 60.6099 40.6649 60.5762 40.6649C60.6099 40.6649 60.6099 40.6649 60.6436 40.6311V40.6649Z" fill="white"/>
<path d="M60.6436 42.1153C60.6099 42.1153 60.6099 42.1153 60.5762 42.1153C60.6099 42.1153 60.6099 42.1153 60.6436 42.0815C60.6436 42.0815 60.6436 42.0815 60.6436 42.1153Z" fill="white"/>
<path d="M60.6436 41.8117C60.6099 41.8117 60.6099 41.8117 60.5762 41.8117C60.6099 41.8117 60.6099 41.8117 60.6436 41.778V41.8117Z" fill="white"/>
<path d="M60.6436 40.0914C60.6099 40.0914 60.6099 40.0914 60.5762 40.0914C60.6099 40.0914 60.6099 40.0915 60.6436 40.0577V40.0914Z" fill="white"/>
<path d="M60.6436 39.7879C60.6099 39.7879 60.6099 39.7879 60.5762 39.7879C60.6099 39.7879 60.6099 39.7879 60.6436 39.7541C60.6436 39.7879 60.6436 39.7879 60.6436 39.7879Z" fill="white"/>
<path d="M60.6436 39.518C60.6099 39.518 60.6099 39.518 60.5762 39.518C60.6099 39.518 60.6099 39.518 60.6436 39.4843C60.6436 39.4843 60.6436 39.4843 60.6436 39.518Z" fill="white"/>
<path d="M60.6436 41.2383C60.6099 41.2383 60.6099 41.2383 60.5762 41.2383C60.6099 41.2383 60.6099 41.2383 60.6436 41.2046V41.2383Z" fill="white"/>
<path d="M30.6718 69.9902H30L31.9429 64.6988H32.6044L34.5473 69.9902H33.8755L32.2943 65.5359H32.253L30.6718 69.9902ZM30.9198 67.9232H33.6275V68.4916H30.9198V67.9232Z" fill="white"/>
<path d="M39.3807 66.3523H38.74C38.7021 66.168 38.6358 66.0061 38.541 65.8666C38.448 65.7271 38.3343 65.61 38.2 65.5152C38.0673 65.4188 37.9201 65.3464 37.7582 65.2982C37.5963 65.25 37.4275 65.2259 37.2518 65.2259C36.9314 65.2259 36.6412 65.3068 36.3811 65.4687C36.1227 65.6306 35.9169 65.8692 35.7636 66.1844C35.612 66.4996 35.5362 66.8863 35.5362 67.3445C35.5362 67.8027 35.612 68.1893 35.7636 68.5046C35.9169 68.8198 36.1227 69.0583 36.3811 69.2202C36.6412 69.3821 36.9314 69.4631 37.2518 69.4631C37.4275 69.4631 37.5963 69.439 37.7582 69.3908C37.9201 69.3425 38.0673 69.271 38.2 69.1763C38.3343 69.0799 38.448 68.9619 38.541 68.8223C38.6358 68.6811 38.7021 68.5192 38.74 68.3366H39.3807C39.3325 68.607 39.2446 68.8491 39.1172 69.0626C38.9897 69.2762 38.8313 69.4579 38.6418 69.6078C38.4523 69.7559 38.2396 69.8687 38.0036 69.9463C37.7694 70.0238 37.5187 70.0625 37.2518 70.0625C36.8005 70.0625 36.3991 69.9523 36.0478 69.7318C35.6964 69.5113 35.4199 69.1978 35.2184 68.7913C35.0169 68.3848 34.9161 67.9026 34.9161 67.3445C34.9161 66.7864 35.0169 66.3041 35.2184 65.8976C35.4199 65.4911 35.6964 65.1776 36.0478 64.9572C36.3991 64.7367 36.8005 64.6264 37.2518 64.6264C37.5187 64.6264 37.7694 64.6652 38.0036 64.7427C38.2396 64.8202 38.4523 64.9339 38.6418 65.0838C38.8313 65.2319 38.9897 65.4127 39.1172 65.6263C39.2446 65.8382 39.3325 66.0802 39.3807 66.3523Z" fill="white"/>
<path d="M41.0569 64.6988V69.9902H40.4161V64.6988H41.0569Z" fill="white"/>
<path d="M43.9745 69.9902H42.3416V64.6988H44.0469C44.5602 64.6988 44.9994 64.8047 45.3645 65.0166C45.7297 65.2267 46.0096 65.529 46.2042 65.9235C46.3989 66.3162 46.4962 66.7864 46.4962 67.3341C46.4962 67.8853 46.398 68.3599 46.2017 68.7578C46.0053 69.1539 45.7194 69.4588 45.3439 69.6724C44.9684 69.8842 44.5119 69.9902 43.9745 69.9902ZM42.9824 69.4218H43.9332C44.3707 69.4218 44.7333 69.3374 45.0209 69.1686C45.3086 68.9998 45.523 68.7595 45.6643 68.4477C45.8055 68.1359 45.8761 67.7648 45.8761 67.3341C45.8761 66.907 45.8064 66.5392 45.6668 66.2309C45.5273 65.9209 45.3189 65.6832 45.0416 65.5178C44.7643 65.3507 44.4189 65.2672 44.0055 65.2672H42.9824V69.4218Z" fill="white"/>
<path d="M47.571 69.9902V64.6988H50.7644V65.2672H48.2118V67.0551H50.5991V67.6235H48.2118V69.4218H50.8058V69.9902H47.571Z" fill="white"/>
<path d="M56.1153 64.6988V69.9902H55.4952L52.6118 65.8356H52.5601V69.9902H51.9194V64.6988H52.5394L55.4332 68.8637H55.4848V64.6988H56.1153Z" fill="white"/>
<path d="M57.108 65.2672V64.6988H61.0766V65.2672H59.4127V69.9902H58.7719V65.2672H57.108Z" fill="white"/>
<path d="M62.0655 69.9902V64.6988H65.2589V65.2672H62.7063V67.0551H65.0936V67.6235H62.7063V69.4218H65.3003V69.9902H62.0655Z" fill="white"/>
<path d="M69.3076 66.0216C69.2766 65.7598 69.1508 65.5566 68.9304 65.4119C68.7099 65.2672 68.4395 65.1949 68.1191 65.1949C67.8848 65.1949 67.6798 65.2327 67.5042 65.3085C67.3302 65.3843 67.1941 65.4885 67.0959 65.6212C66.9995 65.7538 66.9512 65.9045 66.9512 66.0733C66.9512 66.2145 66.9848 66.336 67.052 66.4376C67.1209 66.5375 67.2088 66.621 67.3155 66.6882C67.4223 66.7537 67.5343 66.8079 67.6514 66.851C67.7686 66.8923 67.8762 66.9259 67.9744 66.9518L68.5118 67.0964C68.6496 67.1326 68.8029 67.1826 68.9717 67.2463C69.1422 67.31 69.305 67.397 69.46 67.5073C69.6168 67.6158 69.7459 67.7553 69.8476 67.9258C69.9492 68.0963 70 68.3056 70 68.5536C70 68.8396 69.9251 69.0979 69.7752 69.3288C69.6271 69.5596 69.4101 69.743 69.1241 69.8791C68.8399 70.0152 68.4946 70.0832 68.0881 70.0832C67.7091 70.0832 67.381 70.022 67.1037 69.8997C66.8281 69.7775 66.6111 69.6069 66.4526 69.3882C66.2959 69.1694 66.2071 68.9154 66.1865 68.626H66.8479C66.8651 68.8258 66.9323 68.9911 67.0494 69.1221C67.1683 69.2512 67.3181 69.3477 67.499 69.4114C67.6816 69.4734 67.8779 69.5044 68.0881 69.5044C68.3327 69.5044 68.5523 69.4648 68.7469 69.3856C68.9416 69.3046 69.0957 69.1927 69.2094 69.0497C69.3231 68.905 69.3799 68.7362 69.3799 68.5433C69.3799 68.3676 69.3308 68.2247 69.2326 68.1144C69.1345 68.0042 69.0053 67.9146 68.8451 67.8457C68.6849 67.7768 68.5118 67.7165 68.3258 67.6649L67.6747 67.4788C67.2613 67.36 66.934 67.1903 66.6929 66.9698C66.4517 66.7494 66.3312 66.4609 66.3312 66.1043C66.3312 65.808 66.4113 65.5497 66.5714 65.3292C66.7334 65.107 66.9504 64.9348 67.2225 64.8125C67.4964 64.6885 67.8021 64.6264 68.1397 64.6264C68.4808 64.6264 68.7839 64.6876 69.0492 64.8099C69.3145 64.9305 69.5246 65.0958 69.6796 65.306C69.8364 65.5161 69.919 65.7547 69.9277 66.0216H69.3076Z" fill="white"/>
<path d="M32.6169 78.1765V72.8851H34.4048C34.8199 72.8851 35.1592 72.9601 35.4227 73.1099C35.688 73.258 35.8844 73.4587 36.0118 73.7119C36.1393 73.9651 36.203 74.2476 36.203 74.5594C36.203 74.8711 36.1393 75.1545 36.0118 75.4094C35.8861 75.6643 35.6914 75.8676 35.4279 76.0192C35.1644 76.169 34.8268 76.2439 34.4151 76.2439H33.1336V75.6755H34.3944C34.6786 75.6755 34.9069 75.6264 35.0791 75.5282C35.2514 75.4301 35.3762 75.2974 35.4537 75.1304C35.533 74.9616 35.5726 74.7712 35.5726 74.5594C35.5726 74.3475 35.533 74.158 35.4537 73.991C35.3762 73.8239 35.2505 73.693 35.0765 73.5982C34.9026 73.5018 34.6717 73.4535 34.3841 73.4535H33.2576V78.1765H32.6169Z" fill="white"/>
<path d="M37.2352 78.1765V72.8851H40.4286V73.4535H37.8759V75.2415H40.2633V75.8099H37.8759V77.6081H40.47V78.1765H37.2352Z" fill="white"/>
<path d="M44.4773 74.208C44.4463 73.9462 44.3205 73.7429 44.1001 73.5982C43.8796 73.4535 43.6092 73.3812 43.2888 73.3812C43.0545 73.3812 42.8495 73.4191 42.6739 73.4949C42.4999 73.5707 42.3638 73.6749 42.2656 73.8075C42.1692 73.9401 42.1209 74.0909 42.1209 74.2597C42.1209 74.4009 42.1545 74.5223 42.2217 74.624C42.2906 74.7239 42.3785 74.8074 42.4852 74.8746C42.592 74.94 42.704 74.9943 42.8211 75.0374C42.9383 75.0787 43.0459 75.1123 43.1441 75.1381L43.6815 75.2828C43.8193 75.319 43.9726 75.3689 44.1414 75.4327C44.3119 75.4964 44.4747 75.5834 44.6297 75.6936C44.7865 75.8021 44.9156 75.9416 45.0173 76.1122C45.1189 76.2827 45.1697 76.492 45.1697 76.74C45.1697 77.0259 45.0948 77.2843 44.9449 77.5151C44.7968 77.7459 44.5798 77.9294 44.2938 78.0654C44.0096 78.2015 43.6643 78.2695 43.2578 78.2695C42.8788 78.2695 42.5507 78.2084 42.2734 78.0861C41.9978 77.9638 41.7808 77.7933 41.6223 77.5745C41.4656 77.3558 41.3768 77.1017 41.3562 76.8123H42.0176C42.0348 77.0121 42.102 77.1775 42.2191 77.3084C42.338 77.4376 42.4878 77.5341 42.6687 77.5978C42.8513 77.6598 43.0476 77.6908 43.2578 77.6908C43.5024 77.6908 43.722 77.6512 43.9166 77.5719C44.1112 77.491 44.2654 77.379 44.3791 77.2361C44.4928 77.0914 44.5496 76.9226 44.5496 76.7297C44.5496 76.554 44.5005 76.411 44.4023 76.3008C44.3042 76.1905 44.175 76.101 44.0148 76.0321C43.8546 75.9632 43.6815 75.9029 43.4955 75.8512L42.8444 75.6652C42.431 75.5463 42.1037 75.3767 41.8626 75.1562C41.6214 74.9357 41.5009 74.6472 41.5009 74.2907C41.5009 73.9944 41.581 73.736 41.7411 73.5156C41.9031 73.2934 42.1201 73.1211 42.3922 72.9988C42.6661 72.8748 42.9718 72.8128 43.3094 72.8128C43.6505 72.8128 43.9536 72.8739 44.2189 72.9962C44.4842 73.1168 44.6943 73.2822 44.8493 73.4923C45.0061 73.7024 45.0887 73.941 45.0974 74.208H44.4773Z" fill="white"/>
<path d="M49.1169 74.208C49.0859 73.9462 48.9602 73.7429 48.7397 73.5982C48.5192 73.4535 48.2488 73.3812 47.9284 73.3812C47.6942 73.3812 47.4892 73.4191 47.3135 73.4949C47.1395 73.5707 47.0035 73.6749 46.9053 73.8075C46.8088 73.9401 46.7606 74.0909 46.7606 74.2597C46.7606 74.4009 46.7942 74.5223 46.8614 74.624C46.9303 74.7239 47.0181 74.8074 47.1249 74.8746C47.2317 74.94 47.3437 74.9943 47.4608 75.0374C47.5779 75.0787 47.6856 75.1123 47.7837 75.1381L48.3212 75.2828C48.4589 75.319 48.6122 75.3689 48.781 75.4327C48.9516 75.4964 49.1143 75.5834 49.2694 75.6936C49.4261 75.8021 49.5553 75.9416 49.6569 76.1122C49.7585 76.2827 49.8094 76.492 49.8094 76.74C49.8094 77.0259 49.7344 77.2843 49.5846 77.5151C49.4364 77.7459 49.2194 77.9294 48.9335 78.0654C48.6493 78.2015 48.3039 78.2695 47.8974 78.2695C47.5185 78.2695 47.1904 78.2084 46.913 78.0861C46.6374 77.9638 46.4204 77.7933 46.262 77.5745C46.1052 77.3558 46.0165 77.1017 45.9958 76.8123H46.6573C46.6745 77.0121 46.7417 77.1775 46.8588 77.3084C46.9776 77.4376 47.1275 77.5341 47.3083 77.5978C47.4909 77.6598 47.6873 77.6908 47.8974 77.6908C48.142 77.6908 48.3616 77.6512 48.5563 77.5719C48.7509 77.491 48.9051 77.379 49.0187 77.2361C49.1324 77.0914 49.1893 76.9226 49.1893 76.7297C49.1893 76.554 49.1402 76.411 49.042 76.3008C48.9438 76.1905 48.8146 76.101 48.6544 76.0321C48.4943 75.9632 48.3212 75.9029 48.1351 75.8512L47.484 75.6652C47.0706 75.5463 46.7434 75.3767 46.5022 75.1562C46.2611 74.9357 46.1405 74.6472 46.1405 74.2907C46.1405 73.9944 46.2206 73.736 46.3808 73.5156C46.5427 73.2934 46.7597 73.1211 47.0319 72.9988C47.3058 72.8748 47.6115 72.8128 47.9491 72.8128C48.2901 72.8128 48.5933 72.8739 48.8586 72.9962C49.1238 73.1168 49.334 73.2822 49.489 73.4923C49.6457 73.7024 49.7284 73.941 49.737 74.208H49.1169Z" fill="white"/>
<path d="M55.3275 75.5308C55.3275 76.0889 55.2267 76.5712 55.0252 76.9777C54.8236 77.3842 54.5472 77.6977 54.1958 77.9182C53.8444 78.1386 53.4431 78.2489 52.9918 78.2489C52.5405 78.2489 52.1392 78.1386 51.7878 77.9182C51.4364 77.6977 51.16 77.3842 50.9584 76.9777C50.7569 76.5712 50.6562 76.0889 50.6562 75.5308C50.6562 74.9728 50.7569 74.4905 50.9584 74.084C51.16 73.6775 51.4364 73.364 51.7878 73.1435C52.1392 72.923 52.5405 72.8128 52.9918 72.8128C53.4431 72.8128 53.8444 72.923 54.1958 73.1435C54.5472 73.364 54.8236 73.6775 55.0252 74.084C55.2267 74.4905 55.3275 74.9728 55.3275 75.5308ZM54.7074 75.5308C54.7074 75.0727 54.6307 74.686 54.4774 74.3708C54.3259 74.0555 54.12 73.817 53.8599 73.6551C53.6016 73.4932 53.3122 73.4122 52.9918 73.4122C52.6714 73.4122 52.3812 73.4932 52.1211 73.6551C51.8627 73.817 51.6569 74.0555 51.5036 74.3708C51.352 74.686 51.2762 75.0727 51.2762 75.5308C51.2762 75.989 51.352 76.3757 51.5036 76.6909C51.6569 77.0061 51.8627 77.2447 52.1211 77.4066C52.3812 77.5685 52.6714 77.6495 52.9918 77.6495C53.3122 77.6495 53.6016 77.5685 53.8599 77.4066C54.12 77.2447 54.3259 77.0061 54.4774 76.6909C54.6307 76.3757 54.7074 75.989 54.7074 75.5308Z" fill="white"/>
<path d="M56.3732 78.1765H55.7015L57.6444 72.8851H58.3058L60.2487 78.1765H59.577L57.9958 73.7223H57.9544L56.3732 78.1765ZM56.6212 76.1096H59.3289V76.678H56.6212V76.1096Z" fill="white"/>
<path d="M61.7137 72.8851V78.1765H61.0729V72.8851H61.7137Z" fill="white"/>
<path d="M65.8922 74.208C65.8612 73.9462 65.7354 73.7429 65.5149 73.5982C65.2945 73.4535 65.024 73.3812 64.7037 73.3812C64.4694 73.3812 64.2644 73.4191 64.0888 73.4949C63.9148 73.5707 63.7787 73.6749 63.6805 73.8075C63.5841 73.9401 63.5358 74.0909 63.5358 74.2597C63.5358 74.4009 63.5694 74.5223 63.6366 74.624C63.7055 74.7239 63.7933 74.8074 63.9001 74.8746C64.0069 74.94 64.1189 74.9943 64.236 75.0374C64.3531 75.0787 64.4608 75.1123 64.559 75.1381L65.0964 75.2828C65.2342 75.319 65.3875 75.3689 65.5563 75.4327C65.7268 75.4964 65.8896 75.5834 66.0446 75.6936C66.2013 75.8021 66.3305 75.9416 66.4322 76.1122C66.5338 76.2827 66.5846 76.492 66.5846 76.74C66.5846 77.0259 66.5097 77.2843 66.3598 77.5151C66.2117 77.7459 65.9947 77.9294 65.7087 78.0654C65.4245 78.2015 65.0792 78.2695 64.6727 78.2695C64.2937 78.2695 63.9656 78.2084 63.6883 78.0861C63.4127 77.9638 63.1957 77.7933 63.0372 77.5745C62.8804 77.3558 62.7917 77.1017 62.7711 76.8123H63.4325C63.4497 77.0121 63.5169 77.1775 63.634 77.3084C63.7529 77.4376 63.9027 77.5341 64.0836 77.5978C64.2662 77.6598 64.4625 77.6908 64.6727 77.6908C64.9173 77.6908 65.1369 77.6512 65.3315 77.5719C65.5261 77.491 65.6803 77.379 65.794 77.2361C65.9077 77.0914 65.9645 76.9226 65.9645 76.7297C65.9645 76.554 65.9154 76.411 65.8172 76.3008C65.7191 76.1905 65.5899 76.101 65.4297 76.0321C65.2695 75.9632 65.0964 75.9029 64.9104 75.8512L64.2593 75.6652C63.8459 75.5463 63.5186 75.3767 63.2775 75.1562C63.0363 74.9357 62.9158 74.6472 62.9158 74.2907C62.9158 73.9944 62.9958 73.736 63.156 73.5156C63.3179 73.2934 63.535 73.1211 63.8071 72.9988C64.081 72.8748 64.3867 72.8128 64.7243 72.8128C65.0654 72.8128 65.3685 72.8739 65.6338 72.9962C65.8991 73.1168 66.1092 73.2822 66.2642 73.4923C66.421 73.7024 66.5036 73.941 66.5122 74.208H65.8922Z" fill="white"/>
</svg>
