<svg width="100" height="100" viewBox="0 0 100 100" fill="none" xmlns="http://www.w3.org/2000/svg">
<rect width="100" height="100" fill="#78AC84"/>
<path d="M54.1635 40.8977H43.018V42.0805H54.1635V40.8977Z" fill="white"/>
<path d="M62.7827 42.0805H67.6273L65.0118 34.8655L58.592 32.8548H58.4136L52.826 27H49.8836V28.1828H52.3207L56.7492 32.8548H36.5684L37.5492 28.1828H40.4025V27H36.5981L35.3498 32.8548H31.7536L30 42.0805H34.3988V40.8977H31.4266L32.7344 34.0376H58.4136L64.0904 35.8413L65.9331 40.8977H62.7827V42.0805Z" fill="white"/>
<path d="M58.4731 37.7929C56.4223 37.7929 54.7579 39.4488 54.7579 41.4891C54.7579 43.5294 56.4223 45.1853 58.4731 45.1853C60.5238 45.1853 62.1882 43.5294 62.1882 41.4891C62.1882 39.4488 60.5238 37.7929 58.4731 37.7929ZM58.4731 44.0025C57.0762 44.0025 55.9468 42.8788 55.9468 41.4891C55.9468 40.0993 57.0762 38.9757 58.4731 38.9757C59.87 38.9757 60.9994 40.0993 60.9994 41.4891C60.9994 42.8788 59.87 44.0025 58.4731 44.0025Z" fill="white"/>
<path d="M38.7084 37.7929C36.6576 37.7929 34.9932 39.4488 34.9932 41.4891C34.9932 43.5294 36.6576 45.1853 38.7084 45.1853C40.7591 45.1853 42.4235 43.5294 42.4235 41.4891C42.4235 39.4488 40.7591 37.7929 38.7084 37.7929ZM38.7084 44.0025C37.3115 44.0025 36.182 42.8788 36.182 41.4891C36.182 40.0993 37.3115 38.9757 38.7084 38.9757C40.1053 38.9757 41.2347 40.0993 41.2347 41.4891C41.2347 42.8788 40.1053 44.0025 38.7084 44.0025Z" fill="white"/>
<path d="M31.0412 73.0723H30.4492L32.1612 68.4337H32.7441L34.4561 73.0723H33.8641L32.4709 69.1675H32.4344L31.0412 73.0723ZM31.2597 71.2603H33.6456V71.7586H31.2597V71.2603Z" fill="white"/>
<path d="M38.242 68.4337H38.8066V71.5049C38.8066 71.822 38.7315 72.1052 38.5812 72.3543C38.4325 72.6019 38.2223 72.7975 37.9506 72.9409C37.679 73.0829 37.3602 73.1538 36.9945 73.1538C36.6287 73.1538 36.31 73.0829 36.0383 72.9409C35.7666 72.7975 35.5556 72.6019 35.4054 72.3543C35.2567 72.1052 35.1823 71.822 35.1823 71.5049V68.4337H35.7469V71.4596C35.7469 71.6861 35.797 71.8877 35.8971 72.0644C35.9973 72.2396 36.14 72.3777 36.3251 72.4789C36.5118 72.5785 36.7349 72.6284 36.9945 72.6284C37.254 72.6284 37.4771 72.5785 37.6638 72.4789C37.8505 72.3777 37.9931 72.2396 38.0918 72.0644C38.1919 71.8877 38.242 71.6861 38.242 71.4596V68.4337Z" fill="white"/>
<path d="M39.6791 68.9319V68.4337H43.176V68.9319H41.7099V73.0723H41.1453V68.9319H39.6791Z" fill="white"/>
<path d="M47.7872 70.753C47.7872 71.2422 47.6985 71.665 47.5209 72.0214C47.3433 72.3777 47.0997 72.6525 46.7901 72.8458C46.4805 73.0391 46.1268 73.1357 45.7292 73.1357C45.3315 73.1357 44.9779 73.0391 44.6683 72.8458C44.3587 72.6525 44.1151 72.3777 43.9375 72.0214C43.7599 71.665 43.6711 71.2422 43.6711 70.753C43.6711 70.2637 43.7599 69.841 43.9375 69.4846C44.1151 69.1282 44.3587 68.8534 44.6683 68.6601C44.9779 68.4669 45.3315 68.3702 45.7292 68.3702C46.1268 68.3702 46.4805 68.4669 46.7901 68.6601C47.0997 68.8534 47.3433 69.1282 47.5209 69.4846C47.6985 69.841 47.7872 70.2637 47.7872 70.753ZM47.2409 70.753C47.2409 70.3513 47.1733 70.0123 47.0382 69.736C46.9047 69.4597 46.7233 69.2506 46.4941 69.1086C46.2665 68.9667 46.0115 68.8957 45.7292 68.8957C45.4469 68.8957 45.1912 68.9667 44.962 69.1086C44.7343 69.2506 44.553 69.4597 44.4179 69.736C44.2843 70.0123 44.2175 70.3513 44.2175 70.753C44.2175 71.1546 44.2843 71.4936 44.4179 71.77C44.553 72.0463 44.7343 72.2554 44.962 72.3973C45.1912 72.5393 45.4469 72.6103 45.7292 72.6103C46.0115 72.6103 46.2665 72.5393 46.4941 72.3973C46.7233 72.2554 46.9047 72.0463 47.0382 71.77C47.1733 71.4936 47.2409 71.1546 47.2409 70.753Z" fill="white"/>
<path d="M48.7366 68.4337H49.4105L50.995 72.2841H51.0496L52.6341 68.4337H53.308V73.0723H52.7798V69.548H52.7343L51.2773 73.0723H50.7673L49.3103 69.548H49.2648V73.0723H48.7366V68.4337Z" fill="white"/>
<path d="M58.374 70.753C58.374 71.2422 58.2852 71.665 58.1076 72.0214C57.93 72.3777 57.6865 72.6525 57.3768 72.8458C57.0672 73.0391 56.7136 73.1357 56.3159 73.1357C55.9183 73.1357 55.5647 73.0391 55.255 72.8458C54.9454 72.6525 54.7018 72.3777 54.5243 72.0214C54.3467 71.665 54.2579 71.2422 54.2579 70.753C54.2579 70.2637 54.3467 69.841 54.5243 69.4846C54.7018 69.1282 54.9454 68.8534 55.255 68.6601C55.5647 68.4669 55.9183 68.3702 56.3159 68.3702C56.7136 68.3702 57.0672 68.4669 57.3768 68.6601C57.6865 68.8534 57.93 69.1282 58.1076 69.4846C58.2852 69.841 58.374 70.2637 58.374 70.753ZM57.8276 70.753C57.8276 70.3513 57.7601 70.0123 57.625 69.736C57.4914 69.4597 57.3101 69.2506 57.0809 69.1086C56.8532 68.9667 56.5982 68.8957 56.3159 68.8957C56.0336 68.8957 55.7779 68.9667 55.5487 69.1086C55.3211 69.2506 55.1397 69.4597 55.0046 69.736C54.8711 70.0123 54.8043 70.3513 54.8043 70.753C54.8043 71.1546 54.8711 71.4936 55.0046 71.77C55.1397 72.0463 55.3211 72.2554 55.5487 72.3973C55.7779 72.5393 56.0336 72.6103 56.3159 72.6103C56.5982 72.6103 56.8532 72.5393 57.0809 72.3973C57.3101 72.2554 57.4914 72.0463 57.625 71.77C57.7601 71.4936 57.8276 71.1546 57.8276 70.753ZM56.0701 67.9625L56.6256 66.9116H57.2539L56.5436 67.9625H56.0701Z" fill="white"/>
<path d="M59.2954 68.4337L60.6796 72.3385H60.7342L62.1184 68.4337H62.7103L60.9983 73.0723H60.4155L58.7035 68.4337H59.2954Z" fill="white"/>
<path d="M63.4366 73.0723V68.4337H66.2504V68.9319H64.0012V70.4993H66.1047V70.9976H64.0012V72.574H66.2869V73.0723H63.4366Z" fill="white"/>
<path d="M67.2681 73.0723V68.4337H67.8327V72.574H70V73.0723H67.2681Z" fill="white"/>
</svg>
