<svg width="100" height="100" viewBox="0 0 100 100" fill="none" xmlns="http://www.w3.org/2000/svg">
<rect width="100" height="100" fill="#78AC84"/>
<path d="M48.8084 25L32.0457 39.3193H36.9041V48.7518H37.9553V38.2681H34.8584L48.8084 26.3637L62.531 38.2681H59.4342V56.5365H51.1949V47.5302H46.1661V56.5365H36.9041V57.5878H47.2174V48.5814H50.1721V57.5878H60.457V39.2909L65.3153 39.3193L48.8084 25Z" fill="white"/>
<path d="M30 62.9014H30.6442L32.1588 66.6011H32.2111L33.7257 62.9014H34.3699V67.3584H33.865V63.9722H33.8215L32.4287 67.3584H31.9412L30.5484 63.9722H30.5049V67.3584H30V62.9014Z" fill="white"/>
<path d="M38.3769 62.9014H38.9166V65.8524C38.9166 66.1571 38.8448 66.4291 38.7012 66.6685C38.559 66.9065 38.3581 67.0944 38.0984 67.2322C37.8387 67.3686 37.534 67.4368 37.1843 67.4368C36.8347 67.4368 36.53 67.3686 36.2703 67.2322C36.0106 67.0944 35.809 66.9065 35.6653 66.6685C35.5231 66.4291 35.452 66.1571 35.452 65.8524V62.9014H35.9918V65.8089C35.9918 66.0265 36.0396 66.2202 36.1354 66.39C36.2311 66.5583 36.3675 66.691 36.5445 66.7882C36.723 66.884 36.9362 66.9319 37.1843 66.9319C37.4324 66.9319 37.6457 66.884 37.8242 66.7882C38.0026 66.691 38.139 66.5583 38.2333 66.39C38.329 66.2202 38.3769 66.0265 38.3769 65.8089V62.9014Z" fill="white"/>
<path d="M39.9944 67.3584V62.9014H40.5341V66.8796H42.6059V67.3584H39.9944Z" fill="white"/>
<path d="M42.6054 63.3802V62.9014H45.9481V63.3802H44.5466V67.3584H44.0069V63.3802H42.6054Z" fill="white"/>
<path d="M47.3208 62.9014V67.3584H46.7811V62.9014H47.3208Z" fill="white"/>
<path d="M48.4029 67.3584V62.9014H49.9089C50.2571 62.9014 50.5429 62.9609 50.7663 63.0799C50.9897 63.1974 51.1551 63.3592 51.2625 63.5652C51.3699 63.7712 51.4235 64.0055 51.4235 64.2681C51.4235 64.5307 51.3699 64.7636 51.2625 64.9667C51.1551 65.1698 50.9905 65.3294 50.7685 65.4455C50.5465 65.5601 50.2629 65.6174 49.9176 65.6174H48.6989V65.1299H49.9002C50.1381 65.1299 50.3296 65.0951 50.4747 65.0255C50.6212 64.9558 50.7271 64.8572 50.7924 64.7295C50.8592 64.6004 50.8925 64.4466 50.8925 64.2681C50.8925 64.0897 50.8592 63.9337 50.7924 63.8002C50.7257 63.6668 50.6191 63.5638 50.4725 63.4912C50.326 63.4172 50.1323 63.3802 49.8915 63.3802H48.9426V67.3584H48.4029ZM50.5008 65.3563L51.5976 67.3584H50.9709L49.8915 65.3563H50.5008Z" fill="white"/>
<path d="M52.8626 62.9014V67.3584H52.3229V62.9014H52.8626Z" fill="white"/>
<path d="M56.3821 64.0157C56.356 63.7952 56.2501 63.624 56.0644 63.5021C55.8787 63.3802 55.6509 63.3193 55.381 63.3193C55.1837 63.3193 55.0111 63.3512 54.8631 63.415C54.7166 63.4789 54.602 63.5667 54.5193 63.6784C54.438 63.7901 54.3974 63.917 54.3974 64.0592C54.3974 64.1782 54.4257 64.2805 54.4823 64.3661C54.5403 64.4502 54.6143 64.5206 54.7042 64.5772C54.7942 64.6323 54.8885 64.678 54.9871 64.7143C55.0858 64.7491 55.1765 64.7774 55.2592 64.7991L55.7118 64.921C55.8279 64.9515 55.957 64.9935 56.0992 65.0472C56.2428 65.1009 56.3799 65.1742 56.5105 65.267C56.6425 65.3584 56.7514 65.476 56.837 65.6196C56.9226 65.7632 56.9654 65.9395 56.9654 66.1484C56.9654 66.3892 56.9022 66.6069 56.776 66.8013C56.6513 66.9957 56.4684 67.1502 56.2276 67.2648C55.9882 67.3794 55.6973 67.4368 55.3549 67.4368C55.0358 67.4368 54.7594 67.3852 54.5258 67.2822C54.2936 67.1792 54.1108 67.0356 53.9774 66.8513C53.8453 66.6671 53.7706 66.4531 53.7532 66.2093H54.3103C54.3248 66.3776 54.3814 66.5169 54.4801 66.6272C54.5802 66.736 54.7064 66.8172 54.8587 66.8709C55.0125 66.9232 55.1779 66.9493 55.3549 66.9493C55.561 66.9493 55.7459 66.9159 55.9099 66.8492C56.0738 66.781 56.2037 66.6867 56.2994 66.5663C56.3952 66.4444 56.4431 66.3022 56.4431 66.1397C56.4431 65.9917 56.4017 65.8713 56.319 65.7784C56.2363 65.6856 56.1275 65.6102 55.9926 65.5521C55.8576 65.4941 55.7118 65.4433 55.5551 65.3998L55.0067 65.2431C54.6585 65.143 54.3829 65.0001 54.1798 64.8144C53.9766 64.6287 53.8751 64.3856 53.8751 64.0853C53.8751 63.8358 53.9425 63.6182 54.0775 63.4325C54.2139 63.2453 54.3967 63.1002 54.6259 62.9972C54.8566 62.8927 55.1141 62.8405 55.3985 62.8405C55.6857 62.8405 55.9411 62.892 56.1645 62.995C56.3879 63.0966 56.5649 63.2359 56.6955 63.4129C56.8275 63.5899 56.8972 63.7908 56.9044 64.0157H56.3821Z" fill="white"/>
<path d="M61.4392 64.2942H60.8995C60.8676 64.139 60.8117 64.0026 60.7319 63.8851C60.6536 63.7676 60.5578 63.6689 60.4446 63.5891C60.3329 63.5079 60.2089 63.447 60.0725 63.4063C59.9361 63.3657 59.7939 63.3454 59.646 63.3454C59.3761 63.3454 59.1316 63.4136 58.9126 63.55C58.6949 63.6863 58.5216 63.8873 58.3924 64.1528C58.2648 64.4183 58.2009 64.744 58.2009 65.1299C58.2009 65.5158 58.2648 65.8416 58.3924 66.1071C58.5216 66.3726 58.6949 66.5735 58.9126 66.7099C59.1316 66.8463 59.3761 66.9144 59.646 66.9144C59.7939 66.9144 59.9361 66.8941 60.0725 66.8535C60.2089 66.8129 60.3329 66.7527 60.4446 66.6729C60.5578 66.5916 60.6536 66.4923 60.7319 66.3747C60.8117 66.2558 60.8676 66.1194 60.8995 65.9656H61.4392C61.3986 66.1934 61.3246 66.3972 61.2172 66.5771C61.1098 66.757 60.9764 66.9101 60.8168 67.0363C60.6572 67.1611 60.478 67.2561 60.2792 67.3214C60.0819 67.3867 59.8708 67.4193 59.646 67.4193C59.2658 67.4193 58.9278 67.3265 58.6318 67.1408C58.3359 66.9551 58.103 66.691 57.9332 66.3486C57.7635 66.0062 57.6786 65.6 57.6786 65.1299C57.6786 64.6599 57.7635 64.2536 57.9332 63.9112C58.103 63.5688 58.3359 63.3048 58.6318 63.1191C58.9278 62.9334 59.2658 62.8405 59.646 62.8405C59.8708 62.8405 60.0819 62.8732 60.2792 62.9384C60.478 63.0037 60.6572 63.0995 60.8168 63.2257C60.9764 63.3505 61.1098 63.5028 61.2172 63.6827C61.3246 63.8612 61.3986 64.065 61.4392 64.2942Z" fill="white"/>
<path d="M66.0719 65.1299C66.0719 65.6 65.987 66.0062 65.8173 66.3486C65.6475 66.691 65.4146 66.9551 65.1187 67.1408C64.8227 67.3265 64.4847 67.4193 64.1045 67.4193C63.7244 67.4193 63.3864 67.3265 63.0904 67.1408C62.7944 66.9551 62.5616 66.691 62.3918 66.3486C62.2221 66.0062 62.1372 65.6 62.1372 65.1299C62.1372 64.6599 62.2221 64.2536 62.3918 63.9112C62.5616 63.5688 62.7944 63.3048 63.0904 63.1191C63.3864 62.9334 63.7244 62.8405 64.1045 62.8405C64.4847 62.8405 64.8227 62.9334 65.1187 63.1191C65.4146 63.3048 65.6475 63.5688 65.8173 63.9112C65.987 64.2536 66.0719 64.6599 66.0719 65.1299ZM65.5496 65.1299C65.5496 64.744 65.485 64.4183 65.3559 64.1528C65.2282 63.8873 65.0548 63.6863 64.8358 63.55C64.6181 63.4136 64.3744 63.3454 64.1045 63.3454C63.8347 63.3454 63.5902 63.4136 63.3711 63.55C63.1535 63.6863 62.9801 63.8873 62.851 64.1528C62.7233 64.4183 62.6595 64.744 62.6595 65.1299C62.6595 65.5158 62.7233 65.8416 62.851 66.1071C62.9801 66.3726 63.1535 66.5735 63.3711 66.7099C63.5902 66.8463 63.8347 66.9144 64.1045 66.9144C64.3744 66.9144 64.6181 66.8463 64.8358 66.7099C65.0548 66.5735 65.2282 66.3726 65.3559 66.1071C65.485 65.8416 65.5496 65.5158 65.5496 65.1299Z" fill="white"/>
<path d="M69.4168 64.0157C69.3907 63.7952 69.2847 63.624 69.099 63.5021C68.9133 63.3802 68.6855 63.3193 68.4157 63.3193C68.2184 63.3193 68.0457 63.3512 67.8977 63.415C67.7512 63.4789 67.6366 63.5667 67.5539 63.6784C67.4727 63.7901 67.432 63.917 67.432 64.0592C67.432 64.1782 67.4603 64.2805 67.5169 64.3661C67.5749 64.4502 67.6489 64.5206 67.7389 64.5772C67.8288 64.6323 67.9231 64.678 68.0218 64.7143C68.1204 64.7491 68.2111 64.7774 68.2938 64.7991L68.7465 64.921C68.8625 64.9515 68.9917 64.9935 69.1339 65.0472C69.2775 65.1009 69.4146 65.1742 69.5452 65.267C69.6772 65.3584 69.786 65.476 69.8716 65.6196C69.9572 65.7632 70 65.9395 70 66.1484C70 66.3892 69.9369 66.6069 69.8107 66.8013C69.6859 66.9957 69.5031 67.1502 69.2623 67.2648C69.0229 67.3794 68.732 67.4368 68.3896 67.4368C68.0704 67.4368 67.794 67.3852 67.5604 67.2822C67.3283 67.1792 67.1455 67.0356 67.012 66.8513C66.88 66.6671 66.8053 66.4531 66.7879 66.2093H67.345C67.3595 66.3776 67.4161 66.5169 67.5147 66.6272C67.6148 66.736 67.7411 66.8172 67.8934 66.8709C68.0472 66.9232 68.2126 66.9493 68.3896 66.9493C68.5956 66.9493 68.7806 66.9159 68.9445 66.8492C69.1085 66.781 69.2383 66.6867 69.3341 66.5663C69.4298 66.4444 69.4777 66.3022 69.4777 66.1397C69.4777 65.9917 69.4364 65.8713 69.3537 65.7784C69.271 65.6856 69.1621 65.6102 69.0272 65.5521C68.8923 65.4941 68.7465 65.4433 68.5898 65.3998L68.0414 65.2431C67.6932 65.143 67.4175 65.0001 67.2144 64.8144C67.0113 64.6287 66.9097 64.3856 66.9097 64.0853C66.9097 63.8358 66.9772 63.6182 67.1121 63.4325C67.2485 63.2453 67.4313 63.1002 67.6605 62.9972C67.8912 62.8927 68.1487 62.8405 68.4331 62.8405C68.7204 62.8405 68.9757 62.892 69.1991 62.995C69.4226 63.0966 69.5996 63.2359 69.7301 63.4129C69.8622 63.5899 69.9318 63.7908 69.9391 64.0157H69.4168Z" fill="white"/>
<path d="M32.2615 74.2539V69.7969H32.8012V71.7816H35.1777V69.7969H35.7174V74.2539H35.1777V72.2604H32.8012V74.2539H32.2615Z" fill="white"/>
<path d="M36.9807 74.2539H36.4149L38.0515 69.7969H38.6086L40.2451 74.2539H39.6793L38.3474 70.502H38.3126L36.9807 74.2539ZM37.1897 72.5129H39.4704V72.9916H37.1897V72.5129Z" fill="white"/>
<path d="M40.9393 74.2539V69.7969H42.4975C42.808 69.7969 43.0641 69.8506 43.2657 69.9579C43.4674 70.0639 43.6176 70.2068 43.7162 70.3867C43.8149 70.5651 43.8642 70.7632 43.8642 70.9808C43.8642 71.1723 43.8301 71.3304 43.7619 71.4552C43.6952 71.58 43.6067 71.6786 43.4964 71.7512C43.3876 71.8237 43.2694 71.8774 43.1417 71.9122V71.9557C43.2781 71.9644 43.4152 72.0123 43.553 72.0994C43.6908 72.1864 43.8062 72.3112 43.899 72.4737C43.9919 72.6362 44.0383 72.8349 44.0383 73.07C44.0383 73.2934 43.9875 73.4943 43.886 73.6728C43.7844 73.8513 43.6241 73.9927 43.405 74.0972C43.1859 74.2016 42.9009 74.2539 42.5498 74.2539H40.9393ZM41.479 73.7751H42.5498C42.9023 73.7751 43.1526 73.7069 43.3006 73.5705C43.45 73.4327 43.5247 73.2658 43.5247 73.07C43.5247 72.9191 43.4863 72.7798 43.4094 72.6521C43.3325 72.523 43.2229 72.42 43.0808 72.3431C42.9386 72.2648 42.7703 72.2256 42.5759 72.2256H41.479V73.7751ZM41.479 71.7555H42.4801C42.6426 71.7555 42.7891 71.7236 42.9197 71.6598C43.0517 71.5959 43.1562 71.506 43.2331 71.3899C43.3114 71.2739 43.3506 71.1375 43.3506 70.9808C43.3506 70.7849 43.2824 70.6188 43.146 70.4824C43.0097 70.3446 42.7935 70.2757 42.4975 70.2757H41.479V71.7555Z" fill="white"/>
<path d="M45.4648 69.7969V74.2539H44.9251V69.7969H45.4648Z" fill="white"/>
<path d="M46.3032 70.2757V69.7969H49.646V70.2757H48.2445V74.2539H47.7047V70.2757H46.3032Z" fill="white"/>
<path d="M50.1411 74.2539H49.5752L51.2118 69.7969H51.7689L53.4054 74.2539H52.8396L51.5077 70.502H51.4729L50.1411 74.2539ZM50.35 72.5129H52.6307V72.9916H50.35V72.5129Z" fill="white"/>
<path d="M57.4766 71.1897H56.9369C56.905 71.0345 56.8492 70.8981 56.7694 70.7806C56.691 70.663 56.5953 70.5644 56.4821 70.4846C56.3704 70.4034 56.2463 70.3424 56.11 70.3018C55.9736 70.2612 55.8314 70.2409 55.6834 70.2409C55.4136 70.2409 55.1691 70.309 54.95 70.4454C54.7324 70.5818 54.559 70.7827 54.4299 71.0482C54.3022 71.3137 54.2384 71.6395 54.2384 72.0254C54.2384 72.4113 54.3022 72.737 54.4299 73.0025C54.559 73.268 54.7324 73.469 54.95 73.6053C55.1691 73.7417 55.4136 73.8099 55.6834 73.8099C55.8314 73.8099 55.9736 73.7896 56.11 73.749C56.2463 73.7083 56.3704 73.6481 56.4821 73.5683C56.5953 73.4871 56.691 73.3877 56.7694 73.2702C56.8492 73.1512 56.905 73.0148 56.9369 72.8611H57.4766C57.436 73.0888 57.362 73.2927 57.2547 73.4726C57.1473 73.6525 57.0138 73.8056 56.8542 73.9318C56.6946 74.0565 56.5155 74.1516 56.3167 74.2169C56.1194 74.2821 55.9083 74.3148 55.6834 74.3148C55.3033 74.3148 54.9653 74.2219 54.6693 74.0362C54.3733 73.8505 54.1405 73.5865 53.9707 73.2441C53.801 72.9017 53.7161 72.4954 53.7161 72.0254C53.7161 71.5553 53.801 71.1491 53.9707 70.8067C54.1405 70.4643 54.3733 70.2002 54.6693 70.0145C54.9653 69.8288 55.3033 69.736 55.6834 69.736C55.9083 69.736 56.1194 69.7686 56.3167 69.8339C56.5155 69.8992 56.6946 69.9949 56.8542 70.1212C57.0138 70.2459 57.1473 70.3983 57.2547 70.5782C57.362 70.7566 57.436 70.9605 57.4766 71.1897ZM55.4571 74.2713H55.8836L55.8488 74.4454C55.962 74.4628 56.0657 74.5099 56.16 74.5868C56.2543 74.6652 56.3015 74.7892 56.3015 74.959C56.3015 75.1461 56.2239 75.2985 56.0686 75.416C55.9148 75.5349 55.6878 75.5944 55.3874 75.5944L55.37 75.2549C55.505 75.2549 55.6167 75.2332 55.7052 75.1896C55.7951 75.1476 55.8401 75.0765 55.8401 74.9764C55.8401 74.8763 55.8031 74.8081 55.7291 74.7718C55.6551 74.7355 55.5354 74.7109 55.37 74.6978L55.4571 74.2713Z" fill="white"/>
<path d="M58.5316 74.2539H57.9658L59.6023 69.7969H60.1594L61.796 74.2539H61.2301L59.8983 70.502H59.8634L58.5316 74.2539ZM58.7405 72.5129H61.0212V72.9916H58.7405V72.5129ZM59.2106 69.3529L58.8101 69.3355C58.8101 69.1136 58.8733 68.9322 58.9995 68.7915C59.1272 68.6493 59.2846 68.5782 59.4717 68.5782C59.5544 68.5782 59.6277 68.5927 59.6915 68.6217C59.7554 68.6493 59.8163 68.6812 59.8743 68.7175C59.9324 68.7537 59.9918 68.7864 60.0528 68.8154C60.1152 68.843 60.1855 68.8568 60.2639 68.8568C60.3466 68.8568 60.4162 68.8248 60.4728 68.761C60.5308 68.6957 60.5598 68.6174 60.5598 68.526L60.9516 68.5608C60.9516 68.7871 60.8877 68.967 60.7601 69.1005C60.6338 69.234 60.4772 69.3007 60.29 69.3007C60.1899 69.3007 60.1072 69.2869 60.0419 69.2594C59.9766 69.2304 59.9186 69.1977 59.8678 69.1614C59.817 69.1252 59.7633 69.0932 59.7068 69.0657C59.6502 69.0367 59.5805 69.0222 59.4978 69.0222C59.4151 69.0222 59.3462 69.0548 59.2911 69.1201C59.2374 69.1839 59.2106 69.2615 59.2106 69.3529Z" fill="white"/>
<path d="M66.0413 72.0254C66.0413 72.4954 65.9564 72.9017 65.7867 73.2441C65.6169 73.5865 65.384 73.8505 65.0881 74.0362C64.7921 74.2219 64.4541 74.3148 64.0739 74.3148C63.6938 74.3148 63.3558 74.2219 63.0598 74.0362C62.7638 73.8505 62.531 73.5865 62.3612 73.2441C62.1915 72.9017 62.1066 72.4954 62.1066 72.0254C62.1066 71.5553 62.1915 71.1491 62.3612 70.8067C62.531 70.4643 62.7638 70.2002 63.0598 70.0145C63.3558 69.8288 63.6938 69.736 64.0739 69.736C64.4541 69.736 64.7921 69.8288 65.0881 70.0145C65.384 70.2002 65.6169 70.4643 65.7867 70.8067C65.9564 71.1491 66.0413 71.5553 66.0413 72.0254ZM65.519 72.0254C65.519 71.6395 65.4544 71.3137 65.3253 71.0482C65.1976 70.7827 65.0242 70.5818 64.8052 70.4454C64.5875 70.309 64.3438 70.2409 64.0739 70.2409C63.8041 70.2409 63.5596 70.309 63.3406 70.4454C63.1229 70.5818 62.9496 70.7827 62.8204 71.0482C62.6928 71.3137 62.6289 71.6395 62.6289 72.0254C62.6289 72.4113 62.6928 72.737 62.8204 73.0025C62.9496 73.268 63.1229 73.469 63.3406 73.6053C63.5596 73.7417 63.8041 73.8099 64.0739 73.8099C64.3438 73.8099 64.5875 73.7417 64.8052 73.6053C65.0242 73.469 65.1976 73.268 65.3253 73.0025C65.4544 72.737 65.519 72.4113 65.519 72.0254Z" fill="white"/>
</svg>
