<svg width="100" height="100" viewBox="0 0 100 100" fill="none" xmlns="http://www.w3.org/2000/svg">
<rect width="100" height="100" fill="#78AC84"/>
<path d="M69.1304 43.6572L54.6881 32.8444V22.523C54.6881 22.1071 54.5369 21.6913 54.2722 21.351L51.5879 17.7971C51.2098 17.2678 50.6049 17.0032 49.9622 17.0032C49.3573 16.9654 48.7524 17.2678 48.3365 17.7593L45.6522 21.3132C45.3875 21.6535 45.2741 22.0693 45.2741 22.4852V32.8444L30.794 43.6572C30.3025 44.0353 30 44.6024 30 45.2451V47.8538C30 48.4966 30.3025 49.1015 30.8318 49.4795C31.3611 49.8576 32.0416 49.9332 32.6465 49.7064L43.535 45.5098L45.6144 45.3964V52.4285L42.0605 57.4569C41.569 58.1752 41.569 59.0826 42.0983 59.8009C42.5898 60.4814 43.5728 60.7461 44.3289 60.4436L49.9622 58.3642L55.5955 60.4436C55.8223 60.5192 56.0491 60.5571 56.276 60.5571C56.8809 60.5571 57.4858 60.2546 57.8261 59.8009C58.3554 59.1204 58.3554 58.1752 57.8639 57.4569L54.31 52.4285V45.3586L56.4272 45.472L67.3157 49.6686C67.9206 49.8954 68.6011 49.8198 69.1304 49.4417C69.6597 49.0637 70 48.4588 70 47.816V45.2073C69.9244 44.6024 69.6219 44.0353 69.1304 43.6572ZM67.3535 46.9087L57.1456 42.9767C57.0321 42.9389 56.8809 42.9011 56.7297 42.9011L53.0624 42.7121C52.6843 42.7121 52.3819 42.8255 52.1172 43.0523C51.8526 43.317 51.7013 43.6194 51.7013 43.9975V52.8066C51.7013 53.0712 51.7769 53.3359 51.9282 53.5627L54.5369 57.2678L50.3781 55.7177C50.0756 55.6043 49.7732 55.6043 49.4707 55.7177L45.3119 57.2678L47.9206 53.5627C48.0718 53.3359 48.1474 53.0712 48.1474 52.8066V43.9975C48.1474 43.6572 47.9962 43.317 47.7316 43.0523C47.5047 42.8255 47.1645 42.7121 46.8242 42.7121C46.7864 42.7121 46.7864 42.7121 46.7486 42.7121L43.0813 42.9011C42.9301 42.9011 42.8166 42.9389 42.6654 42.9767L32.4575 46.9087V45.5098L47.2023 34.5079C47.5425 34.2433 47.7316 33.8652 47.7316 33.4871V22.7121L49.8488 19.9143L51.966 22.7121V33.4871C51.966 33.903 52.155 34.2811 52.4953 34.5079L67.2401 45.5098L67.3535 46.9087Z" fill="white"/>
<path d="M36.383 77.3823L38.1437 82.3749H38.2133L39.974 77.3823H40.7269L38.5492 83.3132H37.8078L35.6301 77.3823H36.383Z" fill="white"/>
<path d="M42.3689 77.3823V83.3132H41.6507V77.3823H42.3689Z" fill="white"/>
<path d="M44.0522 83.3132H43.2993L45.477 77.3823H46.2184L48.3962 83.3132H47.6432L45.8709 78.3206H45.8245L44.0522 83.3132ZM44.3302 80.9964H47.3652V81.6335H44.3302V80.9964Z" fill="white"/>
<path d="M53.0956 79.2357C53.0319 79.0407 52.9479 78.866 52.8436 78.7115C52.7413 78.5551 52.6187 78.4219 52.4758 78.3119C52.3349 78.2018 52.1746 78.1179 51.9951 78.0599C51.8155 78.002 51.6186 77.9731 51.4043 77.9731C51.0529 77.9731 50.7334 78.0638 50.4458 78.2453C50.1581 78.4268 49.9293 78.6942 49.7594 79.0475C49.5895 79.4008 49.5046 79.8342 49.5046 80.3477C49.5046 80.8613 49.5905 81.2947 49.7623 81.648C49.9341 82.0013 50.1668 82.2687 50.4602 82.4502C50.7537 82.6317 51.0838 82.7224 51.4507 82.7224C51.7905 82.7224 52.0897 82.65 52.3484 82.5052C52.609 82.3585 52.8118 82.1519 52.9566 81.8855C53.1033 81.6171 53.1766 81.3015 53.1766 80.9385L53.3967 80.9849H51.6128V80.3477H53.8717V80.9849C53.8717 81.4733 53.7674 81.898 53.5589 82.2591C53.3523 82.6201 53.0666 82.9 52.7017 83.0989C52.3388 83.2958 51.9217 83.3943 51.4507 83.3943C50.9255 83.3943 50.4641 83.2707 50.0664 83.0236C49.6706 82.7765 49.3617 82.4251 49.1397 81.9695C48.9196 81.5138 48.8095 80.9733 48.8095 80.3477C48.8095 79.8786 48.8723 79.4568 48.9978 79.0822C49.1252 78.7057 49.3048 78.3852 49.5364 78.1208C49.7681 77.8563 50.0423 77.6535 50.3589 77.5126C50.6755 77.3717 51.024 77.3012 51.4043 77.3012C51.7171 77.3012 52.0086 77.3485 52.2789 77.4431C52.5511 77.5358 52.7934 77.668 53.0058 77.8398C53.2201 78.0097 53.3987 78.2134 53.5415 78.4509C53.6844 78.6864 53.7829 78.948 53.8369 79.2357H53.0956Z" fill="white"/>
<path d="M55.1017 83.3132V77.3823H58.6811V78.0194H55.8199V80.0234H58.4958V80.6605H55.8199V82.6761H58.7275V83.3132H55.1017Z" fill="white"/>
<path d="M59.9756 77.3823H60.8328L62.8484 82.3054H62.9179L64.9335 77.3823H65.7907V83.3132H65.1188V78.8071H65.0609L63.2075 83.3132H62.5588L60.7054 78.8071H60.6475V83.3132H59.9756V77.3823Z" fill="white"/>
</svg>
