<svg width="100" height="100" viewBox="0 0 100 100" fill="none" xmlns="http://www.w3.org/2000/svg">
<rect width="100" height="100" fill="#78AC84"/>
<path d="M30.8934 85.5834H30L32.5839 78.5465H33.4635L36.0473 85.5834H35.154L33.0512 79.6597H32.9962L30.8934 85.5834ZM31.2232 82.8346H34.8241V83.5905H31.2232V82.8346Z" fill="white"/>
<path d="M37.1434 85.5834V78.5465H39.5211C40.0732 78.5465 40.5244 78.6461 40.8749 78.8454C41.2276 79.0424 41.4888 79.3093 41.6583 79.646C41.8278 79.9827 41.9126 80.3584 41.9126 80.773C41.9126 81.1876 41.8278 81.5644 41.6583 81.9034C41.4911 82.2424 41.2322 82.5127 40.8818 82.7143C40.5313 82.9136 40.0823 83.0132 39.5349 83.0132H37.8306V82.2573H39.5074C39.8853 82.2573 40.1888 82.192 40.4179 82.0615C40.647 81.9309 40.813 81.7545 40.9161 81.5323C41.0215 81.3078 41.0742 81.0547 41.0742 80.773C41.0742 80.4912 41.0215 80.2393 40.9161 80.0171C40.813 79.7949 40.6458 79.6208 40.4145 79.4948C40.1831 79.3665 39.8762 79.3024 39.4936 79.3024H37.9955V85.5834H37.1434Z" fill="white"/>
<path d="M49.2226 82.0649C49.2226 82.8071 49.0886 83.4485 48.8206 83.9891C48.5526 84.5297 48.1849 84.9466 47.7176 85.2398C47.2504 85.533 46.7166 85.6796 46.1165 85.6796C45.5163 85.6796 44.9826 85.533 44.5153 85.2398C44.048 84.9466 43.6804 84.5297 43.4124 83.9891C43.1444 83.4485 43.0104 82.8071 43.0104 82.0649C43.0104 81.3227 43.1444 80.6814 43.4124 80.1408C43.6804 79.6002 44.048 79.1833 44.5153 78.8901C44.9826 78.5969 45.5163 78.4503 46.1165 78.4503C46.7166 78.4503 47.2504 78.5969 47.7176 78.8901C48.1849 79.1833 48.5526 79.6002 48.8206 80.1408C49.0886 80.6814 49.2226 81.3227 49.2226 82.0649ZM48.398 82.0649C48.398 81.4556 48.296 80.9413 48.0922 80.5222C47.8906 80.103 47.6169 79.7857 47.271 79.5704C46.9274 79.3551 46.5425 79.2474 46.1165 79.2474C45.6904 79.2474 45.3044 79.3551 44.9586 79.5704C44.615 79.7857 44.3412 80.103 44.1374 80.5222C43.9358 80.9413 43.835 81.4556 43.835 82.0649C43.835 82.6742 43.9358 83.1885 44.1374 83.6077C44.3412 84.0269 44.615 84.3441 44.9586 84.5594C45.3044 84.7748 45.6904 84.8824 46.1165 84.8824C46.5425 84.8824 46.9274 84.7748 47.271 84.5594C47.6169 84.3441 47.8906 84.0269 48.0922 83.6077C48.296 83.1885 48.398 82.6742 48.398 82.0649ZM45.7454 77.8318L46.5838 76.2375H47.5321L46.4601 77.8318H45.7454Z" fill="white"/>
<path d="M50.6554 85.5834V78.5465H51.5075V84.8274H54.7786V85.5834H50.6554Z" fill="white"/>
<path d="M56.9501 78.5465V85.5834H56.098V78.5465H56.9501Z" fill="white"/>
<path d="M64.3212 80.7455H63.4691C63.4187 80.5004 63.3305 80.2851 63.2045 80.0995C63.0808 79.914 62.9296 79.7582 62.7509 79.6322C62.5746 79.504 62.3787 79.4077 62.1634 79.3436C61.9481 79.2795 61.7236 79.2474 61.4899 79.2474C61.0639 79.2474 60.6779 79.3551 60.332 79.5704C59.9884 79.7857 59.7147 80.103 59.5108 80.5222C59.3092 80.9413 59.2084 81.4556 59.2084 82.0649C59.2084 82.6742 59.3092 83.1885 59.5108 83.6077C59.7147 84.0269 59.9884 84.3441 60.332 84.5594C60.6779 84.7748 61.0639 84.8824 61.4899 84.8824C61.7236 84.8824 61.9481 84.8503 62.1634 84.7862C62.3787 84.7221 62.5746 84.627 62.7509 84.501C62.9296 84.3727 63.0808 84.2158 63.2045 84.0303C63.3305 83.8425 63.4187 83.6271 63.4691 83.3843H64.3212C64.257 83.744 64.1402 84.0658 63.9707 84.3498C63.8012 84.6339 63.5905 84.8755 63.3385 85.0748C63.0865 85.2718 62.8036 85.4219 62.4898 85.5249C62.1783 85.628 61.845 85.6796 61.4899 85.6796C60.8898 85.6796 60.3561 85.533 59.8888 85.2398C59.4215 84.9466 59.0538 84.5297 58.7858 83.9891C58.5178 83.4485 58.3838 82.8071 58.3838 82.0649C58.3838 81.3227 58.5178 80.6814 58.7858 80.1408C59.0538 79.6002 59.4215 79.1833 59.8888 78.8901C60.3561 78.5969 60.8898 78.4503 61.4899 78.4503C61.845 78.4503 62.1783 78.5018 62.4898 78.6049C62.8036 78.708 63.0865 78.8591 63.3385 79.0584C63.5905 79.2554 63.8012 79.4959 63.9707 79.78C64.1402 80.0617 64.257 80.3836 64.3212 80.7455Z" fill="white"/>
<path d="M65.6981 85.5834V78.5465H69.945V79.3024H66.5503V81.6801H69.7251V82.436H66.5503V84.8274H70V85.5834H65.6981Z" fill="white"/>
<path d="M64.9208 17.3194H58.7305C58.3267 17.3194 58.0127 17.6334 58.0127 18.0372C58.0127 18.4409 58.3267 18.7549 58.7305 18.7549H64.9208C65.8628 18.7549 66.6253 19.5175 66.6253 20.4595V60.4274C66.6253 61.3694 65.8628 62.1319 64.9208 62.1319H33.2515C32.3095 62.1319 31.5469 61.3694 31.5469 60.4274V50.8279C31.5469 50.4242 31.2329 50.1102 30.8292 50.1102C30.4255 50.1102 30.1115 50.4242 30.1115 50.8279V60.4274C30.1115 62.1768 31.5469 63.5674 33.2515 63.5674H64.9208C66.6702 63.5674 68.0608 62.1319 68.0608 60.4274V20.4595C68.0608 18.71 66.6702 17.3194 64.9208 17.3194Z" fill="white"/>
<path d="M30.8292 48.4504C31.2329 48.4504 31.5469 48.0916 31.5469 47.6879V20.4595C31.5469 19.5175 32.3095 18.7549 33.2515 18.7549H39.0381C39.4418 18.7549 39.7558 18.4409 39.7558 18.0372C39.7558 17.6334 39.4418 17.3194 39.0381 17.3194H33.2515C31.502 17.3194 30.1115 18.7549 30.1115 20.4595V47.6879C30.1115 48.1364 30.4255 48.4504 30.8292 48.4504Z" fill="white"/>
<path d="M64.4273 28.0403C64.8311 28.0403 65.1451 27.7263 65.1451 27.3226V20.9529C65.1451 20.5492 64.8311 20.2352 64.4273 20.2352H58.6407C58.237 20.2352 57.923 20.5492 57.923 20.9529C57.923 21.3566 58.237 21.6706 58.6407 21.6706H63.7096V27.3226C63.7096 27.7263 64.0236 28.0403 64.4273 28.0403Z" fill="white"/>
<path d="M39.1278 20.2352H33.7449C33.3412 20.2352 33.0272 20.5492 33.0272 20.9529V59.9339C33.0272 60.3376 33.3412 60.6516 33.7449 60.6516H64.4273C64.8311 60.6516 65.1451 60.3376 65.1451 59.9339V30.4178C65.1451 30.0141 64.8311 29.7001 64.4273 29.7001C64.0236 29.7001 63.7096 30.0141 63.7096 30.4178V59.2162H34.4626V21.6706H39.1278C39.5315 21.6706 39.8455 21.3566 39.8455 20.9529C39.8455 20.5492 39.5315 20.2352 39.1278 20.2352Z" fill="white"/>
<path d="M43.3444 22.0743H54.469C55.6353 22.0743 56.5773 21.1323 56.5773 19.966V17.9026C56.5773 16.7363 55.6353 15.7943 54.469 15.7943H54.1999L54.0653 15.57C53.527 14.5831 52.5401 14 51.4636 14H46.305C45.2284 14 44.1967 14.5831 43.7032 15.57L43.6135 15.7943H43.3444C42.1781 15.7943 41.2361 16.7363 41.2361 17.9026V19.966C41.2361 21.1323 42.1781 22.0743 43.3444 22.0743ZM42.6715 17.9026C42.6715 17.5437 42.9855 17.2297 43.3444 17.2297H44.0621C44.3312 17.2297 44.5555 17.0952 44.6901 16.826L45.0041 16.2429C45.2733 15.7494 45.7667 15.4354 46.305 15.4354H51.4636C52.0019 15.4354 52.4953 15.7494 52.7644 16.2429L53.0784 16.8709C53.213 17.0952 53.4373 17.2746 53.7064 17.2746H54.4241C54.783 17.2746 55.097 17.5886 55.097 17.9474V20.0109C55.097 20.3697 54.783 20.6837 54.4241 20.6837H43.3444C42.9855 20.6837 42.6715 20.3697 42.6715 20.0109V17.9026Z" fill="white"/>
<path d="M45.9013 19.2483H51.8673C52.271 19.2483 52.585 18.9343 52.585 18.5306C52.585 18.1269 52.271 17.8129 51.8673 17.8129H45.9013C45.4975 17.8129 45.1835 18.1269 45.1835 18.5306C45.1835 18.9343 45.4975 19.2483 45.9013 19.2483Z" fill="white"/>
<path d="M41.6398 46.073C41.6398 45.3104 41.0118 44.6824 40.2492 44.6824H38.1409C37.3784 44.6824 36.7504 45.3104 36.7504 46.073V48.1813C36.7504 48.9439 37.3784 49.5719 38.1409 49.5719H40.2492C41.0118 49.5719 41.6398 48.9439 41.6398 48.1813C41.6398 48.2262 41.6398 46.073 41.6398 46.073ZM40.2044 48.1364H38.1858V46.1179H40.2044V48.1364Z" fill="white"/>
<path d="M44.6901 46.4319H43.793C43.3892 46.4319 43.0752 46.7459 43.0752 47.1496C43.0752 47.5533 43.3892 47.8673 43.793 47.8673H44.6901C45.0938 47.8673 45.4078 47.5533 45.4078 47.1496C45.4078 46.7459 45.0938 46.4319 44.6901 46.4319Z" fill="white"/>
<path d="M59.807 46.4319H47.5161C47.1124 46.4319 46.7984 46.7459 46.7984 47.1496C46.7984 47.5533 47.1124 47.8673 47.5161 47.8673H59.807C60.2107 47.8673 60.5247 47.5533 60.5247 47.1496C60.5247 46.7459 60.2107 46.4319 59.807 46.4319Z" fill="white"/>
<path d="M41.6398 39.7033C41.6398 38.9407 41.0118 38.3127 40.2492 38.3127H38.1409C37.3784 38.3127 36.7504 38.9407 36.7504 39.7033V41.8116C36.7504 42.5741 37.3784 43.2021 38.1409 43.2021H40.2492C41.0118 43.2021 41.6398 42.5741 41.6398 41.8116V39.7033ZM40.2044 41.7667H38.1858V39.7481H40.2044V41.7667Z" fill="white"/>
<path d="M44.6901 40.0173H43.793C43.3892 40.0173 43.0752 40.3313 43.0752 40.735C43.0752 41.1387 43.3892 41.4527 43.793 41.4527H44.6901C45.0938 41.4527 45.4078 41.1387 45.4078 40.735C45.4078 40.3313 45.0938 40.0173 44.6901 40.0173Z" fill="white"/>
<path d="M59.807 40.0173H47.5161C47.1124 40.0173 46.7984 40.3313 46.7984 40.735C46.7984 41.1387 47.1124 41.4527 47.5161 41.4527H59.807C60.2107 41.4527 60.5247 41.1387 60.5247 40.735C60.5247 40.3313 60.2107 40.0173 59.807 40.0173Z" fill="white"/>
<path d="M41.6398 33.2887C41.6398 32.5261 41.0118 31.8981 40.2492 31.8981H38.1409C37.3784 31.8981 36.7504 32.5261 36.7504 33.2887V35.397C36.7504 36.1595 37.3784 36.7875 38.1409 36.7875H40.2492C41.0118 36.7875 41.6398 36.1595 41.6398 35.397V33.2887ZM40.2044 35.3521H38.1858V33.3335H40.2044V35.3521Z" fill="white"/>
<path d="M44.6901 33.6475H43.793C43.3892 33.6475 43.0752 33.9615 43.0752 34.3652C43.0752 34.769 43.3892 35.083 43.793 35.083H44.6901C45.0938 35.083 45.4078 34.769 45.4078 34.3652C45.4078 33.9615 45.0938 33.6475 44.6901 33.6475Z" fill="white"/>
<path d="M59.807 33.6475H47.5161C47.1124 33.6475 46.7984 33.9615 46.7984 34.3652C46.7984 34.769 47.1124 35.083 47.5161 35.083H59.807C60.2107 35.083 60.5247 34.769 60.5247 34.3652C60.5247 33.9615 60.2107 33.6475 59.807 33.6475Z" fill="white"/>
<path d="M41.6398 26.8741C41.6398 26.1115 41.0118 25.4835 40.2492 25.4835H38.1409C37.3784 25.4835 36.7504 26.1115 36.7504 26.8741V28.9824C36.7504 29.7449 37.3784 30.3729 38.1409 30.3729H40.2492C41.0118 30.3729 41.6398 29.7449 41.6398 28.9824C41.6398 29.0272 41.6398 26.8741 41.6398 26.8741ZM40.2044 28.9824H38.1858V26.9638H40.2044V28.9824Z" fill="white"/>
<path d="M44.6901 27.2329H43.793C43.3892 27.2329 43.0752 27.5469 43.0752 27.9506C43.0752 28.3544 43.3892 28.6684 43.793 28.6684H44.6901C45.0938 28.6684 45.4078 28.3544 45.4078 27.9506C45.4078 27.5469 45.0938 27.2329 44.6901 27.2329Z" fill="white"/>
<path d="M59.807 27.2329H47.5161C47.1124 27.2329 46.7984 27.5469 46.7984 27.9506C46.7984 28.3544 47.1124 28.6684 47.5161 28.6684H59.807C60.2107 28.6684 60.5247 28.3544 60.5247 27.9506C60.5247 27.5469 60.2107 27.2329 59.807 27.2329Z" fill="white"/>
<path d="M40.2492 51.0073H38.1409C37.3784 51.0073 36.7504 51.6353 36.7504 52.3979V54.5062C36.7504 55.2688 37.3784 55.8968 38.1409 55.8968H40.2492C41.0118 55.8968 41.6398 55.2688 41.6398 54.5062V52.3979C41.6398 51.6353 41.0118 51.0073 40.2492 51.0073ZM40.2044 54.5062H38.1858V52.4876H40.2044V54.5062Z" fill="white"/>
<path d="M44.6901 52.7567H43.793C43.3892 52.7567 43.0752 53.0707 43.0752 53.4745C43.0752 53.8782 43.3892 54.1922 43.793 54.1922H44.6901C45.0938 54.1922 45.4078 53.8782 45.4078 53.4745C45.4078 53.0707 45.0938 52.7567 44.6901 52.7567Z" fill="white"/>
<path d="M59.807 52.7567H47.5161C47.1124 52.7567 46.7984 53.0707 46.7984 53.4745C46.7984 53.8782 47.1124 54.1922 47.5161 54.1922H59.807C60.2107 54.1922 60.5247 53.8782 60.5247 53.4745C60.5247 53.0707 60.2107 52.7567 59.807 52.7567Z" fill="white"/>
</svg>
