<svg width="100" height="100" viewBox="0 0 100 100" fill="none" xmlns="http://www.w3.org/2000/svg">
<rect width="100" height="100" fill="#78AC84"/>
<path d="M59.8746 49.025C61.2549 49.025 62.3951 47.8848 62.3951 46.5045C62.3951 45.1243 61.2549 43.984 59.8746 43.984C58.4943 43.984 57.3541 45.1243 57.3541 46.5045C57.3541 47.5848 58.0443 48.5149 59.0044 48.875C57.7142 56.9166 51.3829 58.2969 51.0829 58.3569C49.7026 58.687 47.9922 58.597 46.792 58.507C45.9218 58.4169 45.1117 58.1469 44.4215 57.6968C42.5311 56.4365 41.0008 54.4261 40.6708 53.976C40.6407 53.1059 40.3407 52.2957 39.8606 51.6356V41.8836C41.2409 40.6834 42.6211 39.5131 44.0014 38.3129C45.0816 37.3827 46.1619 36.3925 47.062 35.2823C47.8122 34.3521 48.4423 33.3619 48.7424 32.1917C48.8024 31.8916 48.8624 31.5915 48.8924 31.2915V30.3613C48.8924 30.3013 48.8624 30.2413 48.8624 30.1812C48.7124 28.891 48.2323 27.7508 47.3021 26.8506C46.4019 25.9204 45.2017 25.4403 43.9714 25.4103C43.7914 24.6001 43.0712 24 42.1711 24V24.6901C42.8612 24.6901 43.4313 25.2603 43.4313 25.9504C43.4313 26.6405 42.8612 27.2106 42.1711 27.2106V27.9008C43.0412 27.9008 43.7914 27.3307 44.0314 26.5205C45.3517 26.5505 46.672 27.3007 47.3321 28.6209C48.1423 30.2413 48.0222 31.8316 47.1221 33.3919C46.5819 34.3221 45.9218 35.1022 45.1417 35.8224C44.3615 36.5425 43.5513 37.2327 42.7712 37.9528H36.1698C35.5097 37.3527 34.8196 36.7826 34.1594 36.1825C33.3193 35.4323 32.5691 34.6221 31.969 33.6619C31.3989 32.7618 31.0388 31.7716 31.0988 30.6613C31.1588 29.191 31.6989 27.9908 32.9292 27.1506C33.4093 26.8206 33.9794 26.6105 34.6095 26.5505C34.8496 27.3307 35.5997 27.9308 36.4699 27.9308V27.2407C35.7798 27.2407 35.2097 26.6705 35.2097 25.9804C35.2097 25.2903 35.7798 24.7201 36.4699 24.7201V24C35.5697 24 34.8196 24.6001 34.6095 25.4103C33.8294 25.4703 33.0792 25.7404 32.3591 26.2204C30.4387 27.5107 29.8086 29.4011 30.0486 31.6515C30.1686 32.7618 30.6487 33.752 31.3089 34.6521C32.029 35.6724 32.8692 36.5425 33.7994 37.3527C35.5397 38.883 37.3101 40.3833 39.0504 41.9136V50.7054C38.3303 50.1353 37.4001 49.8052 36.4399 49.8052C34.0694 49.8052 32.149 51.7256 32.149 54.0961C32.149 56.4665 34.0694 58.3869 36.4399 58.3869C38.4203 58.3869 40.1006 57.0067 40.5807 55.1763C41.2709 56.0465 42.5011 57.3967 44.0014 58.3869C44.8116 58.927 45.7418 59.2571 46.762 59.3471C47.3321 59.4071 48.0222 59.4371 48.7424 59.4371C49.6126 59.4371 50.5127 59.3771 51.3229 59.1971C51.3829 59.1671 53.2133 58.807 55.1937 57.3067C56.904 55.9564 59.1545 53.4659 59.8746 49.025ZM37.16 38.823H41.751C41.3909 39.123 41.0608 39.4231 40.7308 39.7232C40.3107 40.0832 39.9206 40.4433 39.4705 40.8034C38.9304 40.3533 38.4203 39.9032 37.9102 39.4831C37.6702 39.2431 37.4001 39.033 37.16 38.823ZM36.4099 57.5468C34.5195 57.5468 32.9892 56.0165 32.9892 54.1261C32.9892 52.2357 34.5195 50.7054 36.4099 50.7054C38.3003 50.7054 39.8306 52.2357 39.8306 54.1261C39.8306 56.0165 38.3003 57.5468 36.4099 57.5468ZM58.2243 46.5045C58.2243 45.5743 58.9744 44.8242 59.9046 44.8242C60.8348 44.8242 61.585 45.5743 61.585 46.5045C61.585 47.4347 60.8348 48.1849 59.9046 48.1849C58.9744 48.1849 58.2243 47.4047 58.2243 46.5045Z" fill="white"/>
<path d="M69.9867 41.6736C69.8066 40.1733 69.2365 38.823 68.1863 37.7428C66.536 36.0624 64.0455 35.5823 61.945 36.5125C60.8048 37.0226 59.9646 37.8628 59.3045 38.883C59.1845 39.093 59.0645 39.3031 58.9144 39.5131C58.8544 39.4531 58.8544 39.3931 58.7944 39.3331C58.4943 38.913 58.2543 38.4629 57.9242 38.0728C56.0639 35.8224 52.9432 35.3123 50.5728 36.9626C48.3523 38.4929 47.5721 40.7134 47.8722 43.3239C48.0222 44.6142 48.5924 45.7844 49.3425 46.8346C50.1827 48.0048 51.1729 49.055 52.2531 50.0152C52.9132 50.5854 53.5734 51.1555 54.2335 51.7556L54.8636 50.5554C54.1435 49.9252 53.4233 49.2951 52.7332 48.665C51.773 47.7948 50.8728 46.8046 50.1527 45.6944C49.4625 44.6142 49.0424 43.4739 49.1025 42.1837C49.1625 40.5033 49.7926 39.063 51.2629 38.1028C52.8532 37.0226 55.4037 36.9326 57.0841 39.1531C57.5942 39.8432 57.9842 40.5933 58.2543 41.4035C58.4043 41.8536 58.8244 42.0636 59.1845 41.8536C59.3345 41.7636 59.4545 41.5535 59.5446 41.3735C59.8446 40.5333 60.2347 39.7532 60.8048 39.063C62.9052 36.3925 66.716 37.0826 68.0963 39.8432C69.0565 41.7336 68.9064 43.624 67.8562 45.4543C67.2261 46.5345 66.446 47.4647 65.5158 48.3049C63.8054 49.8652 62.0951 51.3655 60.3547 52.8658C59.8746 53.2859 59.3945 53.706 58.8844 54.1261C58.7644 54.006 58.6144 53.886 58.4943 53.766L57.9842 55.0563C58.1343 55.1763 58.2843 55.3263 58.4643 55.4463C58.7644 55.7164 59.0945 55.6864 59.3945 55.4163C61.0149 54.006 62.6652 52.6258 64.2555 51.2155C65.5158 50.1053 66.776 48.965 67.8562 47.6748C68.7564 46.5946 69.4766 45.4243 69.8066 44.044C69.8966 43.684 69.9267 43.3239 69.9867 42.9938V41.9136C70.0167 41.8236 69.9867 41.7336 69.9867 41.6736Z" fill="white"/>
<path d="M42.8548 72.8722C42.8272 72.6393 42.7153 72.4585 42.5192 72.3298C42.3231 72.2011 42.0825 72.1367 41.7975 72.1367C41.5891 72.1367 41.4068 72.1704 41.2505 72.2379C41.0957 72.3053 40.9747 72.398 40.8873 72.516C40.8015 72.6339 40.7586 72.768 40.7586 72.9182C40.7586 73.0438 40.7885 73.1519 40.8483 73.2423C40.9096 73.3311 40.9877 73.4054 41.0827 73.4652C41.1777 73.5234 41.2773 73.5717 41.3815 73.61C41.4857 73.6468 41.5815 73.6767 41.6688 73.6996L42.1469 73.8283C42.2695 73.8605 42.4058 73.905 42.556 73.9617C42.7077 74.0184 42.8525 74.0957 42.9904 74.1938C43.1298 74.2903 43.2447 74.4144 43.3351 74.5661C43.4255 74.7178 43.4708 74.904 43.4708 75.1246C43.4708 75.379 43.4041 75.6088 43.2708 75.8142C43.139 76.0195 42.9459 76.1827 42.6916 76.3037C42.4388 76.4248 42.1315 76.4853 41.7699 76.4853C41.4328 76.4853 41.1409 76.4309 40.8942 76.3221C40.6491 76.2133 40.456 76.0616 40.315 75.867C40.1756 75.6724 40.0967 75.4464 40.0783 75.189H40.6667C40.682 75.3667 40.7418 75.5138 40.846 75.6303C40.9517 75.7452 41.085 75.831 41.2459 75.8877C41.4083 75.9429 41.583 75.9705 41.7699 75.9705C41.9875 75.9705 42.1829 75.9352 42.356 75.8647C42.5292 75.7927 42.6663 75.6931 42.7674 75.5659C42.8686 75.4372 42.9191 75.2871 42.9191 75.1155C42.9191 74.9592 42.8755 74.832 42.7881 74.7339C42.7008 74.6359 42.5859 74.5562 42.4434 74.4949C42.3009 74.4336 42.1469 74.38 41.9814 74.334L41.4022 74.1685C41.0344 74.0628 40.7433 73.9119 40.5288 73.7157C40.3143 73.5196 40.207 73.2629 40.207 72.9458C40.207 72.6822 40.2783 72.4524 40.4208 72.2562C40.5648 72.0586 40.7579 71.9054 41 71.7966C41.2436 71.6862 41.5156 71.6311 41.8159 71.6311C42.1193 71.6311 42.389 71.6855 42.6249 71.7943C42.8609 71.9015 43.0478 72.0486 43.1857 72.2356C43.3252 72.4225 43.3987 72.6347 43.4064 72.8722H42.8548Z" fill="white"/>
<path d="M44.601 76.4026H44.0034L45.7318 71.6954H46.3202L48.0486 76.4026H47.451L46.0444 72.4401H46.0076L44.601 76.4026ZM44.8216 74.5638H47.2304V75.0695H44.8216V74.5638Z" fill="white"/>
<path d="M51.8708 71.6954H52.4408V74.8121C52.4408 75.1338 52.365 75.4211 52.2133 75.674C52.0631 75.9253 51.8509 76.1237 51.5766 76.2693C51.3024 76.4133 50.9806 76.4853 50.6113 76.4853C50.242 76.4853 49.9203 76.4133 49.646 76.2693C49.3717 76.1237 49.1587 75.9253 49.007 75.674C48.8569 75.4211 48.7818 75.1338 48.7818 74.8121V71.6954H49.3518V74.7661C49.3518 74.9959 49.4024 75.2005 49.5035 75.3798C49.6046 75.5575 49.7486 75.6977 49.9356 75.8004C50.1241 75.9015 50.3493 75.9521 50.6113 75.9521C50.8733 75.9521 51.0986 75.9015 51.287 75.8004C51.4755 75.6977 51.6195 75.5575 51.7191 75.3798C51.8203 75.2005 51.8708 74.9959 51.8708 74.7661V71.6954ZM50.3631 71.2174L50.9239 70.1509H51.5583L50.8412 71.2174H50.3631Z" fill="white"/>
<path d="M55.0317 76.4026H53.5791V71.6954H55.0961C55.5527 71.6954 55.9434 71.7897 56.2683 71.9781C56.5931 72.1651 56.8421 72.434 57.0152 72.7849C57.1884 73.1342 57.275 73.5525 57.275 74.0398C57.275 74.5301 57.1876 74.9523 57.0129 75.3062C56.8383 75.6586 56.5839 75.9299 56.2499 76.1199C55.9158 76.3083 55.5098 76.4026 55.0317 76.4026ZM54.1491 75.8969H54.9949C55.3841 75.8969 55.7067 75.8218 55.9626 75.6717C56.2185 75.5215 56.4092 75.3078 56.5349 75.0304C56.6605 74.7531 56.7233 74.4229 56.7233 74.0398C56.7233 73.6598 56.6613 73.3327 56.5372 73.0584C56.4131 72.7826 56.2277 72.5711 55.981 72.424C55.7343 72.2754 55.427 72.2011 55.0593 72.2011H54.1491V75.8969Z" fill="white"/>
<path d="M58.2311 76.4026V71.6954H61.0719V72.2011H58.8011V73.7916H60.9248V74.2972H58.8011V75.8969H61.1087V76.4026H58.2311Z" fill="white"/>
</svg>
