<svg width="100" height="100" viewBox="0 0 100 100" fill="none" xmlns="http://www.w3.org/2000/svg">
<rect width="100" height="100" fill="#78AC84"/>
<path d="M43.9362 66.731L45.2552 70.4713H45.3073L46.6264 66.731H47.1905L45.559 71.1743H45.0036L43.3721 66.731H43.9362Z" fill="white"/>
<path d="M48.4206 66.731V71.1743H47.8826V66.731H48.4206Z" fill="white"/>
<path d="M50.8706 71.1743H49.4994V66.731H50.9313C51.3623 66.731 51.7312 66.82 52.0378 66.9979C52.3444 67.1744 52.5795 67.4282 52.7429 67.7594C52.9063 68.0892 52.9881 68.484 52.9881 68.944C52.9881 69.4068 52.9056 69.8053 52.7407 70.1394C52.5758 70.4721 52.3357 70.7281 52.0204 70.9074C51.7051 71.0853 51.3218 71.1743 50.8706 71.1743ZM50.0375 70.697H50.8359C51.2032 70.697 51.5077 70.6261 51.7492 70.4844C51.9908 70.3426 52.1709 70.1408 52.2895 69.8791C52.4081 69.6173 52.4674 69.3056 52.4674 68.944C52.4674 68.5853 52.4088 68.2765 52.2916 68.0176C52.1745 67.7572 51.9995 67.5576 51.7666 67.4188C51.5337 67.2785 51.2437 67.2083 50.8966 67.2083H50.0375V70.697Z" fill="white"/>
<path d="M53.864 71.1743H53.2999L54.9314 66.731H55.4868L57.1183 71.1743H56.5542L55.2265 67.434H55.1918L53.864 71.1743ZM54.0723 69.4386H56.346V69.9159H54.0723V69.4386Z" fill="white"/>
<path d="M69.9365 36.3162C69.4834 33.059 67.699 30.7364 64.64 29.5752C61.6377 28.4422 58.8053 29.0087 56.3128 31.048C56.0012 31.3029 55.718 31.5861 55.4348 31.8694C52.3475 28.4139 47.5891 28.4139 44.5584 30.3966C41.896 32.1526 39.8 36.118 41.4428 40.4515C41.5561 40.7347 41.8393 40.8763 42.1226 40.7914C42.4625 40.7064 42.6324 40.3382 42.5191 39.9983C41.3862 37.1943 42.1509 33.8521 44.5018 31.8694C47.3342 29.4619 51.4411 29.6035 54.1319 32.2093C54.3868 32.4642 54.6134 32.6908 54.8683 32.9457C55.3215 33.3705 55.6047 33.3139 56.0862 32.7757C56.2845 32.5492 56.5111 32.3226 56.7377 32.096C59.0602 30.085 61.666 29.5468 64.4134 30.7081C66.9342 31.7561 68.407 33.6821 68.7469 36.4012C69.0585 38.7804 68.2938 40.7914 66.5943 42.4908C63.5354 45.5498 60.4481 48.6371 57.3891 51.696C56.7376 52.3475 56.0579 53.0273 55.4348 53.6504L50.8463 49.0336C50.648 48.8353 50.3931 48.807 50.1382 48.9203C49.77 49.1186 49.685 49.6001 49.9683 49.8833C51.5827 51.4978 53.1689 53.1122 54.7833 54.7267C55.2931 55.2365 55.4914 55.2365 56.0296 54.7267C58.4371 52.3192 60.8446 49.9116 63.2521 47.5041C64.725 46.0313 66.2544 44.5584 67.699 43.029C69.3984 41.2446 70.2481 38.7804 69.9365 36.3162Z" fill="white"/>
<path d="M50.2798 46.9376C50.5914 46.966 50.7613 46.7677 50.8746 46.5128C51.6677 44.7284 52.4891 42.9723 53.2821 41.1879C53.3388 41.0463 53.4238 40.8764 53.5087 40.6781C54.0469 41.896 54.5567 43.0573 55.0665 44.2186C55.1232 44.3319 55.1798 44.4451 55.2082 44.5584C55.3215 44.9267 55.5764 45.0399 55.9729 45.0399C56.9926 44.9833 58.0122 44.955 59.0602 45.0399C59.57 45.0683 59.8533 44.87 59.8533 44.5301C59.8533 44.1902 59.5984 44.0203 59.1735 44.0203C58.2955 44.0203 57.3891 44.0203 56.5111 44.0203C56.2278 44.0203 56.0862 43.9353 55.9729 43.6804C55.3498 42.2359 54.7267 40.8197 54.0752 39.3752C53.9619 39.1203 53.8486 38.8937 53.5371 38.8654C53.1972 38.8654 53.0556 39.092 52.9423 39.3752C52.1492 41.1313 51.3561 42.9157 50.5631 44.6717C50.5064 44.785 50.4498 44.8983 50.3648 45.0966C50.1949 44.6717 50.0532 44.3319 49.8833 43.9636C49.0336 41.896 48.2122 39.8567 47.3625 37.7891C47.3342 37.7324 47.3058 37.6758 47.3058 37.6191C47.1925 37.3925 47.0226 37.2509 46.7677 37.2509C46.4844 37.2792 46.3428 37.4492 46.2862 37.7041C46.0313 38.7521 45.7763 39.8 45.5214 40.8764C45.2948 41.811 45.0683 42.7457 44.8417 43.7087C44.785 43.9353 44.7 43.992 44.4735 43.992C43.6237 43.992 33.0873 43.992 30.5098 43.992C30.2266 43.992 30 44.2186 30 44.5018C30 44.785 30.2266 45.0116 30.5098 45.0116C33.1723 45.0116 44.1052 45.0116 44.9266 45.0116C45.5214 45.0116 45.6064 44.9267 45.748 44.3602C46.1162 42.859 46.4561 41.3862 46.8243 39.885C46.8526 39.8 46.881 39.6868 46.9093 39.5168C46.9943 39.6868 47.0509 39.8 47.0792 39.9417C47.9573 42.1226 48.8353 44.2752 49.7417 46.4561C49.855 46.6827 49.9683 46.9093 50.2798 46.9376Z" fill="white"/>
</svg>
