<svg width="100" height="100" viewBox="0 0 100 100" fill="none" xmlns="http://www.w3.org/2000/svg">
<rect width="100" height="100" fill="#78AC84"/>
<mask id="mask0_15_25" style="mask-type:luminance" maskUnits="userSpaceOnUse" x="30" y="45" width="40" height="10">
<path d="M70 45H30V54.6379H70V45Z" fill="white"/>
</mask>
<g mask="url(#mask0_15_25)">
<path fill-rule="evenodd" clip-rule="evenodd" d="M52.3831 45.0263C51.6985 45.0263 51.1718 45.2633 50.7505 45.711C50.1448 46.343 50.1448 47.133 50.1448 48.1863C50.1448 49.2396 50.1185 50.0296 50.7505 50.6616C51.1718 51.1093 51.6985 51.3463 52.3831 51.3463C53.0678 51.3463 53.5945 51.1093 54.0158 50.6616C54.6215 50.0296 54.6215 49.266 54.6215 48.1863C54.6215 47.1066 54.6215 46.343 54.0158 45.711C53.5681 45.2633 53.0678 45.0263 52.3831 45.0263ZM53.1205 49.9243C52.9625 50.135 52.6991 50.2666 52.3831 50.2666C52.0672 50.2666 51.7775 50.135 51.6195 49.9243C51.3825 49.661 51.3298 49.3713 51.3298 48.1863C51.3298 47.0013 51.3825 46.7117 51.6195 46.4483C51.8038 46.2377 52.0672 46.106 52.3831 46.106C52.6991 46.106 52.9625 46.2377 53.1468 46.4483C53.3838 46.7117 53.4365 47.0013 53.4365 48.1863C53.4365 49.3713 53.3575 49.661 53.1205 49.9243ZM69.9737 51.2146C69.9737 51.2146 69.447 49.7663 68.9203 48.318C68.3937 46.8697 67.867 45.395 67.8407 45.3687C67.7617 45.1317 67.4984 45.0263 67.2614 45.0263C67.0244 45.0263 66.761 45.1317 66.6557 45.3687C66.6294 45.4213 64.549 51.2146 64.549 51.2146L64.5227 51.2673H65.26C65.576 51.2673 65.7604 50.9776 65.892 50.6616L66.366 49.3713H67.7354L67.3667 48.5023H66.682L67.235 46.8433L68.5517 50.5826C68.7097 51.1093 68.8677 51.2936 69.4207 51.2936H69.447C69.4733 51.2936 69.4997 51.2936 69.526 51.2936H70L69.9737 51.2146ZM48.2225 45.8953V49.0816L45.6682 45H45.4839C44.9572 45 44.4832 45.1843 44.4832 45.7373V51.2936C45.0362 51.2936 45.6682 51.0566 45.6682 50.4246V47.2646L48.2225 51.3199H48.4068C48.9335 51.3199 49.4075 51.1356 49.4075 50.5826V45.0263C48.8545 45.0263 48.2225 45.2633 48.2225 45.8953ZM57.8604 47.6333L57.1494 47.528C56.9124 47.5016 56.7018 47.3963 56.5964 47.291C56.4648 47.1593 56.4121 47.0013 56.4121 46.8433C56.4121 46.5273 56.5701 46.264 56.9124 46.1323C57.0178 46.106 57.1231 46.0797 57.2548 46.0797C57.6498 46.027 58.3344 46.0797 59.0191 46.6327C59.2561 46.2377 59.3614 45.7637 58.9664 45.4213C58.5188 45.1317 58.0184 45 57.3864 45C56.0698 45 55.2798 45.79 55.2798 46.896C55.2798 47.4226 55.4378 47.8176 55.7011 48.1073C55.9645 48.3706 56.3594 48.555 56.8598 48.634L57.5971 48.7393C57.8868 48.792 58.0184 48.8446 58.1238 48.95C58.2554 49.0816 58.3081 49.266 58.3081 49.4766C58.3081 49.977 57.9394 50.2403 57.2284 50.2403C56.6754 50.2403 56.1488 50.1086 55.7801 49.7136L55.0165 50.5036C55.5958 51.1356 56.3068 51.3199 57.2284 51.3199C58.4924 51.3199 59.4668 50.6353 59.4668 49.4503C59.4668 48.8973 59.3088 48.4496 58.9928 48.1336C58.7558 47.8703 58.4134 47.7123 57.8604 47.6333ZM62.7847 47.6333L62.0737 47.528C61.8367 47.5016 61.6261 47.3963 61.5207 47.291C61.3891 47.1593 61.3364 47.0013 61.3364 46.8433C61.3364 46.5273 61.4944 46.264 61.8367 46.1323C61.9421 46.106 62.0474 46.0797 62.1791 46.0797C62.5741 46.027 63.2587 46.0797 63.9434 46.6327C64.1804 46.2377 64.2857 45.7637 63.8907 45.4213C63.4431 45.1317 62.9427 45 62.3107 45C60.9941 45 60.2041 45.79 60.2041 46.896C60.2041 47.4226 60.3358 47.8176 60.6254 48.1073C60.8887 48.3706 61.2837 48.555 61.7841 48.634L62.5214 48.7393C62.8111 48.792 62.9427 48.8446 63.0481 48.95C63.1797 49.0816 63.2324 49.266 63.2324 49.4766C63.2324 49.977 62.8637 50.2403 62.1527 50.2403C61.5997 50.2403 61.0731 50.1086 60.7044 49.7136L59.9408 50.5036C60.5464 51.1356 61.2311 51.3199 62.1527 51.3199C63.4167 51.3199 64.3911 50.6353 64.3911 49.4503C64.3911 48.8973 64.2331 48.4496 63.9171 48.1336C63.6801 47.8703 63.3377 47.7123 62.7847 47.6333Z" fill="white"/>
<path d="M45.8788 54.3483C45.7472 54.5589 45.4838 54.6379 45.2732 54.6379C44.8782 54.6379 44.5622 54.4799 44.5095 54.0323L44.7465 53.9796C44.7729 54.1639 44.8519 54.2693 44.9835 54.3219C45.0625 54.3746 45.1678 54.3746 45.2732 54.3746C45.4312 54.3746 45.5892 54.3219 45.6682 54.1903C45.6945 54.1376 45.7208 54.0849 45.7208 54.0059C45.7208 53.8743 45.6682 53.7953 45.5365 53.7426C45.5102 53.7163 45.4048 53.6899 45.1678 53.6373C44.8782 53.5583 44.7729 53.5056 44.6939 53.4529C44.6149 53.3739 44.5622 53.2423 44.5622 53.1106C44.5622 52.9789 44.6149 52.8473 44.7465 52.7419C44.8519 52.6366 45.0099 52.6103 45.2205 52.6103C45.4838 52.6103 45.7472 52.6893 45.8788 52.9526C45.8788 52.9789 45.9052 53.0053 45.9315 53.0579L45.7208 53.1633C45.6682 53.0316 45.6155 52.9789 45.5365 52.9263C45.4838 52.8999 45.3785 52.8736 45.2205 52.8736C45.0625 52.8736 44.9835 52.8999 44.9045 52.9526C44.8519 53.0053 44.8255 53.0843 44.8255 53.1369C44.8255 53.1896 44.8519 53.2686 44.9045 53.3213C44.9835 53.3739 45.1415 53.4266 45.2468 53.4266C45.4312 53.4793 45.5892 53.5056 45.6682 53.5583C45.8788 53.6636 45.9842 53.8216 45.9842 54.0323C45.9578 54.1639 45.9315 54.2693 45.8788 54.3483Z" fill="white"/>
<path d="M48.5648 54.6116V52.6629H49.8288V52.8999H48.8018V53.4793H49.6971V53.7163H48.8018V54.3746H49.8288V54.6116H48.5648Z" fill="white"/>
<path d="M53.8315 54.6116H53.6208V54.4009C53.4891 54.5589 53.3311 54.6379 53.1468 54.6379C52.8835 54.6379 52.6728 54.5326 52.5148 54.2956C52.4095 54.1113 52.3568 53.9269 52.3568 53.6373C52.3568 53.3476 52.4095 53.1369 52.5148 52.9789C52.6465 52.7683 52.8835 52.6366 53.1468 52.6366C53.4101 52.6366 53.5681 52.7156 53.7788 52.9789L53.5945 53.1369C53.4101 52.9263 53.3048 52.8736 53.1468 52.8736C52.9625 52.8736 52.8308 52.9526 52.7255 53.1106C52.6465 53.2423 52.6201 53.3739 52.6201 53.6373C52.6201 53.9006 52.6465 54.0323 52.7255 54.1639C52.8308 54.3219 52.9625 54.3746 53.1468 54.3746C53.2785 54.3746 53.4101 54.2956 53.4891 54.1639C53.5681 54.0586 53.5945 53.9269 53.5945 53.7689H53.1205V53.5319H53.8578L53.8315 54.6116Z" fill="white"/>
<path d="M57.7815 54.3219C57.6498 54.5062 57.4391 54.6379 57.1758 54.6379C56.9125 54.6379 56.7018 54.5326 56.5701 54.3219C56.4648 54.1376 56.4385 53.9269 56.4385 53.7426V52.6366H56.6755V53.7426C56.6755 53.9006 56.6755 54.0586 56.7545 54.1903C56.8335 54.2956 56.9651 54.3746 57.1495 54.3746C57.3338 54.3746 57.4655 54.2956 57.5445 54.1903C57.6235 54.0586 57.6235 53.9006 57.6235 53.7426V52.6366H57.8605V53.7426C57.9131 53.9533 57.8868 54.1639 57.7815 54.3219Z" fill="white"/>
<path d="M61.7051 54.6116C61.7051 54.6116 61.4944 54.2429 61.2837 53.9269C61.2574 53.8743 61.2311 53.8216 61.1784 53.7689C61.1521 53.7426 61.0994 53.7163 61.0468 53.7163H60.8098V54.5852H60.5728V52.6366H61.2574C61.3891 52.6366 61.5471 52.6366 61.6787 52.7156C61.8367 52.7946 61.9157 52.9789 61.9157 53.1633C61.9157 53.3476 61.8367 53.5319 61.6787 53.6109C61.6261 53.6636 61.5471 53.6636 61.4681 53.6899C61.4944 53.7163 61.4944 53.7426 61.5207 53.7689C61.7577 54.1376 62.0211 54.5852 62.0211 54.5852L61.7051 54.6116ZM61.5207 52.9526C61.4417 52.8999 61.3364 52.8999 61.2311 52.8999H60.8098V53.5056H61.2574C61.3627 53.5056 61.4681 53.5056 61.5471 53.4529C61.6261 53.4003 61.6524 53.3213 61.6524 53.2159C61.6524 53.1106 61.5997 53.0053 61.5207 52.9526Z" fill="white"/>
<path d="M65.8393 54.2956C65.7077 54.5062 65.4707 54.6379 65.2074 54.6379C64.944 54.6379 64.707 54.5062 64.5754 54.2956C64.47 54.1113 64.4174 53.9269 64.4174 53.6373C64.4174 53.3476 64.47 53.1369 64.5754 52.9789C64.707 52.7683 64.944 52.6366 65.2074 52.6366C65.4707 52.6366 65.7077 52.7683 65.8393 52.9789C65.9447 53.1633 65.9973 53.3476 65.9973 53.6373C65.9973 53.9269 65.971 54.1376 65.8393 54.2956ZM65.6287 53.1106C65.5234 52.9526 65.3917 52.8736 65.2074 52.8736C65.023 52.8736 64.865 52.9526 64.786 53.1106C64.707 53.2423 64.6807 53.3739 64.6807 53.6373C64.6807 53.9006 64.707 54.0323 64.786 54.1639C64.8914 54.3219 65.023 54.3746 65.2074 54.3746C65.3917 54.3746 65.5497 54.2956 65.6287 54.1639C65.7077 54.0323 65.734 53.9006 65.734 53.6373C65.734 53.3739 65.7077 53.2423 65.6287 53.1106Z" fill="white"/>
<path d="M69.8947 54.3483C69.763 54.5589 69.4997 54.6379 69.289 54.6379C68.894 54.6379 68.6043 54.4799 68.5253 54.0323L68.7623 53.9796C68.7887 54.1639 68.8677 54.2693 68.9993 54.3219C69.0783 54.3746 69.1837 54.3746 69.289 54.3746C69.447 54.3746 69.605 54.3219 69.684 54.1903C69.7103 54.1376 69.7367 54.0849 69.7367 54.0059C69.7367 53.8743 69.684 53.7953 69.5523 53.7426C69.526 53.7163 69.4207 53.6899 69.1837 53.6373C68.894 53.5583 68.7887 53.5056 68.7097 53.4529C68.6043 53.3739 68.578 53.2423 68.578 53.1106C68.578 52.9789 68.6307 52.8473 68.7623 52.7419C68.8677 52.6366 69.0257 52.6103 69.2363 52.6103C69.4997 52.6103 69.763 52.6893 69.8947 52.9526C69.921 52.9789 69.921 53.0053 69.9473 53.0579L69.7103 53.1633C69.6577 53.0316 69.605 52.9789 69.526 52.9263C69.4733 52.8999 69.368 52.8736 69.21 52.8736C69.052 52.8736 68.973 52.8999 68.9203 52.9526C68.8677 53.0053 68.815 53.0843 68.815 53.1369C68.815 53.1896 68.8413 53.2686 68.894 53.3213C68.973 53.3739 69.131 53.4266 69.2363 53.4266C69.4207 53.4793 69.5787 53.5056 69.6577 53.5583C69.8683 53.6636 69.9737 53.8216 69.9737 54.0323C69.9737 54.1639 69.9473 54.2693 69.8947 54.3483Z" fill="white"/>
<path d="M42.2449 45.0263H42.0605V54.6116H42.2449V45.0263Z" fill="white"/>
<path fill-rule="evenodd" clip-rule="evenodd" d="M39.7169 45.0263H31.1323C30.5003 45.0263 30 45.5267 30 46.1587V54.5853H38.5846C39.2166 54.5853 39.7169 54.0849 39.7169 53.4529V45.0263Z" fill="#1B571A"/>
</g>
<mask id="mask1_15_25" style="mask-type:luminance" maskUnits="userSpaceOnUse" x="30" y="45" width="10" height="10">
<path d="M31.1323 45.0263C30.5003 45.0263 30 45.5267 30 46.1587V54.5853H38.5846C39.2166 54.5853 39.7169 54.0849 39.7169 53.4529V45.0263H31.1323V45.0263Z" fill="white"/>
</mask>
<g mask="url(#mask1_15_25)">
<path d="M39.7169 45.0263H30V54.5853H39.7169V45.0263Z" fill="url(#paint0_radial_15_25)"/>
</g>
<mask id="mask2_15_25" style="mask-type:luminance" maskUnits="userSpaceOnUse" x="30" y="45" width="10" height="10">
<path d="M30.316 49.7926C30.316 52.2943 32.3436 54.3219 34.8453 54.3219C37.3469 54.3219 39.3746 52.2943 39.3746 49.7926C39.3746 47.291 37.3733 45.2633 34.8716 45.2633C32.37 45.2633 30.316 47.291 30.316 49.7926Z" fill="white"/>
</mask>
<g mask="url(#mask2_15_25)">
<path d="M39.3746 45.2633H30.316V54.3219H39.3746V45.2633Z" fill="url(#paint1_radial_15_25)"/>
</g>
<mask id="mask3_15_25" style="mask-type:luminance" maskUnits="userSpaceOnUse" x="30" y="45" width="40" height="10">
<path d="M70 45H30V54.6379H70V45Z" fill="white"/>
</mask>
<g mask="url(#mask3_15_25)">
<path fill-rule="evenodd" clip-rule="evenodd" d="M33.713 48.16C33.6866 48.1336 33.634 48.1073 33.6076 48.0546C33.5813 48.002 33.5813 47.9493 33.5813 47.923C33.6076 47.8966 33.6076 47.8703 33.6603 47.844C33.7393 47.7913 33.792 47.8176 33.8446 47.8703C33.871 47.8966 33.8973 47.923 33.8973 47.9493C33.9236 48.002 33.9236 48.0546 33.9236 48.1073C33.8973 48.1336 33.871 48.16 33.8446 48.1863C33.792 48.1863 33.7393 48.1863 33.713 48.16ZM33.2126 48.397C33.16 48.4496 33.081 48.476 32.9493 48.555C33.2916 48.4496 33.2916 48.4496 33.4496 48.713C33.4233 48.6603 33.397 48.5023 33.4233 48.4496C33.4496 48.4233 33.476 48.3706 33.5286 48.3443C33.5813 48.318 33.6076 48.318 33.6603 48.3443C33.6866 48.3706 33.7393 48.397 33.7656 48.4496C33.792 48.5023 33.792 48.5286 33.7656 48.5813C33.7393 48.6076 33.713 48.6603 33.6603 48.6866C33.555 48.7393 33.5023 48.7656 33.476 48.7656C33.792 48.6603 33.8446 48.6866 33.9763 49.0026C34.0553 49.266 34.0816 49.345 33.95 49.424C33.792 49.4766 33.7393 49.3976 33.634 49.1343C33.7656 49.4766 33.7393 49.503 33.397 49.661C33.6603 49.5556 33.7656 49.5293 33.8183 49.6873C33.871 49.8453 33.792 49.898 33.555 50.0033C33.6603 50.3456 33.6603 50.372 33.318 50.53C33.6603 50.3983 33.6603 50.3983 33.8183 50.7406C34.1343 50.6353 34.1606 50.6353 34.3186 50.9776C34.6346 50.8723 34.6873 50.8986 34.8453 51.2146C34.7663 50.9513 34.7136 50.846 34.8716 50.7933C35.0296 50.7406 35.0823 50.8196 35.1876 51.083C35.1086 50.8196 35.056 50.7143 35.214 50.6616C35.372 50.609 35.3983 50.688 35.5036 50.925C35.8196 50.8196 35.846 50.846 36.004 51.162C36.241 51.083 36.3726 51.083 36.4253 51.2146C36.5043 51.3726 36.3989 51.4253 36.1356 51.5306C36.3989 51.4253 36.5043 51.399 36.5569 51.557C36.6096 51.7149 36.5306 51.7676 36.2673 51.8729C36.5306 51.7676 36.6359 51.7413 36.6886 51.8993C36.7413 52.0573 36.6623 52.1099 36.3989 52.2153C36.6623 52.1099 36.7676 52.0836 36.8203 52.2416C36.8729 52.3996 36.7939 52.4523 36.5306 52.5839C36.8729 52.4523 36.8729 52.4523 37.0309 52.7683C37.2679 52.6893 37.3996 52.6629 37.4523 52.8209C37.5313 52.9789 37.4259 53.0316 37.1626 53.1369C37.4259 53.0316 37.5313 53.0053 37.5839 53.1633C37.6103 53.2159 37.6103 53.2423 37.5839 53.2949C37.6103 53.2686 37.6366 53.2423 37.6629 53.2159C37.6366 53.1896 37.6103 53.1896 37.6103 53.1633C37.5839 53.0843 37.6103 52.9789 37.7156 52.9263C37.7946 52.8999 37.8736 52.9263 37.9263 52.9789L37.9526 52.9526C37.9526 52.9263 37.9526 52.8999 37.9789 52.8736C38.0053 52.8473 38.0316 52.7946 38.0843 52.7683C38.1106 52.7683 38.1106 52.7419 38.1369 52.7683C38.1896 52.7156 38.2423 52.6629 38.2949 52.5839C38.2686 52.5576 38.2159 52.5313 38.1896 52.4786C38.1633 52.4259 38.1633 52.3733 38.1896 52.3469C38.2159 52.3206 38.2423 52.2679 38.2949 52.2416C38.3476 52.2153 38.3739 52.2153 38.4266 52.2416C38.4529 52.2416 38.4793 52.2679 38.5056 52.2943C38.5056 52.2679 38.5319 52.2416 38.5583 52.2416C38.5583 52.1626 38.5583 52.1363 38.6636 52.1099C38.6636 52.1099 38.6899 52.0836 38.6899 52.0573C38.6373 52.0573 38.5583 52.0836 38.5319 52.0573C38.4793 52.0309 38.4529 52.0046 38.4529 51.9519C38.4529 51.8993 38.4266 51.8729 38.4529 51.8203C38.4793 51.7939 38.5056 51.7413 38.5319 51.7149C38.5846 51.6886 38.6109 51.6886 38.6636 51.7149C38.7163 51.7413 38.7426 51.7676 38.7426 51.8203L38.7689 51.8729V51.8466C38.7163 51.6623 38.7426 51.6096 38.9269 51.5306C38.7426 51.5833 38.6636 51.5833 38.6109 51.4516C38.5583 51.32 38.6109 51.241 38.8216 51.1356C38.7426 51.162 38.6109 51.1883 38.5583 51.162C38.5056 51.1356 38.4793 51.1093 38.4793 51.0566C38.4529 51.004 38.4529 50.9776 38.4793 50.925C38.5056 50.8986 38.5319 50.846 38.5846 50.8196C38.6373 50.7933 38.6636 50.7933 38.7163 50.8196C38.7689 50.846 38.7953 50.8723 38.7953 50.925L38.8743 51.083C38.7689 50.767 38.7953 50.7406 39.1113 50.5826C38.8479 50.688 38.7426 50.7143 38.6636 50.5563C38.5846 50.3983 38.6899 50.3456 38.9533 50.2403C38.6899 50.3456 38.5846 50.372 38.5056 50.214C38.4529 50.0823 38.5319 50.0033 38.7426 49.898C38.6899 49.9243 38.5319 49.9506 38.4529 49.9243C38.4003 49.898 38.3739 49.8716 38.3739 49.819C38.3476 49.7663 38.3476 49.74 38.3739 49.6873C38.4003 49.661 38.4266 49.6083 38.4529 49.582C38.5056 49.5556 38.5319 49.5556 38.5846 49.582C38.6373 49.6083 38.6636 49.6346 38.6636 49.6873C38.7163 49.7926 38.7426 49.8453 38.7426 49.8716C38.6373 49.5556 38.6373 49.5293 38.9533 49.3713C38.9269 49.3713 38.7426 49.4503 38.6373 49.3976C38.5846 49.3713 38.5583 49.345 38.5583 49.2923C38.5319 49.2396 38.5319 49.2133 38.5583 49.1606C38.5846 49.1343 38.6109 49.0816 38.6636 49.0553C38.7163 49.029 38.7426 49.029 38.7953 49.0553C38.8479 49.0816 38.8743 49.108 38.8743 49.1606C38.9269 49.266 38.9533 49.3186 38.9533 49.3186C38.8743 49.0816 38.8479 48.9763 39.0059 48.9236C39.1376 48.871 39.1639 48.9236 39.2693 49.0816C39.2429 48.95 39.2166 48.8183 39.2166 48.713C39.1639 48.6866 39.1113 48.6076 39.0849 48.555C39.0849 48.5813 39.1113 48.6603 39.1113 48.713C39.1113 48.7393 39.1113 48.792 39.1113 48.8183C39.0849 48.8446 39.0586 48.8973 39.0323 48.9236C38.9796 48.95 38.9533 48.95 38.9006 48.9236C38.8743 48.8973 38.8479 48.8973 38.8216 48.871C38.7953 48.8446 38.7953 48.8183 38.7689 48.792C38.7689 48.8183 38.7689 48.8446 38.7689 48.871C38.7689 48.8973 38.7689 48.95 38.7689 48.9763C38.7426 49.0026 38.7163 49.0553 38.6899 49.0816C38.6373 49.108 38.6109 49.108 38.5583 49.0816C38.5319 49.0553 38.5056 49.0553 38.4793 49.029C38.4529 49.0026 38.4266 48.9763 38.4266 48.95C38.4266 48.9763 38.4529 49.029 38.4529 49.0553C38.4529 49.0816 38.4529 49.1343 38.4529 49.1606C38.4266 49.187 38.4003 49.2396 38.3476 49.266C38.2949 49.2923 38.2423 49.2923 38.2159 49.266C38.1896 49.266 38.1633 49.2396 38.1369 49.187C38.1896 49.2133 38.1633 49.187 38.1633 49.1606C38.1633 49.2133 38.1896 49.2923 38.1633 49.345C38.1369 49.3713 38.1106 49.424 38.0579 49.4503C38.0053 49.4766 37.9789 49.4766 37.9263 49.4503C37.8999 49.424 37.8473 49.3976 37.8209 49.345C37.7946 49.2923 37.7946 49.2396 37.8209 49.2133C37.8473 49.187 37.8736 49.1343 37.9263 49.108L38.0843 49.029C38.0579 49.029 37.9526 49.0553 37.8736 49.0816C37.8473 49.0816 37.7946 49.0816 37.7683 49.0816C37.7419 49.0553 37.6893 49.029 37.6629 48.9763C37.6366 48.9236 37.6366 48.8973 37.6629 48.8446C37.6629 48.8183 37.6893 48.792 37.7419 48.7656C37.8209 48.713 37.9263 48.6603 37.9263 48.6603H37.9526C37.9526 48.6603 38.0316 48.634 38.1369 48.6076C38.1633 48.5813 38.2159 48.6076 38.2423 48.6076C38.2686 48.634 38.2949 48.634 38.3213 48.6866C38.3476 48.713 38.3476 48.7393 38.3739 48.7656C38.3739 48.7393 38.3476 48.6866 38.3476 48.6603C38.3476 48.634 38.3476 48.5813 38.3476 48.555C38.3739 48.5286 38.4003 48.476 38.4529 48.4496C38.5056 48.4233 38.5319 48.4233 38.5846 48.4496C38.6109 48.476 38.6373 48.476 38.6636 48.5023C38.6899 48.5286 38.6899 48.555 38.7163 48.5813C38.7163 48.555 38.7163 48.5286 38.7163 48.5023C38.7163 48.476 38.7163 48.4233 38.7163 48.397C38.7426 48.3706 38.7689 48.318 38.7953 48.2916C38.8479 48.2653 38.8743 48.2653 38.9269 48.2916C38.9533 48.318 38.9796 48.318 39.0059 48.3443C39.0323 48.397 39.0586 48.4496 39.0849 48.476C39.0586 48.3706 39.0323 48.2916 39.1113 48.1863C39.1113 48.16 39.0849 48.1336 39.0849 48.1073C39.0059 48.1073 38.9533 48.081 38.9269 48.002C38.9006 47.923 38.9006 47.844 38.9533 47.8176C38.9533 47.7913 38.9269 47.765 38.9269 47.765C38.9006 47.765 38.9006 47.765 38.8743 47.7386C38.8216 47.7123 38.7953 47.686 38.7953 47.6333C38.7953 47.5807 38.7953 47.5543 38.7953 47.5017V47.4753C38.7689 47.4227 38.7426 47.3963 38.7163 47.3437C38.6636 47.3173 38.6636 47.291 38.6373 47.2647C38.6373 47.2383 38.6373 47.2383 38.6373 47.212C38.5846 47.133 38.5319 47.054 38.4793 47.0013C38.4793 47.0277 38.4793 47.0277 38.4793 47.054C38.4529 47.1067 38.4266 47.133 38.3739 47.133C38.3213 47.133 38.2949 47.1593 38.2423 47.133C38.1896 47.1067 38.1369 47.054 38.1106 46.975C38.1369 47.054 38.1369 47.133 38.1106 47.1857C38.0843 47.212 38.0579 47.2647 38.0053 47.291C37.9526 47.3173 37.9263 47.3173 37.8736 47.291C37.8473 47.2647 37.7946 47.2383 37.7683 47.1857C37.7419 47.133 37.7419 47.0803 37.7683 47.054C37.7946 47.0013 37.8209 46.975 37.8736 46.975C37.9526 46.9223 38.1369 46.8697 38.2159 46.8433C38.2423 46.8433 38.2686 46.817 38.2949 46.8433C38.2686 46.817 38.2686 46.7907 38.2423 46.7907C38.1896 46.8433 38.1106 46.896 38.0316 46.9223C37.8473 46.975 37.7156 47.0277 37.5576 46.738C37.5839 46.7907 37.6103 46.9487 37.5839 47.0277C37.5576 47.0803 37.5313 47.1067 37.4786 47.1067C37.4786 47.1067 37.4259 47.1067 37.3733 47.1067C37.3469 47.0803 37.2943 47.054 37.2679 47.0277C37.2416 46.975 37.2416 46.9487 37.2679 46.896C37.2943 46.8433 37.3469 46.817 37.3733 46.7907C37.4786 46.738 37.5313 46.7117 37.5576 46.7117C37.2416 46.817 37.1889 46.817 37.0573 46.5537C37.1363 46.7643 37.1363 46.8433 37.0046 46.896C36.8729 46.9487 36.8203 46.8697 36.7149 46.6853C36.7939 46.896 36.7939 47.0013 36.6623 47.054C36.5306 47.1067 36.4779 47.0803 36.3726 46.8697C36.4516 47.0803 36.4516 47.133 36.32 47.1857C36.1883 47.2383 36.1356 47.212 36.0303 47.0013C36.1093 47.212 36.083 47.2647 35.9513 47.3173C35.8196 47.37 35.767 47.3437 35.6616 47.1593C35.767 47.449 35.609 47.4753 35.4246 47.5543C35.293 47.607 35.1613 47.6333 35.0296 47.528C35.0033 47.5017 34.977 47.4753 34.977 47.449C34.9506 47.37 34.9243 47.291 34.9506 47.2647C34.977 47.2383 34.977 47.212 35.0296 47.212C35.1613 47.1593 35.214 47.212 35.3456 47.4227C35.2666 47.212 35.2403 47.1067 35.372 47.054C35.5036 47.0013 35.5563 47.0013 35.6616 47.1857C35.5826 46.975 35.5826 46.9487 35.7143 46.8697C35.846 46.7907 35.8986 46.817 36.004 47.0277C35.925 46.817 35.925 46.7643 36.0566 46.7117C36.1883 46.659 36.241 46.6853 36.3463 46.8697C36.241 46.6063 36.3726 46.5273 36.5569 46.4483C36.7413 46.3693 36.8993 46.3167 37.0573 46.58C36.9519 46.3167 37.0573 46.2113 37.2416 46.1323C37.2943 46.0533 37.3206 46.027 37.3733 46.027C37.2416 45.9217 37.0836 45.8427 36.9256 45.7637C36.9256 45.79 36.8993 45.79 36.8729 45.79C36.7939 45.8427 36.6886 45.79 36.6359 45.711C36.6096 45.6847 36.6096 45.6583 36.6096 45.632C36.5569 45.6057 36.4779 45.5793 36.3989 45.553C36.3726 45.553 36.3726 45.5793 36.3463 45.5793C36.2673 45.632 36.162 45.5793 36.1093 45.5003C36.1093 45.474 36.083 45.474 36.083 45.4477C36.004 45.4213 35.925 45.395 35.8196 45.395C35.7406 45.4213 35.6616 45.4213 35.609 45.3423C35.5826 45.3423 35.5826 45.3423 35.5563 45.3423C35.609 45.4213 35.5563 45.5267 35.4773 45.5793C35.3983 45.632 35.293 45.5793 35.2403 45.5003C35.2666 45.4213 35.2666 45.3423 35.3193 45.2897C35.2403 45.2897 35.1613 45.2897 35.0823 45.2633C35.056 45.2897 35.0296 45.3423 35.0033 45.3687C34.9243 45.4213 34.819 45.3687 34.7663 45.2897V45.2633H34.7136L34.74 45.2897C34.7926 45.3687 34.74 45.474 34.661 45.5267C34.582 45.5793 34.4766 45.5267 34.424 45.4477C34.3976 45.395 34.3976 45.316 34.424 45.2897C34.3186 45.2897 34.2396 45.316 34.1343 45.316C34.0553 45.3687 33.95 45.4213 33.95 45.4213H33.9236C33.9236 45.4213 33.8446 45.4477 33.7393 45.474C33.7393 45.5267 33.713 45.5267 33.6866 45.5003C33.6603 45.5003 33.634 45.474 33.6076 45.4477H33.5813C33.5813 45.474 33.5813 45.5267 33.5813 45.553C33.555 45.6057 33.5286 45.632 33.5023 45.6583C33.476 45.6847 33.4233 45.6847 33.3706 45.6583C33.3443 45.6583 33.318 45.632 33.2916 45.6057C33.2653 45.5793 33.2653 45.5793 33.2653 45.553H33.239C33.239 45.5793 33.239 45.5793 33.2653 45.6057C33.2653 45.6583 33.2653 45.6847 33.2653 45.711C33.1863 45.79 33.16 45.8163 33.1336 45.8427C33.1073 45.869 33.0546 45.869 33.002 45.8427C32.9756 45.8427 32.9493 45.8163 32.923 45.79C32.8966 45.7637 32.8966 45.7373 32.8703 45.7373H32.844C32.8703 45.869 32.844 46.0007 32.607 46.1323C32.8703 46.027 32.9756 45.9743 33.0546 46.1323C33.1073 46.264 33.0546 46.343 32.8703 46.4483C32.9493 46.422 33.0546 46.3957 33.1073 46.3957C33.16 46.422 33.1863 46.4483 33.2126 46.4747C33.239 46.501 33.239 46.5537 33.2126 46.6063C33.1863 46.659 33.16 46.6853 33.1336 46.7117C33.1073 46.738 33.0546 46.738 33.002 46.7117C32.9493 46.6853 32.923 46.659 32.8966 46.6327C32.844 46.5537 32.8176 46.4747 32.7913 46.4747C32.8966 46.7117 32.923 46.817 32.7913 46.896C32.6333 46.9487 32.5806 46.8697 32.449 46.6327C32.212 46.738 32.1067 46.7643 32.0277 46.6063C32.0013 46.5537 31.975 46.5273 31.975 46.5273C31.975 46.5273 32.0013 46.58 32.0277 46.6327C32.0803 46.738 32.0013 46.817 31.8433 46.9223V46.9487C32.0277 46.8697 32.1067 46.896 32.1593 47.0013C32.212 47.1067 32.1593 47.1857 32.0013 47.291V47.3173C32.1857 47.2383 32.2647 47.2647 32.3173 47.37C32.37 47.4753 32.3173 47.5543 32.1593 47.6596V47.686C32.3437 47.607 32.4226 47.6333 32.4753 47.7386C32.528 47.844 32.4753 47.923 32.3173 48.0283V48.0546C32.5543 47.9756 32.5543 48.002 32.7123 48.2653C32.844 48.2126 32.9493 48.1863 33.002 48.1863C33.0283 48.1863 33.081 48.239 33.1073 48.2916C33.2126 48.2653 33.2126 48.3443 33.2126 48.397ZM34.187 53.2423C34.187 53.2423 33.9763 53.3476 33.871 53.3213C33.8183 53.3213 33.792 53.2686 33.7656 53.2423C33.7393 53.2159 33.7393 53.1633 33.7656 53.1106C33.792 53.0579 33.8183 53.0316 33.8446 53.0053C33.871 52.9789 33.9236 52.9789 33.9763 53.0053C34.029 53.0316 34.0553 53.0579 34.0816 53.0843C34.1606 53.1896 34.187 53.2423 34.187 53.2423ZM33.5813 53.7689C33.634 53.8479 33.5813 53.9533 33.5023 54.0059C33.4233 54.0586 33.318 54.0059 33.2653 53.9269C33.2126 53.8479 33.2653 53.7426 33.3443 53.6899C33.4496 53.6373 33.555 53.6899 33.5813 53.7689ZM33.9236 53.5846C33.9763 53.6636 33.9236 53.7689 33.8446 53.8216C33.7656 53.8743 33.6603 53.8216 33.6076 53.7426C33.555 53.6636 33.6076 53.5583 33.6866 53.5056C33.7656 53.4529 33.871 53.5056 33.9236 53.5846ZM32.8966 53.2423C32.9493 53.3213 32.8966 53.4266 32.8176 53.4793C32.7386 53.5319 32.6333 53.4793 32.5806 53.4003C32.528 53.3213 32.5806 53.2159 32.6596 53.1633C32.7386 53.1106 32.844 53.1633 32.8966 53.2423ZM33.239 53.0579C33.2916 53.1369 33.239 53.2423 33.16 53.2949C33.081 53.3476 32.9756 53.2949 32.923 53.2159C32.8703 53.1369 32.923 53.0316 33.002 52.9789C33.081 52.9526 33.1863 52.9789 33.239 53.0579ZM33.555 52.8999C33.6076 52.9789 33.555 53.0843 33.476 53.1369C33.397 53.1896 33.2916 53.1369 33.239 53.0579C33.1863 52.9789 33.239 52.8736 33.318 52.8209C33.4233 52.7683 33.5286 52.7946 33.555 52.8999ZM32.37 53.0579C32.4226 53.1369 32.37 53.2423 32.291 53.2949C32.212 53.3476 32.1067 53.2949 32.054 53.2159C32.0013 53.1369 32.054 53.0316 32.133 52.9789C32.2383 52.9526 32.3173 52.9789 32.37 53.0579ZM32.7123 52.8736C32.765 52.9526 32.7123 53.0579 32.6333 53.1106C32.5543 53.1633 32.449 53.1106 32.3963 53.0316C32.3437 52.9526 32.3963 52.8473 32.4753 52.7946C32.5543 52.7683 32.6596 52.7946 32.7123 52.8736ZM33.0546 52.7156C33.1073 52.7946 33.0546 52.8999 32.9756 52.9526C32.8966 53.0053 32.7913 52.9526 32.7386 52.8736C32.686 52.7946 32.7386 52.6893 32.8176 52.6366C32.8966 52.5839 33.002 52.6366 33.0546 52.7156ZM33.0546 53.5846C33.1073 53.6636 33.0546 53.7689 32.9756 53.8216C32.8966 53.8743 32.7913 53.8216 32.7386 53.7426C32.686 53.6636 32.7386 53.5583 32.8176 53.5056C32.8966 53.4529 33.0283 53.5056 33.0546 53.5846ZM33.397 53.4003C33.4496 53.4793 33.397 53.5846 33.318 53.6373C33.239 53.6899 33.1336 53.6373 33.081 53.5583C33.0283 53.4793 33.081 53.3739 33.16 53.3213C33.2653 53.2949 33.3706 53.3213 33.397 53.4003ZM33.7393 53.2423C33.792 53.3213 33.7393 53.4266 33.6603 53.4793C33.5813 53.5319 33.476 53.4793 33.4233 53.4003C33.3706 53.3213 33.4233 53.2159 33.5023 53.1633C33.5813 53.1106 33.6866 53.1633 33.7393 53.2423ZM33.8446 52.5313C33.8446 52.5313 33.95 52.7419 33.8973 52.8473C33.871 52.8999 33.8446 52.9263 33.8183 52.9526C33.792 52.9789 33.7393 52.9789 33.6866 52.9526C33.634 52.9526 33.6076 52.8999 33.5813 52.8736C33.555 52.8473 33.555 52.7946 33.5813 52.7419C33.6076 52.6893 33.634 52.6629 33.6603 52.6366C33.792 52.5839 33.8446 52.5313 33.8446 52.5313ZM33.318 52.3469C33.318 52.3469 33.4233 52.5576 33.397 52.6629C33.3706 52.7156 33.3443 52.7419 33.318 52.7683C33.2916 52.7946 33.239 52.7946 33.1863 52.7683C33.1336 52.7419 33.1073 52.7156 33.081 52.6893C33.0546 52.6629 33.0546 52.6103 33.081 52.5576C33.1073 52.5049 33.1336 52.4786 33.16 52.4523C33.2653 52.3996 33.318 52.3733 33.318 52.3469ZM32.133 52.5313C32.133 52.5313 32.2383 52.7419 32.212 52.8473C32.1857 52.8999 32.1593 52.9263 32.133 52.9526C32.1067 52.9789 32.054 52.9789 32.0013 52.9526C31.9487 52.9263 31.896 52.8999 31.8697 52.8736C31.8433 52.8473 31.8433 52.7946 31.8697 52.7419C31.896 52.6893 31.9223 52.6629 31.9487 52.6366C32.0803 52.5576 32.133 52.5313 32.133 52.5313ZM35.609 46.2377C35.6616 46.3167 35.609 46.422 35.53 46.4747C35.451 46.5273 35.3456 46.4747 35.293 46.3957C35.2403 46.3167 35.293 46.2113 35.372 46.1587C35.451 46.106 35.5563 46.1587 35.609 46.2377ZM35.9513 46.0533C36.004 46.1323 35.9513 46.2377 35.8723 46.2903C35.7933 46.343 35.688 46.2903 35.6353 46.2113C35.5826 46.1323 35.6353 46.027 35.7143 45.9743C35.7933 45.948 35.8986 45.9743 35.9513 46.0533ZM35.4246 45.869C35.4773 45.948 35.4246 46.0533 35.3456 46.106C35.2666 46.1587 35.1613 46.106 35.1086 46.027C35.056 45.948 35.1086 45.8427 35.1876 45.79C35.2666 45.7373 35.3983 45.79 35.4246 45.869ZM35.767 45.711C35.8196 45.79 35.767 45.8953 35.688 45.948C35.609 46.0007 35.5036 45.948 35.451 45.869C35.3983 45.79 35.451 45.6847 35.53 45.632C35.609 45.5793 35.7406 45.632 35.767 45.711ZM36.1093 45.553C36.162 45.632 36.1093 45.7373 36.0303 45.79C35.9513 45.8427 35.846 45.79 35.7933 45.711C35.7406 45.632 35.7933 45.5267 35.8723 45.474C35.9513 45.4213 36.083 45.474 36.1093 45.553ZM36.4516 46.264C36.5043 46.343 36.4516 46.4483 36.3726 46.501C36.2936 46.5537 36.1883 46.501 36.1356 46.422C36.083 46.343 36.1356 46.2377 36.2146 46.185C36.32 46.1323 36.4253 46.185 36.4516 46.264ZM36.7939 46.0797C36.8466 46.1587 36.7939 46.264 36.7149 46.3167C36.6359 46.3693 36.5306 46.3167 36.4779 46.2377C36.4253 46.1587 36.4779 46.0533 36.5569 46.0007C36.6623 45.9743 36.7676 46.0007 36.7939 46.0797ZM37.1363 45.9217C37.1889 46.0007 37.1363 46.106 37.0573 46.1587C36.9783 46.2113 36.8729 46.1587 36.8203 46.0797C36.7676 46.0007 36.8203 45.8953 36.8993 45.8427C36.9783 45.8163 37.0836 45.8427 37.1363 45.9217ZM36.2673 45.8953C36.32 45.9743 36.2673 46.0797 36.1883 46.1323C36.1093 46.185 36.004 46.1323 35.9513 46.0533C35.925 45.9743 35.9513 45.869 36.0303 45.8163C36.1356 45.79 36.241 45.8163 36.2673 45.8953ZM36.6096 45.7373C36.6623 45.8163 36.6096 45.9217 36.5306 45.9743C36.4516 46.027 36.3463 45.9743 36.2936 45.8953C36.241 45.8163 36.2936 45.711 36.3726 45.6583C36.4516 45.6057 36.5833 45.6583 36.6096 45.7373ZM32.7913 48.239C32.7913 48.239 32.686 48.0283 32.7386 47.923C32.765 47.8703 32.7913 47.844 32.8176 47.8176C32.844 47.7913 32.8966 47.7913 32.9493 47.8176C33.002 47.844 33.0283 47.8703 33.0546 47.8966C33.081 47.923 33.081 47.9756 33.0546 48.0283C33.0283 48.081 33.002 48.1073 32.9756 48.1336C32.8703 48.1863 32.7913 48.239 32.7913 48.239ZM33.7393 45.8163C33.792 45.8953 33.7393 46.0007 33.6603 46.0533C33.5813 46.106 33.476 46.0533 33.4233 45.9743C33.3706 45.8953 33.4233 45.79 33.5023 45.7373C33.5813 45.711 33.6866 45.7373 33.7393 45.8163ZM33.397 46.0007C33.4496 46.0797 33.397 46.185 33.318 46.2377C33.239 46.2903 33.1336 46.2377 33.081 46.1587C33.0283 46.0797 33.081 45.9743 33.16 45.9217C33.239 45.869 33.3443 45.8953 33.397 46.0007ZM35.2666 45.5003C35.3193 45.5793 35.2666 45.6847 35.1876 45.7373C35.1086 45.79 35.0033 45.7373 34.9506 45.6583C34.898 45.5793 34.9506 45.474 35.0296 45.4213C35.1086 45.3687 35.214 45.4213 35.2666 45.5003ZM34.9243 45.6847C34.977 45.7637 34.9243 45.869 34.8453 45.9217C34.7663 45.9743 34.661 45.9217 34.6083 45.8427C34.5556 45.7637 34.6083 45.6583 34.6873 45.6057C34.7663 45.553 34.8716 45.5793 34.9243 45.6847ZM34.582 45.8427C34.6346 45.9217 34.582 46.027 34.503 46.0797C34.424 46.1323 34.3186 46.0797 34.266 46.0007C34.2133 45.9217 34.266 45.8163 34.345 45.7637C34.424 45.711 34.5293 45.7637 34.582 45.8427ZM34.2396 46.0007C34.2923 46.0797 34.2396 46.185 34.1606 46.2377C34.0816 46.2903 33.9763 46.2377 33.9236 46.1587C33.871 46.0797 33.9236 45.9743 34.0026 45.9217C34.108 45.8953 34.2133 45.9217 34.2396 46.0007ZM33.8973 46.185C33.95 46.264 33.8973 46.3693 33.8183 46.422C33.7393 46.4747 33.634 46.422 33.5813 46.343C33.5286 46.264 33.5813 46.1587 33.6603 46.106C33.7656 46.0533 33.871 46.0797 33.8973 46.185ZM33.555 46.343C33.6076 46.422 33.555 46.5273 33.476 46.58C33.397 46.6327 33.2916 46.58 33.239 46.501C33.1863 46.422 33.239 46.3167 33.318 46.264C33.4233 46.2113 33.5286 46.264 33.555 46.343ZM32.528 46.8433C32.5806 46.9223 32.528 47.0277 32.449 47.0803C32.37 47.1067 32.2647 47.0803 32.212 47.0013C32.1593 46.9223 32.212 46.817 32.291 46.7643C32.3963 46.7117 32.5016 46.7643 32.528 46.8433ZM35.0823 46.027C35.135 46.106 35.0823 46.2113 35.0033 46.264C34.9243 46.3167 34.819 46.264 34.7663 46.185C34.7136 46.106 34.7663 46.0007 34.8453 45.948C34.9506 45.8953 35.056 45.948 35.0823 46.027ZM34.74 46.185C34.7926 46.264 34.74 46.3693 34.661 46.422C34.582 46.4747 34.4766 46.422 34.424 46.343C34.3713 46.264 34.424 46.1587 34.503 46.106C34.582 46.0533 34.7136 46.106 34.74 46.185ZM34.424 46.3693C34.4766 46.4483 34.424 46.5537 34.345 46.6063C34.266 46.659 34.1606 46.6063 34.108 46.5273C34.0553 46.4483 34.108 46.343 34.187 46.2903C34.266 46.2377 34.3713 46.264 34.424 46.3693ZM34.0816 46.5273C34.1343 46.6063 34.0816 46.7117 34.0026 46.7643C33.9236 46.817 33.8183 46.7643 33.7656 46.6853C33.713 46.6063 33.7656 46.501 33.8446 46.4483C33.9236 46.3957 34.029 46.4483 34.0816 46.5273ZM33.7393 46.6853C33.792 46.7643 33.7393 46.8697 33.6603 46.9223C33.5813 46.975 33.476 46.9223 33.4233 46.8433C33.3706 46.7643 33.4233 46.659 33.5023 46.6063C33.5813 46.58 33.6866 46.6063 33.7393 46.6853ZM33.397 46.8697C33.4496 46.9487 33.397 47.054 33.318 47.1067C33.239 47.1593 33.1336 47.1067 33.081 47.0277C33.0283 46.9487 33.081 46.8433 33.16 46.7907C33.239 46.738 33.3443 46.7643 33.397 46.8697ZM33.0546 47.0277C33.1073 47.1067 33.0546 47.212 32.9756 47.2647C32.8966 47.3173 32.7913 47.2647 32.7386 47.1857C32.686 47.1067 32.7386 47.0013 32.8176 46.9487C32.8966 46.896 33.002 46.9487 33.0546 47.0277ZM32.7123 47.1857C32.765 47.2647 32.7123 47.37 32.6333 47.4227C32.5543 47.4753 32.449 47.4227 32.3963 47.3437C32.3437 47.2647 32.3963 47.1593 32.4753 47.1067C32.5543 47.0803 32.6596 47.1067 32.7123 47.1857ZM35.2666 46.3693C35.3193 46.4483 35.2666 46.5537 35.1876 46.6063C35.1086 46.659 35.0033 46.6063 34.9506 46.5273C34.898 46.4483 34.9506 46.343 35.0296 46.2903C35.1086 46.2377 35.214 46.2903 35.2666 46.3693ZM34.9243 46.5537C34.977 46.6327 34.9243 46.738 34.8453 46.7907C34.7663 46.8433 34.661 46.7907 34.6083 46.7117C34.5556 46.6327 34.6083 46.5273 34.6873 46.4747C34.7663 46.422 34.8716 46.4483 34.9243 46.5537ZM34.582 46.7117C34.6346 46.7907 34.582 46.896 34.503 46.9487C34.424 47.0013 34.3186 46.9487 34.266 46.8697C34.2133 46.7907 34.266 46.6853 34.345 46.6327C34.424 46.58 34.5293 46.6327 34.582 46.7117ZM33.555 47.212C33.6076 47.291 33.555 47.3963 33.476 47.449C33.397 47.5017 33.2916 47.449 33.239 47.37C33.1863 47.291 33.239 47.1857 33.318 47.133C33.4233 47.0803 33.5023 47.133 33.555 47.212ZM33.2126 47.37C33.2653 47.449 33.2126 47.5543 33.1336 47.607C33.0546 47.6596 32.9493 47.607 32.8966 47.528C32.844 47.449 32.8966 47.3437 32.9756 47.291C33.081 47.2647 33.16 47.291 33.2126 47.37ZM32.8703 47.528C32.923 47.607 32.8703 47.7123 32.7913 47.765C32.7123 47.8176 32.607 47.765 32.5543 47.686C32.5016 47.607 32.5543 47.5017 32.6333 47.449C32.7386 47.4227 32.8176 47.449 32.8703 47.528ZM36.1093 46.3957C36.162 46.4747 36.1093 46.58 36.0303 46.6327C35.9513 46.6853 35.846 46.6327 35.7933 46.5537C35.7406 46.4747 35.7933 46.3693 35.8723 46.3167C35.9513 46.264 36.083 46.3167 36.1093 46.3957ZM35.767 46.5537C35.7933 46.6327 35.767 46.738 35.688 46.7907C35.609 46.8433 35.5036 46.7907 35.451 46.7117C35.3983 46.6327 35.451 46.5273 35.53 46.4747C35.609 46.422 35.7406 46.4747 35.767 46.5537ZM35.4246 46.738C35.4773 46.817 35.4246 46.9223 35.3456 46.975C35.2666 47.0277 35.1613 46.975 35.1086 46.896C35.056 46.817 35.1086 46.7117 35.1876 46.659C35.2666 46.6063 35.3983 46.6327 35.4246 46.738ZM35.0823 46.896C35.135 46.975 35.0823 47.0803 35.0033 47.133C34.9243 47.1857 34.819 47.133 34.7663 47.054C34.7136 46.975 34.7663 46.8697 34.8453 46.817C34.9243 46.7643 35.056 46.817 35.0823 46.896ZM33.713 47.5543C33.7656 47.6333 33.713 47.7386 33.634 47.7913C33.555 47.844 33.4496 47.7913 33.397 47.7123C33.3443 47.6333 33.397 47.528 33.476 47.4753C33.5813 47.449 33.6866 47.4753 33.713 47.5543ZM33.3706 47.7386C33.4233 47.8176 33.3706 47.923 33.2916 47.9756C33.2126 48.0283 33.1073 47.9756 33.0546 47.8966C33.002 47.8176 33.0546 47.7123 33.1336 47.6596C33.239 47.607 33.3443 47.6333 33.3706 47.7386ZM33.8183 45.5793C33.8973 45.5267 33.95 45.5003 33.9763 45.474H34.0026C34.029 45.474 34.0816 45.4477 34.1606 45.395C34.2133 45.3687 34.2396 45.3687 34.2923 45.395C34.345 45.395 34.3713 45.4477 34.3976 45.474C34.424 45.5267 34.424 45.553 34.3976 45.6057C34.3713 45.6583 34.345 45.6847 34.3186 45.711C34.266 45.7373 34.2396 45.7373 34.187 45.711C34.1343 45.6847 34.0816 45.632 34.029 45.5793C34.0553 45.632 34.0553 45.7373 34.0553 45.79C34.029 45.8427 34.0026 45.869 33.9763 45.8953C33.9236 45.9217 33.8973 45.9217 33.8446 45.8953C33.792 45.869 33.7656 45.8427 33.7393 45.79C33.713 45.7373 33.713 45.711 33.7393 45.6583C33.7656 45.6057 33.792 45.5793 33.8183 45.5793ZM34.1606 47.1067C34.0816 47.1593 34.029 47.1857 34.0026 47.1857H33.9763C33.95 47.1857 33.8973 47.212 33.8183 47.2647C33.7656 47.291 33.7393 47.291 33.6866 47.2647C33.634 47.2383 33.6076 47.212 33.5813 47.1857C33.555 47.1593 33.555 47.1067 33.5813 47.054C33.6076 47.0013 33.634 46.975 33.6603 46.9487C33.6866 46.9223 33.7393 46.9223 33.792 46.9487C33.8446 46.975 33.8973 47.0277 33.95 47.0803C33.9236 47.0277 33.9236 46.9223 33.9236 46.8697C33.9236 46.8433 33.95 46.817 34.0026 46.7907C34.0553 46.7643 34.0816 46.7643 34.1343 46.7907C34.187 46.7907 34.2133 46.8433 34.2396 46.8697C34.266 46.9223 34.266 46.9487 34.2396 47.0013C34.2133 47.054 34.187 47.0803 34.1606 47.1067ZM35.609 48.95C35.5826 48.871 35.609 48.7656 35.7143 48.713C35.7933 48.6866 35.8986 48.713 35.925 48.8183C35.9513 48.8973 35.925 49.0026 35.8196 49.0553C35.7143 49.108 35.6353 49.029 35.609 48.95ZM36.9519 52.2416C36.9256 52.1626 36.9519 52.0573 37.0573 52.0309C37.1363 52.0046 37.2416 52.0309 37.2943 52.1363C37.3206 52.2153 37.2943 52.3206 37.1889 52.3733C37.0836 52.3733 36.9783 52.3206 36.9519 52.2416ZM33.555 50.0033C33.555 50.0033 33.7656 49.9243 33.871 49.977C33.8973 50.0033 33.95 50.0296 33.9763 50.0823C34.0026 50.135 34.0026 50.1613 33.9763 50.214C33.95 50.214 33.9236 50.2666 33.871 50.2666C33.8183 50.293 33.792 50.293 33.7393 50.2666C33.713 50.2403 33.6603 50.214 33.634 50.1613C33.5813 50.056 33.555 50.0033 33.555 50.0033ZM37.3206 52.7156C37.1889 52.7683 37.1363 52.7946 37.1363 52.7946C37.1363 52.7946 37.0573 52.5839 37.1099 52.4786C37.1363 52.4523 37.1626 52.3996 37.2153 52.3733C37.2679 52.3469 37.2943 52.3469 37.3469 52.3733C37.3733 52.3996 37.4259 52.4259 37.4523 52.4786C37.4786 52.5313 37.4786 52.5576 37.4523 52.6103C37.3996 52.6629 37.3733 52.6893 37.3206 52.7156ZM38.1106 48.5813C38.0316 48.6076 37.9789 48.634 37.9526 48.6603H37.9263C37.8999 48.6603 37.8473 48.6866 37.7683 48.713C37.7156 48.7393 37.6893 48.7393 37.6366 48.713C37.6103 48.6866 37.5576 48.6603 37.5313 48.6076C37.5049 48.555 37.5049 48.5023 37.5313 48.476C37.5576 48.4496 37.5839 48.397 37.6366 48.3706C37.6893 48.3443 37.7156 48.3443 37.7683 48.3706C37.8209 48.397 37.8736 48.4496 37.8999 48.5286C37.8736 48.4496 37.8736 48.3706 37.8999 48.318C37.9263 48.2916 37.9526 48.239 38.0053 48.2126C38.0579 48.1863 38.1106 48.1863 38.1369 48.2126C38.1633 48.239 38.2159 48.2653 38.2423 48.318C38.2686 48.3706 38.2686 48.4233 38.2423 48.4496C38.1896 48.5023 38.1369 48.555 38.1106 48.5813ZM36.9256 47.1593C36.8993 47.0803 36.9256 46.975 37.0309 46.9487C37.1099 46.9223 37.2153 46.9487 37.2679 47.054C37.2943 47.133 37.2679 47.2383 37.1626 47.2647C37.0836 47.291 36.9783 47.2383 36.9256 47.1593ZM36.5833 47.291C36.5569 47.212 36.5833 47.1067 36.6886 47.0803C36.7676 47.054 36.8729 47.0803 36.8993 47.1857C36.9256 47.2647 36.8993 47.37 36.7939 47.4227C36.7149 47.4227 36.6096 47.3963 36.5833 47.291ZM36.241 47.449C36.2146 47.37 36.241 47.2647 36.3463 47.2383C36.4253 47.212 36.5306 47.2383 36.5833 47.3437C36.6096 47.4227 36.5833 47.528 36.4779 47.5807C36.3726 47.5807 36.2673 47.528 36.241 47.449ZM35.8723 47.5807C35.846 47.5017 35.8723 47.3963 35.9776 47.3437C36.0566 47.3173 36.162 47.3437 36.2146 47.449C36.241 47.528 36.2146 47.6333 36.1093 47.686C36.0303 47.7123 35.925 47.6596 35.8723 47.5807ZM37.4523 47.37C37.4259 47.291 37.4523 47.1857 37.5576 47.1593C37.6366 47.133 37.7419 47.1593 37.7683 47.2647C37.7946 47.3437 37.7683 47.449 37.6629 47.4753C37.5576 47.5017 37.4786 47.4753 37.4523 47.37ZM37.0836 47.528C37.0573 47.449 37.0836 47.3437 37.1889 47.3173C37.2943 47.291 37.3733 47.3173 37.4259 47.4227C37.4523 47.5017 37.4259 47.607 37.3206 47.6596C37.2153 47.6596 37.1363 47.607 37.0836 47.528ZM36.7413 47.6596C36.7149 47.5807 36.7413 47.4753 36.8466 47.4227C36.9256 47.3963 37.0309 47.4227 37.0836 47.528C37.1099 47.607 37.0836 47.7123 36.9783 47.7386C36.8729 47.765 36.7676 47.765 36.7413 47.6596ZM38.2949 47.4753C38.2686 47.3963 38.2949 47.291 38.4003 47.2383C38.4793 47.212 38.5846 47.2383 38.6109 47.3437C38.6373 47.4227 38.6109 47.528 38.5056 47.5543C38.4266 47.5807 38.3213 47.5543 38.2949 47.4753ZM37.9526 47.607C37.9263 47.528 37.9526 47.4227 38.0579 47.37C38.1369 47.3437 38.2423 47.37 38.2686 47.4753C38.2949 47.5543 38.2686 47.6596 38.1633 47.686C38.0843 47.7386 37.9789 47.686 37.9526 47.607ZM37.5839 47.7386C37.5576 47.6596 37.5839 47.5543 37.6893 47.5017C37.7683 47.4753 37.8736 47.5017 37.9263 47.607C37.9526 47.686 37.9263 47.7913 37.8209 47.844C37.7156 47.8703 37.6103 47.8176 37.5839 47.7386ZM37.2416 47.8703C37.2153 47.7913 37.2416 47.686 37.3469 47.6596C37.4259 47.6333 37.5313 47.6596 37.5839 47.765C37.6103 47.844 37.5839 47.9493 37.4786 48.002C37.3733 48.002 37.2679 47.9756 37.2416 47.8703ZM36.8729 48.0283C36.8466 47.9493 36.8729 47.844 36.9783 47.7913C37.0836 47.7386 37.1626 47.7913 37.2153 47.8966C37.2416 47.9756 37.2153 48.081 37.1099 48.1073C37.0046 48.16 36.9256 48.1073 36.8729 48.0283ZM35.4773 48.5813C35.451 48.5023 35.4773 48.397 35.5826 48.3443C35.6616 48.318 35.767 48.3443 35.8196 48.4496C35.846 48.5286 35.8196 48.634 35.7143 48.6866C35.609 48.713 35.5036 48.6866 35.4773 48.5813ZM35.1086 48.7393C35.0823 48.6603 35.1086 48.555 35.214 48.5286C35.293 48.5023 35.3983 48.5286 35.451 48.634C35.4773 48.713 35.451 48.8183 35.3456 48.8446C35.2666 48.871 35.1613 48.8183 35.1086 48.7393ZM34.7663 48.871C34.74 48.792 34.7663 48.6866 34.8716 48.634C34.9506 48.6076 35.056 48.634 35.1086 48.7393C35.135 48.8183 35.1086 48.9236 35.0033 48.9763C34.898 49.0026 34.7926 48.9763 34.7663 48.871ZM34.424 49.029C34.3976 48.95 34.424 48.8446 34.5293 48.792C34.6083 48.7656 34.7136 48.792 34.7663 48.8973C34.7926 48.9763 34.7663 49.0816 34.661 49.1343C34.5556 49.1606 34.4503 49.108 34.424 49.029ZM34.0553 49.1606C34.029 49.0816 34.0553 48.9763 34.1606 48.9236C34.2396 48.8973 34.345 48.9236 34.3713 49.029C34.3976 49.108 34.3713 49.2133 34.266 49.2396C34.187 49.2923 34.108 49.2396 34.0553 49.1606ZM38.4266 47.8176C38.4003 47.7386 38.4266 47.6333 38.5319 47.5807C38.6109 47.5543 38.7163 47.5807 38.7426 47.686C38.7689 47.765 38.7426 47.8703 38.6373 47.923C38.5583 47.9493 38.4793 47.8966 38.4266 47.8176ZM38.0843 47.9493C38.0579 47.8703 38.0843 47.765 38.1896 47.7123C38.2949 47.6596 38.3739 47.7123 38.4003 47.8176C38.4266 47.923 38.4003 48.002 38.2949 48.0546C38.2159 48.081 38.1106 48.0546 38.0843 47.9493ZM37.7156 48.1073C37.6893 48.0283 37.7156 47.923 37.8209 47.8703C37.8999 47.844 38.0053 47.8703 38.0579 47.9756C38.0843 48.0546 38.0579 48.16 37.9526 48.1863C37.8473 48.239 37.7683 48.1863 37.7156 48.1073ZM37.3733 48.239C37.3469 48.16 37.3733 48.0546 37.4786 48.002C37.5839 47.9493 37.6629 48.002 37.7156 48.1073C37.7419 48.1863 37.7156 48.2916 37.6103 48.3443C37.5049 48.3706 37.3996 48.318 37.3733 48.239ZM37.0046 48.397C36.9783 48.318 37.0046 48.2126 37.1099 48.16C37.1889 48.1336 37.2943 48.16 37.3469 48.2653C37.3733 48.3443 37.3469 48.4496 37.2416 48.476C37.1626 48.5023 37.0573 48.476 37.0046 48.397ZM36.6623 48.5286C36.6359 48.4496 36.6623 48.3443 36.7676 48.318C36.8466 48.2916 36.9519 48.318 37.0046 48.4233C37.0309 48.5023 37.0046 48.6076 36.8993 48.6603C36.7939 48.6603 36.7149 48.6076 36.6623 48.5286ZM36.32 48.6603C36.2936 48.5813 36.32 48.476 36.4253 48.4233C36.5043 48.397 36.6096 48.4233 36.6623 48.5286C36.6886 48.6076 36.6623 48.713 36.5569 48.7393C36.4516 48.792 36.3463 48.7656 36.32 48.6603ZM35.9776 48.8183C35.9513 48.7393 35.9776 48.634 36.083 48.6076C36.162 48.5813 36.2673 48.6076 36.32 48.713C36.3726 48.8183 36.32 48.8973 36.2146 48.95C36.1093 49.0026 36.004 48.8973 35.9776 48.8183ZM35.2666 49.108C35.2403 49.029 35.2666 48.9236 35.372 48.871C35.4773 48.8183 35.5563 48.871 35.609 48.9763C35.6353 49.0553 35.609 49.1606 35.5036 49.2133C35.3983 49.2133 35.293 49.187 35.2666 49.108ZM34.898 49.2396C34.8716 49.1606 34.898 49.0553 35.0033 49.029C35.1086 49.0026 35.1876 49.029 35.2403 49.1343C35.2666 49.2133 35.2403 49.3186 35.135 49.345C35.0296 49.3713 34.9506 49.3186 34.898 49.2396ZM34.5556 49.3713C34.5293 49.2923 34.5556 49.187 34.661 49.1343C34.74 49.108 34.8453 49.1343 34.898 49.2396C34.9243 49.3186 34.898 49.424 34.7926 49.4766C34.6873 49.503 34.6083 49.4766 34.5556 49.3713ZM34.2133 49.5293C34.187 49.4503 34.2133 49.345 34.3186 49.3186C34.3976 49.2923 34.503 49.3186 34.5293 49.424C34.5556 49.503 34.5293 49.6083 34.424 49.661C34.345 49.661 34.2396 49.6083 34.2133 49.5293ZM33.8446 49.661C33.8183 49.582 33.8446 49.4766 33.95 49.424C34.029 49.3976 34.1343 49.424 34.1606 49.5293C34.187 49.6083 34.1606 49.7136 34.0553 49.74C33.9763 49.7926 33.8973 49.7663 33.8446 49.661ZM37.3206 49.108C37.2943 49.029 37.3206 48.9236 37.4259 48.8973C37.5049 48.871 37.6103 48.8973 37.6629 49.0026C37.6893 49.0816 37.6629 49.187 37.5576 49.2133C37.4523 49.2396 37.3469 49.2133 37.3206 49.108ZM36.9519 49.266C36.9256 49.187 36.9519 49.0816 37.0573 49.0553C37.1363 49.029 37.2416 49.0553 37.2943 49.1606C37.3206 49.2396 37.2943 49.345 37.1889 49.3713C37.1099 49.3976 37.0046 49.345 36.9519 49.266ZM36.6096 49.3976C36.5833 49.3186 36.6096 49.2133 36.7149 49.187C36.7939 49.1606 36.8993 49.187 36.9256 49.2923C36.9519 49.3713 36.9256 49.4766 36.8203 49.503C36.7413 49.5293 36.6359 49.503 36.6096 49.3976ZM36.2673 49.5556C36.241 49.4766 36.2673 49.3713 36.3726 49.3186C36.4516 49.2923 36.5569 49.3186 36.6096 49.424C36.6359 49.503 36.6096 49.6083 36.5043 49.661C36.399 49.6873 36.2936 49.6346 36.2673 49.5556ZM35.8986 49.6873C35.8723 49.6083 35.8986 49.503 36.004 49.4503C36.083 49.424 36.1883 49.4503 36.241 49.5556C36.2673 49.6346 36.241 49.74 36.1356 49.7926C36.0303 49.819 35.9513 49.7663 35.8986 49.6873ZM35.5563 49.8453C35.53 49.7663 35.5563 49.661 35.6616 49.6083C35.7406 49.582 35.846 49.6083 35.8986 49.7136C35.925 49.7926 35.8986 49.898 35.7933 49.9243C35.688 49.9506 35.5826 49.9243 35.5563 49.8453ZM35.214 49.977C35.1876 49.898 35.214 49.7926 35.3193 49.74C35.3983 49.7136 35.5036 49.74 35.5563 49.8453C35.5826 49.9243 35.5563 50.0296 35.451 50.056C35.3456 50.1086 35.2403 50.056 35.214 49.977ZM34.8453 50.1086C34.819 50.0296 34.8453 49.9243 34.9506 49.898C35.0296 49.8716 35.135 49.898 35.1876 50.0033C35.214 50.0823 35.1876 50.1876 35.0823 50.2403C34.977 50.2403 34.898 50.214 34.8453 50.1086ZM34.503 50.2666C34.4766 50.1876 34.503 50.0823 34.6083 50.0296C34.6873 50.0033 34.7926 50.0296 34.8453 50.135C34.8716 50.214 34.8453 50.3193 34.74 50.372C34.6346 50.3983 34.5293 50.3456 34.503 50.2666ZM34.1343 50.3983C34.108 50.3193 34.1343 50.214 34.2396 50.1613C34.3186 50.135 34.424 50.1613 34.4766 50.2666C34.503 50.3456 34.4766 50.451 34.3713 50.5036C34.2923 50.53 34.187 50.5036 34.1343 50.3983ZM37.4523 49.4766C37.4259 49.3976 37.4523 49.2923 37.5576 49.2396C37.6366 49.2133 37.7419 49.2396 37.7946 49.345C37.8209 49.424 37.7946 49.5293 37.6893 49.582C37.6103 49.6083 37.5049 49.582 37.4523 49.4766ZM37.1099 49.6346C37.0836 49.5556 37.1099 49.4503 37.2153 49.3976C37.2943 49.3713 37.3996 49.3976 37.4523 49.503C37.5049 49.6083 37.4523 49.6873 37.3469 49.74C37.2416 49.7663 37.1363 49.7136 37.1099 49.6346ZM36.7676 49.7663C36.7413 49.6873 36.7676 49.582 36.8729 49.5293C36.9519 49.503 37.0573 49.5293 37.0836 49.6346C37.1099 49.7136 37.0836 49.819 36.9783 49.8716C36.8993 49.898 36.7939 49.8716 36.7676 49.7663ZM36.3989 49.9243C36.3726 49.8453 36.399 49.74 36.5043 49.6873C36.5833 49.661 36.6886 49.6873 36.7413 49.7926C36.7676 49.8716 36.7413 49.977 36.6359 50.0296C36.5569 50.056 36.4516 50.0033 36.3989 49.9243ZM36.0566 50.056C36.0303 49.977 36.0566 49.8716 36.162 49.819C36.241 49.7926 36.3463 49.819 36.3989 49.9243C36.4253 50.0033 36.3989 50.1086 36.2936 50.1613C36.1883 50.1876 36.083 50.135 36.0566 50.056ZM35.7143 50.1876C35.688 50.1086 35.7143 50.0033 35.8196 49.9506C35.8986 49.9243 36.004 49.9506 36.0566 50.056C36.083 50.135 36.0566 50.2403 35.9513 50.2666C35.846 50.3193 35.7406 50.293 35.7143 50.1876ZM35.3456 50.3456C35.3193 50.2666 35.3456 50.1613 35.451 50.135C35.53 50.1086 35.6353 50.135 35.6616 50.2403C35.688 50.3193 35.6616 50.4246 35.5563 50.4773C35.4773 50.4773 35.3983 50.4246 35.3456 50.3456ZM35.0033 50.4773C34.977 50.3983 35.0033 50.293 35.1086 50.2403C35.1876 50.214 35.293 50.2403 35.3193 50.3456C35.3456 50.4246 35.3193 50.53 35.214 50.5826C35.135 50.609 35.0296 50.5826 35.0033 50.4773ZM34.6346 50.6353C34.6083 50.5563 34.6346 50.451 34.74 50.3983C34.819 50.372 34.9243 50.3983 34.977 50.5036C35.0033 50.5826 34.977 50.688 34.8716 50.7406C34.7926 50.767 34.6873 50.7143 34.6346 50.6353ZM38.3213 49.582C38.2949 49.503 38.3213 49.3976 38.4266 49.345C38.5056 49.3186 38.6109 49.345 38.6636 49.4503C38.6899 49.5293 38.6636 49.6346 38.5583 49.6873C38.4529 49.7136 38.3476 49.661 38.3213 49.582ZM37.9526 49.7136C37.9263 49.6346 37.9526 49.5293 38.0579 49.4766C38.1369 49.4503 38.2423 49.4766 38.2686 49.582C38.2949 49.661 38.2686 49.7663 38.1633 49.819C38.1106 49.8453 38.0053 49.7926 37.9526 49.7136ZM37.6103 49.8453C37.5839 49.7663 37.6103 49.661 37.7156 49.6083C37.7946 49.582 37.8999 49.6083 37.9263 49.7136C37.9526 49.7926 37.9263 49.898 37.8209 49.9506C37.7419 49.977 37.6366 49.9506 37.6103 49.8453ZM37.2679 50.0033C37.2416 49.9243 37.2679 49.819 37.3733 49.7663C37.4523 49.74 37.5576 49.7663 37.6103 49.8716C37.6366 49.9506 37.6103 50.056 37.5049 50.1086C37.3996 50.135 37.2943 50.0823 37.2679 50.0033ZM36.8993 50.135C36.8729 50.056 36.8993 49.9506 37.0046 49.9243C37.0836 49.898 37.1889 49.9243 37.2153 50.0296C37.2416 50.1086 37.2153 50.214 37.1099 50.2666C37.0309 50.2666 36.9519 50.2403 36.8993 50.135ZM36.5569 50.293C36.5306 50.214 36.5569 50.1086 36.6623 50.0823C36.7413 50.056 36.8466 50.0823 36.8993 50.1876C36.9256 50.2666 36.8993 50.372 36.7939 50.4246C36.6886 50.4246 36.5833 50.372 36.5569 50.293ZM36.1883 50.4246C36.162 50.3456 36.1883 50.2403 36.2936 50.1876C36.3726 50.1613 36.4779 50.1876 36.5043 50.293C36.5306 50.372 36.5043 50.4773 36.3989 50.53C36.32 50.5563 36.241 50.53 36.1883 50.4246ZM35.846 50.5826C35.8196 50.5036 35.846 50.3983 35.9513 50.372C36.0303 50.3456 36.1356 50.372 36.1883 50.4773C36.2146 50.5563 36.1883 50.6616 36.083 50.688C35.9776 50.7143 35.8723 50.6616 35.846 50.5826ZM38.1106 50.0823C38.0843 50.0033 38.1106 49.898 38.2159 49.8716C38.2949 49.8453 38.4003 49.8716 38.4266 49.977C38.4529 50.056 38.4266 50.1613 38.3213 50.214C38.2423 50.214 38.1369 50.1876 38.1106 50.0823ZM37.7419 50.2403C37.7156 50.1613 37.7419 50.056 37.8473 50.0296C37.9263 50.0033 38.0316 50.0296 38.0579 50.135C38.0843 50.214 38.0579 50.3193 37.9526 50.372C37.8999 50.372 37.7946 50.3193 37.7419 50.2403ZM37.0573 50.53C37.0309 50.451 37.0573 50.3456 37.1626 50.293C37.2416 50.2666 37.3469 50.293 37.3733 50.3983C37.3996 50.4773 37.3733 50.5826 37.2679 50.609C37.1889 50.6353 37.0836 50.609 37.0573 50.53ZM36.6886 50.6616C36.6623 50.5826 36.6886 50.4773 36.7939 50.451C36.8729 50.4246 36.9783 50.451 37.0309 50.5563C37.0573 50.6353 37.0309 50.7406 36.9256 50.7933C36.8203 50.7933 36.7413 50.7406 36.6886 50.6616ZM36.3463 50.7933C36.32 50.7143 36.3463 50.609 36.4516 50.5563C36.5306 50.53 36.6359 50.5563 36.6886 50.6616C36.7149 50.7406 36.6886 50.846 36.5833 50.8986C36.4779 50.925 36.3726 50.8986 36.3463 50.7933ZM38.2423 50.451C38.2159 50.372 38.2423 50.2666 38.3476 50.2403C38.4266 50.214 38.5319 50.2403 38.5583 50.3456C38.5846 50.4246 38.5583 50.53 38.4529 50.5826C38.3739 50.5826 38.2949 50.53 38.2423 50.451ZM37.8999 50.609C37.8736 50.53 37.8999 50.4246 38.0053 50.372C38.0843 50.3456 38.1896 50.372 38.2159 50.4773C38.2423 50.5563 38.2159 50.6616 38.1106 50.688C38.0316 50.7406 37.9263 50.688 37.8999 50.609ZM37.5576 50.7406C37.5313 50.6616 37.5576 50.5563 37.6629 50.5036C37.7419 50.4773 37.8473 50.5036 37.8999 50.609C37.9263 50.688 37.8999 50.7933 37.7946 50.846C37.6893 50.8723 37.5839 50.8196 37.5576 50.7406ZM37.1889 50.8723C37.1626 50.7933 37.1889 50.688 37.2943 50.6353C37.3733 50.609 37.4786 50.6353 37.5313 50.7406C37.5576 50.8196 37.5313 50.925 37.4259 50.9513C37.3206 50.9776 37.2416 50.9776 37.1889 50.8723ZM36.8466 51.004C36.8203 50.925 36.8466 50.8196 36.9519 50.7933C37.0309 50.767 37.1363 50.7933 37.1889 50.8986C37.2153 50.9776 37.1889 51.083 37.0836 51.1093C36.9783 51.1356 36.8729 51.1093 36.8466 51.004ZM36.5043 51.162C36.4779 51.083 36.5043 50.9776 36.6096 50.925C36.6886 50.8986 36.7939 50.925 36.8466 51.0303C36.8729 51.1093 36.8466 51.2146 36.7413 51.2673C36.6359 51.2936 36.5306 51.241 36.5043 51.162ZM38.4003 50.8196C38.3739 50.7406 38.4003 50.6353 38.5056 50.5826C38.5846 50.5563 38.6899 50.5826 38.7163 50.688C38.7426 50.7933 38.7163 50.8723 38.6109 50.925C38.5319 50.9513 38.4266 50.8986 38.4003 50.8196ZM38.0579 50.9513C38.0316 50.8723 38.0579 50.767 38.1633 50.7406C38.2686 50.7143 38.3476 50.7406 38.4003 50.846C38.4266 50.925 38.4003 51.0303 38.2949 51.0566C38.1896 51.083 38.0843 51.0566 38.0579 50.9513ZM37.6893 51.1093C37.6629 51.0303 37.6893 50.925 37.7946 50.8986C37.8999 50.8723 37.9789 50.8986 38.0053 51.004C38.0316 51.083 38.0053 51.1883 37.8999 51.241C37.8209 51.241 37.7156 51.1883 37.6893 51.1093ZM37.3469 51.241C37.3206 51.162 37.3469 51.0566 37.4523 51.004C37.5313 50.9776 37.6366 51.004 37.6893 51.1093C37.7156 51.1883 37.6893 51.2936 37.5839 51.32C37.4786 51.3726 37.3733 51.32 37.3469 51.241ZM36.9783 51.3726C36.9519 51.2936 36.9783 51.1883 37.0836 51.162C37.1626 51.1356 37.2679 51.162 37.3206 51.2673C37.3469 51.3463 37.3206 51.4516 37.2153 51.478C37.1363 51.5043 37.0309 51.478 36.9783 51.3726ZM36.6359 51.5306C36.6096 51.4516 36.6359 51.3463 36.7413 51.32C36.8203 51.2936 36.9256 51.32 36.9783 51.4253C37.0046 51.5043 36.9783 51.6096 36.8729 51.6623C36.7676 51.6623 36.6623 51.6096 36.6359 51.5306ZM38.1896 51.32C38.1633 51.241 38.1896 51.1356 38.2949 51.083C38.3739 51.0566 38.4793 51.083 38.5056 51.1883C38.5319 51.2673 38.5056 51.3726 38.4003 51.4253C38.3213 51.4516 38.2159 51.4253 38.1896 51.32ZM37.8473 51.478C37.8209 51.399 37.8473 51.2936 37.9526 51.241C38.0316 51.2146 38.1369 51.241 38.1896 51.3463C38.2159 51.4253 38.1896 51.5306 38.0843 51.5833C37.9789 51.6096 37.8736 51.557 37.8473 51.478ZM37.4786 51.6096C37.4523 51.5306 37.4786 51.4253 37.5839 51.3726C37.6629 51.3463 37.7683 51.3726 37.8209 51.478C37.8473 51.557 37.8209 51.6623 37.7156 51.6886C37.6103 51.7413 37.5313 51.6886 37.4786 51.6096ZM37.1363 51.7413C37.1099 51.6623 37.1363 51.557 37.2416 51.5306C37.3206 51.5043 37.4259 51.5306 37.4786 51.636C37.5049 51.7149 37.4786 51.8203 37.3733 51.8466C37.2679 51.8729 37.1626 51.8466 37.1363 51.7413ZM36.7676 51.8993C36.7413 51.8203 36.7676 51.7149 36.8729 51.6886C36.9519 51.6623 37.0573 51.6886 37.1099 51.7939C37.1363 51.8729 37.1099 51.9783 37.0046 52.0309C36.9256 52.0309 36.8203 51.9783 36.7676 51.8993ZM38.3476 51.6886C38.3213 51.6096 38.3476 51.5043 38.4529 51.478C38.5319 51.4516 38.6373 51.478 38.6636 51.5833C38.6899 51.6623 38.6636 51.7676 38.5583 51.7939C38.4793 51.8203 38.3739 51.7676 38.3476 51.6886ZM37.9789 51.8466C37.9526 51.7676 37.9789 51.6623 38.0843 51.6096C38.1633 51.5833 38.2686 51.6096 38.3213 51.7149C38.3476 51.7939 38.3213 51.8993 38.2159 51.9256C38.1106 51.9519 38.0316 51.9256 37.9789 51.8466ZM37.6366 51.9783C37.6103 51.8993 37.6366 51.7939 37.7419 51.7676C37.8209 51.7413 37.9263 51.7676 37.9526 51.8729C37.9789 51.9519 37.9526 52.0573 37.8473 52.1099C37.7419 52.1626 37.6629 52.0573 37.6366 51.9783ZM37.2679 52.1099C37.2416 52.0309 37.2679 51.9256 37.3733 51.8993C37.4523 51.8729 37.5576 51.8993 37.6103 52.0046C37.6366 52.0836 37.6103 52.1889 37.5049 52.2153C37.3996 52.2416 37.3206 52.2153 37.2679 52.1099ZM38.1369 52.1889C38.1106 52.1099 38.1369 52.0046 38.2423 51.9783C38.3213 51.9519 38.4266 51.9783 38.4793 52.0836C38.5056 52.1626 38.4793 52.2679 38.3739 52.3206C38.2686 52.3469 38.1633 52.2943 38.1369 52.1889ZM37.7683 52.3469C37.7419 52.2679 37.7683 52.1626 37.8736 52.1099C37.9526 52.0836 38.0579 52.1099 38.1106 52.2153C38.1369 52.2943 38.1106 52.3996 38.0053 52.4523C37.8999 52.4786 37.8209 52.4259 37.7683 52.3469ZM37.4259 52.4786C37.3996 52.3996 37.4259 52.2943 37.5313 52.2416C37.6103 52.2153 37.7156 52.2416 37.7683 52.3469C37.7946 52.4259 37.7683 52.5313 37.6629 52.5839C37.5576 52.6103 37.4523 52.5839 37.4259 52.4786ZM37.9263 52.7156C37.8999 52.6366 37.9263 52.5313 38.0316 52.4786C38.1106 52.4523 38.2159 52.4786 38.2686 52.5839C38.2949 52.6629 38.2686 52.7683 38.1633 52.8209C38.0579 52.8473 37.9526 52.7946 37.9263 52.7156ZM37.5576 52.8473C37.5313 52.7683 37.5576 52.6629 37.6629 52.6103C37.7419 52.5839 37.8473 52.6103 37.8999 52.7156C37.9263 52.7946 37.8999 52.8999 37.7946 52.9526C37.7156 52.9789 37.6103 52.9526 37.5576 52.8473ZM38.5583 48.2126C38.5319 48.1336 38.5583 48.0283 38.6636 47.9756C38.7426 47.9493 38.8479 47.9756 38.8743 48.081C38.9006 48.1863 38.8743 48.2653 38.7689 48.2916C38.6899 48.3443 38.5846 48.2916 38.5583 48.2126ZM38.2159 48.3443C38.1896 48.2653 38.2159 48.16 38.3213 48.1073C38.4266 48.0546 38.5056 48.1073 38.5319 48.2126C38.5583 48.318 38.5319 48.397 38.4266 48.4496C38.3476 48.476 38.2423 48.4233 38.2159 48.3443ZM37.1626 48.7656C37.1363 48.6866 37.1626 48.5813 37.2679 48.5286C37.3469 48.5023 37.4523 48.5286 37.4786 48.634C37.5049 48.713 37.4786 48.8183 37.3733 48.8446C37.2943 48.8973 37.1889 48.8446 37.1626 48.7656ZM36.7939 48.9236C36.7676 48.8446 36.7939 48.7393 36.8993 48.6866C36.9783 48.6603 37.0836 48.6866 37.1363 48.792C37.1626 48.871 37.1363 48.9763 37.0309 49.029C36.9256 49.029 36.8203 49.0026 36.7939 48.9236ZM36.4516 49.0553C36.4253 48.9763 36.4516 48.871 36.5569 48.8446C36.6359 48.8183 36.7413 48.8446 36.7939 48.95C36.8203 49.029 36.7939 49.1343 36.6886 49.1606C36.5833 49.187 36.4779 49.1343 36.4516 49.0553ZM36.083 49.187C36.0566 49.108 36.083 49.0026 36.1883 48.9763C36.2673 48.95 36.3726 48.9763 36.3989 49.0816C36.4253 49.1606 36.3989 49.266 36.2936 49.2923C36.2146 49.3186 36.1356 49.2923 36.083 49.187ZM35.7406 49.345C35.7143 49.266 35.7406 49.1606 35.846 49.1343C35.925 49.108 36.0303 49.1343 36.083 49.2396C36.1093 49.3186 36.083 49.424 35.9776 49.4503C35.8723 49.4766 35.767 49.424 35.7406 49.345ZM35.3983 49.4766C35.372 49.3976 35.3983 49.2923 35.5036 49.2396C35.5826 49.2133 35.688 49.2396 35.7406 49.345C35.767 49.424 35.7406 49.5293 35.6353 49.5556C35.53 49.6083 35.4246 49.5556 35.3983 49.4766ZM35.0296 49.6083C35.0033 49.5293 35.0296 49.424 35.135 49.3976C35.214 49.3713 35.3193 49.3976 35.3456 49.503C35.372 49.582 35.3456 49.6873 35.2403 49.74C35.1613 49.74 35.056 49.7136 35.0296 49.6083ZM34.6873 49.7663C34.661 49.6873 34.6873 49.582 34.7926 49.5293C34.8716 49.503 34.977 49.5293 35.0296 49.6346C35.056 49.7136 35.0296 49.819 34.9243 49.8716C34.819 49.898 34.7136 49.8453 34.6873 49.7663ZM34.3186 49.898C34.2923 49.819 34.3186 49.7136 34.424 49.6873C34.503 49.661 34.6083 49.6873 34.661 49.7926C34.6873 49.8716 34.661 49.977 34.5556 50.0033C34.4766 50.0296 34.3713 50.0033 34.3186 49.898ZM33.9763 50.056C33.95 49.977 33.9763 49.8716 34.0816 49.8453C34.1606 49.819 34.266 49.8453 34.2923 49.9506C34.3186 50.0296 34.2923 50.135 34.187 50.1876C34.108 50.1876 34.0026 50.135 33.9763 50.056ZM33.8183 50.7406C33.8183 50.7406 33.7393 50.53 33.792 50.4246C33.8183 50.3983 33.8446 50.3456 33.8973 50.3193C33.95 50.293 33.9763 50.293 34.029 50.3193C34.0553 50.3456 34.108 50.372 34.1343 50.4246C34.1606 50.4773 34.1606 50.5036 34.1343 50.5563C34.108 50.5826 34.0816 50.6353 34.029 50.6616C33.871 50.7143 33.8183 50.7406 33.8183 50.7406ZM34.3186 50.9776C34.3186 50.9776 34.2396 50.767 34.266 50.6616C34.2923 50.6353 34.3186 50.5826 34.3713 50.5563C34.424 50.53 34.4503 50.53 34.503 50.5563C34.5293 50.5826 34.582 50.609 34.6083 50.6616C34.6346 50.7143 34.6346 50.7406 34.6083 50.7933C34.582 50.8196 34.5556 50.8723 34.503 50.8986C34.3713 50.925 34.3186 50.9776 34.3186 50.9776ZM35.5036 50.8986C35.5036 50.8986 35.4246 50.688 35.4773 50.5826C35.5036 50.5563 35.53 50.5036 35.5826 50.4773C35.6353 50.451 35.6616 50.451 35.7143 50.4773C35.7406 50.5036 35.7933 50.53 35.8196 50.5826C35.846 50.6353 35.846 50.688 35.8196 50.7143C35.7933 50.7406 35.767 50.7933 35.7143 50.8196C35.5826 50.8723 35.53 50.8986 35.5036 50.8986ZM36.0303 51.1356C36.0303 51.1356 35.9513 50.925 36.004 50.8196C36.0303 50.7933 36.0566 50.7406 36.1093 50.7143C36.162 50.688 36.1883 50.688 36.241 50.7143C36.2673 50.7406 36.32 50.767 36.3463 50.8196C36.3726 50.8723 36.3463 50.8986 36.3463 50.9513C36.32 50.9776 36.2936 51.0303 36.241 51.0566C36.083 51.1093 36.0303 51.1356 36.0303 51.1356ZM35.7406 47.8966C35.7933 47.8703 35.8196 47.8703 35.8723 47.8966C35.925 47.923 35.9776 47.9756 36.004 48.0283C36.004 48.002 36.004 47.9756 36.004 47.9493C36.004 47.923 36.004 47.8703 36.004 47.844C36.0303 47.8176 36.0566 47.7913 36.083 47.765C36.162 47.7123 36.241 47.686 36.241 47.686H36.2673C36.2673 47.686 36.3726 47.6333 36.4779 47.6333C36.5043 47.6333 36.5569 47.6333 36.5833 47.6333C36.6096 47.6596 36.6623 47.686 36.6886 47.7386C36.7149 47.7913 36.7149 47.8176 36.6886 47.8703C36.6886 47.8966 36.6623 47.923 36.6359 47.9493C36.5569 48.002 36.4779 48.0546 36.4516 48.0546C36.4779 48.0546 36.5306 48.0283 36.6359 48.002C36.6886 47.9756 36.7149 47.9756 36.7676 48.002C36.7939 48.0283 36.8466 48.0546 36.8729 48.1073C36.8993 48.16 36.8993 48.1863 36.8729 48.239C36.8466 48.2653 36.8203 48.318 36.7676 48.3443C36.7149 48.3706 36.6886 48.3706 36.6359 48.3443C36.5833 48.318 36.5306 48.239 36.4779 48.16C36.4779 48.1863 36.5043 48.239 36.5043 48.2916C36.5043 48.318 36.5043 48.3706 36.5043 48.397C36.4779 48.4233 36.4516 48.476 36.3989 48.5023C36.3463 48.5286 36.32 48.5286 36.2673 48.5023C36.241 48.476 36.2146 48.476 36.1883 48.4496C36.162 48.4233 36.162 48.397 36.1356 48.3706C36.1356 48.4233 36.162 48.5023 36.1356 48.555C36.1093 48.5813 36.083 48.634 36.0303 48.6603C35.9776 48.6866 35.9513 48.6866 35.8986 48.6603C35.8723 48.634 35.8196 48.6076 35.7933 48.555C35.767 48.5023 35.767 48.476 35.7933 48.4233C35.8196 48.397 35.846 48.3443 35.8986 48.318L36.0566 48.16L35.8723 48.2126C35.8196 48.239 35.7933 48.239 35.7406 48.2126C35.688 48.1863 35.6353 48.1336 35.609 48.0546C35.609 48.081 35.609 48.1073 35.6353 48.16C35.6353 48.1863 35.6353 48.239 35.6353 48.2653C35.609 48.2916 35.5826 48.3443 35.53 48.3706C35.4773 48.397 35.451 48.397 35.3983 48.3706C35.372 48.3443 35.3456 48.3443 35.3193 48.318C35.293 48.2916 35.2666 48.2653 35.2666 48.239C35.2666 48.2653 35.293 48.318 35.293 48.3443C35.293 48.3706 35.293 48.4233 35.293 48.4496C35.2666 48.476 35.2403 48.5286 35.1876 48.555C35.135 48.5813 35.1086 48.5813 35.056 48.555C35.0296 48.5286 35.0033 48.5286 34.977 48.476C34.9506 48.4496 34.9506 48.4233 34.9243 48.397C34.9243 48.4233 34.9506 48.476 34.9506 48.5023C34.9506 48.5286 34.9506 48.5813 34.9506 48.6076C34.9243 48.634 34.898 48.6866 34.8453 48.713C34.7926 48.7393 34.74 48.7393 34.7136 48.713C34.6873 48.6866 34.661 48.6866 34.6346 48.634C34.6083 48.6076 34.582 48.5813 34.582 48.555C34.582 48.5813 34.6083 48.634 34.6083 48.6603C34.6083 48.6866 34.6083 48.7393 34.6083 48.7656C34.582 48.792 34.5556 48.8446 34.503 48.871C34.4503 48.8973 34.424 48.8973 34.3713 48.871C34.345 48.8446 34.3186 48.8446 34.2923 48.792C34.266 48.7393 34.2133 48.6866 34.2133 48.634L34.266 48.7656C34.2923 48.8183 34.2923 48.8446 34.266 48.8973C34.2396 48.9236 34.2133 48.9763 34.1606 49.0026C34.108 49.029 34.0816 49.029 34.029 49.0026C34.0026 48.9763 33.95 48.95 33.9236 48.8973C33.8973 48.8446 33.8973 48.792 33.9236 48.7656C33.95 48.6866 34.1343 48.5813 34.1606 48.5813L33.95 48.555C33.8973 48.5813 33.871 48.5813 33.8183 48.555C33.792 48.5286 33.7393 48.5023 33.713 48.4496C33.6866 48.397 33.6866 48.3443 33.713 48.318C33.7393 48.2916 33.7656 48.239 33.8183 48.2126C33.871 48.1863 33.8973 48.1863 33.95 48.2126C34.0026 48.239 34.0553 48.2916 34.0816 48.3706C34.0816 48.3443 34.0553 48.318 34.0553 48.2653C34.0553 48.239 34.0553 48.1863 34.0553 48.16C34.0816 48.1336 34.108 48.081 34.1606 48.0546C34.2133 48.0283 34.2396 48.0283 34.2923 48.0546C34.3186 48.081 34.345 48.081 34.3713 48.1073C34.3976 48.1336 34.424 48.16 34.424 48.2126C34.424 48.1863 34.3976 48.1336 34.3976 48.1073C34.3976 48.081 34.3976 48.0283 34.3976 48.002C34.3976 47.9756 34.3976 47.9756 34.424 47.9756L34.4503 47.9493C34.4503 47.9493 34.4503 47.9493 34.4766 47.923C34.5556 47.8703 34.661 47.8176 34.661 47.8176H34.6873C34.6873 47.8176 34.7926 47.7913 34.8716 47.765C34.8716 47.765 34.898 47.765 34.9243 47.765H34.9506H34.977C35.0033 47.765 35.0033 47.7913 35.0296 47.7913C35.056 47.8176 35.056 47.8176 35.0823 47.844C35.1086 47.8703 35.1086 47.8966 35.135 47.923C35.135 47.8966 35.1086 47.844 35.1086 47.8176C35.1086 47.7913 35.1086 47.7386 35.1086 47.7123C35.135 47.686 35.1613 47.6596 35.1876 47.6333C35.2666 47.5807 35.3456 47.5543 35.3456 47.5543H35.372C35.372 47.5543 35.4773 47.5017 35.5826 47.5017C35.609 47.5017 35.6616 47.5017 35.688 47.5017C35.7143 47.528 35.767 47.5543 35.7933 47.607C35.8196 47.6596 35.8196 47.686 35.7933 47.7386C35.7933 47.765 35.767 47.7913 35.7406 47.8176C35.6616 47.8703 35.5826 47.923 35.5563 47.923L35.7406 47.8966ZM37.3996 50.372C37.3733 50.293 37.3996 50.1876 37.5049 50.135C37.5839 50.1086 37.6893 50.135 37.7419 50.2403C37.7683 50.3193 37.7419 50.4246 37.6366 50.451C37.5313 50.5036 37.4259 50.4773 37.3996 50.372ZM33.8973 47.8176C33.8973 47.844 33.8973 47.8966 33.95 47.9493C33.9763 48.002 34.029 48.0283 34.0553 48.0546C34.0816 48.0546 34.1343 48.0546 34.1606 48.0283C34.2923 47.9756 34.2923 47.8703 34.2133 47.6596C34.345 47.923 34.503 47.8966 34.6873 47.8176C34.7926 47.7913 34.8453 47.7386 34.898 47.6596C34.9243 47.607 34.9243 47.528 34.8716 47.449C34.819 47.3437 34.74 47.291 34.661 47.3173C34.6083 47.3173 34.5293 47.3437 34.4503 47.3963C34.4503 47.37 34.503 47.3437 34.6083 47.291C34.6346 47.2647 34.6873 47.2383 34.6873 47.1857C34.6873 47.133 34.6873 47.1067 34.6873 47.054C34.661 47.0013 34.6346 46.975 34.582 46.975C34.5293 46.9487 34.503 46.9487 34.4503 46.975C34.3976 47.0013 34.3713 47.0277 34.3713 47.0803C34.345 47.1593 34.3976 47.3173 34.424 47.37C34.266 47.0803 34.1343 47.133 33.95 47.212C33.792 47.2647 33.634 47.3963 33.713 47.5543C33.792 47.7123 33.8973 47.6596 34.1606 47.5543C34.0026 47.686 33.9236 47.7123 33.8973 47.8176ZM33.3443 48.318C33.318 48.2916 33.2653 48.2653 33.239 48.239C33.2126 48.1863 33.2126 48.1336 33.2126 48.1073C33.239 48.081 33.239 48.0546 33.2916 48.0283C33.3706 48.002 33.4233 48.002 33.476 48.0546C33.5023 48.081 33.5286 48.1073 33.5286 48.1336C33.555 48.1863 33.555 48.239 33.555 48.2653C33.5286 48.2916 33.5023 48.318 33.476 48.3443C33.4496 48.3706 33.3706 48.3443 33.3443 48.318ZM30.5793 51.2673C30.5267 51.162 30.5003 51.0566 30.474 50.9513C30.5793 51.1093 30.632 51.083 30.8953 50.9513C30.6583 51.083 30.553 51.162 30.632 51.32C30.711 51.478 30.8163 51.4253 31.0797 51.32C30.8427 51.4516 30.7373 51.5306 30.8163 51.6623C30.8953 51.7939 31.0007 51.7676 31.2377 51.6623C31.0007 51.7939 30.8953 51.8729 30.9743 52.0046C31.0533 52.1363 31.1587 52.1099 31.3957 52.0046C31.1587 52.1363 31.0533 52.2153 31.1323 52.3469C31.2113 52.4786 31.3167 52.4786 31.5537 52.3733C31.5273 52.3733 31.4747 52.4259 31.3693 52.4786C31.3167 52.5049 31.2903 52.5313 31.2903 52.5839C31.264 52.6103 31.2903 52.6629 31.2903 52.6893C31.2377 52.6103 31.1587 52.5313 31.106 52.4523C31.106 52.4259 31.106 52.3996 31.0797 52.3733C31.0533 52.3469 31.027 52.3206 31.0007 52.2943C30.9743 52.2416 30.948 52.2153 30.9217 52.1626C30.948 52.1099 30.948 52.0573 30.9217 52.0309C30.8953 51.9783 30.8427 51.9519 30.79 51.9519C30.7637 51.9256 30.7637 51.8729 30.7373 51.8466C30.7637 51.7939 30.7637 51.7413 30.7373 51.6886C30.79 51.6359 30.7373 51.6096 30.711 51.5833C30.6847 51.5306 30.6583 51.478 30.6583 51.4516C30.6583 51.4253 30.6583 51.3726 30.6583 51.32C30.632 51.32 30.6057 51.2936 30.5793 51.2673ZM31.6327 52.3733C31.6327 52.3733 31.738 52.5839 31.7117 52.6893C31.6853 52.7419 31.659 52.7683 31.6327 52.7946C31.58 52.8209 31.5537 52.8209 31.501 52.7946C31.4747 52.7946 31.4747 52.7683 31.4483 52.7683C31.4747 52.8209 31.5273 52.8473 31.5537 52.8999C31.58 52.8736 31.6063 52.8473 31.6327 52.8209C31.7117 52.7683 31.817 52.8209 31.8697 52.8999C31.9223 52.9789 31.8697 53.0843 31.7907 53.1369C31.817 53.1633 31.817 53.1633 31.8433 53.1896C31.9223 53.1633 32.0277 53.1896 32.054 53.2686C32.0803 53.2949 32.0803 53.3476 32.0803 53.3739C32.133 53.4266 32.212 53.4529 32.2647 53.5056C32.2647 53.4529 32.291 53.3739 32.37 53.3476C32.449 53.2949 32.5543 53.3476 32.607 53.4266C32.6596 53.5056 32.607 53.6109 32.528 53.6636C32.5016 53.6899 32.528 53.6899 32.528 53.6899C32.607 53.6636 32.686 53.6899 32.7386 53.7689C32.7386 53.7689 32.7386 53.7953 32.765 53.8216C32.844 53.8743 32.8966 53.9006 32.9756 53.9269C33.002 53.9006 33.002 53.9006 33.0283 53.8743C33.1073 53.8216 33.2126 53.8743 33.2653 53.9533C33.2916 53.9796 33.2916 54.0059 33.2916 54.0586C33.3443 54.0849 33.4233 54.1113 33.5023 54.1376C33.5286 54.1113 33.5286 54.0849 33.5813 54.0849C33.6603 54.0323 33.7656 54.0849 33.8183 54.1639C33.8446 54.1903 33.8446 54.2166 33.8446 54.2429C33.871 54.2429 33.871 54.2429 33.8973 54.2429C33.8183 54.0586 33.792 53.9796 33.9236 53.9006C34.0816 53.8216 34.1343 53.9269 34.266 54.1639C34.108 53.8216 34.108 53.7953 34.4503 53.6109C34.187 53.7163 34.0816 53.7689 34.029 53.6109C33.95 53.4793 34.029 53.4003 34.266 53.2686C34.108 52.9526 34.1343 52.9263 34.4503 52.7419C34.108 52.8999 34.108 52.8999 33.9236 52.5839C33.6076 52.7156 33.5813 52.7156 33.397 52.3996C33.081 52.5313 33.0283 52.5049 32.844 52.1889C32.9493 52.4523 33.002 52.5313 32.844 52.6103C32.686 52.6893 32.6333 52.5839 32.5016 52.3469C32.607 52.6103 32.6596 52.7156 32.5016 52.7683C32.3437 52.8473 32.3173 52.7683 32.1857 52.5313C31.8433 52.6893 31.817 52.6629 31.6327 52.3733Z" fill="white"/>
</g>
<defs>
<radialGradient id="paint0_radial_15_25" cx="0" cy="0" r="1" gradientUnits="userSpaceOnUse" gradientTransform="translate(34.9356 49.892) scale(7.19376)">
<stop stop-color="#B0BAD1"/>
<stop offset="0.12" stop-color="#A4AFC7"/>
<stop offset="0.34" stop-color="#8795AF"/>
<stop offset="0.63" stop-color="#566988"/>
<stop offset="0.95" stop-color="#1A3357"/>
<stop offset="1" stop-color="#1A3357"/>
</radialGradient>
<radialGradient id="paint1_radial_15_25" cx="0" cy="0" r="1" gradientUnits="userSpaceOnUse" gradientTransform="translate(39.4054 51.483) scale(7.77677)">
<stop stop-color="white"/>
<stop offset="0.09" stop-color="#D2D6DE"/>
<stop offset="0.24" stop-color="#8391A4"/>
<stop offset="0.37" stop-color="#4A5E7A"/>
<stop offset="0.47" stop-color="#273E60"/>
<stop offset="0.52" stop-color="#1A3357"/>
<stop offset="1" stop-color="#1A3357"/>
</radialGradient>
</defs>
</svg>
