<?xml version="1.0" encoding="UTF-8"?>
<svg id="Layer_1" data-name="Layer 1" xmlns="http://www.w3.org/2000/svg" viewBox="0 0 415.54 416.59">
  <defs>
    <style>
      .cls-1 {
        fill: none;
      }

      .cls-2 {
        fill: #a1c51e;
      }
    </style>
  </defs>
  <rect class="cls-1" x="-327.83" y="-297.48" width="1080" height="1060.42"/>
  <g>
    <path class="cls-2" d="m399.75,0c.94.46,1.86.95,2.82,1.36,7.81,3.34,12.62,9.15,12.76,17.69.29,18.56.29,37.13.02,55.69-.15,10.18-7.53,17.75-17.67,19.08-1.21.16-2.46.4-3.64.22-12.11-1.79-22.14,2.47-32.03,9.25-14.84,10.17-30.42,19.26-45.7,28.8-1.01.63-2.07,1.2-3.87,2.23,2.32-13.69,4.52-26.67,6.82-40.24-5.09,0-9.92,0-14.76,0-15.37-.01-23.35-7.94-23.35-23.23,0-15.18.37-30.37-.12-45.53C280.62,12.82,285.09,4.1,297.27,0,331.43,0,365.59,0,399.75,0Zm-69.04,107.21c9.23-5.76,18.02-10.4,25.83-16.33,11.01-8.36,22.81-11.98,36.57-10.46,6.74.74,9.01-2.05,9.02-8.81.02-16.39.02-32.78,0-49.18,0-6.77-2.18-8.94-9.04-8.95-24.66-.02-49.31-.01-73.97,0-5.83,0-11.65-.1-17.47.06-4.42.12-6.88,2.52-6.9,6.83-.08,17.75-.08,35.49,0,53.24.02,4.49,2.61,6.88,7.23,6.92,9.62.07,19.24.02,28.86.02,1.32,0,2.64,0,4.33,0-1.48,8.84-2.88,17.21-4.46,26.66Z"/>
    <path class="cls-2" d="m174.88,276.26c-1.57-2.1-2.29-3.8-3.57-4.65-15.14-10.03-24.96-23.76-29.45-41.37-.29-1.15-1.53-2.51-2.65-2.95-13.18-5.15-19.22-13.81-19.24-27.92-.01-14.64-.04-29.28,0-43.92.12-43.05,29.08-78.33,71.19-86.78,49.42-9.92,99.07,27.01,102.77,77.13,1.29,17.53.6,35.21.73,52.82.09,11.66.06,23.31,0,34.97-.06,13.13-8.57,22.04-21.63,21.53-7.92-.31-14.2.84-19.2,7.78-2.58,3.59-7.11,5.74-10.6,8.73-1.19,1.02-1.89,2.61-3.3,4.65,11.76,2.14,22.26,4.03,32.74,5.99,5.99,1.12,12.07,1.94,17.9,3.63,13.16,3.81,23.65,11.76,28.78,24.44,6.82,16.89,12.15,34.38,18.33,52.21h-144.41c4.26,3.6,7.6,6.41,11.03,9.31-1.67,1.76-2.27,2.46-2.94,3.08-10.69,9.8-21.35,19.64-32.11,29.36-18,16.26-45.31,16.59-62.82-.18-21.43-20.53-42.13-41.82-63.14-62.78-9.4-9.38-18.8-18.77-28.18-28.18-20.12-20.18-20.2-48.66-.17-68.85,9.54-9.61,19.14-19.16,28.77-28.8.79.73,1.41,1.25,1.98,1.81,15.82,15.8,31.63,31.61,47.72,47.68-.85.98-1.55,1.9-2.37,2.72-7.46,7.49-14.95,14.95-22.42,22.44-4.75,4.77-4.73,7.91.1,12.75,6.88,6.91,13.77,13.79,21.09,21.12,1.19-3.35,2.14-6.26,3.25-9.1,6.53-16.74,18.62-26.91,36.27-30.29,14.61-2.8,29.26-5.4,45.52-8.38Zm-21,46.81c7.96,7.99,15.67,15.59,23.21,23.36,1.95,2.01,3.92,2.83,6.73,2.82,43.5-.08,86.99-.06,130.49-.06,1.31,0,2.63,0,4.53,0-3.3-9.97-6.25-19.37-9.54-28.64-4.54-12.85-13.69-20.45-27.11-22.89-11.32-2.06-22.79-3.52-33.89-6.41-8.61-2.25-14.58-.68-20.34,6.27-6.17,7.45-13.59,13.86-20.59,20.83-1.24-1.17-2.24-2.07-3.19-3.02-7.96-7.95-15.85-15.97-23.94-23.78-1.13-1.1-3.35-1.9-4.87-1.64-14.68,2.48-29.34,5.07-43.95,7.92-12.69,2.48-21.39,9.97-25.92,22.12-1.47,3.92-2.6,7.97-4.05,11.9-.75,2.02-.54,3.42,1.13,4.98,3.78,3.5,7.32,7.25,10.96,10.88,4.83,4.81,7.67,4.86,12.81.22,9.04-8.16,18.08-16.34,27.51-24.86Zm126.5-145.37c0-11.33,1.21-22.7-.22-33.72-4.56-35.05-33.81-61.43-68.9-63.33-34.85-1.88-66.83,21.07-75.15,55.25-2.55,10.47-1.89,21.74-2.6,32.64-.2,3.02-.03,6.06-.03,9.55,2.68-1.1,4.64-1.91,6.73-2.77v-7.53c27.55,1.7,49.51-9.02,67.04-29.77,9.06,9.77,18.32,18.17,30.1,23.44,11.76,5.26,24.11,6.79,37.13,6.46v7.53c2.32.89,4.3,1.66,5.9,2.27Zm-73.04-20.41c-14.79,13.5-31.61,21.52-51.15,23.46-2.42.24-2.7,1.55-2.69,3.56.07,10.43-.29,20.88.12,31.3.83,21.41,10.65,37.68,29.86,47.28,18.75,9.36,37.22,7.5,54.67-4.09,1.25-.83,2.36-1.87,3.53-2.82-.13-.27-.27-.55-.4-.82h-33.68v-13.45c1.78,0,3.25,0,4.72,0,12.74,0,25.48-.07,38.21.06,2.54.03,4.09-.69,4.93-3.08,1.38-3.95,3.83-7.82,4.07-11.83.89-14.57,1.1-29.19,1.33-43.8.01-.78-2.07-2-3.35-2.32-5.11-1.24-10.39-1.89-15.44-3.33-13.12-3.74-24.48-10.7-34.73-20.13Zm-42.8,232.79c-10.27-10.46-20.3-20.68-30.34-30.91-10.92,8.24-20.56,7.59-30.26-2.1-14.85-14.84-29.71-29.69-44.55-44.54-9.64-9.64-10.31-19.04-2.2-30.01.13-.18.07-.51.15-1.27-4.9-4.8-10.05-9.8-15.13-14.86-5.05-5.03-10.03-10.12-15.02-15.16-17.84,16.24-18.33,36.68-1.7,53.3,29.22,29.22,58.42,58.46,87.68,87.64,15.43,15.39,37.67,14.28,51.37-2.09Zm11.49-10.06c2.57-2.43,5.26-4.98,7.56-7.16-10.37-10.43-20.37-20.49-30.63-30.81-2.58,2.35-5.34,4.85-7.87,7.16,10.36,10.32,20.49,20.4,30.94,30.81Zm-101.88-114.45c-10.28-10.32-20.36-20.44-30.31-30.43-2.24,2.05-4.67,4.27-6.67,6.09,10.41,10.41,20.51,20.51,30.72,30.71,1.91-1.94,4.08-4.15,6.26-6.37Zm114.55,13.97c6.51,6.52,12.84,12.85,18.64,18.66,6.11-6.08,12.5-12.43,18.92-18.82-12.38,3.61-25.02,3.53-37.56.16Zm80.73-38.25c11.08,2.09,13.34-3.16,10.9-16.32-2.52,1.34-6.02,2.04-7.11,4.04-2.01,3.68-2.61,8.14-3.79,12.28Zm-129.46-28.59v-22.35c-4.55,2.64-6.37,6.4-6.41,11.09-.04,4.73,1.9,8.44,6.41,11.25Zm134.7.18c5.29-3.7,7.12-8.23,6.25-13.73-.59-3.76-2.56-6.74-6.25-8.95v22.68Z"/>
    <path class="cls-2" d="m263.07,28.45c-1.45,4.6-2.7,8.58-3.96,12.61-57.75-15.65-110.9-7.03-158.58,29.23-31.79,24.18-52.17,56.25-62.66,96.03,6.64-3.93,12.35-7.3,18.27-10.8,2.31,3.85,4.46,7.42,6.86,11.43-13.15,7.9-26.08,15.66-39.31,23.61-7.86-13.09-15.58-25.94-23.58-39.26,3.72-2.27,7.36-4.48,11.44-6.97,4.16,6.89,8.23,13.63,12.56,20.8,16.15-60.13,51.37-103.66,107.65-128.95,42.41-19.06,86.29-20.79,131.31-7.73Z"/>
    <path class="cls-2" d="m372.81,151.52c-4.3,7.11-8,13.22-11.95,19.74-3.81-2.25-7.47-4.42-11.51-6.81,7.9-13.17,15.66-26.11,23.58-39.33,13.14,7.88,25.98,15.58,39.31,23.58-2.33,3.9-4.57,7.64-6.88,11.51-6.5-3.88-12.65-7.55-19.32-11.53,19.22,64.98,8.42,124-32.35,178.05-3.7-2.96-6.94-5.55-10.46-8.36,37.93-50.25,48.05-105.4,29.57-166.85Z"/>
    <path class="cls-2" d="m308.13,39.87v-12.7h80.14v12.7h-80.14Z"/>
    <path class="cls-2" d="m308.2,66.93v-12.96h53.19v12.96h-53.19Z"/>
    <path class="cls-2" d="m388.4,66.96h-12.94v-12.97h12.94v12.97Z"/>
  </g>
</svg>