<svg width="100" height="100" viewBox="0 0 100 100" fill="none" xmlns="http://www.w3.org/2000/svg">
<rect width="100" height="100" fill="white"/>
<path fill-rule="evenodd" clip-rule="evenodd" d="M34.5455 31H70V64.941C70 67.4074 67.965 69.4069 65.4546 69.4069H30V35.4659C30 32.9995 32.0351 31 34.5455 31Z" fill="url(#paint0_radial_15_36)"/>
<path fill-rule="evenodd" clip-rule="evenodd" d="M31.1248 50.0725C31.1248 60.1259 39.4689 68.2697 49.7689 68.2697C60.069 68.2697 68.4129 60.1259 68.4129 50.0725C68.4129 40.019 60.069 31.8742 49.7689 31.8742C39.4949 31.8486 31.1248 40.019 31.1248 50.0725Z" fill="#002D74"/>
<path fill-rule="evenodd" clip-rule="evenodd" d="M63.7711 60.3804C63.8233 60.1256 63.9796 59.9221 64.1882 59.769C64.2405 59.7186 64.3186 59.6928 64.3968 59.6928C64.5532 59.6672 64.6583 59.769 64.6583 59.9221C64.6583 59.9477 64.6583 59.9725 64.6314 60.0237C64.5793 60.2786 64.4228 60.4822 64.2143 60.6353C64.1622 60.6857 64.084 60.7113 64.0059 60.7362C63.8754 60.7618 63.7711 60.6857 63.745 60.5583C63.745 60.4822 63.745 60.4318 63.7711 60.3804ZM63.6148 59.1328C63.6408 58.8531 63.7711 58.5982 64.058 58.4461C64.1101 58.3956 64.1882 58.3956 64.2665 58.3691C64.4228 58.3443 64.5532 58.4461 64.5793 58.6238V58.7512C64.5272 59.0319 64.3968 59.2345 64.1882 59.4132C64.1622 59.438 64.1101 59.4645 64.084 59.4645C63.8233 59.5911 63.6148 59.438 63.6148 59.1328ZM63.4062 57.9115C63.3802 57.861 63.3802 57.8097 63.3802 57.7327C63.3802 57.4283 63.5365 57.1734 63.7973 56.9948C63.9275 56.9187 64.058 56.8939 64.2143 56.9699C64.3447 57.046 64.3968 57.1734 64.3968 57.3513C64.3707 57.631 64.2405 57.8859 64.0059 58.0638C63.9536 58.115 63.8754 58.1408 63.8233 58.1408C63.6408 58.1655 63.4844 58.0894 63.4062 57.9115ZM63.4323 61.9326C63.354 62.2387 63.1454 62.4414 62.8587 62.5945C62.8066 62.6201 62.7545 62.6201 62.7283 62.6201C62.5459 62.6201 62.4676 62.5431 62.5197 62.391C62.598 62.06 62.8066 61.8052 63.1716 61.7043C63.354 61.6273 63.4844 61.7547 63.4323 61.9326ZM62.3895 61.322C62.3634 60.9911 62.7545 60.5334 63.0933 60.5069C63.2758 60.4822 63.4062 60.5839 63.4062 60.7874C63.4062 60.8132 63.4062 60.8379 63.3802 60.8892C63.3019 61.1441 63.1454 61.3476 62.9108 61.5008C62.8327 61.5511 62.7545 61.5511 62.6762 61.5759C62.5197 61.5511 62.4155 61.4494 62.3895 61.322ZM62.207 59.846C62.2591 59.5911 62.3895 59.4132 62.598 59.2858C62.6762 59.2345 62.7806 59.2097 62.8587 59.184C63.0933 59.1584 63.2498 59.2858 63.2237 59.5663C63.1716 59.846 63.0152 60.1008 62.7283 60.2786C62.598 60.3548 62.4416 60.3804 62.2851 60.2786C62.18 60.1512 62.18 59.999 62.207 59.846ZM61.8933 58.4717C61.9203 58.1912 62.0766 57.9371 62.3634 57.7594C62.4155 57.7327 62.4937 57.708 62.572 57.6824C62.8327 57.6566 63.0152 57.8097 63.0412 58.0638C63.0412 58.1912 63.0152 58.3186 62.9631 58.4203C62.8848 58.5734 62.8066 58.7 62.6762 58.777C62.598 58.8282 62.5197 58.8787 62.4155 58.8787C62.1288 58.9805 61.8933 58.8017 61.8933 58.4717ZM61.5804 56.8939C61.5804 56.5877 61.7378 56.3594 61.9975 56.2063C62.3374 56.0276 62.7022 56.2063 62.7022 56.5877C62.7022 56.8683 62.598 57.1222 62.3374 57.3001C62.18 57.4283 61.9975 57.4532 61.8159 57.3513C61.6334 57.2753 61.5804 57.0965 61.5804 56.8939ZM61.2163 55.57C61.1372 55.4426 61.1112 55.2905 61.1112 55.1373C61.1372 54.9082 61.2416 54.7303 61.3988 54.5773C61.5804 54.4241 61.7899 54.348 61.9975 54.4498C62.2321 54.5524 62.3374 54.7303 62.3374 54.9586C62.3374 55.2647 62.207 55.4931 61.9724 55.6718C61.7108 55.9009 61.3988 55.8497 61.2163 55.57ZM60.642 53.7118C60.6159 53.6357 60.6159 53.5587 60.6159 53.5339C60.6159 53.3048 60.668 53.1011 60.7983 52.949C60.9287 52.7446 61.1372 52.6428 61.3988 52.6941C61.6587 52.7446 61.7899 52.8976 61.868 53.1269C61.9454 53.432 61.7899 53.8392 61.5283 54.018C61.2163 54.2215 60.7462 54.0684 60.642 53.7118ZM60.277 52.1339C59.9119 51.803 60.0423 51.1154 60.5116 50.9375C60.7201 50.8615 60.9287 50.8863 61.0851 51.0394C61.2685 51.1668 61.3198 51.3703 61.3458 51.5738C61.3458 51.803 61.2685 52.0065 61.0851 52.1596C60.8245 52.3632 60.5116 52.3632 60.277 52.1339ZM59.4688 49.996C59.3906 49.7164 59.4427 49.4359 59.6252 49.2076C59.7817 49.0032 59.9902 48.9527 60.2509 49.0288C60.5637 49.1049 60.7722 49.3855 60.7722 49.7669C60.7722 49.9448 60.7201 50.1234 60.5637 50.2766C60.3813 50.5048 60.0684 50.5561 59.8077 50.4031C59.6252 50.327 59.5209 50.1996 59.4688 49.996ZM59.5209 52.7702C59.3385 53.0242 59.0777 53.1269 58.791 53.0242C58.5034 52.949 58.2957 52.6941 58.2957 52.4144C58.2688 52.1339 58.3739 51.88 58.6085 51.7012C58.9735 51.3959 59.5471 51.6251 59.6773 52.0835C59.7034 52.1339 59.7034 52.1844 59.7034 52.2614C59.6773 52.4393 59.6252 52.6181 59.5209 52.7702ZM57.7222 50.8359C57.5396 50.5048 57.644 50.0217 57.9568 49.8173C58.1914 49.665 58.426 49.665 58.6606 49.7925C58.8952 49.9199 59.0517 50.1491 59.0517 50.4287C59.0517 50.5817 59.0256 50.7084 58.9475 50.8359C58.817 51.065 58.6345 51.2172 58.3478 51.1924C58.0863 51.1924 57.8786 51.065 57.7222 50.8359ZM56.9652 48.4944C56.9652 48.3669 57.0183 48.2395 57.0956 48.113C57.2529 47.8581 57.4875 47.7563 57.7743 47.8068C58.1653 47.8837 58.426 48.1633 58.426 48.596C58.426 48.7235 58.3739 48.8509 58.2957 48.9783C58.1132 49.258 57.7994 49.3855 57.4875 49.258C57.1477 49.1562 56.9391 48.8509 56.9652 48.4944ZM56.4439 51.88C56.2614 51.8535 56.1049 51.803 56.0007 51.6756C55.8182 51.4472 55.74 51.1924 55.8442 50.9128C55.9225 50.6322 56.1311 50.4792 56.4178 50.4287C56.7045 50.3517 56.9652 50.4792 57.1477 50.7084C57.226 50.8359 57.2781 50.9889 57.2781 51.0907C57.2529 51.5738 56.861 51.9047 56.4439 51.88ZM55.0621 49.1562C55.1404 48.8253 55.2707 48.5704 55.6096 48.4686C55.8963 48.3926 56.2614 48.5456 56.4439 48.7997C56.522 48.9014 56.5743 49.0288 56.5743 49.1818C56.5743 49.4102 56.496 49.6394 56.3397 49.8173C56.2093 49.9704 56.0007 50.0217 55.8442 50.0217C55.375 49.996 55.01 49.589 55.0621 49.1562ZM54.5668 52.6428C54.1497 52.6428 53.8109 52.2862 53.8109 51.8286C53.8109 51.4207 54.2018 51.065 54.6451 51.065C55.0621 51.065 55.4011 51.4207 55.4011 51.8535C55.375 52.3118 55.0361 52.6428 54.5668 52.6428ZM53.1583 49.9199C53.1583 49.5129 53.4971 49.1818 53.9403 49.1818C54.3574 49.1818 54.6712 49.5129 54.6712 49.9448C54.6712 50.3774 54.3322 50.6827 53.8882 50.6827C53.471 50.6827 53.1583 50.327 53.1583 49.9199ZM52.6889 53.3304C52.2197 53.3304 51.8547 53.0242 51.8547 52.6181C51.8547 52.1339 52.1936 51.7517 52.6108 51.7517C53.08 51.7517 53.445 52.0835 53.445 52.4649C53.445 52.949 53.1069 53.3304 52.6889 53.3304ZM51.1248 50.6827C51.1248 50.1996 51.4898 49.8429 51.933 49.8429C52.3762 49.8429 52.7412 50.1996 52.7151 50.6322C52.7151 51.065 52.3501 51.4207 51.933 51.4207C51.5159 51.4207 51.1248 51.065 51.1248 50.6827ZM50.7077 54.0427C50.2385 54.0427 49.8726 53.6869 49.8726 53.3048C49.8726 52.8463 50.2385 52.4649 50.6556 52.4649C51.1248 52.4649 51.4898 52.8207 51.4898 53.2285C51.4638 53.6869 51.1248 54.0684 50.7077 54.0427ZM49.1427 51.3959C49.1427 50.9375 49.4824 50.5561 49.9516 50.5561C50.421 50.5561 50.7598 50.8863 50.7598 51.3454C50.7598 51.7517 50.394 52.1339 50.0039 52.1339C49.5337 52.1339 49.1427 51.7774 49.1427 51.3959ZM48.7516 54.7559C48.2824 54.7559 47.9174 54.3994 47.9174 54.018C47.9174 53.5852 48.2563 53.2029 48.6735 53.2029C49.1427 53.2029 49.5337 53.5587 49.5337 53.9666C49.5075 54.3736 49.1427 54.7559 48.7516 54.7559ZM47.1613 52.0579C47.1613 51.6251 47.5003 51.2428 47.9174 51.2428C48.3866 51.2428 48.7777 51.5995 48.7777 51.9817C48.7777 52.4393 48.4387 52.7958 47.9955 52.8207C47.5524 52.8207 47.1613 52.4897 47.1613 52.0579ZM46.0134 53.4834C45.5963 53.4834 45.2322 53.1269 45.2575 52.7188C45.2575 52.3118 45.5963 52.0065 46.0134 52.0065C46.4054 52.0065 46.7704 52.3632 46.7704 52.7702C46.7704 53.1525 46.4575 53.4834 46.0134 53.4834ZM44.5014 50.8359C44.5014 50.4031 44.8664 50.0217 45.2575 50.0217C45.7014 50.0217 46.0925 50.3774 46.0925 50.7596C46.0925 51.2172 45.7267 51.5738 45.3096 51.5738C44.8664 51.5738 44.5014 51.2428 44.5014 50.8359ZM43.8757 48.6218C43.9278 48.52 43.9799 48.4182 44.0582 48.3165C44.1885 48.1633 44.371 48.113 44.6056 48.113C44.8404 48.113 45.0489 48.2138 45.2322 48.4182C45.3356 48.5456 45.3877 48.6979 45.3877 48.8509C45.3617 49.1049 45.2575 49.3085 45.075 49.4871C44.9446 49.6146 44.7881 49.665 44.6318 49.665C44.0582 49.665 43.6932 49.1306 43.8757 48.6218ZM45.8839 45.5414C46.275 45.5414 46.6139 45.8732 46.6139 46.2803C46.6139 46.6873 46.248 47.0182 45.8309 47.0182C45.4398 47.0182 45.101 46.6873 45.101 46.3059C45.101 45.8732 45.4668 45.5414 45.8839 45.5414ZM46.4054 43.5565C46.4826 43.2512 46.6921 43.0734 47.005 43.0221H47.1092C47.4482 43.0221 47.7349 43.2008 47.8392 43.4804C47.9434 43.7353 47.8653 44.0406 47.6307 44.2441C47.3438 44.4724 46.9006 44.4724 46.6139 44.2441C46.4054 44.0406 46.3271 43.8114 46.4054 43.5565ZM48.2824 42.9716C48.3345 42.615 48.6212 42.3345 48.9862 42.3097H49.1957C49.6128 42.3602 49.8726 42.6911 49.8474 43.0734C49.8205 43.4291 49.4824 43.7353 49.0644 43.7601C48.9862 43.7353 48.9081 43.7353 48.8298 43.7096C48.491 43.6079 48.2563 43.3026 48.2824 42.9716ZM50.6286 41.7496C50.9683 41.5973 51.3855 41.6734 51.6201 41.9531C51.8026 42.1566 51.8026 42.3858 51.7244 42.6406C51.6201 42.8946 51.4376 43.0221 51.1509 43.0734H51.0988H51.0205C50.812 43.0734 50.6556 42.9964 50.4731 42.8946C50.0299 42.5389 50.2385 41.9026 50.6286 41.7496ZM52.1936 41.4956C52.298 41.2407 52.5066 41.0628 52.7933 41.0628C53.0539 41.0628 53.3146 41.1646 53.4971 41.3425C53.6284 41.4699 53.6536 41.6221 53.6805 41.7496C53.6805 42.1566 53.3415 42.4876 52.9497 42.4619C52.7151 42.4619 52.5066 42.3602 52.3241 42.1823C52.1155 41.9787 52.0894 41.7496 52.1936 41.4956ZM54.5668 40.5284C54.9058 40.4771 55.2969 40.6558 55.4271 40.9611C55.6878 41.4956 55.2446 41.9026 54.8535 41.877C54.5408 41.877 54.2801 41.7496 54.1228 41.4956C53.8361 41.0876 54.1497 40.5788 54.5668 40.5284ZM56.2614 42.9964C56.2874 43.3787 55.9225 43.7353 55.4792 43.6583C55.0361 43.5822 54.7233 43.1751 54.8014 42.7681C54.8797 42.4115 55.1404 42.2079 55.5054 42.2336C55.8442 42.2592 56.2874 42.615 56.2614 42.9964ZM56.7306 41.9274C56.887 41.7248 57.0956 41.6734 57.3302 41.7248C57.6952 41.8 57.9568 42.0548 58.0089 42.3858C58.0342 42.5132 58.0089 42.6406 57.9568 42.7681C57.8517 42.9716 57.6701 43.099 57.4606 43.099C57.0435 43.099 56.7828 42.9203 56.6524 42.5893C56.522 42.3602 56.5743 42.1318 56.7306 41.9274ZM56.522 46.0511C56.6264 45.9494 56.7568 45.9236 56.9131 45.9236C57.2529 45.9236 57.5127 46.0759 57.644 46.382C57.7743 46.6873 57.7222 46.967 57.4875 47.2219C57.4085 47.298 57.3302 47.3749 57.1999 47.3996C56.861 47.4767 56.4699 47.298 56.3135 46.9926C56.1571 46.6617 56.2353 46.2803 56.522 46.0511ZM55.5315 44.9317C55.4532 44.6512 55.5315 44.422 55.74 44.2185C55.8442 44.1167 55.9746 44.0654 56.1311 44.0654C56.6003 44.0406 57.0183 44.4476 56.9914 44.8547C56.9914 45.3388 56.5482 45.6441 56.0788 45.5166C55.8182 45.4148 55.6096 45.2113 55.5315 44.9317ZM55.0621 46.5599C55.5054 46.5599 55.8703 46.8908 55.8703 47.298C55.8703 47.7307 55.5836 48.0616 55.1925 48.0872C54.7233 48.0872 54.3574 47.7563 54.3574 47.3236C54.3574 46.9166 54.6712 46.5352 55.0621 46.5599ZM53.9403 46.0006C53.7057 45.8476 53.6015 45.6441 53.6015 45.3635C53.6015 44.9317 53.9151 44.6512 54.3574 44.6512C54.6972 44.6512 55.0361 44.906 55.1144 45.2369C55.1925 45.5414 55.0361 45.9236 54.7754 46.1015C54.6451 46.1785 54.5147 46.2034 54.3843 46.1785C54.228 46.1529 54.0707 46.1015 53.9403 46.0006ZM53.2104 47.2475C53.6284 47.2475 53.9672 47.604 53.9672 48.0112C53.9672 48.4182 53.6284 48.7235 53.2104 48.7235C52.7672 48.7235 52.4283 48.3925 52.4283 47.9598C52.4283 47.5528 52.7672 47.2475 53.2104 47.2475ZM52.9237 43.5309C52.8975 43.1495 53.2104 42.8442 53.6536 42.8442C54.0707 42.8442 54.4366 43.2008 54.4104 43.6079C54.4104 43.9379 54.1497 44.1928 53.784 44.2441C53.3415 44.3202 52.9237 43.9636 52.9237 43.5309ZM51.6723 46.0511C51.6723 45.6441 52.0111 45.2874 52.4283 45.2874C52.8714 45.2874 53.2625 45.6183 53.2625 46.0255C53.2625 46.4582 52.9237 46.8147 52.4804 46.8147C52.0372 46.8403 51.6723 46.4838 51.6723 46.0511ZM51.203 47.9342C51.6461 47.9342 51.9851 48.2651 51.9851 48.6979C51.9851 49.1049 51.6461 49.4359 51.203 49.4359C50.7858 49.4359 50.4461 49.1049 50.4461 48.673C50.4461 48.2651 50.7858 47.9342 51.203 47.9342ZM50.9683 44.168C50.9683 43.7857 51.3073 43.4804 51.7244 43.4804C52.1415 43.4804 52.4804 43.837 52.4804 44.2441C52.4804 44.6255 52.1415 44.9317 51.7244 44.9317C51.3073 44.906 50.9683 44.5494 50.9683 44.168ZM49.717 46.7634C49.717 46.3564 50.0551 46.0006 50.4731 46.0006C50.9162 46.0006 51.2552 46.3308 51.2552 46.7378C51.2552 47.1449 50.9162 47.4767 50.4991 47.4767C50.082 47.5015 49.7423 47.1705 49.717 46.7634ZM49.2469 48.6474C49.6649 48.6474 50.0039 48.9783 50.0039 49.4102C50.0039 49.8429 49.6649 50.1739 49.2208 50.1739C48.8037 50.1739 48.4649 49.8429 48.4649 49.3855C48.4387 48.9783 48.8037 48.6474 49.2469 48.6474ZM49.0123 44.8547C49.0123 44.4476 49.3512 44.1423 49.7944 44.1423C50.2115 44.1423 50.5512 44.4724 50.5252 44.8804C50.5252 45.2874 50.1864 45.5927 49.7693 45.5927C49.3512 45.5927 49.0123 45.2369 49.0123 44.8547ZM47.7088 47.5015C47.7088 47.044 48.0738 46.6873 48.5431 46.6873C48.9862 46.6873 49.3252 47.044 49.3252 47.4767C49.3252 47.8837 48.9341 48.2395 48.5431 48.2395C48.0738 48.2395 47.7088 47.9093 47.7088 47.5015ZM47.2657 49.3085C47.6828 49.3085 48.0738 49.665 48.0738 50.0722C48.0738 50.5048 47.7088 50.8863 47.3178 50.8863C46.8485 50.8863 46.4575 50.5305 46.4575 50.1234C46.4575 49.665 46.7964 49.3085 47.2657 49.3085ZM47.0571 45.5414C47.0571 45.1344 47.4221 44.829 47.8392 44.829C48.2563 44.829 48.5691 45.16 48.5691 45.5671C48.5691 45.975 48.2041 46.3059 47.787 46.3059C47.3699 46.2803 47.0571 45.9494 47.0571 45.5414ZM47.3438 48.113C47.3438 48.5704 46.9789 48.9527 46.5879 48.9527C46.0925 48.9527 45.7536 48.6218 45.7536 48.1891C45.7536 47.7563 46.1185 47.3996 46.5356 47.3996C46.9789 47.3996 47.3438 47.7307 47.3438 48.113ZM58.7389 44.2946C58.7389 44.4476 58.6866 44.5999 58.5824 44.7273C58.3999 44.9317 58.1393 44.9821 57.8517 44.8804C57.4346 44.7273 57.226 44.2698 57.4085 43.8627C57.5127 43.6079 57.7473 43.4804 58.0089 43.5061C58.426 43.5309 58.7389 43.8627 58.7389 44.2946ZM59.0256 41.2912C59.3646 41.393 59.5731 41.6478 59.6252 41.9531C59.6773 42.3345 59.3906 42.5893 58.9996 42.5389C58.6345 42.4876 58.3218 42.1566 58.3218 41.8C58.3478 41.4443 58.6606 41.1903 59.0256 41.2912ZM59.9119 43.0734C60.1988 43.2256 60.3291 43.4548 60.3551 43.7096C60.3551 44.1928 59.9642 44.4476 59.5471 44.2698C59.2602 44.1423 59.0777 43.837 59.0777 43.5565C59.1038 43.1238 59.5209 42.869 59.9119 43.0734ZM60.5116 40.8585C60.8766 40.9354 61.1642 41.2655 61.1642 41.6221C61.1642 41.9787 60.9026 42.1823 60.5637 42.1062C60.1988 42.03 59.9119 41.6734 59.938 41.3168C59.938 40.9859 60.1988 40.7824 60.5116 40.8585ZM61.8933 43.3026C61.8933 43.3787 61.8933 43.4548 61.868 43.5309C61.8159 43.7601 61.6065 43.8875 61.3719 43.8627C60.9026 43.8114 60.5637 43.3282 60.6941 42.8946C60.7722 42.6406 60.9547 42.5132 61.2416 42.5389C61.5283 42.5645 61.9454 42.9459 61.8933 43.3026ZM62.3634 44.4724C62.572 44.6768 62.6501 44.9317 62.572 45.2113C62.4937 45.5927 62.1549 45.7458 61.7899 45.5414C61.5283 45.3892 61.3719 45.16 61.3719 44.7786C61.3719 44.6512 61.424 44.5237 61.5283 44.3972C61.6334 44.2698 61.7899 44.2185 61.9454 44.2441C62.1288 44.2946 62.2591 44.3459 62.3634 44.4724ZM63.2237 46.7891C63.2237 46.967 63.1716 47.1449 63.0412 47.2723C62.9108 47.3996 62.7545 47.451 62.572 47.3996C62.3374 47.3236 62.18 47.1705 62.0766 46.9422C61.9975 46.7378 61.9975 46.5094 62.1026 46.3059C62.2321 46.0255 62.5197 45.9236 62.8066 46.0759C63.0933 46.229 63.2237 46.4838 63.2237 46.7891ZM63.2498 47.8068C63.4583 47.8324 63.6408 47.9598 63.719 48.1386C63.8494 48.3925 63.8494 48.673 63.6929 48.927C63.5104 49.2323 63.1716 49.2828 62.9108 49.0288C62.7545 48.8758 62.6501 48.673 62.6501 48.4944C62.6501 48.2651 62.7023 48.0872 62.8587 47.9342C62.9891 47.8068 63.1194 47.7819 63.2498 47.8068ZM63.5625 45.822C63.6669 45.5166 63.9536 45.4404 64.2143 45.6183C64.449 45.7962 64.5532 46.0255 64.5793 46.3059C64.5532 46.4077 64.5272 46.5094 64.5011 46.6104C64.3707 46.8652 64.1101 46.9422 63.8754 46.7891C63.745 46.7131 63.6669 46.5856 63.5887 46.4582C63.4844 46.229 63.4583 46.0255 63.5625 45.822ZM64.8931 47.3996C65.0485 47.5528 65.1277 47.7307 65.1007 47.9342C65.1007 48.1386 65.0747 48.2907 64.9703 48.4182C64.8139 48.6218 64.6053 48.6474 64.3968 48.52C64.3186 48.4686 64.2405 48.3926 64.1882 48.3165C64.0319 48.036 64.0058 47.7563 64.1622 47.4767C64.3186 47.1961 64.6583 47.1449 64.8931 47.3996ZM65.3623 49.1049C65.5186 49.2323 65.5969 49.4359 65.5969 49.665C65.5969 49.8173 65.5448 49.9704 65.4665 50.0978C65.3102 50.327 65.0485 50.327 64.8661 50.1234C64.6053 49.8429 64.6314 49.3597 64.8931 49.1049C64.9964 48.9527 65.2049 48.9527 65.3623 49.1049ZM65.9089 50.8863C65.988 51.0145 66.014 51.141 66.014 51.3189C66.014 51.4721 65.9619 51.65 65.8315 51.8286C65.6742 52.0321 65.4396 52.0321 65.2833 51.8535C65.2319 51.803 65.1798 51.727 65.1528 51.6251C65.0747 51.3454 65.1007 51.065 65.2833 50.8359C65.4396 50.5817 65.7534 50.6066 65.9089 50.8863ZM65.988 48.596C66.1182 48.3925 66.3268 48.3925 66.4832 48.5704C66.6918 48.8253 66.7179 49.258 66.5353 49.5129C66.4051 49.6906 66.2226 49.7164 66.0661 49.5634C65.9089 49.4102 65.8836 49.2076 65.8567 49.0288C65.8836 48.8509 65.9089 48.7235 65.988 48.596ZM66.9264 50.2508C67.0047 50.3517 67.0308 50.5305 67.0308 50.734C67.0308 50.8615 66.9785 51.0145 66.8743 51.1668C66.7439 51.3703 66.5353 51.3703 66.4051 51.1668C66.2226 50.9128 66.2226 50.4792 66.4311 50.2252C66.5876 50.0217 66.7962 50.0473 66.9264 50.2508ZM67.0308 48.0872C67.135 47.9093 67.2914 47.8837 67.4218 48.0616C67.6304 48.3412 67.6825 48.6218 67.526 48.9527C67.4218 49.1562 67.2393 49.1818 67.1089 49.0032C66.9785 48.8509 66.9525 48.673 66.9525 48.4944C66.9264 48.3165 66.9525 48.1891 67.0308 48.0872ZM66.7179 55.6718V55.7735C66.6918 56.0276 66.5876 56.2576 66.4051 56.4602C66.3781 56.486 66.3268 56.5116 66.3007 56.5372C66.1705 56.5877 66.0661 56.5621 65.988 56.4355C65.9619 56.3842 65.9357 56.3081 65.9357 56.2576C65.9357 55.9772 66.014 55.7479 66.2226 55.5444C66.3007 55.4683 66.3781 55.3914 66.5093 55.4426C66.6397 55.4426 66.6918 55.5444 66.7179 55.6718ZM66.77 57.0718C66.7439 57.3266 66.6397 57.555 66.4572 57.7594C66.4311 57.7841 66.3781 57.8345 66.3528 57.8345C66.2226 57.9115 66.1182 57.861 66.0913 57.7327C66.0913 57.708 66.0913 57.6566 66.0661 57.6062C66.0913 57.3266 66.1965 57.0965 66.4051 56.8939C66.4832 56.8169 66.5614 56.7655 66.6918 56.8169C66.77 56.8683 66.77 56.9699 66.77 57.0718ZM65.8046 54.8568C65.7794 54.7807 65.7794 54.7303 65.7794 54.6542C65.7794 54.4754 65.8315 54.3224 65.9357 54.1701C65.9619 54.1196 65.988 54.0931 66.014 54.0427C66.0913 53.941 66.1965 53.8896 66.3268 53.9153C66.4572 53.941 66.5093 54.0427 66.5353 54.1701C66.5876 54.4754 66.5093 54.7559 66.3007 54.9586C66.1182 55.1886 65.8836 55.1117 65.8046 54.8568ZM65.7534 59.2097C65.7011 59.438 65.57 59.6167 65.4144 59.769C65.3875 59.7946 65.3354 59.846 65.2833 59.8707C65.1277 59.9477 64.9703 59.8707 64.9964 59.6928C65.0224 59.3875 65.1798 59.1328 65.4396 58.9549C65.4665 58.9549 65.4665 58.93 65.4918 58.93C65.649 58.8531 65.7794 58.93 65.7794 59.1328C65.7534 59.1328 65.7534 59.1584 65.7534 59.2097ZM64.9182 58.3442C64.9452 58.0894 65.0485 57.8859 65.2319 57.7327C65.2833 57.6824 65.3623 57.631 65.4144 57.6062C65.57 57.555 65.7011 57.631 65.7534 57.7841V57.8859C65.7264 58.1655 65.6221 58.4203 65.3623 58.5982C65.2571 58.6752 65.1528 58.7256 65.0224 58.6496C64.9182 58.5734 64.8931 58.4717 64.9182 58.3442ZM65.7534 52.3879C65.8836 52.2862 66.0661 52.2862 66.1705 52.4144C66.3007 52.5411 66.3268 52.6941 66.3268 52.872C66.3268 53.0507 66.2747 53.2534 66.1435 53.432C65.9357 53.6869 65.649 53.6613 65.5188 53.3551C65.3875 53.0506 65.4918 52.5667 65.7534 52.3879ZM64.7618 57.1478C64.7618 57.1222 64.7357 57.0965 64.7357 57.0965C64.6583 56.792 64.8661 56.3594 65.1528 56.2063C65.3623 56.0788 65.57 56.1807 65.6221 56.4098V56.5116C65.5969 56.792 65.5188 57.0204 65.3102 57.2248C65.2571 57.2753 65.2319 57.3001 65.1798 57.3266C65.0224 57.4027 64.8399 57.3266 64.7618 57.1478ZM64.8139 54.7559C64.8399 54.7303 64.8931 54.7047 64.9452 54.6789C65.1277 54.6029 65.3102 54.6542 65.3875 54.8321C65.4144 54.9082 65.4396 55.0098 65.4665 55.0868C65.4396 55.2905 65.3875 55.4683 65.2571 55.6214C65.2319 55.6718 65.1798 55.6966 65.1277 55.7479C64.9182 55.9009 64.6836 55.8497 64.5793 55.6461C64.5532 55.5949 64.5272 55.5187 64.5272 55.4426C64.5011 55.1886 64.6053 54.9338 64.8139 54.7559ZM64.1622 53.8896C64.1361 53.6357 64.1882 53.4064 64.3447 53.2029C64.3968 53.1525 64.449 53.0755 64.5272 53.0506C64.6836 52.949 64.8661 52.9737 64.9964 53.1011C65.1007 53.2029 65.1528 53.3551 65.1528 53.5587C65.1528 53.7631 65.0747 53.9913 64.8931 54.1701C64.6583 54.3994 64.3447 54.348 64.2143 54.0684C64.1882 54.018 64.1622 53.941 64.1622 53.8896ZM63.0933 56.1558C63.0933 55.8753 63.2237 55.6214 63.4583 55.4426C63.6669 55.2905 63.9015 55.3152 64.058 55.5187C64.1361 55.6214 64.1622 55.7231 64.1622 55.8249C64.1622 56.1046 64.0319 56.3337 63.8233 56.5116C63.6929 56.639 63.5104 56.6904 63.3279 56.6134C63.1454 56.5372 63.0933 56.3842 63.0673 56.2063C63.0933 56.2063 63.0933 56.1807 63.0933 56.1558ZM62.9891 53.8392C63.3019 53.5852 63.6929 53.7118 63.7973 54.0931C63.8754 54.3994 63.745 54.7807 63.4844 54.9842C63.2237 55.1621 62.8587 55.0603 62.7545 54.7807C62.7283 54.7047 62.7283 54.6029 62.7022 54.5259C62.7022 54.2462 62.7806 54.018 62.9891 53.8392ZM64.6314 51.4721C64.7357 51.5995 64.7878 51.727 64.7878 51.9305C64.7878 52.1083 64.7357 52.3118 64.5793 52.4897C64.3707 52.7188 64.1101 52.7188 63.8754 52.4897C63.745 52.3632 63.6929 52.21 63.719 52.0321C63.719 51.8286 63.7973 51.6251 63.9536 51.4472C64.1622 51.2428 64.4228 51.2428 64.6314 51.4721ZM64.1622 50.734C63.9536 50.9889 63.6669 50.9889 63.4323 50.7596C63.3019 50.6322 63.2498 50.4543 63.2498 50.2508C63.2498 50.0722 63.3019 49.8943 63.4323 49.7669C63.6408 49.5376 63.9536 49.5376 64.1361 49.7669C64.3707 50.0217 64.3707 50.4792 64.1622 50.734ZM62.5459 52.1083C62.7806 51.9304 63.0933 51.9817 63.2498 52.21C63.3279 52.3374 63.3802 52.4649 63.3802 52.6684C63.3802 52.8207 63.3019 53.0242 63.1454 53.1773C62.9108 53.432 62.5197 53.3808 62.3374 53.0755C62.1549 52.7958 62.2591 52.3374 62.5459 52.1083ZM61.9724 50.3013C62.1549 50.1491 62.3374 50.1491 62.5459 50.2508C62.7806 50.3774 62.9108 50.6066 62.9108 50.9375C62.9108 51.1154 62.8327 51.2942 62.6762 51.4472C62.3895 51.7012 62.0245 51.65 61.8159 51.3454C61.6065 51.0394 61.6857 50.5561 61.9724 50.3013ZM61.2163 48.673C61.424 48.3412 61.842 48.2651 62.1288 48.5456C62.2851 48.6979 62.3634 48.9014 62.3634 49.1562C62.3634 49.3341 62.2851 49.5376 62.1026 49.6906C61.9724 49.7925 61.8159 49.8173 61.6587 49.7925C61.3458 49.7164 61.1112 49.4359 61.1112 49.1306C61.0851 48.9783 61.1372 48.8253 61.2163 48.673ZM60.6941 46.7131C60.8505 46.5599 61.033 46.5352 61.2163 46.5856C61.5283 46.6873 61.7629 46.9926 61.7629 47.3493C61.7629 47.4767 61.7108 47.604 61.6334 47.7563C61.4762 48.0112 61.1893 48.0872 60.9026 47.9598C60.4334 47.7307 60.303 47.0696 60.6941 46.7131ZM59.8859 45.0325C60.0424 44.7529 60.3291 44.6768 60.642 44.8042C60.9287 44.9317 61.1112 45.2113 61.1112 45.5414C61.1112 45.6441 61.0851 45.7962 61.0068 45.898C60.9026 46.0759 60.7462 46.1785 60.5116 46.1529C60.0163 46.1785 59.5471 45.5671 59.8859 45.0325ZM58.2688 46.5352C57.9568 46.2034 57.9568 45.7715 58.2688 45.4662C58.3739 45.3635 58.5034 45.313 58.6606 45.313C59.0777 45.2874 59.4688 45.6945 59.4427 46.0759C59.4427 46.382 59.2863 46.636 59.0256 46.7378C58.8171 46.8403 58.4781 46.7378 58.2688 46.5352ZM59.0777 47.2723C59.1821 47.1961 59.2863 47.1705 59.4167 47.1705C59.8859 47.1705 60.1988 47.604 60.1728 47.8837C60.1728 48.1386 60.0945 48.3412 59.938 48.4944C59.7817 48.6474 59.5731 48.6979 59.3646 48.6218C59.0517 48.52 58.8692 48.3412 58.791 48.036C58.7128 47.7307 58.8171 47.451 59.0777 47.2723ZM62.3112 38.7975C62.3895 38.8231 62.4937 38.8479 62.5459 38.8993C62.7283 39.001 62.8327 39.1532 62.9108 39.332C62.9369 39.4081 62.9631 39.5099 62.9369 39.6116C62.9369 39.739 62.8066 39.8151 62.6762 39.8151H62.598C62.2851 39.7647 61.9724 39.4337 61.9454 39.1276V39.0771C61.9724 38.8736 62.1026 38.7718 62.3112 38.7975ZM62.5459 37.3463C62.598 37.3463 62.6501 37.3719 62.6762 37.3976C62.8587 37.4993 63.0412 37.6268 63.1454 37.8303C63.1977 37.9064 63.2237 38.0082 63.2498 38.0843C63.2237 38.2374 63.1454 38.2887 62.9891 38.263C62.7022 38.2117 62.3374 37.8559 62.2851 37.5754C62.2851 37.4232 62.3895 37.3215 62.5459 37.3463ZM63.3802 38.6701C63.4323 38.6957 63.5104 38.7205 63.5625 38.7462C63.745 38.8736 63.9015 39.0267 63.9797 39.2302C64.0057 39.3063 64.0319 39.3824 64.0319 39.4337C64.0319 39.6373 63.9015 39.739 63.719 39.6621C63.4062 39.5355 63.1977 39.3063 63.1194 38.9754V38.8479C63.1454 38.6957 63.2498 38.6444 63.3802 38.6701ZM60.277 35.7685C60.1205 35.7685 59.9902 35.718 59.8598 35.5906C59.6773 35.4375 59.4948 35.2596 59.3123 35.0817C59.3123 35.0817 59.3123 35.0561 59.2863 35.0561C59.2342 34.9791 59.2602 34.9543 59.3385 34.9287H59.3906C59.6513 34.9791 59.8859 35.0048 60.1205 35.1322C60.2249 35.1835 60.303 35.2596 60.3813 35.3614C60.4074 35.3862 60.4334 35.4375 60.4595 35.4888C60.5376 35.641 60.4595 35.7428 60.277 35.7685ZM65.7011 41.4186C65.8046 41.3682 65.8836 41.4186 65.9357 41.4699C66.1435 41.6478 66.2747 41.9026 66.3007 42.1823V42.2592C66.2747 42.3858 66.1965 42.4115 66.0913 42.3858C66.0401 42.3602 65.988 42.3345 65.9357 42.284C65.7534 42.1062 65.649 41.9026 65.6221 41.6478C65.5969 41.5717 65.6221 41.4699 65.7011 41.4186ZM67.8127 47.6793C67.8389 47.604 67.865 47.5015 67.9692 47.5015C68.0736 47.4767 68.1257 47.5528 68.1778 47.6289C68.2821 47.7819 68.3082 47.9598 68.3082 48.1386C68.2821 48.2395 68.2821 48.3412 68.2559 48.4439C68.2299 48.52 68.2038 48.596 68.0996 48.596C68.0213 48.6218 67.9692 48.5456 67.9171 48.4944C67.865 48.3925 67.8127 48.3165 67.7867 48.2138C67.7606 48.036 67.7606 47.8581 67.8127 47.6793ZM63.9797 61.8052C63.8754 61.8052 63.7973 61.7547 63.7973 61.6785C63.7973 61.6273 63.7973 61.5759 63.8233 61.5255C63.9015 61.2706 64.058 61.068 64.2926 60.9397C64.3447 60.9148 64.3968 60.8892 64.4751 60.8892C64.5793 60.8892 64.6314 60.9397 64.6314 61.0415C64.6314 61.068 64.6314 61.0927 64.6053 61.1185C65.1528 60.4318 65.649 59.6928 66.0661 58.93V58.8531C66.0661 58.7256 66.1182 58.5734 66.1965 58.4717C66.2747 58.3691 66.3268 58.2673 66.4311 58.1655C66.4572 58.1408 66.5093 58.0894 66.5614 58.0894C66.7439 57.708 66.9264 57.3001 67.1089 56.9187V56.7655C67.135 56.5621 67.2133 56.3842 67.3175 56.2311C67.3696 56.1807 67.3956 56.1293 67.4479 56.0532C67.5 55.9258 67.526 55.7993 67.5781 55.6718H67.5521C67.5 55.6966 67.4479 55.7231 67.3696 55.7479C67.1871 55.8249 67.0829 55.7735 67.0308 55.5949C67.0047 55.5187 67.0308 55.4426 67.0308 55.3665C67.0568 55.1373 67.161 54.9338 67.2914 54.7559C67.3435 54.6789 67.4218 54.6029 67.4739 54.5259C67.526 54.4241 67.4739 54.3736 67.3696 54.3736C67.3175 54.3736 67.2393 54.3994 67.1871 54.3994C67.0829 54.4241 67.0047 54.3736 66.9525 54.2719C66.9264 54.2215 66.9004 54.1701 66.9004 54.1196C66.8743 53.9153 66.9004 53.7118 67.0047 53.5083C67.0568 53.4064 67.135 53.3048 67.2133 53.1773C67.2393 53.1269 67.2914 53.0755 67.3175 53.0242C67.3435 52.9994 67.3435 52.9225 67.3435 52.8976C67.3175 52.872 67.2654 52.872 67.2393 52.8463C67.1871 52.8463 67.161 52.8463 67.1089 52.872C66.8743 52.9225 66.77 52.8463 66.6918 52.6181C66.5614 52.3374 66.6136 52.0579 66.7962 51.803C66.8222 51.7774 66.8222 51.7517 66.8483 51.7517C66.9785 51.65 67.135 51.65 67.2393 51.803C67.2914 51.8535 67.3175 51.9305 67.3435 52.0065C67.3696 52.1083 67.4218 52.21 67.4479 52.3118C67.4739 52.3632 67.4739 52.4144 67.5521 52.4144C67.6042 52.3632 67.6042 52.3118 67.6042 52.2358V51.803C67.6042 51.4977 67.6825 51.2428 67.891 51.0145C67.9432 50.9633 67.9692 50.9128 67.9953 50.8615C68.0213 50.811 68.0996 50.7596 68.0474 50.6827C67.9953 50.6322 67.9432 50.658 67.865 50.658C67.8127 50.6827 67.7606 50.6827 67.6825 50.7084C67.5521 50.734 67.4479 50.6827 67.3956 50.5817C67.2393 50.2766 67.2393 49.9448 67.4218 49.6394C67.526 49.4615 67.6825 49.4871 67.7867 49.6394C67.8127 49.6908 67.8388 49.7164 67.865 49.7669C67.891 49.8429 67.9171 49.8943 67.9692 49.9704C67.9953 49.996 68.0213 50.0473 68.0474 50.0722C68.0996 50.0217 68.1257 49.9704 68.1257 49.8943V49.5634C68.1257 49.4359 68.1517 49.3341 68.1778 49.2076C68.1778 49.1562 68.2038 49.1049 68.2559 49.0544C68.3082 48.9783 68.3603 48.9783 68.4124 49.0032C68.3603 47.9856 68.2038 46.9926 67.9953 46.0006C67.9692 45.975 67.9432 45.9236 67.891 45.9236V46.1015C67.9171 46.229 67.9432 46.382 67.9432 46.5094C67.9432 46.6104 67.9432 46.7378 67.9171 46.8403C67.865 47.0182 67.7085 47.044 67.6042 46.9166C67.5521 46.8403 67.526 46.7634 67.4739 46.7131C67.3956 46.5856 67.3435 46.4582 67.2914 46.3308C67.2654 46.2803 67.2393 46.2546 67.1871 46.229H67.161C67.161 46.2803 67.135 46.3308 67.135 46.382C67.135 46.5094 67.161 46.636 67.1871 46.7634C67.1871 46.8652 67.2133 46.967 67.2133 47.0696C67.2133 47.1449 67.1871 47.2475 67.161 47.3236C67.0829 47.5271 66.9004 47.5528 66.7439 47.3996C66.6658 47.3749 66.6136 47.3236 66.5876 47.2723C66.5353 47.1961 66.5093 47.1201 66.4572 47.044C66.4051 46.9422 66.3528 46.8403 66.3007 46.7634C66.2747 46.7131 66.2226 46.6873 66.1965 46.6617C66.1182 46.7378 66.1435 46.7891 66.1435 46.8652C66.1705 47.044 66.1965 47.2219 66.2226 47.3996C66.2486 47.5528 66.2226 47.7049 66.1435 47.8581C66.014 48.0872 65.8046 48.1386 65.5969 47.9598C65.2833 47.6793 65.205 47.044 65.6221 46.7378C65.7011 46.6873 65.7794 46.636 65.8315 46.5856C65.8836 46.5352 65.9619 46.4838 65.9089 46.4077C65.8836 46.3308 65.8046 46.3564 65.7264 46.3564C65.6221 46.3564 65.5188 46.3564 65.4144 46.382C65.2319 46.382 65.0747 46.3059 64.9703 46.1785C64.8661 46.0511 64.8139 45.898 64.7878 45.7201C64.7618 45.4662 64.8399 45.2618 65.0485 45.1095C65.1277 45.0583 65.2049 45.0069 65.2571 44.9317C65.3102 44.906 65.3623 44.8547 65.3354 44.7786C65.3102 44.7025 65.2319 44.7273 65.1798 44.7025H65.0485H64.8139C64.6314 44.7025 64.4751 44.6512 64.3707 44.4981C64.2926 44.3972 64.2143 44.2946 64.1622 44.1928C64.084 44.0654 64.0058 43.9379 63.9275 43.8114C63.9015 43.7601 63.8754 43.7096 63.7973 43.7096C63.745 43.7601 63.7711 43.837 63.7711 43.8875C63.7973 44.0654 63.8494 44.2698 63.8754 44.4476C63.9015 44.5751 63.9015 44.7025 63.8494 44.8042C63.745 45.0839 63.4583 45.1857 63.1977 45.0069C62.9631 44.8547 62.8327 44.6255 62.8327 44.3459C62.8327 44.1167 62.9108 43.9636 63.0933 43.837C63.1977 43.7601 63.3019 43.7096 63.4062 43.6335C63.4583 43.6079 63.5365 43.5565 63.5104 43.4804C63.4844 43.4035 63.4062 43.4035 63.3279 43.4035H62.9108C62.6501 43.4035 62.4416 43.3026 62.2591 43.099C61.9724 42.7681 62.0245 42.3345 62.4155 42.1062C62.4937 42.0548 62.572 42.0044 62.6501 41.9531C62.7022 41.9026 62.7806 41.877 62.7545 41.8C62.7283 41.7248 62.6501 41.7248 62.572 41.7248C62.4155 41.7248 62.2851 41.7248 62.1288 41.6991C62.0766 41.6991 61.9454 41.6991 61.842 41.6221C61.6857 41.5204 61.5553 41.393 61.4762 41.2151C61.424 41.0876 61.3988 40.9611 61.4509 40.808C61.5032 40.6045 61.6857 40.5027 61.8933 40.5532C62.0245 40.5788 62.1549 40.6301 62.2591 40.731C62.3374 40.808 62.4155 40.9098 62.4676 40.9859C62.572 41.1133 62.6501 41.2655 62.7545 41.393C62.7806 41.4443 62.8327 41.4956 62.8848 41.4956C62.9369 41.4443 62.9108 41.393 62.9108 41.3425C62.8848 41.1903 62.8327 41.0372 62.8066 40.8841C62.7806 40.7824 62.7545 40.6558 62.7806 40.5532C62.7806 40.3496 62.9369 40.2479 63.1194 40.2735C63.2498 40.2992 63.354 40.3496 63.4583 40.4514C63.5365 40.5284 63.5887 40.6045 63.6669 40.6806C63.745 40.7567 63.7973 40.8585 63.8754 40.9354C63.9015 40.9859 63.9536 41.0115 64.0059 41.0115C64.058 40.9611 64.0319 40.8841 64.0319 40.808C64.0059 40.6806 63.9797 40.5532 63.9536 40.4266C63.9536 40.324 63.9536 40.1966 64.058 40.1213C64.1622 40.0443 64.2665 40.0956 64.3707 40.1718C64.6053 40.324 64.7618 40.5284 64.8139 40.7824C64.8661 40.9611 64.8139 41.1133 64.6583 41.2151C64.6053 41.2407 64.5793 41.2912 64.5272 41.3168C64.4751 41.393 64.4751 41.4443 64.5793 41.4956C64.6583 41.5204 64.7097 41.5204 64.7878 41.546C65.1798 41.6221 65.4396 41.9026 65.5188 42.3097C65.5448 42.4876 65.4918 42.6406 65.3623 42.7681C65.3354 42.7937 65.3102 42.8185 65.2833 42.8442C65.2319 42.8946 65.2049 42.9203 65.2049 42.9964C65.2319 43.0734 65.2833 43.0734 65.3623 43.099C65.3875 43.099 65.4396 43.1238 65.4665 43.1238C65.7011 43.1495 65.8836 43.2512 66.014 43.4548C66.0661 43.5565 66.1435 43.6583 66.1965 43.7353C66.2226 43.7857 66.2486 43.837 66.3268 43.837C66.3781 43.7601 66.3781 43.7601 66.3528 43.684C66.3268 43.5565 66.3007 43.4291 66.3007 43.3026V43.0477C66.3268 42.8946 66.4572 42.869 66.5614 42.9459C66.6136 42.9716 66.6658 43.0221 66.7179 43.0734C66.7962 43.1751 66.8483 43.2769 66.9264 43.3787C66.9525 43.4291 66.9785 43.4804 67.0568 43.4548V43.3026C67.0568 43.2512 67.0308 43.2008 67.0308 43.1495C66.5876 42.1318 66.0661 41.139 65.4665 40.2222V40.2735C65.4918 40.4009 65.5448 40.5532 65.5969 40.6806C65.6221 40.7824 65.649 40.8585 65.5448 40.9354C65.4665 40.9859 65.3623 40.9354 65.2833 40.8841C65.0747 40.731 64.9452 40.5284 64.8931 40.2735C64.8661 40.1213 64.8931 40.0187 65.0224 39.9426C65.0485 39.9169 65.0747 39.9169 65.1007 39.8921C65.1528 39.8665 65.1528 39.8151 65.1528 39.7895C65.1277 39.7647 65.1007 39.7134 65.0747 39.6877H65.0485C64.9703 39.6621 64.9182 39.6373 64.8399 39.6373C64.5011 39.5612 64.2926 39.332 64.1361 39.0523C64.058 38.8993 64.0319 38.7205 64.1882 38.5931C64.084 38.4922 64.0057 38.3648 63.9015 38.263C63.8754 38.2374 63.8494 38.2374 63.7973 38.2117C63.5625 38.0843 63.4062 37.932 63.3019 37.7029C63.2758 37.6516 63.2758 37.6268 63.2498 37.5754C62.9108 37.2197 62.572 36.8887 62.207 36.5826C62.2321 36.6082 62.2591 36.6339 62.2591 36.6596C62.2851 36.71 62.3112 36.787 62.3374 36.8374C62.3634 36.9392 62.2851 37.0153 62.18 36.9896C62.1288 36.9896 62.0766 36.9648 62.0505 36.9648C61.8159 36.8631 61.6065 36.71 61.4762 36.4808C61.4509 36.4304 61.424 36.3799 61.424 36.3286C61.3988 36.2268 61.4762 36.1507 61.6065 36.1755C61.6334 36.1755 61.6587 36.1755 61.6857 36.2012L61.842 36.2773C61.6587 36.1251 61.4762 35.972 61.2937 35.8454C61.2685 35.8454 61.2416 35.8454 61.2163 35.8198C60.9817 35.7428 60.7722 35.5906 60.642 35.3862C60.6159 35.3614 60.6159 35.3357 60.5897 35.3109C60.2509 35.0817 59.9119 34.8517 59.5471 34.6234C59.5209 34.649 59.4948 34.6738 59.4427 34.6995C59.3646 34.7251 59.2863 34.7508 59.2342 34.7765C59.13 34.8269 59.0517 34.903 59.0777 35.0304C59.0777 35.1066 59.1038 35.1835 59.13 35.2596C59.156 35.3614 59.2081 35.4375 59.2342 35.5393C59.2863 35.6923 59.2602 35.7941 59.1038 35.8702C59.0517 35.8959 58.9735 35.9207 58.9214 35.9463C58.8952 35.972 58.8431 36.0233 58.8431 36.0481C58.8431 36.0737 58.8952 36.1251 58.9214 36.1251C59.0256 36.1507 59.13 36.1755 59.2602 36.2012C59.5731 36.2525 59.8077 36.3799 60.0163 36.6082C60.0945 36.71 60.1988 36.8118 60.277 36.9144C60.303 36.9648 60.3551 36.9896 60.4074 37.0153C60.4334 37.041 60.4595 37.041 60.5116 37.041C60.5116 36.9648 60.5116 36.9144 60.4855 36.8631C60.4595 36.7357 60.4334 36.6082 60.3813 36.5065C60.3551 36.4552 60.3551 36.3799 60.3551 36.3286C60.3551 36.2268 60.4074 36.1507 60.5116 36.1507H60.642C60.9817 36.2268 61.1893 36.4047 61.3458 36.6852C61.3988 36.8118 61.3719 36.9144 61.2685 36.9896C61.2416 37.0153 61.1893 37.041 61.1372 37.0666C61.1112 37.0923 61.0851 37.0923 61.0591 37.1171C61.0068 37.1684 61.0068 37.2197 61.0851 37.2702C61.1112 37.2958 61.1642 37.2958 61.1893 37.3215C61.2685 37.3463 61.3458 37.3463 61.424 37.3719C61.7108 37.4232 61.9454 37.6011 62.1026 37.8559C62.1549 37.932 62.18 38.0082 62.18 38.0843C62.207 38.2887 62.0766 38.4152 61.868 38.3904C61.7108 38.3648 61.5553 38.2887 61.4509 38.186C61.3719 38.1099 61.2937 38.0082 61.1893 37.9064C61.1112 37.8046 61.033 37.7029 60.9287 37.6011C60.9026 37.5754 60.8505 37.5498 60.7983 37.5241C60.7462 37.6011 60.7722 37.6516 60.7722 37.7029C60.8245 37.8559 60.8766 38.0082 60.9026 38.1612C60.9547 38.3391 60.9026 38.4665 60.7462 38.5683C60.6941 38.6188 60.6159 38.6444 60.5637 38.6957C60.5116 38.7205 60.4334 38.7718 60.4595 38.8479C60.4855 38.9249 60.5637 38.9249 60.6159 38.9497C60.7201 38.9754 60.8245 38.9754 60.9287 38.9754C61.2937 39.001 61.5283 39.2046 61.7108 39.5099C61.7629 39.6116 61.7899 39.7134 61.7629 39.8151C61.7378 40.07 61.5553 40.1965 61.2937 40.1718C61.0851 40.1461 60.9287 40.0443 60.8245 39.8921C60.6941 39.739 60.5897 39.6116 60.4855 39.4594C60.4595 39.4081 60.4074 39.3576 60.3551 39.332C60.3291 39.3063 60.277 39.3063 60.2509 39.3063C60.2249 39.3063 60.2249 39.3576 60.2249 39.3824C60.2249 39.4594 60.2509 39.5355 60.2509 39.6116C60.277 39.739 60.303 39.8921 60.3291 40.0187C60.3551 40.2735 60.1728 40.4514 59.9119 40.4514C59.7556 40.4514 59.6252 40.4009 59.4948 40.324C59.4167 40.2479 59.3385 40.1966 59.2602 40.0956L58.9475 39.7134C58.9214 39.6621 58.8692 39.6373 58.8171 39.5868C58.7649 39.5612 58.7128 39.5612 58.7128 39.6373V39.7647C58.7389 39.8921 58.7649 40.0187 58.791 40.1461C58.8171 40.2222 58.8171 40.2992 58.8171 40.3753C58.8171 40.6558 58.6345 40.8585 58.3478 40.8841C58.1132 40.9098 57.9298 40.8337 57.7473 40.6806C57.6701 40.6045 57.6171 40.5284 57.5396 40.4771C57.4346 40.3753 57.3571 40.2479 57.2781 40.1213C57.2529 40.07 57.226 40.0443 57.1737 40.0187C57.1216 39.9939 57.0956 39.9939 57.0704 40.07V40.2222C57.0956 40.3496 57.1216 40.4771 57.1477 40.6045C57.1477 40.6806 57.1737 40.7567 57.1737 40.8337C57.1737 41.139 56.9131 41.3682 56.6264 41.393C56.2874 41.393 56.0267 41.2655 55.8442 40.9611C55.6617 40.6558 55.74 40.3496 56.0267 40.1461C56.1311 40.07 56.2353 40.0187 56.3397 39.9426C56.3657 39.9169 56.4178 39.8921 56.4439 39.8665C56.496 39.8151 56.496 39.7647 56.3918 39.739C56.3397 39.7134 56.2874 39.7134 56.2353 39.7134H55.8442C55.5054 39.7134 55.2446 39.5868 55.0621 39.332C55.0621 39.1532 54.9579 39.0523 54.8797 38.9249C54.8535 38.8736 54.8014 38.8231 54.7493 38.7975C54.6712 38.7462 54.6189 38.7718 54.6189 38.8479V39.0267C54.6451 39.1789 54.6712 39.3576 54.6972 39.5099C54.7233 39.8408 54.4887 40.0956 54.1497 40.1213C53.863 40.1461 53.6284 40.0443 53.445 39.8408C53.3146 39.6877 53.2104 39.5355 53.08 39.4081C53.0539 39.3576 53.0018 39.332 52.9497 39.2807C52.8975 39.2302 52.8454 39.255 52.8193 39.332V39.4594C52.8454 39.5868 52.8454 39.739 52.8714 39.8665C52.8714 39.9426 52.8975 40.0187 52.8975 40.0956C52.8714 40.4514 52.6108 40.6806 52.2718 40.7062C51.9851 40.731 51.7244 40.6045 51.5419 40.4009C51.4376 40.2735 51.3334 40.1461 51.229 40.0187C51.1769 39.9682 51.1248 39.8665 51.0467 39.9169C50.9683 39.9426 50.9944 40.0443 50.9944 40.1213C50.9944 40.2735 51.0205 40.4266 51.0467 40.5788C51.0727 40.9859 50.7337 41.3168 50.3166 41.3168C50.0299 41.3168 49.7944 41.2151 49.6128 40.9611C49.5077 40.808 49.4033 40.6301 49.2991 40.4771C49.2469 40.4266 49.2208 40.3753 49.1687 40.3496C49.1166 40.2992 49.0644 40.324 49.0383 40.4009V40.5788C49.0644 40.7824 49.0906 40.9859 49.1166 41.1903C49.1166 41.393 49.0644 41.546 48.9341 41.6991C48.6212 42.0044 48.0999 42.0044 47.813 41.6734C47.7349 41.5717 47.6567 41.4699 47.5784 41.3682C47.5003 41.2655 47.4221 41.139 47.3438 41.0372C47.2917 40.9859 47.2657 40.9354 47.2136 40.9611C47.1353 40.9611 47.1353 41.0372 47.1353 41.0876V41.2407C47.1613 41.3682 47.1875 41.5204 47.1875 41.6478C47.1875 41.7496 47.2136 41.8513 47.1875 41.9531C47.1613 42.3345 46.8746 42.5893 46.5096 42.615C46.2229 42.6406 45.9883 42.5389 45.8057 42.3345C45.7014 42.1823 45.6223 42.0548 45.519 41.9026C45.4668 41.8513 45.4398 41.8 45.3877 41.7752C45.3356 41.6991 45.2575 41.7248 45.2575 41.8257V42.0044C45.2835 42.1566 45.2835 42.3097 45.3096 42.4619C45.3356 42.7681 45.2052 43.0221 44.9185 43.2256C44.8664 43.2512 44.7881 43.3026 44.736 43.3282C44.5796 43.4291 44.4493 43.5061 44.2928 43.6079C44.2407 43.6335 44.1624 43.684 44.1885 43.7601C44.2147 43.837 44.2928 43.8114 44.371 43.8114C44.5535 43.7857 44.7621 43.7601 44.9706 43.7353C45.075 43.7353 45.1792 43.7096 45.2575 43.7096C45.7014 43.7096 46.0134 44.1167 45.9092 44.5237C45.8309 44.829 45.6223 45.0325 45.3096 45.0839C44.9967 45.16 44.7621 45.0583 44.5796 44.829C44.5275 44.7529 44.4493 44.6768 44.397 44.5999C44.3449 44.5237 44.2668 44.422 44.2147 44.3459C44.1624 44.2946 44.1364 44.2185 44.0582 44.2441C43.9539 44.2698 43.9799 44.3459 43.9799 44.422C43.9799 44.5999 44.0061 44.7786 44.0061 44.9565C44.0582 45.2874 43.9278 45.5414 43.6672 45.7457C43.5368 45.822 43.4326 45.9236 43.3022 46.0006C43.2761 46.0511 43.224 46.0759 43.1979 46.1015C43.1458 46.1785 43.1458 46.229 43.2501 46.2546H43.4326C43.589 46.2546 43.7714 46.229 43.9278 46.229C44.1364 46.229 44.3189 46.3059 44.4754 46.4325C44.7881 46.7131 44.7621 47.1961 44.4493 47.5015C44.1624 47.8068 43.7193 47.8324 43.4065 47.5528C43.3282 47.5015 43.2761 47.4254 43.224 47.3493C43.1458 47.2475 43.0936 47.1449 43.0415 47.0696C43.0154 47.0182 42.9894 46.9926 42.9373 46.967C42.9111 46.9422 42.859 46.9166 42.8329 46.9166C42.806 46.9166 42.7808 46.967 42.7808 47.0182V47.1705V47.6289C42.7808 47.9342 42.6765 48.1633 42.4158 48.3669C42.2847 48.4686 42.1543 48.5456 42.0248 48.6474C41.9978 48.6474 41.9457 48.673 41.9197 48.7235C41.8936 48.7483 41.8676 48.7997 41.8676 48.8253C41.8676 48.8509 41.9457 48.8758 41.9727 48.8758H42.1543C42.3368 48.8758 42.5193 48.8509 42.7025 48.8509C43.1719 48.8509 43.5107 49.258 43.4065 49.7164C43.3544 49.9199 43.2761 50.0722 43.1196 50.1996C42.9633 50.3013 42.8329 50.4031 42.6765 50.5048C42.6504 50.5305 42.5983 50.5561 42.5714 50.6066C42.5462 50.6322 42.5193 50.6827 42.5193 50.7084C42.5193 50.7596 42.5983 50.7845 42.6504 50.7845C42.7808 50.7845 42.885 50.7845 43.0154 50.7596C43.1196 50.7596 43.224 50.734 43.3282 50.734C43.8497 50.7084 44.2407 51.141 44.1624 51.65C44.1364 51.88 44.0061 52.0321 43.8236 52.1596C43.6672 52.2358 43.5107 52.3374 43.3805 52.4393C43.3282 52.4649 43.3022 52.4897 43.2761 52.5411C43.224 52.5923 43.224 52.6428 43.3022 52.6684C43.3544 52.6684 43.3805 52.6941 43.4326 52.6684C43.563 52.6684 43.6932 52.6428 43.8236 52.6428H44.0843C44.4493 52.6684 44.736 52.8976 44.8404 53.1773C44.9446 53.4834 44.8404 53.8136 44.5796 54.018C44.5014 54.0684 44.4232 54.1196 44.371 54.1701C44.2668 54.2215 44.1885 54.2719 44.0843 54.348C44.0322 54.3736 43.9278 54.4241 43.9539 54.5259C43.9799 54.6277 44.1103 54.5773 44.1885 54.5773C44.3449 54.5773 44.4754 54.5524 44.6318 54.5524C44.9967 54.5259 45.2835 54.6542 45.4921 54.9338C45.5702 55.0603 45.6484 55.1621 45.7536 55.2647C45.7788 55.3152 45.8309 55.3409 45.857 55.3665C45.9092 55.417 45.9613 55.3914 45.9883 55.3152C45.9883 55.2647 46.0134 55.2391 46.0134 55.1886C46.0134 55.0603 45.9883 54.9338 45.9883 54.8063C45.9883 54.6789 45.9883 54.5524 46.0134 54.4241C46.0134 54.2719 46.1185 54.1196 46.275 54.018C46.6921 53.7374 47.3178 53.9153 47.4742 54.3736C47.5003 54.4241 47.5003 54.501 47.5263 54.5524C47.5524 54.8321 47.4482 55.0868 47.2136 55.2647C47.0831 55.3665 46.9267 55.4683 46.7704 55.5444C46.7172 55.57 46.666 55.6214 46.6139 55.6718C46.5618 55.7231 46.5879 55.7993 46.666 55.7993C46.7172 55.7993 46.7704 55.8249 46.8225 55.8249C47.005 55.8249 47.1875 55.7993 47.3959 55.7993C47.6828 55.7993 47.9174 55.9009 48.0999 56.1293C48.2041 56.2576 48.2824 56.3842 48.3866 56.5372C48.4387 56.5877 48.4649 56.639 48.517 56.7151C48.5431 56.7656 48.5952 56.8169 48.6473 56.7655C48.6735 56.7408 48.6995 56.6904 48.6995 56.639V56.4602C48.6735 56.3081 48.6735 56.1807 48.6473 56.0276C48.6473 55.9514 48.6212 55.8753 48.6473 55.8249C48.6735 55.2905 49.1687 54.9586 49.6901 55.1373C49.8726 55.1886 50.0039 55.2905 50.1072 55.4426L50.421 55.9009C50.4461 55.9514 50.4991 56.0028 50.5512 56.0532C50.5773 56.0788 50.6286 56.1293 50.6816 56.1046C50.7077 56.0788 50.7337 56.0276 50.7337 56.0028V55.8249C50.7077 55.6718 50.7077 55.5444 50.6816 55.3914C50.6816 55.3152 50.6556 55.2647 50.6556 55.1886C50.6556 54.6789 51.1248 54.3224 51.6461 54.4241C51.8286 54.4754 51.9851 54.5772 52.1155 54.7303C52.2458 54.9082 52.3501 55.0603 52.4804 55.2391C52.5066 55.2905 52.5587 55.3409 52.6108 55.3665C52.6629 55.3914 52.6889 55.3914 52.7151 55.3409C52.7151 55.2905 52.7412 55.2647 52.7151 55.2135C52.7151 55.0868 52.6889 54.9586 52.6889 54.8568C52.6889 54.7303 52.6629 54.5772 52.6629 54.4241C52.6368 54.0931 53.0539 53.6099 53.5492 53.7118C53.784 53.7631 53.9672 53.8648 54.1228 54.0684C54.228 54.2215 54.3322 54.3736 54.4366 54.5259C54.4626 54.5773 54.5147 54.6277 54.5408 54.6542C54.592 54.7047 54.6451 54.6789 54.6712 54.6029V54.4241C54.6451 54.2215 54.6451 54.0427 54.6189 53.8392C54.592 53.6099 54.6712 53.3808 54.8275 53.2029C55.01 52.9737 55.2707 52.8976 55.5575 52.9737C55.7661 53.0242 55.9225 53.1525 56.0528 53.3304C56.1571 53.4834 56.2353 53.6357 56.3397 53.7631C56.3657 53.8136 56.3918 53.8648 56.4439 53.8896C56.4699 53.9153 56.522 53.941 56.522 53.941C56.5482 53.9153 56.5743 53.8896 56.5743 53.8392V53.6613C56.5743 53.5083 56.5482 53.3551 56.5482 53.2029C56.5482 53.0507 56.5482 52.9225 56.5743 52.7702C56.7045 52.3879 57.1216 52.1596 57.4875 52.3118C57.8786 52.4393 58.0342 52.8207 57.9047 53.2029C57.8517 53.3551 57.7473 53.4834 57.6171 53.5852C57.4606 53.6869 57.305 53.8136 57.1477 53.9153C57.0956 53.941 57.0435 53.9913 57.0183 54.018C56.9652 54.0931 56.9914 54.1445 57.0704 54.1445H57.2529C57.4085 54.1196 57.5918 54.1196 57.7743 54.0931C58.0611 54.0684 58.2957 54.1701 58.452 54.3994C58.5303 54.501 58.6085 54.6277 58.6866 54.7303C58.7128 54.7807 58.7389 54.8064 58.791 54.8321C58.8431 54.8824 58.8952 54.8568 58.9214 54.7807C58.9475 54.7303 58.9475 54.6789 58.9475 54.6029V54.1196C58.9475 53.8392 59.0777 53.6099 59.3385 53.432C59.7034 53.2029 60.1988 53.3808 60.303 53.7878C60.3812 54.0684 60.303 54.3224 60.0945 54.5259C60.0423 54.6029 59.9642 54.6542 59.8859 54.7047C59.7556 54.8064 59.6252 54.8824 59.4948 54.9842C59.4427 55.0098 59.4167 55.0356 59.3906 55.0868C59.3385 55.1373 59.3646 55.1886 59.4427 55.2135H59.6252C59.8077 55.1886 59.9902 55.1621 60.1466 55.1373C60.5116 55.0868 60.7983 55.3409 60.7983 55.6966C60.7983 55.9514 60.6941 56.1558 60.4855 56.3337C60.3551 56.4355 60.1988 56.5621 60.0423 56.6639C59.9902 56.6904 59.938 56.7408 59.9119 56.7655C59.8859 56.792 59.8598 56.8425 59.8859 56.8683C59.8859 56.8939 59.938 56.9187 59.9642 56.9187C60.0163 56.9187 60.0945 56.9187 60.1466 56.8939C60.303 56.8683 60.4855 56.8169 60.642 56.8169C60.9817 56.7655 61.2416 56.9948 61.2416 57.3266C61.2416 57.5292 61.1642 57.7327 61.0068 57.861C60.9287 57.9371 60.8245 58.0133 60.7201 58.0894C60.6159 58.1655 60.5116 58.2424 60.4074 58.3186C60.3551 58.3443 60.303 58.3956 60.3291 58.4461C60.3551 58.4973 60.4334 58.4973 60.4855 58.4717C60.5897 58.4461 60.668 58.4461 60.7722 58.4203C60.8766 58.3956 60.9547 58.3691 61.0591 58.3691C61.424 58.3186 61.6587 58.5734 61.5804 58.93C61.5283 59.1328 61.424 59.3114 61.2416 59.438C61.1112 59.5407 60.9817 59.6423 60.8505 59.7442C60.7983 59.769 60.7722 59.8202 60.7201 59.8707C60.668 59.9221 60.6941 59.9725 60.7722 59.9725H60.9026C61.033 59.9477 61.1642 59.9221 61.2937 59.8972C61.3719 59.8707 61.424 59.8707 61.5032 59.8707C61.7108 59.8707 61.842 59.999 61.842 60.2016C61.842 60.3548 61.8159 60.4822 61.7378 60.5839C61.6587 60.6601 61.6065 60.7618 61.5032 60.8132C61.3988 60.9148 61.2685 61.0167 61.1372 61.0927C61.0851 61.1185 61.0591 61.1697 61.033 61.1945C61.0068 61.2202 61.0068 61.2459 61.0068 61.2706C61.033 61.2964 61.0591 61.322 61.0851 61.322C61.1642 61.322 61.2163 61.2964 61.2937 61.2964C61.424 61.2706 61.5804 61.2202 61.7108 61.1945C61.9724 61.1697 62.1288 61.322 62.0505 61.6024C61.9975 61.7803 61.8933 61.9069 61.7629 62.0352C61.6587 62.1104 61.5553 62.1875 61.4509 62.2635C61.3988 62.3147 61.3197 62.3652 61.2685 62.4166C61.2416 62.4414 61.2416 62.467 61.2163 62.5184H61.3988C61.5031 62.4926 61.6065 62.467 61.7108 62.4414C61.7899 62.4166 61.868 62.4166 61.9454 62.4166C62.1026 62.4166 62.18 62.5184 62.1549 62.6449C62.1288 62.7475 62.0766 62.8493 62.0245 62.9254C61.9724 63.0015 61.868 63.0777 61.7899 63.1546C61.6857 63.2563 61.5553 63.3325 61.4509 63.4342C61.424 63.46 61.3988 63.5104 61.3719 63.5616C61.3719 63.5616 61.3719 63.5874 61.3988 63.5874H61.5283C61.6065 63.5616 61.6857 63.536 61.7629 63.5104C61.8159 63.4856 61.8933 63.46 61.9454 63.46C62.0766 63.4342 62.1288 63.46 62.207 63.5874V63.6121C62.3374 63.5104 62.4676 63.3837 62.572 63.2821C62.6501 63.0777 62.8066 62.8998 62.9891 62.7732C63.0412 62.7219 63.1194 62.6963 63.1977 62.6714H63.2237C63.5365 62.3652 63.8233 62.0352 64.1101 61.7043C64.0319 61.7803 64.0057 61.7803 63.9797 61.8052Z" fill="white"/>
<path fill-rule="evenodd" clip-rule="evenodd" d="M45.7011 32.3834C45.7272 32.3578 45.7272 32.3073 45.7532 32.2817C45.5969 32.3321 45.4405 32.3578 45.284 32.3834C45.3622 32.4091 45.4144 32.4347 45.4926 32.4852C45.5969 32.5613 45.6751 32.5365 45.7011 32.3834Z" fill="white"/>
<path fill-rule="evenodd" clip-rule="evenodd" d="M43.6668 32.8669C43.7712 32.8926 43.8233 32.9944 43.7451 33.0705C43.6668 33.1474 43.6147 33.1979 43.5366 33.2484C43.4322 33.2997 43.328 33.3758 43.2237 33.4271C43.1976 33.4775 43.1455 33.5032 43.1455 33.5793C43.1976 33.6306 43.2497 33.605 43.302 33.605C43.4062 33.5793 43.5105 33.5545 43.6147 33.5545C43.8493 33.5032 44.0318 33.5793 44.1883 33.758C44.2404 33.8085 44.2665 33.8341 44.2925 33.8846C44.3186 33.9103 44.3716 33.9616 44.4238 33.9103C44.475 33.8846 44.5011 33.8341 44.5011 33.8085V33.605C44.475 33.4014 44.5794 33.2484 44.7619 33.1474C44.8661 33.0961 44.9703 33.0448 45.0486 32.9944C45.1007 32.9687 45.1276 32.9183 45.1528 32.8926V32.8669C45.1007 32.8669 45.0755 32.8413 45.0234 32.8413C44.9451 32.8413 44.8661 32.8413 44.7887 32.8669C44.6836 32.8669 44.5541 32.8926 44.449 32.8669C44.3716 32.8669 44.2665 32.8669 44.2404 32.7652V32.6891C44.0579 32.7395 43.8493 32.7908 43.6668 32.8669Z" fill="white"/>
<path fill-rule="evenodd" clip-rule="evenodd" d="M54.7492 33.7831C54.6709 33.8087 54.5667 33.8344 54.4623 33.8344C54.2538 33.8087 54.0452 33.7574 53.8629 33.6309C53.8367 33.6309 53.8367 33.6052 53.8106 33.6052C53.7325 33.5291 53.6804 33.4521 53.6804 33.3504C53.7064 33.2486 53.8106 33.1973 53.8889 33.1725C54.1756 33.0964 54.6188 33.2229 54.8013 33.4521C54.9578 33.5796 54.9317 33.7318 54.7492 33.7831ZM54.0452 35.1069C53.941 35.2087 53.8367 35.26 53.7064 35.26C53.4718 35.2848 53.2372 35.2087 53.0286 35.0812C52.9756 35.0556 52.9234 35.0051 52.8982 34.9538C52.7678 34.8007 52.794 34.6229 52.9503 34.4954C53.0547 34.3937 53.1849 34.3689 53.2893 34.3689C53.55 34.3689 53.7585 34.4193 53.941 34.5724L54.0975 34.7255C54.1756 34.852 54.1496 34.9795 54.0452 35.1069ZM52.2196 35.5644C52.1152 35.6157 52.0119 35.6157 51.9068 35.6414C51.725 35.6157 51.5418 35.5644 51.3853 35.4627C51.2289 35.3609 51.1247 35.2343 51.1507 35.0556C51.2028 34.852 51.3332 34.7503 51.5157 34.6742C51.5418 34.6742 51.5939 34.6485 51.6199 34.6485C51.8545 34.6485 52.0631 34.6998 52.2465 34.8007C52.4021 34.8777 52.5063 35.0051 52.5063 35.183C52.4811 35.3865 52.3769 35.4883 52.2196 35.5644ZM50.6815 35.8193C50.525 35.9971 50.3425 36.0741 50.1079 36.0741C49.9254 36.0741 49.7169 36.0228 49.5604 35.8954C49.3258 35.7175 49.2997 35.4122 49.5604 35.2343C49.769 35.0812 50.0036 35.0299 50.2383 35.0812C50.3686 35.1069 50.499 35.1574 50.6292 35.2343C50.8118 35.3865 50.8378 35.6157 50.6815 35.8193ZM48.9347 36.252C48.8296 36.4555 48.5699 36.5829 48.2309 36.5829C48.0998 36.5829 47.9433 36.5316 47.7868 36.4299C47.6043 36.2776 47.5522 36.0741 47.6826 35.8697C47.7087 35.8449 47.7347 35.7945 47.7608 35.7688C48.0214 35.514 48.5176 35.4626 48.8045 35.667C49.0391 35.8193 49.0912 36.0228 48.9347 36.252ZM47.1872 34.6229C47.4218 34.3432 47.9433 34.2919 48.2561 34.4954C48.4386 34.6229 48.4907 34.8007 48.3604 34.9795C48.2561 35.1326 48.0998 35.2087 47.9172 35.26C47.8389 35.2848 47.7608 35.2848 47.6826 35.2848C47.5262 35.2848 47.3697 35.2343 47.2395 35.1574C47.0309 35.0299 47.0047 34.8007 47.1872 34.6229ZM47.1351 36.8121C46.9787 37.0413 46.744 37.1431 46.5094 37.1679C46.3269 37.1679 46.1705 37.1431 46.0402 37.0413C45.8056 36.8882 45.7535 36.6847 45.8838 36.4555C45.9621 36.3537 46.0402 36.252 46.1706 36.2015C46.4313 36.0741 46.6919 36.0485 46.9526 36.1759C47.2395 36.2776 47.3176 36.5573 47.1351 36.8121ZM45.9098 38.797C45.8056 39.0518 45.4927 39.2554 45.1539 39.2554C45.0486 39.2554 44.9184 39.2297 44.841 39.1792C44.6064 39.0262 44.5273 38.7713 44.6315 38.5421C44.7889 38.1351 45.3102 37.9572 45.6752 38.1607C45.9098 38.2882 46.0142 38.5421 45.9098 38.797ZM44.4492 37.7537C44.3718 37.7537 44.3197 37.728 44.2406 37.6776C44.0581 37.5758 44.0058 37.4227 44.0581 37.2192C44.1371 36.9387 44.3197 36.7608 44.6064 36.6847C44.6838 36.659 44.7619 36.659 44.8661 36.6334C44.9453 36.659 45.0486 36.659 45.1539 36.7103C45.3355 36.7865 45.4406 36.9387 45.4145 37.1431C45.4145 37.2705 45.3624 37.3979 45.2581 37.4732C45.0486 37.7537 44.7619 37.8298 44.4492 37.7537ZM44.1102 39.4332C44.0058 39.7385 43.6931 39.9677 43.3281 39.9934C43.2499 39.9677 43.1456 39.9429 43.0414 39.9173C42.7807 39.8155 42.6763 39.5863 42.7545 39.3315C42.8588 38.8987 43.302 38.6448 43.7191 38.7465C44.0581 38.8226 44.2144 39.1023 44.1102 39.4332ZM42.6242 38.4412C42.3896 38.3899 42.2592 38.1864 42.3113 37.9572C42.3896 37.4988 42.937 37.1935 43.3541 37.3723C43.5887 37.4732 43.6931 37.6519 43.6149 37.9067C43.5366 38.212 43.1716 38.4669 42.8328 38.4669C42.7807 38.4669 42.7024 38.4669 42.6242 38.4412ZM48.3604 33.1468C48.622 32.9433 49.0912 32.9176 49.378 33.0964C49.5344 33.2229 49.5604 33.376 49.4041 33.5291C49.2737 33.6565 49.0912 33.6813 48.9087 33.707H48.8296C48.6732 33.707 48.5176 33.6813 48.3865 33.5796C48.204 33.4521 48.204 33.2999 48.3604 33.1468ZM50.0298 34.1397C50.16 34.2663 50.16 34.4193 50.0298 34.5724C49.8733 34.7503 49.6648 34.8007 49.5083 34.8007C49.2737 34.8007 49.0912 34.7759 48.96 34.6742C48.7524 34.5211 48.7254 34.3176 48.9087 34.1397C49.1695 33.8592 49.769 33.8592 50.0298 34.1397ZM50.0819 32.7398C50.1861 32.6885 50.2904 32.6628 50.4729 32.6628C50.6292 32.6628 50.7857 32.6885 50.9161 32.7654C50.9682 32.7902 51.0203 32.8159 51.0464 32.8415C51.1507 32.9433 51.1507 33.0451 51.0464 33.1468C50.9943 33.1973 50.9161 33.2486 50.8378 33.2743C50.5771 33.376 50.3165 33.3504 50.0558 33.2229C49.9775 33.1725 49.8733 33.0964 49.8733 32.9946C49.8994 32.8672 49.9775 32.7902 50.0819 32.7398ZM51.6982 34.2158C51.5678 34.3432 51.4114 34.3937 51.2549 34.3937C51.0203 34.3937 50.8378 34.3432 50.6815 34.2415C50.4207 34.0884 50.4469 33.8087 50.7075 33.6565C50.9943 33.5034 51.4635 33.5796 51.6982 33.7831C51.8285 33.9105 51.8285 34.0884 51.6982 34.2158ZM51.6982 32.4849C51.7764 32.4601 51.8806 32.4601 51.9598 32.4345C52.1422 32.4345 52.2986 32.4849 52.4542 32.5619C52.5063 32.5875 52.5585 32.6123 52.5846 32.638C52.6888 32.7398 52.6888 32.8415 52.5846 32.9176C52.5332 32.969 52.4542 32.9946 52.3769 33.0194C52.1152 33.0707 51.8545 33.0451 51.646 32.9176C51.5418 32.8672 51.4635 32.7902 51.4635 32.6628C51.4897 32.5619 51.5939 32.5106 51.6982 32.4849ZM53.2102 33.4778C53.2372 33.4778 53.2372 33.5034 53.2632 33.5034C53.4718 33.6565 53.4458 33.9105 53.2102 34.0123C53.1068 34.0636 53.0026 34.0636 52.8982 34.0884C52.6888 34.0636 52.5063 34.0123 52.3238 33.9105C52.2986 33.8848 52.2465 33.8592 52.2196 33.8344C52.0892 33.707 52.1152 33.5034 52.2717 33.4017C52.35 33.3504 52.429 33.3247 52.5332 33.3247C52.7678 33.2999 53.0026 33.3504 53.2102 33.4778ZM53.2102 32.3327C53.5239 32.2814 53.7846 32.3575 54.0452 32.5362C54.0975 32.5875 54.1496 32.638 54.1496 32.7141C54.1235 32.7902 54.0714 32.8415 53.9931 32.8672C53.915 32.892 53.8367 32.892 53.7585 32.892C53.5239 32.892 53.3414 32.8159 53.1328 32.7141C53.0547 32.6628 52.9756 32.6123 53.0026 32.5106C53.0286 32.3832 53.1328 32.3327 53.2102 32.3327ZM56.6002 33.122C56.2352 32.969 55.8441 32.8415 55.4791 32.7398C55.453 32.7654 55.4009 32.7902 55.3488 32.7902H55.2445C55.0099 32.7654 54.8013 32.7141 54.5927 32.5875C54.5406 32.5619 54.4623 32.5106 54.4623 32.4345C53.6543 32.2309 52.8201 32.0779 51.985 31.9761C51.985 32.0531 51.9328 32.1283 51.8545 32.154C51.7503 32.1796 51.646 32.2053 51.5418 32.2053C51.2811 32.2309 51.0464 32.154 50.8118 32.0274C50.7857 31.9761 50.7336 31.9504 50.6554 31.9256C50.5511 31.8743 50.499 31.9256 50.499 32.0274V32.1035C50.499 32.2814 50.4729 32.3575 50.2904 32.4088C50.0298 32.4849 49.7429 32.4849 49.4823 32.3575C49.378 32.3071 49.2997 32.2557 49.1955 32.2053C49.1433 32.1796 49.0642 32.1035 48.987 32.154C48.9087 32.1796 48.9347 32.2814 48.9347 32.3327C48.9347 32.5106 48.8566 32.6123 48.7001 32.6628C48.3604 32.8159 48.0484 32.8159 47.7347 32.5875C47.7087 32.5619 47.6826 32.5362 47.6304 32.5362C47.448 32.4088 47.3697 32.4601 47.3697 32.6628C47.3697 32.8672 47.2655 32.9946 47.083 33.0964C46.9787 33.1468 46.8745 33.1973 46.7962 33.2486C46.744 33.2743 46.6919 33.2999 46.6919 33.3504C46.7701 33.4017 46.7701 33.4017 46.8745 33.4017C47.0309 33.4017 47.1872 33.376 47.3437 33.376C47.4741 33.376 47.6043 33.4017 47.7347 33.4778C47.8912 33.5796 47.9172 33.7318 47.7868 33.8592C47.7087 33.961 47.6043 34.0379 47.5001 34.0884C47.1351 34.2158 46.8224 34.1654 46.5355 33.9105C46.4834 33.8592 46.4313 33.8087 46.379 33.7831C46.3009 33.7318 46.2227 33.7574 46.1967 33.8592C46.1967 33.9105 46.1706 33.961 46.1967 34.0379C46.1967 34.2663 46.1184 34.445 45.9098 34.5468C45.8056 34.5981 45.6752 34.6485 45.5971 34.6998C45.545 34.7255 45.4927 34.7759 45.4666 34.8007C45.4145 34.852 45.4406 34.9034 45.4927 34.9034H45.7273C45.8577 34.9034 45.9881 34.8777 46.1184 34.8777C46.2488 34.8777 46.379 34.9034 46.4834 34.9795C46.6919 35.1326 46.718 35.3352 46.5615 35.514C46.2748 35.8954 45.6492 35.9467 45.3355 35.5901C45.2832 35.514 45.232 35.4626 45.1799 35.4122C45.1278 35.3865 45.0756 35.3352 45.0235 35.3609C44.9714 35.3865 44.9453 35.4379 44.9453 35.4883C44.9453 35.5901 44.9453 35.667 44.9184 35.7688C44.9184 36.3289 44.2144 36.5829 43.8235 36.3794C43.7191 36.3289 43.667 36.252 43.5887 36.1759C43.5106 36.1245 43.4845 36.0485 43.4324 35.9971C43.3541 35.9467 43.276 35.9723 43.2499 36.0485C43.2499 36.0989 43.2239 36.1245 43.2239 36.1759C43.2239 36.252 43.1978 36.3289 43.1978 36.4042C43.1716 36.8121 42.8328 37.0413 42.5459 37.0918C42.2853 37.1431 42.0507 37.0918 41.8942 36.8634C41.8421 36.8121 41.79 36.736 41.7379 36.6847C41.6596 36.6086 41.5814 36.6334 41.5554 36.736C41.5293 36.8121 41.5293 36.8882 41.5293 36.99C41.5293 37.2953 41.3989 37.4988 41.1374 37.6776C41.0079 37.7537 40.8776 37.8554 40.7472 37.9572C40.7203 37.9828 40.6682 38.0076 40.6429 38.059C40.6161 38.1103 40.6161 38.1351 40.6951 38.1351C40.7472 38.1351 40.7984 38.1351 40.8776 38.1103C41.0339 38.0846 41.2164 38.0333 41.372 38.0076C41.7379 37.9828 41.9725 38.2882 41.8421 38.6448C41.79 38.797 41.7119 38.8987 41.5814 39.0014C41.4241 39.1023 41.2947 39.204 41.1374 39.3058C41.0853 39.3571 41.06 39.3828 41.0079 39.4332C40.9818 39.4332 40.9818 39.4845 40.9818 39.5102C40.9818 39.5359 41.0339 39.5607 41.06 39.5607C41.1374 39.5607 41.1895 39.5607 41.2685 39.5359C41.451 39.5102 41.6075 39.4845 41.79 39.4589C42.1811 39.4332 42.3896 39.7385 42.2853 40.0951C42.2332 40.273 42.129 40.4004 41.9986 40.5022C41.8682 40.6048 41.7119 40.7057 41.5814 40.8075C41.5293 40.8331 41.4771 40.8845 41.4241 40.9093C41.3989 40.9606 41.3468 40.9862 41.372 41.0367C41.3989 41.088 41.451 41.088 41.5033 41.088C41.5814 41.088 41.6596 41.0623 41.7379 41.0623C41.8682 41.0367 41.9986 41.0119 42.129 41.0119C42.4157 40.9606 42.6242 41.0623 42.7807 41.2915C42.8589 41.419 42.937 41.5464 43.0153 41.6738C43.0414 41.7242 43.0674 41.7747 43.1195 41.826C43.1456 41.8517 43.1978 41.9021 43.2239 41.9021C43.302 41.9021 43.302 41.826 43.302 41.7747V41.6225C43.302 41.4951 43.276 41.3676 43.276 41.2402V41.0623C43.276 40.7057 43.5366 40.4004 43.8756 40.2987C44.1884 40.1969 44.4752 40.2987 44.6838 40.6296C44.7619 40.757 44.841 40.8845 44.9184 41.0119C44.9453 41.0367 44.9714 41.088 45.0235 41.1136C45.0486 41.1393 45.1009 41.1641 45.1009 41.1641C45.1278 41.1393 45.1539 41.1136 45.1539 41.0623V40.8331C45.1539 40.6801 45.1278 40.5279 45.1009 40.3748C45.0756 40.1969 45.1278 40.019 45.232 39.8659C45.4666 39.5607 46.0663 39.3571 46.4573 39.8659C46.4834 39.9173 46.5355 39.9677 46.5615 40.019C46.6659 40.1713 46.744 40.273 46.8484 40.4004C46.8745 40.4261 46.9005 40.4517 46.9266 40.5022C46.9787 40.5535 47.057 40.5279 47.057 40.4517V40.273C47.057 40.0951 47.0309 39.9173 47.0047 39.7385C46.9787 39.4589 47.083 39.2297 47.3176 39.0766C47.3697 39.0518 47.4218 39.0262 47.4741 39.0014C47.5783 38.9244 47.6826 38.8739 47.7868 38.8226C47.8389 38.7713 47.9172 38.7465 47.9693 38.6952C48.0214 38.6696 48.0998 38.6448 48.0737 38.5678C48.0484 38.4917 47.9693 38.5173 47.8912 38.5173C47.8389 38.5173 47.7868 38.5173 47.7347 38.5421C47.5522 38.5678 47.3697 38.5934 47.2133 38.6191C47.057 38.6448 46.9005 38.6191 46.7701 38.5678C46.353 38.4412 46.2488 38.0076 46.5355 37.7024C46.8484 37.3466 47.3958 37.3466 47.7087 37.6519C47.7868 37.728 47.8389 37.805 47.8912 37.8811C47.9172 37.9324 47.9693 37.9828 48.0214 38.0076C48.0484 38.0333 48.0998 38.059 48.1519 38.059C48.204 38.059 48.204 37.9828 48.2309 37.9324V37.805V37.5501C48.2309 37.2448 48.3865 37.0156 48.7001 36.9139C49.0121 36.8121 49.2997 36.8634 49.5604 37.1174C49.6387 37.1935 49.6908 37.2705 49.769 37.3466C49.7952 37.3979 49.8473 37.4227 49.8994 37.4732C49.9775 37.5245 50.0298 37.4988 50.0558 37.3979V37.2705C50.0558 37.1935 50.0298 37.0918 50.0298 37.0156C50.0298 36.6847 50.2383 36.4299 50.5771 36.3794C50.8901 36.3289 51.1507 36.4042 51.3593 36.6334C51.4374 36.7103 51.5157 36.7865 51.5939 36.8882C51.6199 36.9139 51.646 36.9643 51.6982 36.99C51.7764 37.0661 51.8545 37.0156 51.8545 36.9139V36.7865C51.8545 36.7103 51.8285 36.6334 51.8285 36.5573C51.8024 36.252 51.9328 36.0485 52.2465 35.9723C52.5585 35.8954 52.8461 35.9723 53.0807 36.1759C53.1849 36.2776 53.2632 36.3794 53.3674 36.4812C53.4196 36.5316 53.4718 36.6086 53.55 36.5829C53.6281 36.5573 53.6021 36.4555 53.6021 36.3794C53.6021 36.2776 53.576 36.1502 53.576 36.0485C53.576 35.8193 53.7325 35.6414 53.9671 35.6157C54.28 35.5644 54.5667 35.667 54.7753 35.8697C55.0099 36.0989 54.9578 36.3794 54.6971 36.5573C54.6188 36.6086 54.5146 36.659 54.4363 36.7103C54.3842 36.736 54.3321 36.7608 54.306 36.8121C54.2538 36.8634 54.2538 36.9139 54.3321 36.9387C54.3842 36.9643 54.4363 36.9643 54.5146 36.9643H54.8795C55.1403 36.9643 55.3488 37.0661 55.5051 37.2448C55.6095 37.3466 55.7137 37.4732 55.818 37.5758C55.8441 37.6006 55.8962 37.6262 55.9231 37.6519C55.9745 37.6776 56.0266 37.6519 56.0266 37.6006V37.4484C56.0006 37.3466 56.0006 37.2448 55.9745 37.1174C55.9483 36.8882 56.0266 36.7608 56.1831 36.659C56.2612 36.6086 56.3403 36.5829 56.4177 36.5316C56.4698 36.5068 56.4967 36.4812 56.5479 36.4555C56.6002 36.4042 56.6002 36.3537 56.5228 36.3289C56.4698 36.3033 56.4177 36.3033 56.3403 36.3033C56.21 36.2776 56.0787 36.2776 55.9483 36.2776C55.6876 36.252 55.453 36.1245 55.2966 35.921C55.1403 35.7175 55.1924 35.4883 55.4009 35.3609C55.453 35.3352 55.5051 35.3104 55.5574 35.2848C55.6095 35.26 55.6364 35.2343 55.6876 35.2087C55.7397 35.183 55.792 35.1574 55.7659 35.0812C55.7397 35.0556 55.6876 35.0299 55.6616 35.0051C55.6095 34.9795 55.5312 34.9795 55.453 34.9795C55.3488 34.9795 55.2445 34.9538 55.1403 34.9538C54.9578 34.9282 54.8013 34.8777 54.6449 34.7503C54.5927 34.7255 54.5667 34.6742 54.5146 34.6229C54.3842 34.445 54.4102 34.2415 54.6188 34.1654C54.6971 34.1397 54.8013 34.114 54.8795 34.114C55.1142 34.114 55.3488 34.191 55.5312 34.3432C55.6095 34.4193 55.7137 34.4954 55.792 34.5468C55.818 34.5724 55.871 34.5981 55.9231 34.6229C56.0006 34.6485 56.0266 34.6229 56.0266 34.5468C56.0266 34.4954 56.0006 34.445 56.0006 34.3937C55.9231 34.114 55.9483 34.0379 56.2352 33.9362L56.3924 33.8592C56.4446 33.8344 56.4446 33.7831 56.3924 33.7574C56.3654 33.7318 56.3133 33.7318 56.2612 33.707C56.1578 33.6813 56.0527 33.6813 55.9483 33.6565C55.7659 33.6309 55.5834 33.5796 55.4009 33.4521C55.2966 33.376 55.1924 33.2999 55.2184 33.1468C55.2445 33.0451 55.3749 32.9946 55.5574 33.0194C55.792 33.0451 56.0266 33.122 56.21 33.2743C56.2882 33.3247 56.3403 33.376 56.3924 33.4265C56.4177 33.4521 56.4446 33.4778 56.4967 33.4778C56.5749 33.5034 56.6002 33.4778 56.6002 33.4017C56.6002 33.3504 56.5749 33.3247 56.5749 33.2743C56.5479 33.2229 56.5749 33.1468 56.6002 33.122Z" fill="white"/>
<path fill-rule="evenodd" clip-rule="evenodd" d="M43.7977 66.056C43.6934 65.9542 43.6152 65.8525 43.6413 65.6995C43.6934 65.5463 43.8238 65.5216 43.9802 65.4967H44.0584C44.319 65.5216 44.5537 65.5977 44.7622 65.7764C44.9187 65.9295 44.8926 66.1321 44.6841 66.2339C44.5799 66.2853 44.4755 66.3109 44.3713 66.2853C44.1627 66.2853 43.9542 66.209 43.7977 66.056ZM43.3276 66.2853C43.2763 66.4127 43.1721 66.4127 43.0408 66.4127C42.781 66.4127 42.5464 66.3109 42.3639 66.1321C42.2848 66.056 42.2067 65.9542 42.2588 65.8268C42.3118 65.6995 42.4413 65.6995 42.5464 65.6995C42.8061 65.6995 43.0408 65.8012 43.2242 66.0047C43.3276 66.056 43.3806 66.1578 43.3276 66.2853ZM41.4506 64.9358C41.4245 64.9109 41.3985 64.8605 41.3985 64.8091C41.3462 64.6561 41.4245 64.5287 41.581 64.4773C41.6331 64.4526 41.6852 64.4526 41.7112 64.4526C42.0502 64.4773 42.3118 64.6056 42.4943 64.8605C42.5715 64.9623 42.5985 65.0631 42.5464 65.1649C42.4943 65.2667 42.389 65.3179 42.2848 65.3179C41.9459 65.3437 41.6591 65.2163 41.4506 64.9358ZM42.8584 64.4773C42.9374 64.2994 43.093 64.2747 43.2763 64.2747H43.3025C43.5631 64.2994 43.7977 64.3765 43.9802 64.5791C44.0063 64.6305 44.0584 64.6561 44.0844 64.7074C44.1888 64.8853 44.1105 65.0631 43.9281 65.1649C43.8759 65.1905 43.7977 65.2163 43.7196 65.2163C43.4327 65.2163 43.1981 65.1402 43.0156 64.9358C42.8584 64.7835 42.781 64.6305 42.8584 64.4773ZM45.5183 66.8453C45.5964 66.8957 45.6226 66.972 45.5964 67.0736C45.5704 67.1764 45.4922 67.2268 45.3879 67.2268C45.3358 67.2268 45.2837 67.2515 45.2316 67.2515C44.9708 67.2515 44.7622 67.1764 44.5537 67.0489C44.4495 66.972 44.3713 66.8958 44.3973 66.7683C44.4234 66.6418 44.5537 66.5904 44.658 66.5904C44.997 66.5657 45.2576 66.6666 45.5183 66.8453ZM40.9814 65.3949H40.851C40.5643 65.3437 40.3296 65.2163 40.1732 64.987C40.1732 64.987 40.1732 64.9623 40.1471 64.9623C40.095 64.8853 40.0688 64.7835 40.1211 64.7074C40.1732 64.6305 40.2513 64.6056 40.3817 64.6056C40.6685 64.6305 40.9031 64.7835 41.0856 65.0384C41.1116 65.0631 41.1116 65.1136 41.1377 65.1402C41.1899 65.2923 41.1116 65.3949 40.9814 65.3949ZM39.2869 63.7401C39.2346 63.6385 39.2085 63.5366 39.2869 63.435C39.3641 63.3322 39.4694 63.3322 39.5996 63.3322C39.8865 63.3836 40.1211 63.5366 40.2774 63.765C40.3036 63.8164 40.3296 63.8668 40.3557 63.9429C40.4078 64.1473 40.2774 64.2747 40.0428 64.2747C39.704 64.2233 39.4432 64.0712 39.2869 63.7401ZM38.8428 64.2994C38.8175 64.2994 38.7645 64.2747 38.7124 64.2747C38.4778 64.1977 38.2953 64.0447 38.1658 63.842C38.0867 63.7401 38.0607 63.6385 38.1388 63.5366C38.218 63.435 38.3483 63.4597 38.4526 63.4854C38.7124 63.5615 38.8949 63.7145 39.0522 63.918C39.0783 63.9694 39.1043 64.0198 39.1295 64.0959C39.1043 64.2233 39.026 64.2994 38.8428 64.2994ZM37.9825 63.0783C37.6696 63.0269 37.3307 62.7225 37.2525 62.4164C37.2004 62.2128 37.3307 62.0598 37.5132 62.1111C37.8521 62.1881 38.0867 62.366 38.218 62.6713C38.218 62.696 38.2432 62.7225 38.2432 62.773V62.8243C38.2432 63.0022 38.1388 63.1039 37.9825 63.0783ZM37.0961 61.7288C36.8093 61.6535 36.4965 61.3217 36.4444 61.0421C36.3922 60.7873 36.5747 60.6351 36.8354 60.7112C37.1482 60.8129 37.4611 61.1696 37.4611 61.4749C37.435 61.6535 37.3047 61.7802 37.0961 61.7288ZM36.9136 63.0783C36.5747 62.9757 36.3401 62.7474 36.2358 62.4164C36.1837 62.2633 36.2879 62.1881 36.4183 62.2128C36.679 62.2633 37.07 62.6199 37.0961 62.8739V62.9253C37.1222 63.0527 37.0439 63.1288 36.9136 63.0783ZM36.0533 61.8049C35.7665 61.6784 35.5319 61.4749 35.4528 61.1696C35.4528 61.1439 35.4528 61.0926 35.4276 61.0677C35.4276 60.8642 35.5319 60.7873 35.7144 60.8642C36.0272 60.9908 36.2097 61.1944 36.314 61.5253C36.314 61.5509 36.3401 61.6023 36.314 61.6535C36.314 61.7802 36.2097 61.8563 36.0533 61.8049ZM43.9281 67.3285H43.8238C44.293 67.4815 44.7622 67.6082 45.2316 67.7356V67.6843C45.2576 67.6082 45.3097 67.5834 45.3618 67.5577C45.4401 67.5329 45.4922 67.5329 45.5704 67.5329C45.779 67.5329 45.9884 67.5834 46.17 67.6843C46.223 67.7108 46.2751 67.7612 46.3004 67.7861C46.3525 67.8373 46.3525 67.8887 46.3274 67.9391C46.7696 68.0161 47.2137 68.0922 47.6569 68.1426C47.6829 68.1178 47.735 68.1178 47.7612 68.0922C47.8133 68.0675 47.8133 67.9905 47.735 67.9905C47.6829 67.9647 47.6048 67.9647 47.5265 67.9647C47.3702 67.9391 47.2137 67.9391 47.0564 67.9143C46.953 67.8887 46.8217 67.8373 46.7175 67.7612C46.5871 67.6843 46.6141 67.5329 46.7445 67.4559C46.7696 67.4303 46.8217 67.4046 46.8747 67.4046C46.927 67.3799 46.9791 67.3541 47.0312 67.3541C47.0833 67.3285 47.1616 67.3029 47.1616 67.2268C47.1094 67.1497 47.0312 67.1497 46.9791 67.1497C46.8747 67.1497 46.7696 67.1499 46.6922 67.125C46.562 67.1001 46.4046 67.0736 46.2751 67.0489C46.1961 67.0232 46.0928 66.972 46.0405 66.9215C45.8573 66.7683 45.8833 66.5904 46.0928 66.4888C46.17 66.4374 46.2483 66.4127 46.3274 66.3869C46.3795 66.3613 46.4046 66.3357 46.4576 66.3109C46.5099 66.2853 46.4829 66.2339 46.4307 66.209C46.4046 66.1825 46.3525 66.1825 46.3274 66.1825C46.223 66.1825 46.1179 66.1578 46.0136 66.1578C45.9094 66.1321 45.779 66.1321 45.6747 66.1074C45.5183 66.0809 45.3879 66.0046 45.2576 65.8781C45.0751 65.6995 45.1012 65.4967 45.3097 65.3684C45.3879 65.3179 45.4662 65.2923 45.5443 65.2419C45.5964 65.2163 45.6487 65.1905 45.6747 65.1649C45.7529 65.1136 45.7269 65.0631 45.6487 65.0384C45.5964 65.0119 45.5443 65.0119 45.4662 65.0119C45.3358 65.0119 45.1793 64.987 45.0491 64.987C44.8405 64.9109 44.632 64.8091 44.4755 64.6056C44.293 64.3765 44.3973 64.0447 44.6841 63.9694C44.7362 63.9429 44.7884 63.9429 44.8405 63.9429C45.1272 63.918 45.3618 64.0198 45.5704 64.1977C45.6748 64.2747 45.7529 64.3765 45.8573 64.4773C45.8833 64.5038 45.9354 64.5543 45.9884 64.5543C46.0405 64.5791 46.0928 64.5543 46.1179 64.5038V64.3765C46.1179 64.2994 46.0928 64.2233 46.0928 64.1473C46.0658 63.918 46.144 63.7401 46.3525 63.6385C46.4576 63.5871 46.562 63.5366 46.6662 63.4597C46.7175 63.435 46.7966 63.4085 46.7696 63.3075C46.7445 63.2306 46.6662 63.2306 46.5871 63.2306H46.144C45.8573 63.2306 45.6226 63.1287 45.4141 62.9253C45.3358 62.8243 45.2316 62.7474 45.1533 62.6455C45.1272 62.6199 45.1012 62.5695 45.0491 62.5695C44.9708 62.5181 44.9187 62.5439 44.9187 62.6199V62.773C44.9447 62.8739 44.9447 62.9757 44.9708 63.1039C44.997 63.3836 44.7884 63.6129 44.5016 63.6129C44.2409 63.6129 44.0063 63.5366 43.7977 63.3587C43.6934 63.2571 43.5892 63.1288 43.4848 63.0269C43.4327 62.9757 43.3806 62.9004 43.3276 62.9509C43.2502 62.9757 43.2763 63.0783 43.2763 63.1287C43.3025 63.2306 43.3276 63.3587 43.3276 63.4597C43.3546 63.7145 43.1981 63.8668 42.9635 63.8933C42.7028 63.918 42.4673 63.842 42.2848 63.6632C42.2067 63.5871 42.1544 63.5366 42.0772 63.4597C41.9981 63.3587 41.8946 63.2571 41.8156 63.1544C41.7896 63.1288 41.7634 63.1039 41.7112 63.0783C41.6591 63.0527 41.607 63.0783 41.607 63.1287C41.607 63.1801 41.607 63.2306 41.6331 63.2818C41.6591 63.435 41.7112 63.5615 41.7373 63.7145C41.7896 63.918 41.6591 64.0712 41.4506 64.0959H41.2681C41.0595 64.0447 40.9031 63.9694 40.7468 63.8164C40.6945 63.7401 40.6424 63.6632 40.6164 63.5871C40.5382 63.435 40.5903 63.2818 40.7728 63.2057C40.8249 63.1801 40.9031 63.1287 40.9553 63.1039C41.0074 63.0783 41.0595 63.0527 41.1116 63.0269C41.1377 63.0022 41.1899 62.9509 41.1899 62.9253C41.1899 62.8492 41.1116 62.8492 41.0595 62.8492C41.0335 62.8492 40.9814 62.8243 40.9553 62.8243C40.877 62.8243 40.8249 62.7978 40.7468 62.7978C40.3296 62.7978 40.0167 62.6199 39.7821 62.2898C39.704 62.1881 39.5996 62.0855 39.5215 61.9837C39.4954 61.9332 39.4432 61.9067 39.3641 61.9332V62.0855C39.3911 62.1616 39.4162 62.2633 39.4432 62.3395C39.4694 62.4411 39.5215 62.5695 39.5215 62.6713C39.5475 62.9253 39.3911 63.0527 39.1295 63.0022C38.8428 62.9509 38.6082 62.773 38.4778 62.5181C38.4526 62.4676 38.4257 62.4164 38.4257 62.366C38.4005 62.2128 38.4257 62.0855 38.5559 62.0093C38.6082 61.9837 38.6603 61.9332 38.7124 61.9067C38.7645 61.8563 38.8428 61.8314 38.8428 61.7553C38.8175 61.6535 38.7393 61.6535 38.6603 61.6535C38.5559 61.627 38.4526 61.627 38.3736 61.6023C38.0867 61.5509 37.8521 61.3988 37.6957 61.1439C37.5132 60.8642 37.5914 60.6351 37.8521 60.4315C37.9312 60.3803 37.9825 60.3298 38.0346 60.2785C38.1128 60.2015 38.1128 60.1254 37.9825 60.1006C37.9312 60.1006 37.8521 60.075 37.7739 60.075C37.4089 60.075 37.1482 59.8971 36.9397 59.6173C36.8875 59.5404 36.8093 59.4643 36.7572 59.3625C36.7311 59.3113 36.679 59.2608 36.6268 59.2855C36.5747 59.3113 36.5747 59.3874 36.6008 59.413C36.6268 59.5404 36.6529 59.6422 36.6529 59.7687C36.6529 59.8715 36.679 59.9731 36.6529 60.0501C36.6268 60.2015 36.5226 60.2528 36.3661 60.2528C36.2358 60.228 36.1315 60.2015 36.0533 60.1006C35.9751 60.0236 35.923 59.9731 35.8448 59.8971C35.7665 59.8201 35.7144 59.7183 35.6362 59.6422C35.6101 59.5908 35.558 59.5404 35.4798 59.5661C35.4528 59.6422 35.4528 59.7183 35.4798 59.7952C35.5059 59.9218 35.5319 60.0501 35.5319 60.1766C35.5319 60.3803 35.4016 60.4819 35.193 60.3803C35.1661 60.3803 35.1409 60.3545 35.1148 60.3545C34.9062 60.2015 34.749 59.9987 34.6716 59.7687C34.6186 59.5909 34.6716 59.4387 34.8011 59.3369C34.8541 59.3113 34.8793 59.2855 34.9062 59.2343C34.9584 59.159 34.9315 59.1078 34.8793 59.0829C34.828 59.0564 34.7759 59.0564 34.7238 59.0316C34.437 59.006 34.2545 58.8529 34.1233 58.6246C34.0451 58.4971 33.9669 58.3697 33.8887 58.2679C33.8626 58.2167 33.8365 58.1653 33.7322 58.1653C33.7322 58.2167 33.7062 58.2679 33.7322 58.3184C33.7583 58.4467 33.7844 58.5485 33.8105 58.675C33.8365 58.7511 33.8365 58.8281 33.8626 58.9299C33.8626 59.006 33.8626 59.0564 33.7844 59.1078C33.7062 59.159 33.6541 59.1078 33.6019 59.0829C33.5498 59.0564 33.5237 59.006 33.4976 58.9811L33.4716 58.9546C33.6019 59.2095 33.7583 59.4387 33.9147 59.6936C33.9408 59.6422 34.019 59.6173 34.0972 59.6422C34.1233 59.6422 34.1494 59.6671 34.1754 59.6671C34.384 59.8201 34.5413 60.0236 34.5925 60.3033V60.3545C34.5925 60.4563 34.5413 60.5077 34.4891 60.5333C34.5925 60.6863 34.7238 60.8377 34.828 60.9908C34.8541 60.9908 34.8793 61.0165 34.9062 61.0165C35.0887 61.1439 35.2452 61.3218 35.3494 61.5005C35.3755 61.5509 35.3755 61.6023 35.4016 61.6535C35.949 62.3146 36.5486 62.9253 37.2004 63.4854C37.2525 63.4597 37.3047 63.4854 37.3568 63.5101C37.5914 63.6129 37.8 63.765 37.9312 63.9694C37.9312 63.9942 37.9564 64.0447 37.9564 64.0959V64.1473C38.2953 64.4277 38.6351 64.6817 39 64.9358C39 64.9109 38.9739 64.8853 38.9739 64.8605C38.9218 64.7579 38.9739 64.6817 39.1043 64.6561C39.1564 64.6561 39.2085 64.6561 39.2608 64.6817C39.4954 64.7579 39.704 64.8853 39.8603 65.0888C39.8865 65.1136 39.8865 65.1402 39.9125 65.1649C39.9646 65.2923 39.9125 65.3949 39.73 65.3949C40.2513 65.7251 40.7728 66.0311 41.3462 66.2853C41.242 66.2339 41.1639 66.1578 41.0595 66.0809C41.0074 66.0047 40.9553 65.9542 41.0074 65.8525C41.0595 65.7507 41.1377 65.7507 41.2681 65.7507C41.5287 65.7764 41.7896 65.903 41.9719 66.1074C42.0242 66.1825 42.0772 66.2595 42.0242 66.3357C41.9719 66.4374 41.8677 66.4374 41.7896 66.4127C41.6852 66.3869 41.5548 66.3613 41.4506 66.3109C42.0502 66.5904 42.6506 66.8701 43.2763 67.1001C43.2242 67.1001 43.1721 67.0736 43.146 67.0489C43.1199 67.0232 43.093 66.9985 43.0677 66.972C43.0156 66.8701 43.0408 66.7683 43.146 66.7436C43.1981 66.7171 43.2763 66.7171 43.3025 66.7171C43.5892 66.7171 43.8238 66.8197 44.0323 66.9985C44.1105 67.0489 44.1627 67.125 44.1367 67.2268C44.1105 67.3029 44.0063 67.3285 43.9281 67.3285Z" fill="white"/>
<defs>
<radialGradient id="paint0_radial_15_36" cx="0" cy="0" r="1" gradientUnits="userSpaceOnUse" gradientTransform="translate(-1543.86 1995.91) rotate(90) scale(2671.82 2618.16)">
<stop stop-color="#D8D8D8"/>
<stop offset="1" stop-color="#002D74"/>
</radialGradient>
</defs>
</svg>
