<?xml version="1.0" encoding="utf-8"?>
<!-- Generator: Adobe Illustrator 27.6.1, SVG Export Plug-In . SVG Version: 6.00 Build 0)  -->
<svg version="1.1" id="Layer_1" xmlns="http://www.w3.org/2000/svg" xmlns:xlink="http://www.w3.org/1999/xlink" x="0px" y="0px"
	 viewBox="0 0 642.5 154.9" style="enable-background:new 0 0 642.5 154.9;" xml:space="preserve">
<style type="text/css">
	.st0{clip-path:url(#SVGID_00000090267541224450294240000017186646017466723482_);}
	.st1{fill-rule:evenodd;clip-rule:evenodd;fill:#9DC11E;}
	.st2{fill:#FFFFFF;}
	.st3{fill-rule:evenodd;clip-rule:evenodd;fill:#1A3357;}
	.st4{clip-path:url(#SVGID_00000019643002755838349220000005486682901190359426_);}
	.st5{fill:url(#SVGID_00000127023474141911536060000001340885728122827704_);}
	.st6{clip-path:url(#SVGID_00000088116447417404197160000011500192792617901188_);}
	.st7{fill:url(#SVGID_00000168097506764021457270000003958904712614425758_);}
	.st8{clip-path:url(#SVGID_00000165922155540906635100000009000792643177440412_);}
	.st9{fill-rule:evenodd;clip-rule:evenodd;fill:#FFFFFF;}
</style>
<g>
	<g>
		<defs>
			<rect id="SVGID_1_" width="642.5" height="154.9"/>
		</defs>
		<clipPath id="SVGID_00000111875198590445138570000007730223229339028905_">
			<use xlink:href="#SVGID_1_"  style="overflow:visible;"/>
		</clipPath>
		<g style="clip-path:url(#SVGID_00000111875198590445138570000007730223229339028905_);">
			<path class="st1" d="M359.3,0.2c-11.1,0-19.5,3.9-26.4,10.9c-9.8,10.1-9.6,22.6-9.6,39.9s-0.3,29.8,9.6,39.9
				c6.8,7,15.3,11,26.4,11s19.4-3.9,26.2-11c9.8-10.1,9.7-22.6,9.7-39.9s0.1-29.8-9.7-39.9C378.7,4.2,370.4,0.2,359.3,0.2
				 M371.5,79.1c-2.7,3.2-7,5.3-12.2,5.3s-9.6-2.1-12.3-5.3c-3.7-4.2-4.6-8.8-4.6-28.1s1-23.9,4.6-28.1c2.7-3.2,7.1-5.3,12.3-5.3
				s9.4,2.1,12.2,5.3c3.7,4.2,4.8,8.8,4.8,28.1S375.2,74.9,371.5,79.1 M642.1,100c0,0-8.4-23.2-16.9-46.6C616.7,30,608.2,6.5,608,6
				c-1.3-3.6-5.4-5.4-9.5-5.4s-8.2,1.7-9.8,5.6c-0.4,1.1-33.9,93.8-33.9,93.8l-0.3,0.9h12c5.1-0.1,8.2-4.6,10.1-9.8l7.7-20.8h21.8
				l-5.8-13.9h-11.1l8.9-26.9l21.1,60c2.8,8.3,4.9,11.4,14.1,11.4h0.6c0.4,0,0.7,0,1.1,0h7.6L642.1,100L642.1,100z M292.5,14.3v51.2
				L251.9,0.2H249c-8.6-0.1-15.9,3-16.2,11.8v89.4c8.9-0.2,18.9-3.8,19.1-14.1v-51l40.6,65.2v0h2.8c8.6,0.1,16-3,16.2-11.8V0.2
				C302.6,0.4,292.7,4.1,292.5,14.3 M447.5,42.3l-11.4-1.7c-4-0.6-7.1-2.1-9-3.9c-2-2-2.9-4.6-2.9-7.1c0-5,2.6-9.4,8-11.4h0
				c0,0,0.1,0,0.2-0.1c1.5-0.6,3.3-0.9,5.3-1.1c6.4-0.7,17.4-0.1,28.4,8.9c3.9-6.2,5.5-14.2-1.1-19.3l0,0c0,0,0,0-0.1-0.1
				C458,2,449.9,0,439.7,0c-21,0-33.8,12.5-33.8,30.2c0,8.4,2.3,14.9,7,19.6c4.4,4.4,10.5,7,18.8,8.3l11.7,1.7
				c4.5,0.7,6.7,1.7,8.6,3.5c2,2,3,4.9,3,8.4c0,8-6,12.3-17.2,12.3c-9,0-17.3-2.1-23.4-8.4h0v0l-12.2,12.6
				c9.5,9.9,20.7,13.2,35.4,13.2c20.3,0,36-10.9,36-30.2c0-8.8-2.3-16.1-7.5-21.1C461.9,46.1,456.3,43.5,447.5,42.3 M526.5,42.3
				l-11.4-1.7c-4-0.6-7.1-2.1-9-3.9c-2-2-2.9-4.6-2.9-7.1c0-5,2.6-9.4,7.9-11.4h0c0,0,0.1,0,0.1-0.1c1.6-0.6,3.3-0.9,5.4-1.1
				c6.4-0.7,17.4-0.1,28.4,8.9c3.9-6.2,5.5-14.2-1.1-19.3l0,0c0,0,0,0-0.1-0.1C537,2,529,0,518.8,0c-21,0-33.8,12.5-33.8,30.2
				c0,8.4,2.3,14.9,7,19.6c4.4,4.4,10.5,7,18.8,8.3l11.7,1.7c4.5,0.7,6.7,1.7,8.6,3.5c2,2,3,4.9,3,8.4c0,8-6,12.3-17.2,12.3
				c-9,0-17.3-2.1-23.4-8.4h0v0l-12.2,12.6c9.5,9.9,20.7,13.2,35.4,13.2c20.3,0,36-10.9,36-30.2c0-8.8-2.3-16.1-7.5-21.1
				C541,46.1,535.4,43.5,526.5,42.3"/>
			<path class="st2" d="M255,150.2c-2.1,3.4-6.2,4.8-9.9,4.8c-6.2,0-11.2-2.7-12.4-9.8l3.9-0.7c0.5,2.9,1.6,4.7,3.7,5.6
				c1.4,0.6,2.8,0.9,4.8,0.9c2.6,0,5.3-0.9,6.5-2.9c0.6-0.9,0.8-1.8,0.8-2.7c0-2.1-1-3.3-3-4.3c-0.6-0.3-2.1-0.9-5.8-1.7
				c-4.8-1.1-6.5-2.2-7.4-3.1c-1.5-1.4-2.2-3.2-2.2-5.4c0-2.3,1-4.4,2.9-6c1.8-1.5,4.3-2.2,7.4-2.2c4.4,0,8.4,1.4,10.6,5.3
				c0.2,0.4,0.4,0.7,0.9,1.8l-3.6,1.7c-1-2.1-1.6-3-3-3.8c-1.1-0.6-2.6-1-4.9-1s-3.9,0.4-4.9,1.2c-1,0.9-1.5,1.9-1.5,3.1
				s0.4,2.2,1.4,2.8c1.2,0.8,4,1.5,5.4,1.8c3.1,0.8,5.3,1.4,6.6,2c3.2,1.6,5.2,4.1,5.2,7.8C256.4,147.1,255.9,148.6,255,150.2"/>
			<polygon class="st2" points="298.1,154.4 298.1,123.1 318.5,123.1 318.5,126.9 302,126.9 302,136.2 316.4,136.2 316.4,140.1 
				302,140.1 302,150.6 318.5,150.6 318.5,154.4 			"/>
			<path class="st2" d="M382.6,154.4h-3.5v-3.3c-2,2.5-4.5,3.7-7.5,3.7c-4.3,0-7.6-1.9-10-5.4c-1.8-2.8-2.5-5.8-2.5-10.7
				s0.7-7.9,2.5-10.7c2.2-3.5,5.9-5.4,10.2-5.4s6.7,1.4,10.3,5.7l-3,2.5c-3-3.5-4.5-4.2-7.3-4.2c-3,0-5.3,1.2-6.8,3.6
				c-1.4,2-1.9,4.3-1.9,8.6s0.5,6.6,1.9,8.6c1.6,2.4,3.8,3.6,6.6,3.6c2.2,0,4.1-1.1,5.5-3.2c1.1-1.8,1.5-3.9,1.6-6.6h-7.8v-3.9h11.8
				L382.6,154.4L382.6,154.4z"/>
			<path class="st2" d="M446.2,149.9c-1.9,3.1-5.5,4.9-9.7,4.9c-4.2,0-7.7-1.8-9.6-4.9c-1.7-2.8-1.9-6.2-1.9-9.1v-17.8h4v17.8
				c0,2.5,0.2,5.2,1.4,7.1c1.1,1.9,3.4,3,6.2,3s5.1-1.2,6.2-3c1.2-1.9,1.4-4.6,1.4-7.1v-17.8h4v17.8
				C448.1,143.6,447.9,147.1,446.2,149.9"/>
			<path class="st2" d="M509.4,154.4c0,0-3.5-5.8-6.7-11c-0.5-0.9-1-1.8-1.8-2.4c-0.5-0.4-1.2-0.7-2-0.7h-4v14.1h-4v-31.4h11
				c2,0,4.5,0.1,6.6,1.4c2.4,1.4,3.6,4.1,3.7,7.2c0,3.1-1.3,5.8-3.7,7.2c-1,0.7-2.2,1-3.3,1.2c0.3,0.4,0.6,0.9,0.8,1.3
				c3.7,6,7.9,13,7.9,13H509.4L509.4,154.4z M506.4,127.8c-1.1-0.7-2.8-0.8-4.5-0.8h-7v9.6h7.1c1.7,0,3.4-0.1,4.5-0.9
				c1.1-0.7,1.8-2,1.8-3.9S507.5,128.5,506.4,127.8"/>
			<path class="st2" d="M575.7,149.4c-2.2,3.5-5.9,5.4-10.2,5.4s-7.9-1.9-10.2-5.4c-1.8-2.8-2.5-5.8-2.5-10.7s0.7-7.9,2.5-10.7
				c2.3-3.5,5.9-5.4,10.2-5.4s8,1.9,10.2,5.4c1.8,2.8,2.5,5.8,2.5,10.7S577.5,146.7,575.7,149.4 M572.3,130.2
				c-1.5-2.4-3.9-3.6-6.9-3.6s-5.3,1.2-6.9,3.6c-1.3,2-1.9,4.3-1.9,8.6s0.5,6.6,1.9,8.6c1.5,2.4,3.9,3.6,6.9,3.6s5.3-1.2,6.9-3.6
				c1.3-2,1.9-4.3,1.9-8.6S573.7,132.2,572.3,130.2"/>
			<path class="st2" d="M640.8,150.2c-2.1,3.4-6.2,4.8-9.9,4.8c-6.2,0-11.2-2.7-12.5-9.8l3.9-0.7c0.5,2.9,1.6,4.7,3.7,5.6
				c1.4,0.6,2.8,0.9,4.8,0.9c2.6,0,5.3-0.9,6.5-2.9c0.6-0.9,0.8-1.8,0.8-2.7c0-2.1-1-3.3-3-4.3c-0.6-0.3-2.1-0.9-5.8-1.7
				c-4.8-1.1-6.5-2.2-7.5-3.1c-1.5-1.4-2.2-3.2-2.2-5.4c0-2.3,1-4.4,2.9-6c1.8-1.5,4.3-2.2,7.4-2.2c4.4,0,8.4,1.4,10.6,5.3
				c0.2,0.4,0.4,0.7,0.9,1.8l-3.6,1.7c-1-2.1-1.6-3-3-3.8c-1.1-0.6-2.6-1-4.9-1s-3.9,0.4-4.8,1.2c-1,0.9-1.5,1.9-1.5,3.1
				s0.5,2.2,1.3,2.8c1.2,0.8,4,1.5,5.3,1.8c3.2,0.8,5.3,1.4,6.6,2c3.2,1.6,5.2,4.1,5.2,7.8C642.2,147.1,641.8,148.6,640.8,150.2"/>
			<rect x="193.5" y="0.2" class="st2" width="3" height="154.1"/>
			<path class="st3" d="M156.1,0.3H18.4C8.2,0.3,0,8.5,0,18.6V154h137.8c10.1,0,18.4-8.2,18.4-18.4V0.3z"/>
		</g>
	</g>
	<g>
		<defs>
			<path id="SVGID_00000008833758390965914100000002776573446737216136_" d="M18.4,0.3C8.2,0.3,0,8.5,0,18.6V154h137.8
				c10.1,0,18.4-8.2,18.4-18.4V0.3H18.4z"/>
		</defs>
		<clipPath id="SVGID_00000139276316350448463370000014035548101946028195_">
			<use xlink:href="#SVGID_00000008833758390965914100000002776573446737216136_"  style="overflow:visible;"/>
		</clipPath>
		<g style="clip-path:url(#SVGID_00000139276316350448463370000014035548101946028195_);">
			
				<radialGradient id="SVGID_00000174574261440545075340000006962749182603704193_" cx="-6530.3047" cy="329.4518" r="5.2" gradientTransform="matrix(22.21 0 0 22.21 145120.2031 -7237.8384)" gradientUnits="userSpaceOnUse">
				<stop  offset="0" style="stop-color:#B0BAD1"/>
				<stop  offset="0.12" style="stop-color:#A4AFC7"/>
				<stop  offset="0.34" style="stop-color:#8795AF"/>
				<stop  offset="0.63" style="stop-color:#566988"/>
				<stop  offset="0.95" style="stop-color:#1A3357"/>
				<stop  offset="1" style="stop-color:#1A3357"/>
			</radialGradient>
			<rect y="0.3" style="fill:url(#SVGID_00000174574261440545075340000006962749182603704193_);" width="156.1" height="153.7"/>
		</g>
	</g>
	<g>
		<defs>
			<path id="SVGID_00000034089262338183290880000007336146323695588497_" d="M5.3,77.1c0,40.2,32.6,72.8,72.8,72.8
				s72.8-32.6,72.8-72.8S118.3,4.4,78.1,4.4S5.3,36.9,5.3,77.1"/>
		</defs>
		<clipPath id="SVGID_00000054961926193653336330000003626913256817826457_">
			<use xlink:href="#SVGID_00000034089262338183290880000007336146323695588497_"  style="overflow:visible;"/>
		</clipPath>
		<g style="clip-path:url(#SVGID_00000054961926193653336330000003626913256817826457_);">
			
				<radialGradient id="SVGID_00000004515377034631071260000013597592991763209637_" cx="-6552.3403" cy="327.4847" r="5.2" gradientTransform="matrix(24.01 0 0 24.01 157460.3906 -7762.5796)" gradientUnits="userSpaceOnUse">
				<stop  offset="0" style="stop-color:#FFFFFF"/>
				<stop  offset="9.000000e-02" style="stop-color:#D2D6DE"/>
				<stop  offset="0.24" style="stop-color:#8391A4"/>
				<stop  offset="0.37" style="stop-color:#4A5E7A"/>
				<stop  offset="0.47" style="stop-color:#273E60"/>
				<stop  offset="0.52" style="stop-color:#1A3357"/>
				<stop  offset="1" style="stop-color:#1A3357"/>
			</radialGradient>
			
				<rect x="5.3" y="4.4" style="fill:url(#SVGID_00000004515377034631071260000013597592991763209637_);" width="145.6" height="145.6"/>
		</g>
	</g>
	<g>
		<defs>
			<rect id="SVGID_00000029004996760928559080000015521842482882982054_" width="642.5" height="154.9"/>
		</defs>
		<clipPath id="SVGID_00000044864497658704769590000012285911880388727171_">
			<use xlink:href="#SVGID_00000029004996760928559080000015521842482882982054_"  style="overflow:visible;"/>
		</clipPath>
		<g style="clip-path:url(#SVGID_00000044864497658704769590000012285911880388727171_);">
			<path class="st9" d="M59.7,50.9c-0.6-0.3-1.1-0.9-1.5-1.5c-0.4-0.8-0.5-1.7-0.3-2.3c0.2-0.5,0.6-1,1.3-1.3c1.2-0.7,2-0.6,2.9,0.3
				c0.3,0.3,0.7,0.8,0.9,1.2c0.4,0.8,0.5,1.7,0.2,2.3c-0.2,0.5-0.7,0.9-1.4,1.3C61,51.2,60.3,51.2,59.7,50.9 M51.6,54.5
				c-0.7,0.8-2,1.5-4.2,2.5c5.3-1.8,5.6-1.9,7.9,2.8c-0.3-1.1-0.9-3.2-0.4-4.3c0.3-0.6,0.8-1.2,1.5-1.5c0.7-0.3,1.5-0.3,2.1,0
				c0.6,0.3,1.2,0.8,1.5,1.5c0.3,0.7,0.2,1.5,0,2.1c-0.3,0.6-0.8,1.1-1.5,1.5c-1.5,0.7-2.5,1.2-2.8,1.3c5.1-1.8,5.8-1.4,8.2,3.8
				c1.4,4.1,1.9,5.7-0.5,6.8c-2.5,1-3.2-0.6-5.1-4.6c1.9,5.6,1.8,6-3.6,8.5c4.2-1.5,6-2,6.9,0.5c0.9,2.4-0.4,3.3-4.2,5.1
				c1.9,5.5,1.7,5.8-3.6,8.3c5.6-1.9,5.6-2,8.1,3.3c5.2-1.8,5.6-1.6,8,3.6c5.2-1.8,6-1.3,8.4,4c-1.4-4.2-2-5.9,0.5-6.9
				c2.5-1,3.3,0.6,5.2,4.6c-1.5-4.2-2-5.9,0.5-6.9c2.5-1,2.9,0.2,4.8,4.2c5.2-1.8,5.7-1.4,8,3.6c4-1.3,5.8-1.4,6.8,0.9
				c1.1,2.5-0.4,3.4-4.6,5.3c4.3-1.5,5.9-1.9,7,0.6c1,2.5-0.4,3.4-4.6,5.3c4.3-1.5,5.9-1.9,7,0.6c1,2.5-0.4,3.4-4.6,5.3
				c4.3-1.5,5.9-1.9,7,0.6c1.1,2.5-0.4,3.4-4.6,5.3c5.5-1.9,5.7-1.9,8.1,3.1c4-1.3,5.7-1.5,6.8,0.9c1.1,2.5-0.4,3.4-4.6,5.3
				c4.3-1.5,5.9-1.9,7,0.6c0.4,0.9,0.4,1.4,0.2,2c0.5-0.4,0.9-0.7,1.3-1.1c-0.4-0.3-0.7-0.5-0.9-1.1c-0.6-1.4,0.1-3,1.5-3.6
				c1.3-0.5,2.7-0.2,3.4,1l0.5-0.5c-0.1-0.5,0.1-0.8,0.2-1.3c0.3-0.6,0.8-1.2,1.5-1.5c0.4-0.2,0.6-0.2,1.1-0.2
				c0.8-0.9,1.6-1.8,2.4-2.8c0,0-0.1,0-0.2-0.1c-0.6-0.3-1.2-0.8-1.5-1.5c-0.3-0.7-0.3-1.5,0-2.1c0.3-0.7,0.8-1.2,1.5-1.5
				c0.7-0.3,1.5-0.3,2.1,0c0.5,0.2,0.8,0.5,1.1,1c0.2-0.2,0.5-0.7,0.6-0.9c-0.1-1.3,0.1-1.5,1.5-2.3c0.1-0.2,0.4-0.6,0.5-0.8
				c-1,0.2-1.9,0.3-2.6,0c-0.7-0.3-1.2-0.8-1.5-1.5c-0.3-0.7-0.2-1.5,0-2.1c0.3-0.7,0.8-1.2,1.5-1.5c0.7-0.3,1.5-0.2,2.1,0
				c0.6,0.3,1.1,0.8,1.5,1.5l0.5,1l0.2-0.3c-0.8-2.9-0.3-3.8,2.6-5.3c-3.1,1-4.1,0.9-5-1.3c-0.9-2.2,0.1-3.3,3.4-5
				c-1.1,0.3-3.2,0.9-4.3,0.4c-0.6-0.3-1.2-0.8-1.5-1.5c-0.3-0.7-0.2-1.4,0-2.1c0.3-0.6,0.8-1.2,1.5-1.5s1.5-0.2,2.1,0
				c0.6,0.3,1.1,0.8,1.5,1.5l1.2,2.5c-1.8-5.2-1.3-5.4,4-7.8c-4.3,1.5-5.9,1.9-7-0.6c-1-2.5,0.4-3.4,4.6-5.3c-4.3,1.5-6.1,1.9-7-0.6
				c-0.8-2.3,0.3-3.2,3.7-4.9c-1,0.3-3.4,1-4.6,0.5c-0.6-0.3-1.2-0.8-1.5-1.5c-0.3-0.7-0.2-1.4,0-2.1c0.3-0.6,0.8-1.2,1.5-1.5
				s1.5-0.2,2.1,0c0.6,0.3,1.1,0.8,1.5,1.5c0.8,1.7,1.3,2.7,1.4,2.8c-1.8-5.2-1.6-5.7,3.2-8.1c-0.3,0.1-3.5,1.3-5,0.7
				c-0.6-0.3-1.2-0.8-1.5-1.5c-0.3-0.7-0.3-1.5,0-2.1c0.3-0.6,0.8-1.2,1.5-1.5c0.7-0.3,1.5-0.2,2.1,0c0.6,0.3,1.1,0.8,1.5,1.5
				c0.7,1.5,1.2,2.4,1.3,2.8c-1.4-4-1.7-5.5,0.6-6.5c2-0.9,2.7,0.1,4,2.6c-0.3-2.1-0.6-4.1-1.1-6.2c-1.1-0.5-1.6-1.5-2.2-2.7
				c0.2,0.7,0.4,1.5,0.5,2.4c0.1,0.6,0.1,1.2-0.2,1.7c-0.3,0.6-0.8,1.2-1.5,1.5s-1.5,0.2-2.1,0c-0.5-0.2-0.9-0.6-1.2-1
				c-0.3-0.3-0.6-0.8-0.8-1.2c0.1,0.4,0.2,0.9,0.2,1.3c0.1,0.6,0.1,1.2-0.2,1.7c-0.3,0.6-0.8,1.2-1.5,1.5s-1.5,0.3-2.1,0
				c-0.5-0.2-0.9-0.6-1.2-1c-0.3-0.4-0.7-0.9-0.9-1.3c0.1,0.5,0.2,1.1,0.3,1.7c0.1,0.6,0,1.1-0.2,1.6c-0.3,0.6-0.8,1.2-1.5,1.5
				c-0.7,0.3-1.5,0.2-2.1,0c-0.5-0.2-1-0.6-1.3-1.1c-0.3-0.4-0.6-0.8-0.8-1.2c0.2,1,0.4,2.2,0.1,3c-0.3,0.6-0.8,1.2-1.5,1.5
				c-0.7,0.3-1.5,0.3-2.1,0s-1.2-0.8-1.5-1.5c-0.3-0.7-0.3-1.5,0-2.1c0.3-0.7,0.8-1.1,1.5-1.5l2.6-1.2c-0.4,0.1-1.9,0.6-3.3,0.8
				c-0.6,0.1-1.1,0-1.6-0.2c-0.6-0.3-1.2-0.8-1.5-1.5c-0.3-0.7-0.2-1.4,0-2.1c0.2-0.5,0.6-1,1.1-1.3c1.2-1,3-1.7,3-1.7l0.4-0.2
				c0,0,1.4-0.6,2.9-0.8c0.6-0.2,1.3-0.2,1.9,0.1c0.5,0.2,1,0.6,1.3,1.1c0.3,0.4,0.6,0.9,0.9,1.3c-0.1-0.5-0.2-1.1-0.3-1.7
				c-0.1-0.6-0.1-1.1,0.2-1.7c0.3-0.7,0.8-1.2,1.5-1.5c0.7-0.3,1.4-0.2,2.1,0c0.5,0.2,0.9,0.6,1.2,1c0.3,0.3,0.6,0.8,0.8,1.2
				c-0.1-0.4-0.2-0.9-0.2-1.3c-0.1-0.6-0.1-1.2,0.2-1.7c0.3-0.6,0.8-1.2,1.5-1.5c0.7-0.3,1.5-0.3,2.1,0c0.5,0.2,0.9,0.6,1.2,1
				c0.5,0.7,1,1.5,1.3,2.1c-0.6-1.7-0.8-3.1,0.3-4.5c-0.2-0.5-0.3-0.9-0.5-1.4c-1.4,0.2-2.2-0.5-2.7-1.8c-0.5-1.4-0.3-2.3,0.6-3.1
				c-0.2-0.4-0.4-0.7-0.5-1.1c-0.4,0-0.5-0.2-0.8-0.2c-0.6-0.3-1.2-0.8-1.5-1.5c-0.3-0.7-0.2-1.4,0-2.1c0.1-0.1,0.1-0.2,0.1-0.2
				c-0.4-0.7-0.8-1.4-1.2-2c-0.6-0.3-1-0.8-1.3-1.4c-0.1-0.3-0.1-0.4-0.1-0.7c-0.8-1.2-1.7-2.5-2.6-3.6c0,0.3-0.1,0.4-0.2,0.7
				c-0.3,0.6-0.8,1.2-1.5,1.5c-0.7,0.3-1.4,0.3-2.1,0c-0.8-0.3-1.6-1.4-2.2-2.4c0.3,1.1,0.5,2.4,0.1,3.2c-0.3,0.7-0.8,1.2-1.5,1.5
				c-0.7,0.3-1.5,0.2-2.1,0c-0.7-0.3-1.2-0.8-1.5-1.5c-0.3-0.7-0.2-1.5,0-2.1c0.3-0.6,0.8-1.1,1.5-1.5c1.3-0.6,4.3-1.8,5.7-2.3
				c0.5-0.2,0.8-0.2,1.2-0.2c-0.3-0.4-0.6-0.7-0.9-1.1c-0.9,0.9-2.1,1.5-3.4,2c-3.1,1.1-5.2,1.6-7.5-3.1c0.3,0.9,1.1,3.4,0.5,4.7
				c-0.3,0.6-0.8,1.2-1.5,1.5s-1.4,0.2-2.1,0c-0.6-0.3-1.2-0.8-1.5-1.5s-0.2-1.5,0-2.1c0.3-0.6,0.8-1.1,1.5-1.5
				c1.7-0.8,2.7-1.3,2.8-1.5c-4.9,1.7-5.8,1.6-8-2.7c1.1,3.4,1.3,4.8-0.8,5.7c-2.2,0.9-3.1-0.4-4.8-3.6c1.1,3.4,1.3,5-0.8,5.8
				c-2.2,0.9-3,0.2-4.7-3c1.1,3.4,1.1,4.4-1,5.3c-2.2,0.9-2.9,0.4-4.6-2.8c1.1,3.4,1,4.2-1.1,5.1c-2.1,0.9-2.8,0.6-4.5-2.6
				c1.5,4.5-0.9,5.1-3.8,6.3c-2.2,0.9-4.4,1.4-6.3-0.3c-0.3-0.4-0.7-0.8-0.9-1.4c-0.6-1.2-0.7-2.5-0.4-3.1c0.2-0.4,0.6-0.8,1.2-1.1
				c2.1-1.1,3.2,0.2,5,3.2c-1.4-3.3-1.6-4.8,0.4-5.9c2.1-1,2.9-0.8,4.8,2.3c-1.4-3.4-1.3-3.9,0.8-5c2.1-1.1,2.9-0.6,4.8,2.5
				c-1.4-3.3-1.3-4.1,0.7-5.1c2.1-1,3-0.4,4.9,2.7c-1.8-4.4,0.3-5.5,3.2-6.9c2.9-1.4,5.5-2.1,7.9,2c-1.8-4.4,0.2-5.9,3-7.3
				c0.7-0.4,1.2-0.6,1.9-0.8c-2.3-1.5-4.7-2.9-7.2-4.2c-0.2,0.2-0.4,0.4-0.7,0.5c-1.4,0.7-3,0.1-3.7-1.3c-0.2-0.5-0.4-0.9-0.3-1.4
				c-1.1-0.4-2.1-0.9-3.2-1.2c-0.3,0.2-0.5,0.4-0.8,0.6c-1.4,0.7-3,0.1-3.7-1.3c-0.1-0.3-0.3-0.5-0.3-0.8c-1.3-0.4-2.8-0.8-4.1-1.1
				c0,0-0.1,0.1-0.2,0.1c-1.2,0.6-2.7,0.2-3.4-0.9c-0.3,0-0.5-0.1-0.8-0.1c0.7,1.4,0.1,3-1.3,3.7c-1.4,0.7-3,0.1-3.7-1.3
				c-0.5-1-0.3-2.2,0.4-3c-1.2-0.1-2.4-0.2-3.6-0.3c-0.2,0.6-0.7,1.2-1.4,1.5c-1.4,0.7-3,0.1-3.7-1.3c-0.1-0.1-0.2-0.3-0.2-0.3
				l-0.7,0c0,0,0.2,0.3,0.4,0.5c0.7,1.4,0.1,3-1.3,3.7c-1.4,0.7-3,0.1-3.7-1.3c-0.4-0.9-0.3-1.9,0.2-2.7c-1.5,0.2-3,0.3-4.4,0.6
				c-1.2,1-2.8,1.9-2.8,1.9l-0.4,0.2c0,0-1.4,0.7-2.8,1c-0.6,0.2-1.3,0.2-1.9,0c-0.5-0.2-1-0.6-1.3-1l-0.6,0.2l0.1,0.2
				c0.2,0.6,0.1,1.1-0.1,1.7c-0.2,0.7-0.7,1.2-1.4,1.6s-1.4,0.4-2.1,0.1c-0.5-0.2-0.9-0.5-1.3-0.9c-0.2-0.3-0.4-0.5-0.6-0.8
				l-0.2,0.1c0.1,0.3,0.1,0.6,0.2,0.9c0.1,0.7,0.1,1.1,0,1.7c-0.2,0.7-0.7,1.2-1.4,1.6s-1.4,0.4-2.1,0.1c-0.5-0.2-1-0.5-1.3-0.9
				c-0.2-0.3-0.5-0.7-0.7-1l-0.3,0.2c0.5,2.1-0.2,4.1-4,6.2c4.2-1.8,5.9-2.4,7,0.1c1,2.1,0,3.2-2.9,4.9c1.1-0.4,3-1,4-0.6
				c0.7,0.2,1.2,0.7,1.6,1.4c0.3,0.7,0.4,1.4,0.1,2.1c-0.2,0.7-0.7,1.2-1.4,1.6c-0.7,0.3-1.4,0.4-2.1,0.1c-0.7-0.2-1.2-0.7-1.6-1.4
				c-0.8-1.5-1.4-2.4-1.5-2.7c1.6,3.9,2.2,5.5-0.2,6.6c-2.3,1.1-3.2-0.3-5.3-4c-3.9,1.6-5.6,2.1-6.8-0.2c-0.6-1.1-0.9-1.6-0.8-1.6
				c0,0,0.3,0.6,0.8,1.6c0.9,1.9-0.2,3.2-2.8,4.8l0.1,0.2c2.8-1.1,4.3-1.1,5.2,0.8c0.9,1.8,0,3-2.6,4.6l0.1,0.2
				c2.8-1.1,4.3-1,5.3,0.9c0.9,1.9,0.1,3.1-2.6,4.7l0.1,0.2c2.8-1.1,4.3-1,5.2,0.8c0.9,1.8,0.1,3.1-2.5,4.6l0.2,0.2
				c3.7-1.4,3.9-1,6.4,3.5c2.2-0.9,3.6-1.4,4.8-1.2c0.7,0.1,1.4,0.7,1.8,1.5C51.9,53,52,53.9,51.6,54.5 M67.5,132.7
				c0,0-3.3,1.6-4.9,1.1c-0.7-0.2-1.2-0.7-1.6-1.4c-0.3-0.7-0.4-1.4-0.2-2.1c0.2-0.7,0.7-1.2,1.4-1.6c0.7-0.4,1.4-0.4,2.1-0.2
				c0.7,0.2,1.2,0.7,1.6,1.4C66.9,131.8,67.5,132.7,67.5,132.7 M57.9,141.1c0.7,1.4,0.2,3-1.2,3.7c-1.3,0.7-3,0.1-3.7-1.2
				c-0.7-1.4-0.2-3,1.2-3.7C55.5,139.2,57.2,139.8,57.9,141.1 M63.3,138.4c0.7,1.4,0.2,3-1.2,3.7c-1.3,0.7-3,0.1-3.7-1.2
				c-0.7-1.4-0.2-3,1.2-3.7C60.9,136.5,62.6,137,63.3,138.4 M46.7,132.6c0.7,1.4,0.2,3-1.2,3.7c-1.3,0.7-3,0.2-3.7-1.2
				c-0.7-1.4-0.2-3,1.2-3.7C44.3,130.7,46,131.3,46.7,132.6 M52.1,129.9c0.7,1.4,0.2,3-1.2,3.7c-1.3,0.7-3,0.2-3.7-1.2
				c-0.7-1.4-0.2-3,1.2-3.7C49.8,128,51.4,128.5,52.1,129.9 M57.5,127.1c0.7,1.3,0.2,3-1.2,3.7c-1.3,0.7-3,0.1-3.7-1.2
				c-0.7-1.4-0.2-3,1.2-3.7C55.2,125.2,56.8,125.7,57.5,127.1 M38.3,129.8c0.7,1.4,0.2,3-1.2,3.7c-1.3,0.7-3,0.1-3.7-1.2
				c-0.7-1.4-0.2-3,1.2-3.7C36,127.9,37.7,128.4,38.3,129.8 M43.8,127c0.7,1.4,0.2,3-1.2,3.7c-1.3,0.7-3,0.1-3.7-1.2
				c-0.7-1.4-0.2-3,1.2-3.7C41.4,125.1,43.1,125.6,43.8,127 M49.2,124.2c0.7,1.4,0.2,3-1.2,3.7c-1.3,0.7-3,0.1-3.7-1.2
				c-0.7-1.3-0.2-3,1.2-3.7C46.9,122.3,48.5,122.9,49.2,124.2 M49.5,138.3c0.7,1.4,0.2,3-1.2,3.7c-1.3,0.7-3,0.1-3.7-1.2
				c-0.7-1.4-0.2-3,1.2-3.7C47.2,136.4,48.8,136.9,49.5,138.3 M55,135.5c0.7,1.4,0.2,3-1.2,3.7c-1.3,0.7-3,0.2-3.7-1.2
				c-0.7-1.4-0.2-3,1.2-3.7C52.6,133.6,54.3,134.1,55,135.5 M60.4,132.7c0.7,1.4,0.2,3-1.2,3.7c-1.3,0.7-3,0.1-3.7-1.2
				c-0.7-1.4-0.2-3,1.2-3.7C58.1,130.8,59.7,131.4,60.4,132.7 M62.1,121.5c0,0,1.6,3.3,1.1,4.9c-0.2,0.7-0.7,1.3-1.4,1.6
				c-0.7,0.3-1.4,0.4-2.1,0.2c-0.7-0.2-1.3-0.7-1.6-1.4s-0.4-1.4-0.2-2.1c0.2-0.7,0.7-1.2,1.4-1.6C61.1,122,62.1,121.5,62.1,121.5
				 M53.7,118.6c0,0,1.6,3.3,1.1,4.9c-0.2,0.7-0.7,1.2-1.4,1.6c-0.7,0.3-1.4,0.4-2.1,0.2c-0.7-0.2-1.2-0.7-1.6-1.4
				c-0.3-0.7-0.4-1.4-0.2-2.1c0.2-0.7,0.7-1.2,1.4-1.6C52.8,119.1,53.7,118.6,53.7,118.6 M34.6,121.3c0,0,1.6,3.3,1.1,4.9
				c-0.2,0.7-0.7,1.2-1.4,1.6c-0.7,0.3-1.4,0.4-2.1,0.2c-0.7-0.2-1.2-0.7-1.6-1.4c-0.3-0.7-0.4-1.4-0.2-2.1c0.2-0.7,0.7-1.2,1.4-1.6
				C33.6,121.8,34.6,121.3,34.6,121.3 M90,19.8c0.7,1.4,0.1,3-1.3,3.7c-1.4,0.7-3,0.1-3.7-1.3c-0.7-1.4-0.1-3,1.3-3.7
				C87.7,17.9,89.3,18.4,90,19.8 M95.5,17.1c0.7,1.4,0.1,3-1.3,3.7c-1.4,0.7-3,0.1-3.7-1.3s-0.1-3,1.3-3.7
				C93.2,15.2,94.8,15.8,95.5,17.1 M87.3,14.2c0.7,1.4,0.1,3-1.3,3.7c-1.4,0.7-3,0.1-3.7-1.3c-0.7-1.4-0.1-3,1.3-3.7
				C85,12.2,86.6,12.8,87.3,14.2 M92.8,11.5c0.7,1.4,0.1,3-1.3,3.7c-1.4,0.7-3,0.1-3.7-1.3s-0.1-3,1.3-3.7
				C90.5,9.6,92.1,10.1,92.8,11.5 M98.2,8.8c0.7,1.4,0.1,3-1.3,3.7c-1.4,0.7-3,0.1-3.7-1.3c-0.7-1.4-0.1-3,1.3-3.7
				C95.9,6.9,97.6,7.5,98.2,8.8 M103.6,20.2c0.7,1.4,0.1,3-1.3,3.7c-1.4,0.7-3,0.1-3.7-1.3c-0.7-1.4-0.1-3,1.3-3.7
				C101.3,18.3,102.9,18.8,103.6,20.2 M109.1,17.5c0.7,1.4,0.1,3-1.3,3.7c-1.4,0.7-3,0.1-3.7-1.3c-0.7-1.4-0.1-3,1.3-3.7
				C106.8,15.6,108.4,16.2,109.1,17.5 M114.5,14.9c0.7,1.4,0.1,3-1.3,3.7c-1.4,0.7-3,0.1-3.7-1.3c-0.7-1.4-0.1-3,1.3-3.7
				C112.2,12.9,113.8,13.5,114.5,14.9 M100.7,14.6c0.7,1.4,0.1,3-1.3,3.7c-1.4,0.7-3,0.1-3.7-1.3c-0.7-1.4-0.1-3,1.3-3.7
				C98.4,12.6,100,13.2,100.7,14.6 M106.1,11.9c0.7,1.4,0.1,3-1.3,3.7c-1.4,0.7-3,0.1-3.7-1.3c-0.7-1.4-0.1-3,1.3-3.7
				S105.5,10.5,106.1,11.9 M44.9,51.8c0,0-1.6-3.3-1-5c0.2-0.7,0.7-1.2,1.4-1.6c0.7-0.3,1.4-0.3,2.1-0.1c0.7,0.2,1.2,0.7,1.6,1.4
				c0.3,0.7,0.4,1.4,0.1,2.1c-0.2,0.7-0.7,1.2-1.4,1.6C45.8,51.3,44.9,51.8,44.9,51.8 M59.8,13.1c0.7,1.4,0.1,3-1.3,3.7
				c-1.4,0.7-3,0.1-3.7-1.3c-0.7-1.4-0.1-3,1.3-3.7C57.5,11.2,59.1,11.8,59.8,13.1 M54.3,15.8c0.7,1.4,0.1,3-1.3,3.7
				c-1.4,0.7-3,0.1-3.7-1.3s-0.1-3,1.3-3.7C52,13.9,53.6,14.5,54.3,15.8 M84.5,8.1c0.7,1.4,0.1,3-1.3,3.7c-1.4,0.7-3,0.1-3.7-1.3
				c-0.7-1.4-0.1-3,1.3-3.7C82.2,6.2,83.8,6.8,84.5,8.1 M79,10.8c0.7,1.4,0.1,3-1.3,3.7s-3,0.1-3.7-1.3c-0.7-1.4-0.1-3,1.3-3.7
				C76.7,8.9,78.3,9.5,79,10.8 M73.5,13.5c0.7,1.4,0.1,3-1.3,3.7c-1.4,0.7-3,0.1-3.7-1.3c-0.7-1.4-0.1-3,1.3-3.7
				S72.8,12.1,73.5,13.5 M68,16.2c0.7,1.4,0.1,3-1.3,3.7c-1.4,0.7-3,0.1-3.7-1.3c-0.7-1.4-0.1-3,1.3-3.7
				C65.7,14.2,67.4,14.8,68,16.2 M62.5,18.8c0.7,1.4,0.1,3-1.3,3.7c-1.4,0.7-3,0.1-3.7-1.3c-0.7-1.4-0.1-3,1.3-3.7
				C60.2,16.9,61.9,17.5,62.5,18.8 M57.1,21.5c0.7,1.4,0.1,3-1.3,3.7c-1.4,0.7-3,0.1-3.7-1.3c-0.7-1.4-0.1-3,1.3-3.7
				C54.8,19.6,56.4,20.2,57.1,21.5 M40.6,29.5c0.7,1.4,0.1,3-1.3,3.7c-1.4,0.7-3,0.1-3.7-1.3c-0.7-1.4-0.1-3,1.3-3.7
				C38.3,27.6,40,28.2,40.6,29.5 M81.8,16.5c0.7,1.4,0.1,3-1.3,3.7c-1.4,0.7-3,0.1-3.7-1.3c-0.7-1.4-0.1-3,1.3-3.7
				C79.5,14.6,81.1,15.1,81.8,16.5 M76.3,19.2c0.7,1.4,0.1,3-1.3,3.7s-3,0.1-3.7-1.3c-0.7-1.4-0.1-3,1.3-3.7
				C74,17.2,75.6,17.8,76.3,19.2 M70.8,21.8c0.7,1.4,0.1,3-1.3,3.7c-1.4,0.7-3,0.1-3.7-1.3c-0.7-1.4-0.1-3,1.3-3.7
				S70.1,20.5,70.8,21.8 M65.3,24.5c0.7,1.4,0.1,3-1.3,3.7c-1.4,0.7-3,0.1-3.7-1.3c-0.7-1.4-0.1-3,1.3-3.7
				C63,22.6,64.7,23.2,65.3,24.5 M59.9,27.2c0.7,1.4,0.1,3-1.3,3.7c-1.4,0.7-3,0.1-3.7-1.3c-0.7-1.4-0.1-3,1.3-3.7
				C57.5,25.3,59.2,25.8,59.9,27.2 M54.4,29.9c0.7,1.4,0.1,3-1.3,3.7c-1.4,0.7-3,0.1-3.7-1.3c-0.7-1.4-0.1-3,1.3-3.7
				S53.7,28.5,54.4,29.9 M48.9,32.5c0.7,1.4,0.1,3-1.3,3.7c-1.4,0.7-3,0.1-3.7-1.3c-0.7-1.4-0.1-3,1.3-3.7
				C46.6,30.6,48.2,31.2,48.9,32.5 M43.4,35.2c0.7,1.4,0.1,3-1.3,3.7c-1.4,0.7-3,0.1-3.7-1.3c-0.7-1.4-0.1-3,1.3-3.7
				C41.1,33.3,42.7,33.8,43.4,35.2 M84.5,22.2c0.7,1.4,0.1,3-1.3,3.7c-1.4,0.7-3,0.1-3.7-1.3c-0.7-1.4-0.1-3,1.3-3.7
				C82.2,20.2,83.9,20.8,84.5,22.2 M79.1,24.8c0.7,1.4,0.1,3-1.3,3.7s-3,0.1-3.7-1.3s-0.1-3,1.3-3.7C76.8,22.9,78.4,23.5,79.1,24.8
				 M73.6,27.5c0.7,1.4,0.1,3-1.3,3.7c-1.4,0.7-3,0.1-3.7-1.3c-0.7-1.4-0.1-3,1.3-3.7C71.3,25.6,72.9,26.1,73.6,27.5 M57.1,35.5
				c0.7,1.4,0.1,3-1.3,3.7c-1.4,0.7-3,0.1-3.7-1.3c-0.7-1.4-0.1-3,1.3-3.7C54.8,33.6,56.4,34.2,57.1,35.5 M51.6,38.2
				c0.7,1.4,0.1,3-1.3,3.7c-1.4,0.7-3,0.1-3.7-1.3c-0.7-1.4-0.1-3,1.3-3.7C49.3,36.3,51,36.8,51.6,38.2 M46.2,40.9
				c0.7,1.4,0.1,3-1.3,3.7c-1.4,0.7-3,0.1-3.7-1.3c-0.7-1.4-0.1-3,1.3-3.7C43.9,38.9,45.5,39.5,46.2,40.9 M98.3,22.5
				c0.7,1.4,0.1,3-1.3,3.7c-1.4,0.7-3,0.1-3.7-1.3c-0.7-1.4-0.1-3,1.3-3.7C95.9,20.6,97.6,21.1,98.3,22.5 M92.8,25.2
				c0.7,1.4,0.1,3-1.3,3.7c-1.4,0.7-3,0.1-3.7-1.3c-0.7-1.4-0.1-3,1.3-3.7S92.1,23.8,92.8,25.2 M87.3,27.8c0.7,1.4,0.1,3-1.3,3.7
				c-1.4,0.7-3,0.1-3.7-1.3c-0.7-1.4-0.1-3,1.3-3.7S86.6,26.5,87.3,27.8 M81.8,30.5c0.7,1.4,0.1,3-1.3,3.7s-3,0.1-3.7-1.3
				c-0.7-1.4-0.1-3,1.3-3.7C79.5,28.6,81.2,29.1,81.8,30.5 M59.9,41.2c0.7,1.4,0.1,3-1.3,3.7c-1.4,0.7-3,0.1-3.7-1.3
				c-0.7-1.4-0.1-3,1.3-3.7S59.2,39.8,59.9,41.2 M54.4,43.9c0.7,1.4,0.1,3-1.3,3.7c-1.4,0.7-3,0.1-3.7-1.3c-0.7-1.4-0.1-3,1.3-3.7
				C52.1,41.9,53.8,42.5,54.4,43.9 M61.6,9.2c1.3-0.7,2.1-1.2,2.5-1.4l0.3-0.2c0.4-0.2,1.3-0.5,2.7-1.1c0.7-0.3,1.4-0.3,2.1-0.1
				s1.2,0.7,1.6,1.4s0.4,1.4,0.1,2.1c-0.2,0.7-0.7,1.2-1.4,1.6c-0.7,0.3-1.4,0.4-2.1,0.1c-0.8-0.3-1.7-1.3-2.3-2.2
				c0.3,1.1,0.6,2.4,0.3,3.2c-0.2,0.7-0.7,1.2-1.4,1.6s-1.4,0.4-2.1,0.1s-1.2-0.7-1.6-1.4c-0.3-0.7-0.3-1.4-0.1-2.1
				C60.4,10.1,60.9,9.6,61.6,9.2 M66.8,33.9c-1.2,0.7-2.1,1.2-2.5,1.4l-0.3,0.2c-0.4,0.2-1.3,0.5-2.7,1.1c-0.7,0.3-1.4,0.3-2.1,0.1
				c-0.7-0.2-1.2-0.7-1.6-1.4c-0.3-0.7-0.4-1.4-0.1-2.1c0.2-0.7,0.7-1.2,1.4-1.6c0.7-0.3,1.4-0.4,2.1-0.1c0.8,0.3,1.7,1.3,2.3,2.3
				c-0.3-1.1-0.6-2.4-0.3-3.2c0.2-0.7,0.7-1.2,1.4-1.6c0.7-0.3,1.4-0.4,2.1-0.1c0.7,0.2,1.2,0.7,1.6,1.4c0.3,0.7,0.3,1.4,0.1,2.1
				C68,32.9,67.5,33.5,66.8,33.9 M90.3,63.7c-0.6-1.4,0.1-3,1.5-3.6c1.4-0.6,3,0.1,3.6,1.5c0.6,1.4-0.1,3-1.5,3.6
				C92.5,65.7,90.9,65,90.3,63.7 M111.6,116.4c-0.6-1.4,0.1-3,1.5-3.6c1.4-0.6,3,0.1,3.6,1.5c0.6,1.4-0.1,3-1.5,3.6
				C113.8,118.5,112.2,117.8,111.6,116.4 M57.4,80.3c0,0,3.4-1.3,5-0.7c0.6,0.3,1.2,0.8,1.5,1.5c0.3,0.7,0.2,1.5,0,2.1
				c-0.3,0.6-0.8,1.2-1.5,1.5c-0.7,0.3-1.5,0.3-2.1,0c-0.7-0.3-1.1-0.8-1.5-1.5C57.8,81.3,57.4,80.3,57.4,80.3 M117.6,123.8
				c-1.9,0.9-2.9,1.4-2.9,1.4s-1.3-3.4-0.7-5c0.3-0.7,0.8-1.2,1.5-1.5c0.7-0.3,1.4-0.3,2.1,0c0.6,0.3,1.2,0.8,1.5,1.5
				c0.3,0.7,0.3,1.5,0,2.1C118.8,123,118.2,123.5,117.6,123.8 M130.2,57.3c-1.3,0.6-2.2,1-2.6,1.2l-0.3,0.1
				c-0.4,0.1-1.4,0.4-2.8,0.9c-0.7,0.2-1.5,0.2-2.1,0s-1.2-0.8-1.5-1.5c-0.3-0.7-0.2-1.5,0-2.1c0.3-0.6,0.8-1.2,1.5-1.5
				c0.7-0.3,1.4-0.2,2.1,0c0.8,0.3,1.6,1.4,2.2,2.4c-0.3-1.1-0.5-2.4-0.1-3.2c0.3-0.6,0.8-1.2,1.5-1.5c0.7-0.3,1.5-0.2,2.1,0
				c0.6,0.3,1.2,0.8,1.5,1.5c0.3,0.7,0.3,1.5,0,2.1C131.4,56.5,130.8,57,130.2,57.3 M111.5,34.6c-0.6-1.4,0.1-3,1.5-3.6
				c1.4-0.6,3,0.1,3.6,1.5c0.6,1.4-0.1,3-1.5,3.6S112,36,111.5,34.6 M105.8,36.9c-0.6-1.4,0.1-3,1.5-3.6c1.4-0.6,3,0.1,3.6,1.5
				c0.6,1.4-0.1,3-1.5,3.6C108,39,106.4,38.3,105.8,36.9 M100.2,39.2c-0.6-1.4,0.1-3,1.5-3.6c1.4-0.6,3,0.1,3.6,1.5
				c0.6,1.4-0.1,3-1.5,3.6C102.3,41.3,100.7,40.6,100.2,39.2 M94.5,41.5c-0.6-1.4,0.1-3,1.5-3.6c1.4-0.6,3,0.1,3.6,1.5
				c0.6,1.4-0.1,3-1.5,3.6C96.7,43.6,95.1,42.9,94.5,41.5 M119.5,38.2c-0.6-1.4,0.1-3,1.5-3.6c1.4-0.6,3,0.1,3.6,1.5
				c0.6,1.4-0.1,3-1.5,3.6C121.7,40.3,120.1,39.6,119.5,38.2 M113.8,40.5c-0.6-1.4,0.1-3,1.5-3.6c1.4-0.6,3,0.1,3.6,1.5
				c0.6,1.4-0.1,3-1.5,3.6C116,42.6,114.4,41.9,113.8,40.5 M108.2,42.8c-0.6-1.4,0.1-3,1.5-3.6c1.4-0.6,3,0.1,3.6,1.5
				s-0.1,3-1.5,3.6C110.3,44.9,108.7,44.2,108.2,42.8 M133.2,39.5c-0.6-1.4,0.1-3,1.5-3.6c1.4-0.6,3,0.1,3.6,1.5
				c0.6,1.4-0.1,3-1.5,3.6C135.3,41.6,133.7,40.9,133.2,39.5 M127.5,41.8c-0.6-1.4,0.1-3,1.5-3.6c1.4-0.6,3,0.1,3.6,1.5
				c0.6,1.4-0.1,3-1.5,3.6S128.1,43.2,127.5,41.8 M121.8,44.1c-0.6-1.4,0.1-3,1.5-3.6c1.4-0.6,3,0.1,3.6,1.5c0.6,1.4-0.1,3-1.5,3.6
				C124,46.2,122.4,45.5,121.8,44.1 M116.2,46.4c-0.6-1.4,0.1-3,1.5-3.6c1.4-0.6,3,0.1,3.6,1.5c0.6,1.4-0.1,3-1.5,3.6
				C118.4,48.5,116.8,47.8,116.2,46.4 M110.5,48.7c-0.6-1.4,0.1-3,1.5-3.6c1.4-0.6,3,0.1,3.6,1.5c0.6,1.4-0.1,3-1.5,3.6
				C112.7,50.7,111.1,50.1,110.5,48.7 M87.9,57.8c-0.6-1.4,0.1-3,1.5-3.6c1.4-0.6,3,0.1,3.6,1.5c0.6,1.4-0.1,3-1.5,3.6
				C90.1,59.9,88.5,59.2,87.9,57.8 M82.2,60.1c-0.6-1.4,0.1-3,1.5-3.6c1.4-0.6,3,0.1,3.6,1.5c0.6,1.4-0.1,3-1.5,3.6
				C84.4,62.2,82.8,61.5,82.2,60.1 M76.6,62.4c-0.6-1.4,0.1-3,1.5-3.6c1.4-0.6,3,0.1,3.6,1.5c0.6,1.4-0.1,3-1.5,3.6
				C78.8,64.5,77.2,63.8,76.6,62.4 M70.9,64.7c-0.6-1.4,0.1-3,1.5-3.6c1.4-0.6,3,0.1,3.6,1.5c0.6,1.4-0.1,3-1.5,3.6
				C73.1,66.7,71.5,66.1,70.9,64.7 M65.3,66.9c-0.6-1.4,0.1-3,1.5-3.6c1.4-0.6,3,0.1,3.6,1.5c0.6,1.4-0.1,3-1.5,3.6
				C67.5,69,65.9,68.3,65.3,66.9 M135.5,45.4c-0.6-1.4,0.1-3,1.5-3.6c1.4-0.6,3,0.1,3.6,1.5s-0.1,3-1.5,3.6
				C137.7,47.5,136.1,46.8,135.5,45.4 M129.9,47.7c-0.6-1.4,0.1-3,1.5-3.6c1.4-0.6,3,0.1,3.6,1.5c0.6,1.4-0.1,3-1.5,3.6
				C132,49.8,130.4,49.1,129.9,47.7 M124.2,50c-0.6-1.4,0.1-3,1.5-3.6c1.4-0.6,3,0.1,3.6,1.5c0.6,1.4-0.1,3-1.5,3.6
				C126.4,52,124.8,51.4,124.2,50 M118.5,52.2c-0.6-1.4,0.1-3,1.5-3.6c1.4-0.6,3,0.1,3.6,1.5c0.6,1.4-0.1,3-1.5,3.6
				C120.7,54.3,119.1,53.6,118.5,52.2 M112.9,54.5c-0.6-1.4,0.1-3,1.5-3.6c1.4-0.6,3,0.1,3.6,1.5c0.6,1.4-0.1,3-1.5,3.6
				C115.1,56.6,113.5,55.9,112.9,54.5 M107.2,56.8c-0.6-1.4,0.1-3,1.5-3.6c1.4-0.6,3,0.1,3.6,1.5c0.6,1.4-0.1,3-1.5,3.6
				C109.4,58.9,107.8,58.2,107.2,56.8 M101.6,59.1c-0.6-1.4,0.1-3,1.5-3.6c1.4-0.6,3,0.1,3.6,1.5s-0.1,3-1.5,3.6
				C103.8,61.2,102.2,60.5,101.6,59.1 M95.9,61.4c-0.6-1.4,0.1-3,1.5-3.6c1.4-0.6,3,0.1,3.6,1.5s-0.1,3-1.5,3.6
				C98.1,63.5,96.5,62.8,95.9,61.4 M84.6,65.9c-0.6-1.4,0.1-3,1.5-3.6c1.4-0.6,3,0.1,3.6,1.5c0.6,1.4-0.1,3-1.5,3.6
				C86.8,68,85.2,67.3,84.6,65.9 M79,68.2c-0.6-1.4,0.1-3,1.5-3.6c1.4-0.6,3,0.1,3.6,1.5c0.6,1.4-0.1,3-1.5,3.6
				C81.1,70.3,79.6,69.6,79,68.2 M73.3,70.5c-0.6-1.4,0.1-3,1.5-3.6c1.4-0.6,3,0.1,3.6,1.5c0.6,1.4-0.1,3-1.5,3.6
				S73.9,71.9,73.3,70.5 M67.7,72.8c-0.6-1.4,0.1-3,1.5-3.6c1.4-0.6,3,0.1,3.6,1.5c0.6,1.4-0.1,3-1.5,3.6
				C69.8,74.9,68.2,74.2,67.7,72.8 M62,75.1c-0.6-1.4,0.1-3,1.5-3.6c1.4-0.6,3,0.1,3.6,1.5c0.6,1.4-0.1,3-1.5,3.6
				C64.2,77.2,62.6,76.5,62,75.1 M117.6,66.3c-0.6-1.4,0.1-3,1.5-3.6c1.4-0.6,3,0.1,3.6,1.5c0.6,1.4-0.1,3-1.5,3.6
				C119.8,68.4,118.2,67.7,117.6,66.3 M112,68.6c-0.6-1.4,0.1-3,1.5-3.6c1.4-0.6,3,0.1,3.6,1.5c0.6,1.4-0.1,3-1.5,3.6
				C114.2,70.7,112.5,70,112,68.6 M106.3,70.9c-0.6-1.4,0.1-3,1.5-3.6c1.4-0.6,3,0.1,3.6,1.5s-0.1,3-1.5,3.6
				C108.5,72.9,106.9,72.3,106.3,70.9 M100.7,73.1c-0.6-1.4,0.1-3,1.5-3.6c1.4-0.6,3,0.1,3.6,1.5c0.6,1.4-0.1,3-1.5,3.6
				C102.8,75.2,101.2,74.5,100.7,73.1 M95,75.4c-0.6-1.4,0.1-3,1.5-3.6c1.4-0.6,3,0.1,3.6,1.5c0.6,1.4-0.1,3-1.5,3.6
				C97.2,77.5,95.6,76.8,95,75.4 M89.4,77.7c-0.6-1.4,0.1-3,1.5-3.6c1.4-0.6,3,0.1,3.6,1.5c0.6,1.4-0.1,3-1.5,3.6
				C91.5,79.8,89.9,79.1,89.4,77.7 M83.7,80c-0.6-1.4,0.1-3,1.5-3.6c1.4-0.6,3,0.1,3.6,1.5c0.6,1.4-0.1,3-1.5,3.6
				C85.9,82.1,84.3,81.4,83.7,80 M78.1,82.3c-0.6-1.4,0.1-3,1.5-3.6c1.4-0.6,3,0.1,3.6,1.5c0.6,1.4-0.1,3-1.5,3.6
				C80.2,84.4,78.6,83.7,78.1,82.3 M72.4,84.5c-0.6-1.4,0.1-3,1.5-3.6c1.4-0.6,3,0.1,3.6,1.5c0.6,1.4-0.1,3-1.5,3.6
				C74.6,86.6,73,85.9,72.4,84.5 M66.7,86.8c-0.6-1.4,0.1-3,1.5-3.6c1.4-0.6,3,0.1,3.6,1.5c0.6,1.4-0.1,3-1.5,3.6
				C68.9,88.9,67.3,88.2,66.7,86.8 M120,72.1c-0.6-1.4,0.1-3,1.5-3.6c1.4-0.6,3,0.1,3.6,1.5c0.6,1.4-0.1,3-1.5,3.6
				C122.2,74.2,120.6,73.6,120,72.1 M114.4,74.4c-0.6-1.4,0.1-3,1.5-3.6c1.4-0.6,3,0.1,3.6,1.5c0.6,1.4-0.1,3-1.5,3.6
				C116.5,76.5,114.9,75.8,114.4,74.4 M108.7,76.7c-0.6-1.4,0.1-3,1.5-3.6c1.4-0.6,3,0.1,3.6,1.5c0.6,1.4-0.1,3.1-1.5,3.6
				C110.9,78.8,109.3,78.1,108.7,76.7 M103.1,79c-0.6-1.4,0.1-3.1,1.5-3.6c1.4-0.6,3,0.1,3.6,1.5c0.6,1.4-0.1,3.1-1.5,3.6
				C105.3,81.1,103.7,80.4,103.1,79 M97.4,81.3c-0.6-1.4,0.1-3,1.5-3.6s3,0.1,3.6,1.5c0.6,1.4-0.1,3-1.5,3.6
				C99.6,83.4,98,82.7,97.4,81.3 M91.7,83.6c-0.6-1.4,0.1-3,1.5-3.6c1.4-0.6,3.1,0.2,3.6,1.6s-0.2,2.9-1.6,3.5
				C93.9,85.6,92.3,85,91.7,83.6 M86.1,85.8c-0.6-1.4,0.1-3,1.5-3.6c1.4-0.6,3,0.1,3.6,1.5c0.6,1.4-0.1,3-1.5,3.6
				C88.2,87.9,86.6,87.3,86.1,85.8 M80.4,88.1c-0.6-1.4,0.1-3,1.5-3.6c1.4-0.6,3,0.1,3.6,1.5c0.6,1.4-0.1,3-1.5,3.6
				C82.6,90.2,81,89.6,80.4,88.1 M74.8,90.4c-0.6-1.4,0.1-3,1.5-3.6c1.4-0.6,3,0.1,3.6,1.5c0.6,1.4-0.1,3-1.5,3.6
				C76.9,92.5,75.3,91.8,74.8,90.4 M133.7,73.5c-0.6-1.4,0.1-3,1.5-3.6c1.4-0.6,3,0.1,3.6,1.5c0.6,1.4-0.1,3-1.5,3.6
				C135.8,75.5,134.2,74.9,133.7,73.5 M128,75.7c-0.6-1.4,0.1-3,1.5-3.6c1.4-0.6,3,0.1,3.6,1.5c0.6,1.4-0.1,3-1.5,3.6
				C130.2,77.8,128.6,77.1,128,75.7 M122.4,78.1c-0.6-1.4,0.1-3.1,1.5-3.6s3,0.1,3.6,1.5c0.6,1.4-0.1,3.1-1.5,3.6
				C124.6,80.1,123,79.5,122.4,78.1 M116.8,80.4c-0.6-1.4,0.1-3.1,1.5-3.6c1.4-0.6,3.1,0.2,3.6,1.6c0.6,1.4-0.1,3-1.5,3.6
				C118.9,82.4,117.3,81.8,116.8,80.4 M111.1,82.6c-0.6-1.4,0.1-3,1.5-3.6c1.4-0.6,3,0.1,3.6,1.5c0.6,1.4-0.1,3-1.5,3.6
				C113.3,84.7,111.7,84,111.1,82.6 M105.4,84.9c-0.6-1.4,0.1-3,1.5-3.6c1.4-0.6,3,0.1,3.6,1.5s-0.1,3-1.5,3.6
				C107.6,87,106,86.3,105.4,84.9 M99.8,87.2c-0.6-1.4,0.1-3,1.5-3.6c1.4-0.6,3,0.1,3.6,1.5c0.6,1.4-0.1,3-1.5,3.6
				C102,89.3,100.4,88.6,99.8,87.2 M94.1,89.4c-0.6-1.4,0.2-2.9,1.6-3.5c1.4-0.6,3,0.1,3.6,1.5c0.6,1.4-0.1,3-1.5,3.6
				C96.3,91.6,94.6,90.8,94.1,89.4 M130.4,81.6c-0.6-1.4,0.1-3,1.5-3.6c1.4-0.6,2.9,0.1,3.5,1.5c0.6,1.4-0.1,3.1-1.5,3.6
				C132.6,83.7,131,83.1,130.4,81.6 M124.7,83.9c-0.6-1.4,0.1-3,1.5-3.6c1.4-0.6,3,0.1,3.6,1.5c0.6,1.4-0.1,3-1.5,3.6
				C126.9,86,125.3,85.3,124.7,83.9 M113.4,88.5c-0.6-1.4,0.1-3,1.5-3.6c1.4-0.6,3,0.1,3.6,1.5c0.6,1.4-0.1,3-1.5,3.6
				C115.6,90.6,114,89.9,113.4,88.5 M107.8,90.8c-0.6-1.4,0.1-3,1.5-3.6c1.4-0.6,3,0.1,3.6,1.5c0.6,1.4-0.1,3-1.5,3.6
				C109.9,92.9,108.3,92.2,107.8,90.8 M102.1,93.1c-0.6-1.4,0.1-3,1.5-3.6s3,0.1,3.6,1.5c0.6,1.4-0.1,3-1.5,3.6
				C104.3,95.2,102.7,94.5,102.1,93.1 M132.7,87.5c-0.6-1.4,0.1-3,1.5-3.6c1.4-0.6,3,0.1,3.6,1.5c0.6,1.4-0.1,3-1.5,3.6
				C134.9,89.6,133.3,88.9,132.7,87.5 M127.1,89.8c-0.6-1.4,0.1-3,1.5-3.6c1.4-0.6,3,0.1,3.6,1.5c0.6,1.4-0.1,3-1.5,3.6
				C129.3,91.9,127.7,91.2,127.1,89.8 M121.4,92.1c-0.6-1.4,0.1-3,1.5-3.6c1.4-0.6,3,0.1,3.6,1.5c0.6,1.4-0.1,3-1.5,3.6
				C123.6,94.2,122,93.5,121.4,92.1 M115.8,94.4c-0.6-1.4,0.1-3,1.5-3.6c1.4-0.6,3,0.1,3.6,1.5c0.6,1.4-0.2,2.9-1.6,3.5
				C117.9,96.4,116.4,95.8,115.8,94.4 M110.1,96.6c-0.6-1.4,0.2-2.9,1.6-3.5c1.4-0.6,3,0.1,3.6,1.5c0.6,1.4-0.2,3-1.6,3.5
				C112.3,98.7,110.7,98,110.1,96.6 M104.4,98.9c-0.6-1.4,0.1-3,1.5-3.6c1.4-0.6,3,0.1,3.6,1.5c0.6,1.4-0.1,3-1.5,3.6
				C106.6,101,105,100.3,104.4,98.9 M135.1,93.4c-0.6-1.4,0.1-3,1.5-3.6c1.4-0.6,3,0.1,3.6,1.5c0.6,1.4-0.1,3-1.5,3.6
				C137.3,95.4,135.6,94.8,135.1,93.4 M129.4,95.6c-0.6-1.4,0.2-2.9,1.6-3.5c1.4-0.6,3,0.1,3.6,1.5c0.6,1.4-0.2,2.9-1.6,3.5
				C131.6,97.7,130,97,129.4,95.6 M123.8,97.9c-0.6-1.4,0.2-3,1.6-3.5c1.4-0.6,2.9,0.1,3.5,1.5c0.6,1.4-0.1,3-1.5,3.6
				C125.9,100,124.3,99.3,123.8,97.9 M118.1,100.2c-0.6-1.4,0.1-3,1.5-3.6c1.4-0.6,3,0.1,3.6,1.5c0.6,1.4-0.1,3-1.5,3.6
				C120.3,102.3,118.7,101.6,118.1,100.2 M112.5,102.5c-0.6-1.4,0.1-3,1.5-3.6c1.4-0.6,3,0.1,3.6,1.5c0.6,1.4-0.1,3-1.5,3.6
				C114.6,104.6,113,103.9,112.5,102.5 M106.8,104.7c-0.6-1.4,0.1-3,1.5-3.6c1.4-0.6,3,0.1,3.6,1.5c0.6,1.4-0.1,3-1.5,3.6
				C109,106.8,107.4,106.2,106.8,104.7 M131.8,101.5c-0.6-1.4,0.1-3,1.5-3.6c1.4-0.6,3,0.1,3.6,1.5c0.6,1.4-0.1,3-1.5,3.6
				C133.9,103.6,132.3,102.9,131.8,101.5 M126.1,103.8c-0.6-1.4,0.1-3,1.5-3.6s3,0.1,3.6,1.5c0.6,1.4-0.1,3-1.5,3.6
				C128.3,105.9,126.7,105.2,126.1,103.8 M120.5,106.1c-0.6-1.4,0.1-3,1.5-3.6c1.4-0.6,3,0.1,3.6,1.5c0.6,1.4-0.1,3-1.5,3.6
				C122.6,108.1,121,107.5,120.5,106.1 M114.8,108.3c-0.6-1.4,0.1-3,1.5-3.6c1.4-0.6,3,0.1,3.6,1.5c0.6,1.4-0.1,3-1.5,3.6
				C117,110.4,115.4,109.8,114.8,108.3 M109.2,110.6c-0.6-1.4,0.1-3,1.5-3.6c1.4-0.6,3,0.1,3.6,1.5c0.6,1.4-0.1,3-1.5,3.6
				C111.3,112.7,109.7,112,109.2,110.6 M134.1,107.4c-0.6-1.4,0.1-3,1.5-3.6c1.4-0.6,3,0.1,3.6,1.5c0.6,1.4-0.1,3-1.5,3.6
				C136.3,109.4,134.7,108.8,134.1,107.4 M128.5,109.6c-0.6-1.4,0.1-3,1.5-3.6s3,0.1,3.6,1.5c0.6,1.4-0.1,3-1.5,3.6
				C130.7,111.7,129.1,111.1,128.5,109.6 M122.8,111.9c-0.6-1.4,0.1-3,1.5-3.6c1.4-0.6,3,0.1,3.6,1.5c0.6,1.4-0.1,3-1.5,3.6
				C125,114,123.4,113.3,122.8,111.9 M117.2,114.2c-0.6-1.4,0.1-3,1.5-3.6c1.4-0.6,3,0.1,3.6,1.5c0.6,1.4-0.1,3-1.5,3.6
				C119.3,116.3,117.7,115.6,117.2,114.2 M130.8,115.5c-0.6-1.4,0.1-3,1.5-3.6c1.4-0.6,3,0.1,3.6,1.5c0.6,1.4-0.1,3-1.5,3.6
				S131.4,116.9,130.8,115.5 M125.2,117.8c-0.6-1.4,0.1-3,1.5-3.6c1.4-0.6,3,0.1,3.6,1.5c0.6,1.4-0.1,3-1.5,3.6
				S125.7,119.2,125.2,117.8 M119.5,120.1c-0.6-1.4,0.1-3,1.5-3.6c1.4-0.6,3,0.1,3.6,1.5c0.6,1.4-0.1,3-1.5,3.6
				C121.7,122.2,120.1,121.5,119.5,120.1 M127.5,123.7c-0.6-1.4,0.1-3,1.5-3.6s3,0.1,3.6,1.5c0.6,1.4-0.1,3-1.5,3.6
				C129.7,125.7,128.1,125.1,127.5,123.7 M121.9,125.9c-0.6-1.4,0.1-3,1.5-3.6c1.4-0.6,3,0.1,3.6,1.5c0.6,1.4-0.1,3-1.5,3.6
				C124.1,128,122.5,127.4,121.9,125.9 M137.8,51.3c-0.6-1.4,0.1-3,1.5-3.6c1.4-0.6,3,0.1,3.6,1.5c0.6,1.4-0.1,3-1.5,3.6
				C139.9,53.4,138.3,52.7,137.8,51.3 M132.1,53.6c-0.6-1.4,0.1-3,1.5-3.6c1.4-0.6,3,0.1,3.6,1.5c0.6,1.4-0.1,3-1.5,3.6
				C134.3,55.7,132.7,55,132.1,53.6 M115.1,60.4c-0.6-1.4,0.1-3,1.5-3.6c1.4-0.6,3,0.1,3.6,1.5c0.6,1.4-0.1,3-1.5,3.6
				S115.7,61.8,115.1,60.4 M109.5,62.7c-0.6-1.4,0.1-3,1.5-3.6c1.4-0.6,3,0.1,3.6,1.5c0.6,1.4-0.1,3-1.5,3.6
				C111.7,64.8,110.1,64.1,109.5,62.7 M103.8,65c-0.6-1.4,0.1-3,1.5-3.6c1.4-0.6,3,0.1,3.6,1.5c0.6,1.4-0.1,3-1.5,3.6
				C106,67.1,104.4,66.4,103.8,65 M98.2,67.3c-0.6-1.4,0.1-3,1.5-3.6c1.4-0.6,3,0.1,3.6,1.5c0.6,1.4-0.1,3-1.5,3.6
				S98.8,68.7,98.2,67.3 M92.5,69.6c-0.6-1.4,0.1-3,1.5-3.6c1.4-0.6,3,0.1,3.6,1.5c0.6,1.4-0.1,3-1.5,3.6
				C94.7,71.6,93.1,71,92.5,69.6 M86.9,71.8c-0.6-1.4,0.1-3,1.5-3.6c1.4-0.6,3,0.1,3.6,1.5c0.6,1.4-0.1,3-1.5,3.6
				C89,73.9,87.5,73.2,86.9,71.8 M81.2,74.1c-0.6-1.4,0.1-3,1.5-3.6c1.4-0.6,3,0.1,3.6,1.5c0.6,1.4-0.1,3-1.5,3.6
				S81.8,75.5,81.2,74.1 M75.6,76.4c-0.6-1.4,0.1-3,1.5-3.6c1.4-0.6,3,0.1,3.6,1.5c0.6,1.4-0.1,3-1.5,3.6
				C77.7,78.5,76.1,77.8,75.6,76.4 M69.9,78.7c-0.6-1.4,0.1-3,1.5-3.6c1.4-0.6,3,0.1,3.6,1.5c0.6,1.4-0.1,3-1.5,3.6
				C72.1,80.8,70.5,80.1,69.9,78.7 M64.3,81c-0.6-1.4,0.1-3,1.5-3.6c1.4-0.6,3,0.1,3.6,1.5c0.6,1.4-0.1,3-1.5,3.6
				C66.4,83.1,64.8,82.4,64.3,81 M61.6,92c0,0-1.3-3.4-0.6-5c0.3-0.6,0.8-1.2,1.5-1.5c0.7-0.3,1.5-0.2,2.1,0
				c0.7,0.3,1.2,0.8,1.5,1.5c0.3,0.7,0.3,1.5,0,2.1c-0.3,0.7-0.8,1.1-1.5,1.5C62.6,91.6,61.6,92,61.6,92 M69.7,95.6
				c0,0-1.3-3.4-0.7-5c0.3-0.6,0.8-1.2,1.5-1.5c0.7-0.3,1.5-0.3,2.1,0c0.7,0.3,1.2,0.8,1.5,1.5c0.3,0.7,0.2,1.5,0,2.1
				c-0.3,0.6-0.8,1.1-1.5,1.5C70.7,95.2,69.7,95.6,69.7,95.6 M89,94.6c0,0-1.3-3.4-0.7-5c0.3-0.7,0.8-1.2,1.5-1.5
				c0.7-0.3,1.5-0.2,2.1,0c0.7,0.3,1.2,0.8,1.5,1.5c0.3,0.7,0.2,1.5,0,2.1c-0.3,0.7-0.8,1.1-1.5,1.5C90,94.2,89,94.6,89,94.6
				 M97,98.2c0,0-1.3-3.4-0.6-4.9c0.3-0.7,0.8-1.2,1.5-1.5c0.7-0.3,1.5-0.2,2.1,0c0.6,0.3,1.2,0.8,1.5,1.5c0.3,0.7,0.2,1.4-0.1,2
				c-0.3,0.7-0.8,1.1-1.5,1.5C98,97.7,97,98.2,97,98.2 M92.6,46.1c0.7-0.3,1.4-0.2,2.1,0c0.8,0.3,1.5,1.3,2.1,2.2
				c-0.1-0.4-0.2-0.9-0.2-1.4c-0.1-0.6-0.1-1.2,0.2-1.7c0.2-0.6,0.7-1.1,1.3-1.4c1.2-0.8,2.6-1.4,2.6-1.4l0.4-0.2
				c0,0,1.8-0.7,3.3-0.8c0.6-0.1,1.2-0.1,1.7,0.2c0.6,0.3,1.2,0.8,1.5,1.5c0.3,0.7,0.2,1.4,0,2.1c-0.2,0.5-0.6,0.9-1.1,1.2
				c-1.1,0.9-2.6,1.6-2.9,1.7c0.4-0.1,1.4-0.4,2.9-0.9c0.7-0.2,1.5-0.2,2.1,0c0.6,0.3,1.2,0.8,1.5,1.5c0.3,0.7,0.2,1.5,0,2.1
				c-0.3,0.7-0.8,1.2-1.5,1.5s-1.4,0.2-2.1,0c-0.9-0.4-1.8-1.8-2.4-2.8c0.2,0.6,0.3,1.4,0.4,2.1c0.1,0.6,0.1,1.2-0.2,1.7
				c-0.3,0.6-0.8,1.2-1.5,1.5c-0.7,0.3-1.5,0.3-2.1,0c-0.5-0.2-0.9-0.6-1.2-1.1c-0.3-0.4-0.6-0.8-0.8-1.2c0.2,1,0.4,2.2,0.1,3
				c-0.3,0.6-0.8,1.2-1.5,1.5c-0.7,0.3-1.5,0.2-2.1,0c-0.6-0.3-1.2-0.8-1.5-1.5c-0.3-0.7-0.3-1.5,0-2.1c0.3-0.6,0.8-1.1,1.5-1.5
				l2.5-1.4l-2.8,0.7c-0.7,0.3-1.4,0.2-2.1,0c-0.8-0.3-1.6-1.4-2.2-2.4c0.1,0.5,0.2,1,0.3,1.5c0.1,0.6,0.1,1.2-0.2,1.7
				c-0.3,0.7-0.8,1.2-1.5,1.5s-1.4,0.2-2.1,0c-0.5-0.2-0.9-0.6-1.2-1c-0.3-0.4-0.7-0.9-0.9-1.4c0.1,0.5,0.2,1.1,0.3,1.7
				c0.1,0.5,0.1,1.1-0.2,1.6c-0.3,0.7-0.8,1.2-1.5,1.5c-0.7,0.3-1.4,0.2-2.1,0c-0.5-0.2-1-0.6-1.3-1.1c-0.3-0.4-0.6-0.9-0.9-1.3
				c0.1,0.5,0.2,1.1,0.3,1.6c0.1,0.6,0.1,1.1-0.2,1.6c-0.3,0.7-0.8,1.2-1.5,1.5c-0.7,0.3-1.5,0.3-2.1,0c-0.5-0.2-1-0.6-1.3-1.1
				c-0.4-0.5-0.7-1-1-1.5c0.2,0.5,0.3,1.2,0.3,1.8c0.1,0.5,0,1.1-0.2,1.6c-0.3,0.7-0.8,1.2-1.5,1.5c-0.7,0.3-1.5,0.2-2.1,0
				c-0.5-0.2-1-0.6-1.3-1.1c-0.6-0.8-1.1-1.7-1.4-2.3l0.7,2.2c0.2,0.7,0.3,1.5,0,2.1c-0.3,0.7-0.8,1.2-1.5,1.5
				c-0.7,0.3-1.5,0.3-2.1,0c-0.7-0.3-1.2-0.8-1.5-1.5c-0.3-0.7-0.2-1.5,0-2.1c0.6-1.4,3.4-2.9,3.9-3.1L64,56.7
				c-0.7,0.2-1.5,0.2-2.1,0c-0.6-0.3-1.2-0.8-1.5-1.5s-0.2-1.5,0-2.1c0.3-0.7,0.8-1.2,1.5-1.5c0.7-0.3,1.5-0.2,2.1,0
				c0.8,0.3,1.6,1.4,2.1,2.3c-0.1-0.5-0.2-1-0.2-1.5c-0.1-0.6-0.1-1.2,0.2-1.7c0.3-0.6,0.8-1.2,1.5-1.5c0.7-0.3,1.4-0.2,2.1,0
				c0.5,0.2,0.9,0.6,1.2,1c0.4,0.5,0.7,1,1,1.5c-0.1-0.5-0.2-1.1-0.3-1.7c-0.1-0.6-0.1-1.2,0.2-1.7c0.1-0.2,0.2-0.4,0.3-0.5
				c0.1-0.2,0.2-0.3,0.4-0.4c0.1-0.1,0.2-0.2,0.3-0.2c1.2-0.9,3-1.7,3-1.7l0.4-0.2c0,0,1.6-0.6,3.1-0.8c0.2-0.1,0.5-0.1,0.7-0.1
				c0.2,0,0.3,0,0.4,0c0.2,0,0.4,0.1,0.6,0.2c0.3,0.1,0.5,0.3,0.7,0.5c0.3,0.2,0.5,0.5,0.7,0.8c0.3,0.4,0.6,0.8,0.8,1.2
				c-0.1-0.5-0.2-1.1-0.3-1.6c-0.1-0.6-0.1-1.1,0.2-1.7c0.2-0.6,0.7-1.1,1.3-1.4c1.2-0.8,2.6-1.4,2.6-1.4l0.4-0.2
				c0,0,1.8-0.7,3.3-0.8c0.6-0.1,1.1-0.1,1.7,0.2c0.6,0.3,1.2,0.8,1.5,1.5c0.3,0.7,0.2,1.4,0,2.1c-0.2,0.5-0.6,0.9-1,1.2
				c-1.1,0.9-2.6,1.7-2.9,1.8L92.6,46.1L92.6,46.1z M119,86.2c-0.6-1.4,0.1-3,1.5-3.6c1.4-0.6,3,0.1,3.6,1.5c0.6,1.4-0.1,3-1.5,3.6
				C121.1,88.3,119.5,87.6,119,86.2 M63,44.9c-0.1,0.6,0.2,1.4,0.7,2.3c0.5,0.8,1.1,1.4,1.7,1.6c0.5,0.2,1.1,0.1,1.8-0.2
				c2.1-0.9,1.9-2.4,0.8-5.8c2.2,4.3,4.8,3.9,7.8,2.7c1.5-0.6,2.8-1.3,3.4-2.5c0.4-0.9,0.3-2.2-0.3-3.4c-0.8-1.5-2.2-2.4-3.3-2.2
				c-0.9,0.2-2,0.6-3.4,1.2c0.1-0.2,1.1-0.7,2.7-1.7c0.7-0.4,1.2-0.9,1.4-1.6c0.2-0.7,0.2-1.4-0.1-2.1c-0.3-0.7-0.9-1.2-1.6-1.4
				c-0.7-0.2-1.4-0.2-2.1,0.1c-0.7,0.3-1.2,0.9-1.4,1.6c-0.4,1.3,0.5,3.7,0.8,4.6c-2.7-4.5-4.7-3.8-7.7-2.5c-2.4,1-4.9,3-3.9,5.4
				c1.1,2.5,2.8,1.9,7,0.1C64.4,42.7,63.1,43.5,63,44.9 M53.9,53.2c-0.6-0.3-1.1-0.8-1.5-1.5c-0.4-0.8-0.5-1.6-0.3-2.2
				c0.2-0.5,0.6-0.9,1.3-1.3c1.2-0.6,2.1-0.6,2.9,0.3c0.3,0.3,0.7,0.7,0.9,1.1c0.4,0.8,0.5,1.6,0.2,2.2c-0.2,0.5-0.7,0.9-1.4,1.2
				C55.2,53.5,54.5,53.5,53.9,53.2 M9.3,100.6c-0.6-1.7-1.1-3.4-1.5-5.2c1.7,2.3,2.7,1.9,6.9,0.1c-4,2.3-5.4,3.3-4.1,5.7
				c1.3,2.4,2.8,1.8,7,0c-4,2.3-5.3,3.2-4.1,5.7s2.8,1.9,7,0c-4,2.3-5.3,3.2-4.1,5.7s2.8,1.9,7,0c-4,2.3-5.4,3.3-4.1,5.7
				c1.3,2.2,3.1,2,6.9,0.3c-0.3,0.2-1.4,0.8-2.8,1.6c-0.6,0.4-1.1,0.9-1.4,1.6c-0.2,0.6-0.2,1.2,0.1,1.8c-1-1.3-2-2.6-3-3.9
				c0-0.4-0.1-0.8-0.3-1.2c-0.3-0.6-0.8-1.1-1.4-1.3c-0.5-0.7-0.9-1.4-1.3-2.1c0.3-0.7,0.2-1.5-0.1-2.2c-0.4-0.8-1.2-1.3-2-1.4
				c-0.3-0.6-0.6-1.2-0.9-1.7c0.3-0.8,0.4-1.7,0-2.4c-0.4-0.7-1-1.2-1.7-1.4c-0.3-0.8-0.6-1.5-0.9-2.3c0.1-0.6,0.1-1.3-0.2-1.9
				C9.9,101.2,9.6,100.9,9.3,100.6 M26.2,118.4c0,0,1.6,3.3,1.1,4.9c-0.2,0.7-0.7,1.2-1.4,1.6c-0.7,0.3-1.4,0.4-2.1,0.2
				c-0.2-0.1-0.6-0.2-0.8-0.3c0.6,0.7,1.3,1.5,1.9,2.1c0.2-0.5,0.8-1,1.3-1.3c1.4-0.7,3-0.2,3.7,1.2c0.7,1.4,0.1,3.1-1.3,3.8
				c0.2,0.2,0.4,0.4,0.7,0.6c1.3-0.5,2.9,0,3.5,1.2c0.3,0.6,0.3,1.3,0.2,1.9c0.9,0.7,1.9,1.5,2.9,2.2c0-0.9,0.6-1.9,1.5-2.4
				c1.4-0.7,3-0.2,3.7,1.2c0.7,1.4,0.1,3.1-1.3,3.7l-0.1,0c0.3,0.2,0.6,0.4,0.9,0.5c1.3-0.4,2.7,0.1,3.3,1.3
				c0.1,0.2,0.2,0.5,0.2,0.7c1.2,0.6,2.3,1.2,3.5,1.7c0.2-0.3,0.5-0.6,0.9-0.7c1.3-0.7,3-0.1,3.7,1.2c0.2,0.5,0.3,1.1,0.3,1.6
				c1.1,0.4,2.1,0.8,3.2,1.1c0.2-0.4,0.6-0.8,1.1-1c1.3-0.7,3-0.1,3.7,1.2c0.2,0.4,0.3,0.8,0.3,1.3c0.3,0.1,0.5,0.1,0.8,0.2
				c-1.3-3.1-1.6-4.4,0.5-5.5c2.4-1.3,3.3,0.3,5.5,4.2c-2.4-5.4-2.3-5.8,2.8-8.8c-4.1,1.8-5.8,2.5-6.9,0.1c-1.1-2.3,0.1-3.3,3.7-5.4
				c-2.4-5.3-2.2-5.7,2.9-8.6c-5.4,2.4-5.4,2.5-8.3-2.6c-5,2.2-5.5,2.1-8.3-2.9c-5.1,2.2-5.8,1.8-8.8-3.2c1.8,4.1,2.5,5.7,0.1,6.9
				c-2.4,1.2-3.3-0.3-5.5-4.2c1.8,4.1,2.5,5.7,0.1,6.9c-2.4,1.2-3,0-5.1-3.8C29.5,123.6,29.1,123.2,26.2,118.4"/>
		</g>
	</g>
</g>
</svg>
